<svg width="292" height="108" viewBox="0 0 292 108" fill="none" xmlns="http://www.w3.org/2000/svg">
<rect x="4" y="4" width="284" height="100" fill="black" stroke="#FFA200" stroke-width="8"/>
<path d="M143 77H139V73V69V65V61V57V53H135H131H127H123H119V57V61V65V69V73V77H115H111V73V69V65V61V57V53V49V45V41V37H115H119V41V45H123H127H131H135H139V41V37H143H147V41V45V49V53V57V61V65V69V73V77H143ZM139 37H135H131H127H123H119V33V29H123H127H131H135H139V33V37ZM190.84 77H186.84H182.84H178.84H174.84H170.84H166.84H162.84V73V69H166.84H170.84H174.84H178.84H182.84H186.84H190.84V65V61H194.84H198.84V65V69H194.84V73V77H190.84ZM162.84 69H158.84H154.84V65V61V57V53V49V45V41V37H158.84H162.84V41V45V49V53V57V61V65V69ZM194.84 45H190.84V41V37H186.84H182.84H178.84H174.84H170.84H166.84H162.84V33V29H166.84H170.84H174.84H178.84H182.84H186.84H190.84H194.84V33V37H198.84V41V45H194.84ZM224.12 77H220.12V73V69V65V61V57V53V49V45V41V37H216.12H212.12H208.12H204.12V33V29H208.12H212.12H216.12H220.12H224.12H228.12H232.12H236.12H240.12H244.12V33V37H240.12H236.12H232.12H228.12V41V45V49V53V57V61V65V69V73V77H224.12Z" fill="#FFA200"/>
<g clip-path="url(#clip0_73_41)">
<mask id="mask0_73_41" style="mask-type:luminance" maskUnits="userSpaceOnUse" x="17" y="23" width="61" height="61">
<path d="M65.0347 23.3653L17 35.6721L29.3068 83.7068L77.3415 71.4L65.0347 23.3653Z" fill="white"/>
</mask>
<g mask="url(#mask0_73_41)">
<path d="M30.5047 67.5693L37.8352 65.6912C38.3411 65.5616 39.1165 65.6724 39.5653 65.9381L50.1224 72.1896C51.4705 72.9871 52.2486 72.4031 51.86 70.8862L42.9387 36.0656C42.5501 34.5487 41.587 34.4108 40.7887 35.759L34.538 46.316C34.2724 46.7655 33.6456 47.2348 33.1398 47.3644L25.8092 49.2425C24.2916 49.6314 23.3757 51.1793 23.7644 52.6962L27.0511 65.5244C27.4399 67.042 28.9871 67.9581 30.5047 67.5693Z" fill="#FFA200"/>
<path fill-rule="evenodd" clip-rule="evenodd" d="M65.2679 48.8994C64.2069 44.7579 61.8611 41.0527 58.5647 38.3229C55.3276 35.6371 51.3423 33.9924 47.1535 33.6108L46.2063 33.5256C45.6864 33.4788 45.3028 33.018 45.3498 32.4989L45.521 30.6138C45.5686 30.0938 46.0293 29.7102 46.5487 29.7579L47.4872 29.8438C52.445 30.2923 57.1503 32.2309 60.9822 35.4089C64.887 38.6467 67.6729 43.0397 68.9336 47.9602C70.192 52.8718 69.8616 58.0632 67.9948 62.7797C66.1631 67.4088 62.9719 71.38 58.8407 74.1573L58.059 74.6839C57.6266 74.9754 57.0381 74.8606 56.7464 74.4275L55.6898 72.8571C55.399 72.4245 55.5138 71.836 55.9471 71.545L56.7366 71.0148C60.2259 68.666 62.9294 65.3076 64.4762 61.3961C66.0539 57.4176 66.329 53.0409 65.2679 48.8994Z" fill="#FFA200"/>
<path d="M49.3277 42.9746L48.4001 42.7724C47.89 42.6607 47.5663 42.1558 47.6779 41.6457L48.0833 39.7911C48.1942 39.2812 48.6986 38.9584 49.2089 39.0708L50.1271 39.2738C52.8268 39.8619 55.3184 41.127 57.3869 42.9509C59.4372 44.7787 60.9107 47.1741 61.6029 49.8384C62.2772 52.5074 62.1347 55.3073 61.2159 57.8957C60.279 60.4888 58.7029 62.797 56.6186 64.6107L55.9109 65.2295C55.5176 65.5734 54.9203 65.5337 54.5771 65.1401L53.3335 63.7167C52.9903 63.3232 53.0308 62.7257 53.4243 62.3826L54.1404 61.7592C55.7295 60.3755 56.9347 58.6023 57.657 56.62C58.3188 54.7421 58.4236 52.7133 57.9373 50.7776C57.4329 48.8465 56.3631 47.1091 54.8822 45.7897C53.2935 44.39 51.3863 43.4238 49.3277 42.9746Z" fill="#FFA200"/>
</g>
</g>
<defs>
<clipPath id="clip0_73_41">
<rect width="49.5862" height="49.5862" fill="white" transform="translate(17 35.6721) rotate(-14.3705)"/>
</clipPath>
</defs>
</svg>
