<svg width="915" height="246" viewBox="0 0 915 246" fill="none" xmlns="http://www.w3.org/2000/svg">
<g filter="url(#filter0_d_383_689)">
<rect x="4" width="907" height="238" fill="black"/>
<rect x="7" y="3" width="901" height="232" stroke="white" stroke-width="6"/>
</g>
<path d="M51 56.6V53.4H54.2V56.6H51ZM51 43.8V40.6H54.2V43.8H51ZM57.4 59.8V53.4H54.2V50.2H57.4V47H54.2V43.8H57.4V37.4H60.6V43.8H63.8V47H60.6V50.2H63.8V53.4H60.6V59.8H57.4ZM63.8 56.6V53.4H67V56.6H63.8ZM63.8 43.8V40.6H67V43.8H63.8ZM83 63V34.2H86.2V63H83ZM89.4062 47V43.8H92.6063V37.4H95.8063V43.8H102.206V47H95.8063V59.8H92.6063V47H89.4062ZM95.8063 59.8H102.206V63H95.8063V59.8ZM105.406 40.6V34.2H108.606V40.6H105.406ZM111.812 63V59.8H121.413V63H111.812ZM111.812 50.2V47H115.013V50.2H111.812ZM115.013 47V43.8H124.613V47H115.013ZM115.013 50.2H121.413V53.4H115.013V50.2ZM121.413 59.8V53.4H124.613V59.8H121.413ZM140.625 47V43.8H143.825V37.4H147.025V43.8H153.425V47H147.025V59.8H143.825V47H140.625ZM147.025 59.8H153.425V63H147.025V59.8ZM156.625 63V34.2H159.825V43.8H169.425V47H159.825V63H156.625ZM169.425 63V47H172.625V63H169.425ZM175.812 59.8V47H179.013V50.2H188.613V47H191.812V53.4H179.013V59.8H175.812ZM179.013 59.8H191.812V63H179.013V59.8ZM179.013 47V43.8H188.613V47H179.013ZM207.812 59.8V47H211.013V50.2H220.613V47H223.812V53.4H211.013V59.8H207.812ZM211.013 59.8H223.812V63H211.013V59.8ZM211.013 47V43.8H220.613V47H211.013ZM227 63V43.8H239.8V47H230.2V63H227ZM239.8 63V47H243V63H239.8ZM246.188 59.8V47H249.388V59.8H246.188ZM258.988 59.8V47H249.388V43.8H258.988V34.2H262.188V63H249.388V59.8H258.988ZM268.575 63V59.8H271.775V63H268.575Z" fill="white"/>
<defs>
<filter id="filter0_d_383_689" x="0" y="0" width="915" height="246" filterUnits="userSpaceOnUse" color-interpolation-filters="sRGB">
<feFlood flood-opacity="0" result="BackgroundImageFix"/>
<feColorMatrix in="SourceAlpha" type="matrix" values="0 0 0 0 0 0 0 0 0 0 0 0 0 0 0 0 0 0 127 0" result="hardAlpha"/>
<feOffset dy="4"/>
<feGaussianBlur stdDeviation="2"/>
<feComposite in2="hardAlpha" operator="out"/>
<feColorMatrix type="matrix" values="0 0 0 0 0 0 0 0 0 0 0 0 0 0 0 0 0 0 0.25 0"/>
<feBlend mode="normal" in2="BackgroundImageFix" result="effect1_dropShadow_383_689"/>
<feBlend mode="normal" in="SourceGraphic" in2="effect1_dropShadow_383_689" result="shape"/>
</filter>
</defs>
</svg>
