<svg width="292" height="108" viewBox="0 0 292 108" fill="none" xmlns="http://www.w3.org/2000/svg">
<rect x="4" y="4" width="284" height="100" fill="black" stroke="#FFA200" stroke-width="8"/>
<path d="M85 77H81V73V69V65V61V57V53V49V45V41V37V33V29H85H89H93H97H101H105H109H113H117V33V37H113H109H105H101H97H93H89V41V45H93H97H101H105V49V53H101H97H93H89V57V61V65V69V73V77H85ZM134.44 77H130.44H126.44H122.44V73V69H126.44V65V61V57V53V49V45V41V37H122.44V33V29H126.44H130.44H134.44H138.44V33V37H134.44V41V45V49V53V57V61V65V69H138.44V73V77H134.44ZM174.44 77H170.44H166.44H162.44H158.44H154.44H150.44V73V69H154.44H158.44H162.44H166.44H170.44H174.44H178.44V73V77H174.44ZM178.44 69V65V61V57V53H174.44H170.44V49V45H174.44H178.44H182.44H186.44V49V53V57V61V65V69H182.44H178.44ZM150.44 69H146.44H142.44V65V61V57V53V49V45V41V37H146.44H150.44V41V45V49V53V57V61V65V69ZM182.44 37H178.44H174.44H170.44H166.44H162.44H158.44H154.44H150.44V33V29H154.44H158.44H162.44H166.44H170.44H174.44H178.44H182.44H186.44V33V37H182.44ZM226.44 77H222.44V73V69V65V61V57H218.44H214.44H210.44H206.44H202.44H198.44V61V65V69V73V77H194.44H190.44V73V69V65V61V57V53V49V45V41V37V33V29H194.44H198.44V33V37V41V45V49H202.44H206.44H210.44H214.44H218.44H222.44V45V41V37V33V29H226.44H230.44V33V37V41V45V49V53V57V61V65V69V73V77H226.44ZM254.44 77H250.44V73V69V65V61V57V53V49V45V41V37H246.44H242.44H238.44H234.44V33V29H238.44H242.44H246.44H250.44H254.44H258.44H262.44H266.44H270.44H274.44V33V37H270.44H266.44H262.44H258.44V41V45V49V53V57V61V65V69V73V77H254.44Z" fill="#FFA200"/>
<path d="M49.2306 27.9397L38.1646 52.4581L34.5187 50.8126L31.8731 51.8128L32.8732 54.4584L49.2796 61.8632L51.9253 60.863L50.9251 58.2174L48.1907 56.9832L57.241 36.931C58.5503 34.0302 58.6535 30.728 57.5281 27.7511C56.4027 24.7741 54.1408 22.3661 51.2399 21.0569L49.1831 25.6142C50.8737 26.3796 52.1918 27.7844 52.8481 29.5203C53.5043 31.2563 53.4452 33.1817 52.6837 34.8741L43.6334 54.9263L41.8105 54.1036L50.8608 34.0514C51.3336 33.0006 51.4297 31.8189 51.1327 30.7056C50.8358 29.5922 50.164 28.6154 49.2306 27.9397ZM25.5572 73.0991C25.339 73.5826 25.3217 74.1329 25.5093 74.6291C25.6969 75.1253 26.0739 75.5266 26.5573 75.7448L37.4949 80.6813C37.9784 80.8995 38.5287 80.9168 39.0249 80.7292C39.5211 80.5416 39.9224 80.1646 40.1406 79.6812C40.3588 79.1977 40.376 78.6473 40.1885 78.1512C40.0009 77.655 39.6239 77.2537 39.1404 77.0355L28.2028 72.0989C27.7194 71.8807 27.169 71.8635 26.6729 72.0511C26.1767 72.2387 25.7754 72.6157 25.5572 73.0991ZM44.811 62.0406L35.6963 57.9269L31.6159 66.9677L44.0216 63.7897L44.811 62.0406ZM29.9371 70.6874L39.0517 74.8012L42.9676 66.1249L30.5619 69.3029L29.9371 70.6874Z" fill="#FFA200"/>
</svg>
