<svg width="292" height="108" viewBox="0 0 292 108" fill="none" xmlns="http://www.w3.org/2000/svg">
<rect x="4" y="4" width="284" height="100" fill="black" stroke="#FFA200" stroke-width="8"/>
<path d="M102.996 53.0059V45.0078H110.994V53.0059H102.996ZM87 77V29.002H94.998V37H102.996V45.0078H94.998V77H87ZM118.992 77V45.0078H110.994V37H118.992V29.002H127V77H118.992ZM130.208 77V29.002H162.2V37H138.206V45.0078H162.2V53.0059H138.206V69.002H162.2V77H130.208ZM189.402 77V53.0059H197.4V77H189.402ZM189.402 45.0078V37H197.4V45.0078H189.402ZM165.408 77V29.002H189.402V37H173.406V45.0078H189.402V53.0059H173.406V77H165.408ZM208.606 77V69.002H224.602V77H208.606ZM224.602 69.002V61.0039H232.6V69.002H224.602ZM200.608 69.002V37H208.606V69.002H200.608ZM224.602 45.0078V37H232.6V45.0078H224.602ZM208.606 37V29.002H224.602V37H208.606ZM251.804 77V53.0059H259.802V77H251.804ZM243.806 53.0059V45.0078H251.804V53.0059H243.806ZM259.802 53.0059V45.0078H267.8V53.0059H259.802ZM235.808 45.0078V29.002H243.806V45.0078H235.808ZM267.8 45.0078V29.002H275.808V45.0078H267.8Z" fill="#FFA200"/>
<path d="M62 36L29 69" stroke="#FFA200" stroke-width="6" stroke-linecap="round" stroke-linejoin="round"/>
<path d="M62 69L29 36" stroke="#FFA200" stroke-width="6" stroke-linecap="round" stroke-linejoin="round"/>
</svg>
