<svg width="421" height="246" viewBox="0 0 421 246" fill="none" xmlns="http://www.w3.org/2000/svg">
<g filter="url(#filter0_d_73_242)">
<rect x="4" width="413" height="238" fill="black"/>
<rect x="7" y="3" width="407" height="232" stroke="white" stroke-width="6"/>
</g>
<path d="M90 100H86H82H78H74V96V92H78H82V96H86V92V88H82H78H74V84V80V76H78H82H86H90H94V80H90H86H82V84H86H90H94V88V92V96V100H90ZM114 100H110H106H102H98V96V92V88V84V80V76H102H106H110H114H118V80V84H114H110V80H106V84V88V92V96H110V92H114H118V96V100H114ZM138 100H134V96V92H130V96V100H126H122V96V92V88V84V80V76H126H130H134H138H142V80V84V88H138V92H142V96V100H138ZM134 88V84V80H130V84V88H134ZM162 100H158H154H150H146V96V92V88V84V80V76H150H154H158H162H166V80V84V88V92V96V100H162ZM158 96V92V88V84V80H154V84V88V92V96H158ZM186 96H190V100H186H182H178H174H170V96V92V88V84V80V76H174H178V80V84V88V92V96H182H186ZM210 96H214V100H210H206H202H198H194V96V92V88V84V80V76H198H202V80V84V88V92V96H206H210ZM250 100H246H242H238V96V92V88V84V80V76H242H246H250H254H258V80V84V88V92V96H254V100H250ZM250 96V92V88V84V80H246V84V88V92V96H250ZM278 100H274H270H266H262V96V92V88V84V80V76H266H270H274H278H282V80V84V88V92V96V100H278ZM274 96V92V88V84V80H270V84V88V92V96H274ZM310 100H306V96H302V92H298V96H294V100H290H286V96V92V88V84V80V76H290H294V80V84V88H298V84H302V88H306V84V80V76H310H314V80V84V88V92V96V100H310ZM338 100H334V96V92H330V88H326V92V96V100H322H318V96V92V88V84V80V76H322H326V80H330V84H334V80V76H338H342V80V84V88V92V96V100H338Z" fill="white"/>
<path d="M179 149L212 169.5L241.5 149" stroke="white" stroke-width="10"/>
<defs>
<filter id="filter0_d_73_242" x="0" y="0" width="421" height="246" filterUnits="userSpaceOnUse" color-interpolation-filters="sRGB">
<feFlood flood-opacity="0" result="BackgroundImageFix"/>
<feColorMatrix in="SourceAlpha" type="matrix" values="0 0 0 0 0 0 0 0 0 0 0 0 0 0 0 0 0 0 127 0" result="hardAlpha"/>
<feOffset dy="4"/>
<feGaussianBlur stdDeviation="2"/>
<feComposite in2="hardAlpha" operator="out"/>
<feColorMatrix type="matrix" values="0 0 0 0 0 0 0 0 0 0 0 0 0 0 0 0 0 0 0.25 0"/>
<feBlend mode="normal" in2="BackgroundImageFix" result="effect1_dropShadow_73_242"/>
<feBlend mode="normal" in="SourceGraphic" in2="effect1_dropShadow_73_242" result="shape"/>
</filter>
</defs>
</svg>
