<svg width="915" height="246" viewBox="0 0 915 246" fill="none" xmlns="http://www.w3.org/2000/svg">
<g filter="url(#filter0_d_73_230)">
<rect x="4" width="907" height="238" fill="black"/>
<rect x="7" y="3" width="901" height="232" stroke="white" stroke-width="6"/>
</g>
<path d="M51 56.6V53.4H54.2V56.6H51ZM51 43.8V40.6H54.2V43.8H51ZM57.4 59.8V53.4H54.2V50.2H57.4V47H54.2V43.8H57.4V37.4H60.6V43.8H63.8V47H60.6V50.2H63.8V53.4H60.6V59.8H57.4ZM63.8 56.6V53.4H67V56.6H63.8ZM63.8 43.8V40.6H67V43.8H63.8ZM83 37.4V34.2H99V37.4H92.6V63H89.4V37.4H83ZM99 59.8V47H102.2V59.8H99ZM111.8 59.8V63H102.2V59.8H111.8ZM111.8 47H115V59.8H111.8V47ZM111.8 43.8V47H102.2V43.8H111.8ZM118.188 63V43.8H121.388V47H124.588V50.2H121.388V63H118.188ZM130.988 47H124.588V43.8H130.988V47ZM134.188 63V43.8H137.388V63H134.188ZM134.188 40.6V37.4H137.388V40.6H134.188ZM140.594 59.8V47H143.794V50.2H153.394V47H156.594V53.4H143.794V59.8H140.594ZM143.794 59.8H156.594V63H143.794V59.8ZM143.794 47V43.8H153.394V47H143.794ZM159.781 59.8V34.2H162.981V59.8H159.781ZM162.981 59.8H166.181V63H162.981V59.8ZM182.188 63V34.2H185.388V43.8H194.988V47H185.388V59.8H194.988V63H182.188ZM194.988 59.8V47H198.188V59.8H194.988ZM201.375 59.8V34.2H204.575V59.8H201.375ZM204.575 59.8H207.775V63H204.575V59.8ZM210.969 59.8V47H214.169V59.8H210.969ZM223.769 59.8V63H214.169V59.8H223.769ZM223.769 47H226.969V59.8H223.769V47ZM223.769 43.8V47H214.169V43.8H223.769ZM230.156 59.8V47H233.356V59.8H230.156ZM233.356 59.8H246.156V63H233.356V59.8ZM233.356 47V43.8H246.156V47H233.356ZM249.344 63V34.2H252.544V50.2H255.744V53.4H252.544V63H249.344ZM255.744 56.6V53.4H258.944V56.6H255.744ZM255.744 50.2V47H258.944V50.2H255.744ZM258.944 56.6H262.144V63H258.944V56.6ZM258.944 47V43.8H262.144V47H258.944ZM265.344 63V59.8H274.944V63H265.344ZM265.344 50.2V47H268.544V50.2H265.344ZM268.544 47V43.8H278.144V47H268.544ZM268.544 50.2H274.944V53.4H268.544V50.2ZM274.944 59.8V53.4H278.144V59.8H274.944ZM294.156 47V43.8H297.356V37.4H300.556V43.8H306.956V47H300.556V59.8H297.356V47H294.156ZM300.556 59.8H306.956V63H300.556V59.8ZM310.156 63V34.2H313.356V43.8H322.956V47H313.356V63H310.156ZM322.956 63V47H326.156V63H322.956ZM329.344 59.8V47H332.544V50.2H342.144V47H345.344V53.4H332.544V59.8H329.344ZM332.544 59.8H345.344V63H332.544V59.8ZM332.544 47V43.8H342.144V47H332.544ZM361.344 56.6V43.8H364.544V56.6H361.344ZM364.544 56.6H367.744V63H364.544V56.6ZM367.744 56.6V47H370.944V56.6H367.744ZM370.944 56.6H374.144V63H370.944V56.6ZM374.144 56.6V43.8H377.344V56.6H374.144ZM380.531 59.8V53.4H383.731V59.8H380.531ZM380.531 47V43.8H393.331V47H380.531ZM383.731 59.8H393.331V53.4H383.731V50.2H393.331V47H396.531V63H383.731V59.8ZM399.719 66.2V63H406.119V66.2H399.719ZM399.719 50.2V43.8H402.919V50.2H399.719ZM402.919 56.6V50.2H406.119V56.6H402.919ZM406.119 56.6H409.319V63H406.119V56.6ZM409.319 56.6V50.2H412.519V56.6H409.319ZM412.519 50.2V43.8H415.719V50.2H412.519ZM422.106 56.6H425.306V63H422.106V56.6ZM422.106 53.4V34.2H425.306V53.4H422.106Z" fill="white"/>
<defs>
<filter id="filter0_d_73_230" x="0" y="0" width="915" height="246" filterUnits="userSpaceOnUse" color-interpolation-filters="sRGB">
<feFlood flood-opacity="0" result="BackgroundImageFix"/>
<feColorMatrix in="SourceAlpha" type="matrix" values="0 0 0 0 0 0 0 0 0 0 0 0 0 0 0 0 0 0 127 0" result="hardAlpha"/>
<feOffset dy="4"/>
<feGaussianBlur stdDeviation="2"/>
<feComposite in2="hardAlpha" operator="out"/>
<feColorMatrix type="matrix" values="0 0 0 0 0 0 0 0 0 0 0 0 0 0 0 0 0 0 0.25 0"/>
<feBlend mode="normal" in2="BackgroundImageFix" result="effect1_dropShadow_73_230"/>
<feBlend mode="normal" in="SourceGraphic" in2="effect1_dropShadow_73_230" result="shape"/>
</filter>
</defs>
</svg>
