<svg width="3063" height="188" viewBox="0 0 3063 188" fill="none" xmlns="http://www.w3.org/2000/svg">
<path d="M93.75 188H62.5H31.25H0V156.75H31.25V125.5V94.25V63V31.75H0V0.5H31.25H62.5H93.75H125V31.75H93.75V63V94.25V125.5V156.75H125V188H93.75ZM437.5 188H406.25H375H343.75H312.5V156.75V125.5V94.25V63H343.75H375H406.25V31.75V0.5H437.5H468.75V31.75V63V94.25V125.5V156.75V188H437.5ZM406.25 156.75V125.5V94.25H375V125.5V156.75H406.25ZM625 188H593.75H562.5H531.25H500V156.75V125.5V94.25V63V31.75V0.5H531.25H562.5H593.75H625H656.25V31.75V63V94.25V125.5V156.75V188H625ZM593.75 156.75V125.5V94.25V63V31.75H562.5V63V94.25V125.5V156.75H593.75ZM812.5 188H781.25V156.75V125.5V94.25V63V31.75H750V63V94.25V125.5V156.75V188H718.75H687.5V156.75V125.5V94.25V63V31.75V0.5H718.75H750H781.25H812.5H843.75V31.75V63V94.25V125.5V156.75V188H812.5ZM906.25 94.25V63H875V31.75V0.5H906.25H937.5V31.75V63V94.25H906.25ZM1062.5 188H1031.25H1000V156.75V125.5V94.25H968.75V63H1000V31.75V0.5H1031.25H1062.5V31.75V63H1093.75V94.25H1062.5V125.5V156.75H1093.75V188H1062.5ZM1406.25 188H1375H1343.75H1312.5H1281.25V156.75V125.5V94.25V63V31.75V0.5H1312.5H1343.75H1375H1406.25H1437.5V31.75V63H1406.25H1375V31.75H1343.75V63V94.25V125.5V156.75H1375V125.5H1406.25H1437.5V156.75V188H1406.25ZM1593.75 188H1562.5H1531.25H1500H1468.75V156.75V125.5V94.25V63H1500H1531.25H1562.5V31.75H1531.25H1500V0.5H1531.25H1562.5H1593.75H1625V31.75V63V94.25V125.5V156.75V188H1593.75ZM1562.5 156.75V125.5V94.25H1531.25V125.5V156.75H1562.5ZM1687.5 188H1656.25V156.75V125.5V94.25V63V31.75V0.5H1687.5H1718.75H1750H1781.25H1812.5V31.75V63H1781.25H1750V31.75H1718.75V63V94.25V125.5V156.75V188H1687.5ZM1968.75 156.75H2000V188H1968.75H1937.5H1906.25H1875H1843.75V156.75V125.5V94.25V63V31.75V0.5H1875H1906.25H1937.5H1968.75H2000V31.75V63V94.25V125.5H1968.75H1937.5H1906.25V156.75H1937.5H1968.75ZM1937.5 94.25V63V31.75H1906.25V63V94.25H1937.5ZM2312.5 188H2281.25H2250H2218.75H2187.5V156.75V125.5V94.25V63H2218.75H2250H2281.25V31.75H2250H2218.75V0.5H2250H2281.25H2312.5H2343.75V31.75V63V94.25V125.5V156.75V188H2312.5ZM2281.25 156.75V125.5V94.25H2250V125.5V156.75H2281.25ZM2500 188H2468.75H2437.5H2406.25H2375V156.75V125.5V94.25V63V31.75V0.5H2406.25H2437.5V31.75V63H2468.75H2500H2531.25V94.25V125.5V156.75V188H2500ZM2468.75 156.75V125.5V94.25H2437.5V125.5V156.75H2468.75ZM2687.5 188H2656.25H2625H2593.75H2562.5V156.75V125.5V94.25V63V31.75V0.5H2593.75H2625H2656.25H2687.5H2718.75V31.75V63V94.25V125.5V156.75V188H2687.5ZM2656.25 156.75V125.5V94.25V63V31.75H2625V63V94.25V125.5V156.75H2656.25ZM2875 188H2843.75H2812.5H2781.25H2750V156.75V125.5V94.25V63V31.75V0.5H2781.25H2812.5V31.75V63V94.25V125.5V156.75H2843.75V125.5V94.25V63V31.75V0.5H2875H2906.25V31.75V63V94.25V125.5V156.75V188H2875ZM3031.25 188H3000H2968.75V156.75V125.5V94.25H2937.5V63H2968.75V31.75V0.5H3000H3031.25V31.75V63H3062.5V94.25H3031.25V125.5V156.75H3062.5V188H3031.25Z" fill="white"/>
</svg>
