<svg width="4532" height="251" viewBox="0 0 4532 251" fill="none" xmlns="http://www.w3.org/2000/svg">
<path d="M93.75 188H62.5V156.75V125.5V94.25V63V31.75H31.25H0V0.5H31.25H62.5H93.75H125H156.25H187.5V31.75H156.25H125V63V94.25V125.5V156.75V188H93.75ZM343.75 188H312.5V156.75V125.5V94.25H281.25V125.5V156.75V188H250H218.75V156.75V125.5V94.25V63V31.75V0.5H250H281.25V31.75V63H312.5H343.75H375V94.25V125.5V156.75V188H343.75ZM531.25 156.75H562.5V188H531.25H500H468.75H437.5H406.25V156.75V125.5V94.25V63V31.75V0.5H437.5H468.75H500H531.25H562.5V31.75V63V94.25V125.5H531.25H500H468.75V156.75H500H531.25ZM500 94.25V63V31.75H468.75V63V94.25H500ZM718.75 188H687.5V156.75V125.5V94.25V63V31.75H656.25V63V94.25V125.5V156.75V188H625H593.75V156.75V125.5V94.25V63V31.75V0.5H625H656.25H687.5H718.75H750V31.75V63V94.25V125.5V156.75V188H718.75ZM1156.25 188H1125H1093.75H1062.5H1031.25H1000H968.75H937.5V156.75V125.5V94.25V63V31.75V0.5H968.75H1000V31.75V63V94.25V125.5V156.75H1031.25V125.5V94.25V63V31.75V0.5H1062.5H1093.75V31.75V63V94.25V125.5V156.75H1125V125.5V94.25V63V31.75V0.5H1156.25H1187.5V31.75V63V94.25V125.5V156.75V188H1156.25ZM1343.75 156.75H1375V188H1343.75H1312.5H1281.25H1250H1218.75V156.75V125.5V94.25V63V31.75V0.5H1250H1281.25H1312.5H1343.75H1375V31.75V63V94.25V125.5H1343.75H1312.5H1281.25V156.75H1312.5H1343.75ZM1312.5 94.25V63V31.75H1281.25V63V94.25H1312.5ZM1687.5 188H1656.25H1625H1593.75H1562.5V156.75V125.5V94.25V63V31.75V0.5H1593.75H1625H1656.25H1687.5H1718.75V31.75V63H1687.5H1656.25V31.75H1625V63V94.25V125.5V156.75H1656.25V125.5H1687.5H1718.75V156.75V188H1687.5ZM1875 188H1843.75H1812.5H1781.25H1750V156.75V125.5V94.25V63H1781.25H1812.5H1843.75V31.75H1812.5H1781.25V0.5H1812.5H1843.75H1875H1906.25V31.75V63V94.25V125.5V156.75V188H1875ZM1843.75 156.75V125.5V94.25H1812.5V125.5V156.75H1843.75ZM2062.5 188H2031.25V156.75V125.5V94.25V63V31.75H2000V63V94.25V125.5V156.75V188H1968.75H1937.5V156.75V125.5V94.25V63V31.75V0.5H1968.75H2000H2031.25H2062.5H2093.75V31.75V63V94.25V125.5V156.75V188H2062.5ZM2406.25 188H2375H2343.75H2312.5H2281.25V156.75V125.5V94.25V63H2312.5H2343.75H2375V31.75V0.5H2406.25H2437.5V31.75V63V94.25V125.5V156.75V188H2406.25ZM2375 156.75V125.5V94.25H2343.75V125.5V156.75H2375ZM2593.75 188H2562.5H2531.25H2500H2468.75V156.75V125.5V94.25V63V31.75V0.5H2500H2531.25H2562.5H2593.75H2625V31.75V63V94.25V125.5V156.75V188H2593.75ZM2562.5 156.75V125.5V94.25V63V31.75H2531.25V63V94.25V125.5V156.75H2562.5ZM2937.5 156.75H2968.75V188H2937.5H2906.25H2875H2843.75H2812.5V156.75V125.5V94.25V63V31.75V0.5H2843.75H2875H2906.25H2937.5H2968.75V31.75V63V94.25V125.5H2937.5H2906.25H2875V156.75H2906.25H2937.5ZM2906.25 94.25V63V31.75H2875V63V94.25H2906.25ZM3125 188H3093.75H3062.5H3031.25V156.75H3000V125.5V94.25V63V31.75V0.5H3031.25H3062.5V31.75V63V94.25V125.5V156.75H3093.75V125.5V94.25V63V31.75V0.5H3125H3156.25V31.75V63V94.25V125.5V156.75V188H3125ZM3312.5 156.75H3343.75V188H3312.5H3281.25H3250H3218.75H3187.5V156.75V125.5V94.25V63V31.75V0.5H3218.75H3250H3281.25H3312.5H3343.75V31.75V63V94.25V125.5H3312.5H3281.25H3250V156.75H3281.25H3312.5ZM3281.25 94.25V63V31.75H3250V63V94.25H3281.25ZM3406.25 188H3375V156.75V125.5V94.25V63V31.75V0.5H3406.25H3437.5H3468.75H3500H3531.25V31.75V63H3500H3468.75V31.75H3437.5V63V94.25V125.5V156.75V188H3406.25ZM3687.5 250.5H3656.25H3625H3593.75H3562.5V219.25H3593.75H3625H3656.25V188H3625H3593.75H3562.5V156.75V125.5V94.25V63V31.75V0.5H3593.75H3625V31.75V63V94.25V125.5V156.75H3656.25V125.5V94.25V63V31.75V0.5H3687.5H3718.75V31.75V63V94.25V125.5V156.75V188V219.25V250.5H3687.5ZM3843.75 188H3812.5H3781.25V156.75V125.5V94.25H3750V63H3781.25V31.75V0.5H3812.5H3843.75V31.75V63H3875V94.25H3843.75V125.5V156.75H3875V188H3843.75ZM4031.25 188H4000V156.75V125.5V94.25H3968.75V125.5V156.75V188H3937.5H3906.25V156.75V125.5V94.25V63V31.75V0.5H3937.5H3968.75V31.75V63H4000H4031.25H4062.5V94.25V125.5V156.75V188H4031.25ZM4125 188H4093.75V156.75V125.5V94.25V63H4125H4156.25V94.25V125.5V156.75V188H4125ZM4125 0.5H4156.25V31.75H4125H4093.75V0.5H4125ZM4312.5 188H4281.25V156.75V125.5V94.25V63V31.75H4250V63V94.25V125.5V156.75V188H4218.75H4187.5V156.75V125.5V94.25V63V31.75V0.5H4218.75H4250H4281.25H4312.5H4343.75V31.75V63V94.25V125.5V156.75V188H4312.5ZM4500 250.5H4468.75H4437.5H4406.25V219.25H4437.5H4468.75V188H4437.5H4406.25H4375V156.75V125.5V94.25V63V31.75V0.5H4406.25H4437.5H4468.75H4500H4531.25V31.75V63V94.25V125.5V156.75V188V219.25V250.5H4500ZM4468.75 156.75V125.5V94.25V63V31.75H4437.5V63V94.25V125.5V156.75H4468.75Z" fill="white"/>
</svg>
