<svg width="2344" height="188" viewBox="0 0 2344 188" fill="none" xmlns="http://www.w3.org/2000/svg">
<path d="M93.75 188H62.5V156.75V125.5V94.25H31.25H0V63V31.75V0.5H31.25H62.5V31.75V63H93.75H125V31.75V0.5H156.25H187.5V31.75V63V94.25H156.25H125V125.5V156.75V188H93.75ZM343.75 188H312.5H281.25H250H218.75V156.75V125.5V94.25V63V31.75V0.5H250H281.25H312.5H343.75H375V31.75V63V94.25V125.5V156.75V188H343.75ZM312.5 156.75V125.5V94.25V63V31.75H281.25V63V94.25V125.5V156.75H312.5ZM531.25 188H500H468.75H437.5H406.25V156.75V125.5V94.25V63V31.75V0.5H437.5H468.75V31.75V63V94.25V125.5V156.75H500V125.5V94.25V63V31.75V0.5H531.25H562.5V31.75V63V94.25V125.5V156.75V188H531.25ZM781.25 188H750V156.75V125.5V94.25V63V31.75V0.5H781.25H812.5H843.75H875H906.25V31.75V63H875H843.75V31.75H812.5V63V94.25V125.5V156.75V188H781.25ZM1062.5 156.75H1093.75V188H1062.5H1031.25H1000H968.75H937.5V156.75V125.5V94.25V63V31.75V0.5H968.75H1000H1031.25H1062.5H1093.75V31.75V63V94.25V125.5H1062.5H1031.25H1000V156.75H1031.25H1062.5ZM1031.25 94.25V63V31.75H1000V63V94.25H1031.25ZM1250 188H1218.75H1187.5H1156.25H1125V156.75V125.5V94.25V63H1156.25H1187.5H1218.75V31.75H1187.5H1156.25V0.5H1187.5H1218.75H1250H1281.25V31.75V63V94.25V125.5V156.75V188H1250ZM1218.75 156.75V125.5V94.25H1187.5V125.5V156.75H1218.75ZM1437.5 188H1406.25H1375H1343.75H1312.5V156.75V125.5V94.25V63V31.75V0.5H1343.75H1375H1406.25H1437.5H1468.75V31.75V63H1437.5H1406.25V31.75H1375V63V94.25V125.5V156.75H1406.25V125.5H1437.5H1468.75V156.75V188H1437.5ZM1625 188H1593.75V156.75V125.5V94.25H1562.5V125.5V156.75V188H1531.25H1500V156.75V125.5V94.25V63V31.75V0.5H1531.25H1562.5V31.75V63H1593.75H1625H1656.25V94.25V125.5V156.75V188H1625ZM1968.75 188H1937.5H1906.25H1875H1843.75V156.75V125.5V94.25V63V31.75V0.5H1875H1906.25H1937.5H1968.75H2000V31.75V63V94.25V125.5V156.75V188H1968.75ZM1937.5 156.75V125.5V94.25V63V31.75H1906.25V63V94.25V125.5V156.75H1937.5ZM2156.25 188H2125H2093.75H2062.5H2031.25V156.75V125.5V94.25V63V31.75V0.5H2062.5H2093.75V31.75V63V94.25V125.5V156.75H2125V125.5V94.25V63V31.75V0.5H2156.25H2187.5V31.75V63V94.25V125.5V156.75V188H2156.25ZM2312.5 188H2281.25H2250V156.75V125.5V94.25H2218.75V63H2250V31.75V0.5H2281.25H2312.5V31.75V63H2343.75V94.25H2312.5V125.5V156.75H2343.75V188H2312.5Z" fill="white"/>
</svg>
