<svg width="2594" height="251" viewBox="0 0 2594 251" fill="none" xmlns="http://www.w3.org/2000/svg">
<path d="M125 188H93.75H62.5H31.25H0V156.75V125.5V94.25V63H31.25H62.5H93.75V31.75H62.5H31.25V0.5H62.5H93.75H125H156.25V31.75V63V94.25V125.5V156.75V188H125ZM93.75 156.75V125.5V94.25H62.5V125.5V156.75H93.75ZM312.5 188H281.25H250H218.75H187.5V156.75V125.5H218.75H250V156.75H281.25V125.5V94.25H250H218.75H187.5V63V31.75V0.5H218.75H250H281.25H312.5H343.75V31.75H312.5H281.25H250V63H281.25H312.5H343.75V94.25V125.5V156.75V188H312.5ZM656.25 250.5H625H593.75H562.5H531.25V219.25H562.5H593.75H625V188H593.75H562.5H531.25V156.75V125.5V94.25V63V31.75V0.5H562.5H593.75V31.75V63V94.25V125.5V156.75H625V125.5V94.25V63V31.75V0.5H656.25H687.5V31.75V63V94.25V125.5V156.75V188V219.25V250.5H656.25ZM843.75 188H812.5H781.25H750H718.75V156.75V125.5V94.25V63V31.75V0.5H750H781.25H812.5H843.75H875V31.75V63V94.25V125.5V156.75V188H843.75ZM812.5 156.75V125.5V94.25V63V31.75H781.25V63V94.25V125.5V156.75H812.5ZM1031.25 188H1000H968.75H937.5H906.25V156.75V125.5V94.25V63V31.75V0.5H937.5H968.75V31.75V63V94.25V125.5V156.75H1000V125.5V94.25V63V31.75V0.5H1031.25H1062.5V31.75V63V94.25V125.5V156.75V188H1031.25ZM1125 188H1093.75V156.75V125.5V94.25V63V31.75V0.5H1125H1156.25H1187.5H1218.75H1250V31.75V63H1218.75H1187.5V31.75H1156.25V63V94.25V125.5V156.75V188H1125ZM1500 188H1468.75V156.75V125.5V94.25H1437.5V63H1468.75V31.75V0.5H1500H1531.25H1562.5V31.75H1531.25V63H1562.5V94.25H1531.25V125.5V156.75V188H1500ZM1625 188H1593.75V156.75V125.5V94.25V63V31.75V0.5H1625H1656.25H1687.5H1718.75H1750V31.75V63H1718.75H1687.5V31.75H1656.25V63V94.25V125.5V156.75V188H1625ZM1812.5 188H1781.25V156.75V125.5V94.25V63H1812.5H1843.75V94.25V125.5V156.75V188H1812.5ZM1812.5 0.5H1843.75V31.75H1812.5H1781.25V0.5H1812.5ZM2000 156.75H2031.25V188H2000H1968.75H1937.5H1906.25H1875V156.75V125.5V94.25V63V31.75V0.5H1906.25H1937.5H1968.75H2000H2031.25V31.75V63V94.25V125.5H2000H1968.75H1937.5V156.75H1968.75H2000ZM1968.75 94.25V63V31.75H1937.5V63V94.25H1968.75ZM2187.5 188H2156.25V156.75V125.5V94.25V63V31.75H2125V63V94.25V125.5V156.75V188H2093.75H2062.5V156.75V125.5V94.25V63V31.75V0.5H2093.75H2125H2156.25H2187.5H2218.75V31.75V63V94.25V125.5V156.75V188H2187.5ZM2375 188H2343.75H2312.5H2281.25H2250V156.75V125.5V94.25V63H2281.25H2312.5H2343.75V31.75V0.5H2375H2406.25V31.75V63V94.25V125.5V156.75V188H2375ZM2343.75 156.75V125.5V94.25H2312.5V125.5V156.75H2343.75ZM2562.5 188H2531.25H2500H2468.75H2437.5V156.75V125.5H2468.75H2500V156.75H2531.25V125.5V94.25H2500H2468.75H2437.5V63V31.75V0.5H2468.75H2500H2531.25H2562.5H2593.75V31.75H2562.5H2531.25H2500V63H2531.25H2562.5H2593.75V94.25V125.5V156.75V188H2562.5Z" fill="white"/>
</svg>
