<svg width="1750" height="188" viewBox="0 0 1750 188" fill="none" xmlns="http://www.w3.org/2000/svg">
<path d="M93.75 188H62.5H31.25V156.75V125.5V94.25H0V63H31.25V31.75V0.5H62.5H93.75V31.75V63H125V94.25H93.75V125.5V156.75H125V188H93.75ZM281.25 188H250V156.75V125.5V94.25H218.75V125.5V156.75V188H187.5H156.25V156.75V125.5V94.25V63V31.75V0.5H187.5H218.75V31.75V63H250H281.25H312.5V94.25V125.5V156.75V188H281.25ZM468.75 188H437.5H406.25H375H343.75V156.75V125.5V94.25V63H375H406.25H437.5V31.75H406.25H375V0.5H406.25H437.5H468.75H500V31.75V63V94.25V125.5V156.75V188H468.75ZM437.5 156.75V125.5V94.25H406.25V125.5V156.75H437.5ZM625 188H593.75H562.5V156.75V125.5V94.25H531.25V63H562.5V31.75V0.5H593.75H625V31.75V63H656.25V94.25H625V125.5V156.75H656.25V188H625ZM968.75 188H937.5V156.75V125.5V94.25V63V31.75H906.25V63V94.25V125.5V156.75V188H875H843.75V156.75V125.5V94.25V63V31.75V0.5H875H906.25H937.5H968.75H1000V31.75V63V94.25V125.5V156.75V188H968.75ZM1156.25 156.75H1187.5V188H1156.25H1125H1093.75H1062.5H1031.25V156.75V125.5V94.25V63V31.75V0.5H1062.5H1093.75H1125H1156.25H1187.5V31.75V63V94.25V125.5H1156.25H1125H1093.75V156.75H1125H1156.25ZM1125 94.25V63V31.75H1093.75V63V94.25H1125ZM1343.75 156.75H1375V188H1343.75H1312.5H1281.25H1250H1218.75V156.75V125.5V94.25V63V31.75V0.5H1250H1281.25H1312.5H1343.75H1375V31.75V63V94.25V125.5H1343.75H1312.5H1281.25V156.75H1312.5H1343.75ZM1312.5 94.25V63V31.75H1281.25V63V94.25H1312.5ZM1531.25 188H1500H1468.75H1437.5H1406.25V156.75V125.5V94.25V63H1437.5H1468.75H1500V31.75V0.5H1531.25H1562.5V31.75V63V94.25V125.5V156.75V188H1531.25ZM1500 156.75V125.5V94.25H1468.75V125.5V156.75H1500ZM1718.75 188H1687.5H1656.25H1625H1593.75V156.75V125.5H1625H1656.25V156.75H1687.5V125.5V94.25H1656.25H1625H1593.75V63V31.75V0.5H1625H1656.25H1687.5H1718.75H1750V31.75H1718.75H1687.5H1656.25V63H1687.5H1718.75H1750V94.25V125.5V156.75V188H1718.75Z" fill="white"/>
</svg>
