<svg width="500" height="188" viewBox="0 0 500 188" fill="none" xmlns="http://www.w3.org/2000/svg">
<path d="M125 188H93.75H62.5H31.25H0V156.75V125.5V94.25V63V31.75V0.5H31.25H62.5H93.75H125H156.25V31.75V63H125V94.25H156.25V125.5V156.75V188H125ZM93.75 156.75V125.5V94.25H62.5V125.5V156.75H93.75ZM93.75 63V31.75H62.5V63H93.75ZM312.5 188H281.25H250H218.75H187.5V156.75V125.5V94.25V63V31.75V0.5H218.75H250V31.75V63V94.25V125.5V156.75H281.25V125.5V94.25V63V31.75V0.5H312.5H343.75V31.75V63V94.25V125.5V156.75V188H312.5ZM468.75 188H437.5H406.25V156.75V125.5V94.25H375V63H406.25V31.75V0.5H437.5H468.75V31.75V63H500V94.25H468.75V125.5V156.75H500V188H468.75Z" fill="white"/>
</svg>
