<svg width="1469" height="188" viewBox="0 0 1469 188" fill="none" xmlns="http://www.w3.org/2000/svg">
<path d="M125 188H93.75H62.5H31.25H0V156.75V125.5V94.25V63V31.75V0.5H31.25H62.5H93.75H125H156.25V31.75V63H125V94.25H156.25V125.5V156.75V188H125ZM93.75 156.75V125.5V94.25H62.5V125.5V156.75H93.75ZM93.75 63V31.75H62.5V63H93.75ZM312.5 188H281.25H250H218.75H187.5V156.75V125.5V94.25V63V31.75V0.5H218.75H250V31.75V63V94.25V125.5V156.75H281.25V125.5V94.25V63V31.75V0.5H312.5H343.75V31.75V63V94.25V125.5V156.75V188H312.5ZM468.75 188H437.5H406.25V156.75V125.5V94.25H375V63H406.25V31.75V0.5H437.5H468.75V31.75V63H500V94.25H468.75V125.5V156.75H500V188H468.75ZM812.5 188H781.25H750H718.75H687.5V156.75V125.5V94.25V63H718.75H750H781.25V31.75V0.5H812.5H843.75V31.75V63V94.25V125.5V156.75V188H812.5ZM781.25 156.75V125.5V94.25H750V125.5V156.75H781.25ZM1000 188H968.75H937.5H906.25H875V156.75V125.5V94.25V63V31.75V0.5H906.25H937.5H968.75H1000H1031.25V31.75V63V94.25V125.5V156.75V188H1000ZM968.75 156.75V125.5V94.25V63V31.75H937.5V63V94.25V125.5V156.75H968.75ZM1187.5 188H1156.25V156.75V125.5V94.25V63V31.75H1125V63V94.25V125.5V156.75V188H1093.75H1062.5V156.75V125.5V94.25V63V31.75V0.5H1093.75H1125H1156.25H1187.5H1218.75V31.75V63V94.25V125.5V156.75V188H1187.5ZM1281.25 94.25V63H1250V31.75V0.5H1281.25H1312.5V31.75V63V94.25H1281.25ZM1437.5 188H1406.25H1375V156.75V125.5V94.25H1343.75V63H1375V31.75V0.5H1406.25H1437.5V31.75V63H1468.75V94.25H1437.5V125.5V156.75H1468.75V188H1437.5Z" fill="white"/>
</svg>
