<svg width="1282" height="220" viewBox="0 0 1282 220" fill="none" xmlns="http://www.w3.org/2000/svg">
<path d="M93.75 188H62.5H31.25H0V156.75H31.25V125.5V94.25V63V31.75H0V0.5H31.25H62.5H93.75H125V31.75H93.75V63V94.25V125.5V156.75H125V188H93.75ZM250 188H218.75H187.5V156.75V125.5V94.25H156.25V63H187.5V31.75V0.5H218.75H250V31.75V63H281.25V94.25H250V125.5V156.75H281.25V188H250ZM343.75 94.25V63H312.5V31.75V0.5H343.75H375V31.75V63V94.25H343.75ZM531.25 188H500H468.75H437.5H406.25V156.75V125.5H437.5H468.75V156.75H500V125.5V94.25H468.75H437.5H406.25V63V31.75V0.5H437.5H468.75H500H531.25H562.5V31.75H531.25H500H468.75V63H500H531.25H562.5V94.25V125.5V156.75V188H531.25ZM968.75 188H937.5V156.75V125.5V94.25V63V31.75H906.25V63V94.25V125.5V156.75V188H875H843.75V156.75V125.5V94.25V63V31.75H812.5V63V94.25V125.5V156.75V188H781.25H750V156.75V125.5V94.25V63V31.75V0.5H781.25H812.5H843.75H875H906.25H937.5H968.75H1000V31.75V63V94.25V125.5V156.75V188H968.75ZM1156.25 156.75H1187.5V188H1156.25H1125H1093.75H1062.5H1031.25V156.75V125.5V94.25V63V31.75V0.5H1062.5H1093.75H1125H1156.25H1187.5V31.75V63V94.25V125.5H1156.25H1125H1093.75V156.75H1125H1156.25ZM1125 94.25V63V31.75H1093.75V63V94.25H1125ZM1218.75 219.25V188V156.75V125.5H1250H1281.25V156.75V188H1250V219.25H1218.75Z" fill="white"/>
</svg>
