<svg width="1438" height="251" viewBox="0 0 1438 251" fill="none" xmlns="http://www.w3.org/2000/svg">
<path d="M125 188H93.75H62.5H31.25H0V156.75V125.5H31.25H62.5V156.75H93.75V125.5V94.25H62.5H31.25H0V63V31.75V0.5H31.25H62.5H93.75H125H156.25V31.75H125H93.75H62.5V63H93.75H125H156.25V94.25V125.5V156.75V188H125ZM281.25 188H250H218.75V156.75V125.5V94.25H187.5V63H218.75V31.75V0.5H250H281.25V31.75V63H312.5V94.25H281.25V125.5V156.75H312.5V188H281.25ZM375 188H343.75V156.75V125.5V94.25V63V31.75V0.5H375H406.25H437.5H468.75H500V31.75V63H468.75H437.5V31.75H406.25V63V94.25V125.5V156.75V188H375ZM656.25 188H625H593.75H562.5H531.25V156.75V125.5V94.25V63V31.75V0.5H562.5H593.75H625H656.25H687.5V31.75V63V94.25V125.5V156.75V188H656.25ZM625 156.75V125.5V94.25V63V31.75H593.75V63V94.25V125.5V156.75H625ZM843.75 188H812.5V156.75V125.5V94.25V63V31.75H781.25V63V94.25V125.5V156.75V188H750H718.75V156.75V125.5V94.25V63V31.75V0.5H750H781.25H812.5H843.75H875V31.75V63V94.25V125.5V156.75V188H843.75ZM1031.25 250.5H1000H968.75H937.5V219.25H968.75H1000V188H968.75H937.5H906.25V156.75V125.5V94.25V63V31.75V0.5H937.5H968.75H1000H1031.25H1062.5V31.75V63V94.25V125.5V156.75V188V219.25V250.5H1031.25ZM1000 156.75V125.5V94.25V63V31.75H968.75V63V94.25V125.5V156.75H1000ZM1218.75 156.75H1250V188H1218.75H1187.5H1156.25H1125H1093.75V156.75V125.5V94.25V63V31.75V0.5H1125H1156.25H1187.5H1218.75H1250V31.75V63V94.25V125.5H1218.75H1187.5H1156.25V156.75H1187.5H1218.75ZM1187.5 94.25V63V31.75H1156.25V63V94.25H1187.5ZM1312.5 188H1281.25V156.75V125.5V94.25V63V31.75V0.5H1312.5H1343.75H1375H1406.25H1437.5V31.75V63H1406.25H1375V31.75H1343.75V63V94.25V125.5V156.75V188H1312.5Z" fill="white"/>
</svg>
