<svg width="3625" height="251" viewBox="0 0 3625 251" fill="none" xmlns="http://www.w3.org/2000/svg">
<path d="M125 250.5H93.75H62.5H31.25H0V219.25H31.25H62.5H93.75V188H62.5H31.25H0V156.75V125.5V94.25V63V31.75V0.5H31.25H62.5V31.75V63V94.25V125.5V156.75H93.75V125.5V94.25V63V31.75V0.5H125H156.25V31.75V63V94.25V125.5V156.75V188V219.25V250.5H125ZM312.5 188H281.25H250H218.75H187.5V156.75V125.5V94.25V63V31.75V0.5H218.75H250H281.25H312.5H343.75V31.75V63V94.25V125.5V156.75V188H312.5ZM281.25 156.75V125.5V94.25V63V31.75H250V63V94.25V125.5V156.75H281.25ZM500 188H468.75H437.5H406.25H375V156.75V125.5V94.25V63V31.75V0.5H406.25H437.5V31.75V63V94.25V125.5V156.75H468.75V125.5V94.25V63V31.75V0.5H500H531.25V31.75V63V94.25V125.5V156.75V188H500ZM593.75 188H562.5V156.75V125.5V94.25V63V31.75V0.5H593.75H625H656.25H687.5H718.75V31.75V63H687.5H656.25V31.75H625V63V94.25V125.5V156.75V188H593.75ZM1031.25 94.25H1000V63V31.75H1031.25V0.5H1062.5V31.75V63V94.25H1031.25ZM937.5 94.25H906.25V63V31.75H937.5V0.5H968.75V31.75V63V94.25H937.5ZM1218.75 188H1187.5H1156.25H1125H1093.75V156.75V125.5V94.25V63H1125H1156.25H1187.5V31.75V0.5H1218.75H1250V31.75V63V94.25V125.5V156.75V188H1218.75ZM1187.5 156.75V125.5V94.25H1156.25V125.5V156.75H1187.5ZM1406.25 156.75H1437.5V188H1406.25H1375H1343.75H1312.5H1281.25V156.75V125.5V94.25V63V31.75V0.5H1312.5H1343.75H1375H1406.25H1437.5V31.75V63V94.25V125.5H1406.25H1375H1343.75V156.75H1375H1406.25ZM1375 94.25V63V31.75H1343.75V63V94.25H1375ZM1562.5 188H1531.25H1500V156.75V125.5V94.25H1468.75V63H1500V31.75V0.5H1531.25H1562.5V31.75V63H1593.75V94.25H1562.5V125.5V156.75H1593.75V188H1562.5ZM1750 156.75H1781.25V188H1750H1718.75H1687.5H1656.25H1625V156.75V125.5V94.25V63V31.75V0.5H1656.25H1687.5H1718.75H1750H1781.25V31.75V63V94.25V125.5H1750H1718.75H1687.5V156.75H1718.75H1750ZM1718.75 94.25V63V31.75H1687.5V63V94.25H1718.75ZM1843.75 188H1812.5V156.75V125.5V94.25V63V31.75V0.5H1843.75H1875H1906.25H1937.5H1968.75V31.75V63H1937.5H1906.25V31.75H1875V63V94.25V125.5V156.75V188H1843.75ZM2218.75 188H2187.5V156.75V125.5V94.25V63V31.75H2156.25V63V94.25V125.5V156.75V188H2125H2093.75V156.75V125.5V94.25V63V31.75H2062.5V63V94.25V125.5V156.75V188H2031.25H2000V156.75V125.5V94.25V63V31.75V0.5H2031.25H2062.5H2093.75H2125H2156.25H2187.5H2218.75H2250V31.75V63V94.25V125.5V156.75V188H2218.75ZM2312.5 188H2281.25V156.75V125.5V94.25V63H2312.5H2343.75V94.25V125.5V156.75V188H2312.5ZM2312.5 0.5H2343.75V31.75H2312.5H2281.25V0.5H2312.5ZM2500 188H2468.75V156.75V125.5V94.25V63V31.75H2437.5V63V94.25V125.5V156.75V188H2406.25H2375V156.75V125.5V94.25V63V31.75V0.5H2406.25H2437.5H2468.75H2500H2531.25V31.75V63V94.25V125.5V156.75V188H2500ZM2687.5 188H2656.25H2625H2593.75H2562.5V156.75V125.5V94.25V63H2593.75H2625H2656.25V31.75H2625H2593.75V0.5H2625H2656.25H2687.5H2718.75V31.75V63V94.25V125.5V156.75V188H2687.5ZM2656.25 156.75V125.5V94.25H2625V125.5V156.75H2656.25ZM2843.75 188H2812.5H2781.25V156.75V125.5V94.25H2750V63H2781.25V31.75V0.5H2812.5H2843.75V31.75V63H2875V94.25H2843.75V125.5V156.75H2875V188H2843.75ZM2937.5 188H2906.25V156.75V125.5V94.25V63H2937.5H2968.75V94.25V125.5V156.75V188H2937.5ZM2937.5 0.5H2968.75V31.75H2937.5H2906.25V0.5H2937.5ZM3125 188H3093.75H3062.5H3031.25H3000V156.75V125.5V94.25V63V31.75V0.5H3031.25H3062.5H3093.75H3125H3156.25V31.75V63V94.25V125.5V156.75V188H3125ZM3093.75 156.75V125.5V94.25V63V31.75H3062.5V63V94.25V125.5V156.75H3093.75ZM3312.5 188H3281.25V156.75V125.5V94.25V63V31.75H3250V63V94.25V125.5V156.75V188H3218.75H3187.5V156.75V125.5V94.25V63V31.75V0.5H3218.75H3250H3281.25H3312.5H3343.75V31.75V63V94.25V125.5V156.75V188H3312.5ZM3406.25 188H3375V156.75V125.5H3406.25H3437.5V156.75V188H3406.25ZM3593.75 94.25V63H3562.5V31.75V0.5H3593.75H3625V31.75V63V94.25H3593.75ZM3500 94.25V63H3468.75V31.75V0.5H3500H3531.25V31.75V63V94.25H3500Z" fill="white"/>
</svg>
