<svg width="844" height="188" viewBox="0 0 844 188" fill="none" xmlns="http://www.w3.org/2000/svg">
<path d="M125 188H93.75H62.5H31.25H0V156.75V125.5H31.25H62.5V156.75H93.75V125.5V94.25H62.5H31.25H0V63V31.75V0.5H31.25H62.5H93.75H125H156.25V31.75H125H93.75H62.5V63H93.75H125H156.25V94.25V125.5V156.75V188H125ZM281.25 188H250H218.75V156.75V125.5V94.25H187.5V63H218.75V31.75V0.5H250H281.25V31.75V63H312.5V94.25H281.25V125.5V156.75H312.5V188H281.25ZM375 188H343.75V156.75V125.5V94.25V63H375H406.25V94.25V125.5V156.75V188H375ZM375 0.5H406.25V31.75H375H343.75V0.5H375ZM500 188H468.75H437.5V156.75V125.5V94.25V63V31.75V0.5H468.75H500V31.75V63V94.25V125.5V156.75H531.25V188H500ZM625 188H593.75H562.5V156.75V125.5V94.25V63V31.75V0.5H593.75H625V31.75V63V94.25V125.5V156.75H656.25V188H625ZM750 156.75H781.25V188H750H718.75V156.75H750ZM812.5 125.5H781.25H750H718.75V94.25H750H781.25V63V31.75H750H718.75H687.5V0.5H718.75H750H781.25H812.5H843.75V31.75V63V94.25V125.5H812.5Z" fill="white"/>
</svg>
