<svg width="1907" height="251" viewBox="0 0 1907 251" fill="none" xmlns="http://www.w3.org/2000/svg">
<path d="M93.75 188H62.5H31.25H0V156.75H31.25V125.5V94.25V63V31.75H0V0.5H31.25H62.5H93.75H125V31.75H93.75V63V94.25V125.5V156.75H125V188H93.75ZM375 250.5H343.75H312.5V219.25H343.75V188V156.75V125.5V94.25V63H375H406.25V94.25V125.5V156.75V188V219.25V250.5H375ZM375 0.5H406.25V31.75H375H343.75V0.5H375ZM562.5 188H531.25H500H468.75H437.5V156.75V125.5V94.25V63V31.75V0.5H468.75H500V31.75V63V94.25V125.5V156.75H531.25V125.5V94.25V63V31.75V0.5H562.5H593.75V31.75V63V94.25V125.5V156.75V188H562.5ZM750 188H718.75H687.5H656.25H625V156.75V125.5H656.25H687.5V156.75H718.75V125.5V94.25H687.5H656.25H625V63V31.75V0.5H656.25H687.5H718.75H750H781.25V31.75H750H718.75H687.5V63H718.75H750H781.25V94.25V125.5V156.75V188H750ZM906.25 188H875H843.75V156.75V125.5V94.25H812.5V63H843.75V31.75V0.5H875H906.25V31.75V63H937.5V94.25H906.25V125.5V156.75H937.5V188H906.25ZM1343.75 188H1312.5H1281.25H1250H1218.75H1187.5H1156.25H1125V156.75V125.5V94.25V63V31.75V0.5H1156.25H1187.5V31.75V63V94.25V125.5V156.75H1218.75V125.5V94.25V63V31.75V0.5H1250H1281.25V31.75V63V94.25V125.5V156.75H1312.5V125.5V94.25V63V31.75V0.5H1343.75H1375V31.75V63V94.25V125.5V156.75V188H1343.75ZM1531.25 188H1500H1468.75H1437.5H1406.25V156.75V125.5V94.25V63H1437.5H1468.75H1500V31.75H1468.75H1437.5V0.5H1468.75H1500H1531.25H1562.5V31.75V63V94.25V125.5V156.75V188H1531.25ZM1500 156.75V125.5V94.25H1468.75V125.5V156.75H1500ZM1718.75 188H1687.5V156.75V125.5V94.25V63V31.75H1656.25V63V94.25V125.5V156.75V188H1625H1593.75V156.75V125.5V94.25V63V31.75V0.5H1625H1656.25H1687.5H1718.75H1750V31.75V63V94.25V125.5V156.75V188H1718.75ZM1875 188H1843.75H1812.5V156.75V125.5V94.25H1781.25V63H1812.5V31.75V0.5H1843.75H1875V31.75V63H1906.25V94.25H1875V125.5V156.75H1906.25V188H1875Z" fill="white"/>
</svg>
