<svg width="1407" height="251" viewBox="0 0 1407 251" fill="none" xmlns="http://www.w3.org/2000/svg">
<path d="M125 188H93.75H62.5H31.25H0V156.75V125.5H31.25H62.5V156.75H93.75V125.5V94.25H62.5H31.25H0V63V31.75V0.5H31.25H62.5H93.75H125H156.25V31.75H125H93.75H62.5V63H93.75H125H156.25V94.25V125.5V156.75V188H125ZM312.5 188H281.25H250H218.75H187.5V156.75V125.5V94.25V63V31.75V0.5H218.75H250V31.75V63V94.25V125.5V156.75H281.25V125.5V94.25V63V31.75V0.5H312.5H343.75V31.75V63V94.25V125.5V156.75V188H312.5ZM500 188H468.75H437.5H406.25H375V156.75V125.5V94.25V63H406.25H437.5H468.75V31.75V0.5H500H531.25V31.75V63V94.25V125.5V156.75V188H500ZM468.75 156.75V125.5V94.25H437.5V125.5V156.75H468.75ZM687.5 188H656.25H625H593.75H562.5V156.75V125.5V94.25V63H593.75H625H656.25V31.75V0.5H687.5H718.75V31.75V63V94.25V125.5V156.75V188H687.5ZM656.25 156.75V125.5V94.25H625V125.5V156.75H656.25ZM875 156.75H906.25V188H875H843.75H812.5H781.25H750V156.75V125.5V94.25V63V31.75V0.5H781.25H812.5H843.75H875H906.25V31.75V63V94.25V125.5H875H843.75H812.5V156.75H843.75H875ZM843.75 94.25V63V31.75H812.5V63V94.25H843.75ZM1062.5 188H1031.25V156.75V125.5V94.25V63V31.75H1000V63V94.25V125.5V156.75V188H968.75H937.5V156.75V125.5V94.25V63V31.75V0.5H968.75H1000H1031.25H1062.5H1093.75V31.75V63V94.25V125.5V156.75V188H1062.5ZM1187.5 188H1156.25H1125V156.75V125.5V94.25V63V31.75V0.5H1156.25H1187.5V31.75V63V94.25V125.5V156.75H1218.75V188H1187.5ZM1375 250.5H1343.75H1312.5H1281.25H1250V219.25H1281.25H1312.5H1343.75V188H1312.5H1281.25H1250V156.75V125.5V94.25V63V31.75V0.5H1281.25H1312.5V31.75V63V94.25V125.5V156.75H1343.75V125.5V94.25V63V31.75V0.5H1375H1406.25V31.75V63V94.25V125.5V156.75V188V219.25V250.5H1375Z" fill="white"/>
</svg>
