<svg width="719" height="188" viewBox="0 0 719 188" fill="none" xmlns="http://www.w3.org/2000/svg">
<path d="M125 188H93.75V156.75V125.5V94.25H62.5V125.5V156.75V188H31.25H0V156.75V125.5V94.25V63V31.75V0.5H31.25H62.5V31.75V63H93.75V31.75V0.5H125H156.25V31.75V63V94.25V125.5V156.75V188H125ZM312.5 188H281.25H250H218.75H187.5V156.75V125.5V94.25V63V31.75V0.5H218.75H250V31.75V63V94.25V125.5V156.75H281.25V125.5V94.25V63V31.75V0.5H312.5H343.75V31.75V63V94.25V125.5V156.75V188H312.5ZM500 188H468.75V156.75V125.5V94.25H437.5V125.5V156.75V188H406.25H375V156.75V125.5V94.25V63V31.75V0.5H406.25H437.5V31.75V63H468.75H500H531.25V94.25V125.5V156.75V188H500ZM625 156.75H656.25V188H625H593.75V156.75H625ZM687.5 125.5H656.25H625H593.75V94.25H625H656.25V63V31.75H625H593.75H562.5V0.5H593.75H625H656.25H687.5H718.75V31.75V63V94.25V125.5H687.5Z" fill="white"/>
</svg>
