<svg width="3313" height="251" viewBox="0 0 3313 251" fill="none" xmlns="http://www.w3.org/2000/svg">
<path d="M125 188H93.75V156.75V125.5H62.5V156.75V188H31.25H0V156.75V125.5V94.25V63V31.75V0.5H31.25H62.5H93.75H125H156.25V31.75V63V94.25V125.5V156.75V188H125ZM93.75 94.25V63V31.75H62.5V63V94.25H93.75ZM312.5 188H281.25V156.75V125.5V94.25V63V31.75H250V63V94.25V125.5V156.75V188H218.75H187.5V156.75V125.5V94.25V63V31.75V0.5H218.75H250H281.25H312.5H343.75V31.75V63V94.25V125.5V156.75V188H312.5ZM500 188H468.75H437.5H406.25H375V156.75V125.5V94.25V63H406.25H437.5H468.75V31.75V0.5H500H531.25V31.75V63V94.25V125.5V156.75V188H500ZM468.75 156.75V125.5V94.25H437.5V125.5V156.75H468.75ZM812.5 188H781.25H750V156.75V125.5V94.25H718.75V63H750V31.75V0.5H781.25H812.5V31.75V63H843.75V94.25H812.5V125.5V156.75H843.75V188H812.5ZM1000 188H968.75V156.75V125.5V94.25H937.5V125.5V156.75V188H906.25H875V156.75V125.5V94.25V63V31.75V0.5H906.25H937.5V31.75V63H968.75H1000H1031.25V94.25V125.5V156.75V188H1000ZM1187.5 156.75H1218.75V188H1187.5H1156.25H1125H1093.75H1062.5V156.75V125.5V94.25V63V31.75V0.5H1093.75H1125H1156.25H1187.5H1218.75V31.75V63V94.25V125.5H1187.5H1156.25H1125V156.75H1156.25H1187.5ZM1156.25 94.25V63V31.75H1125V63V94.25H1156.25ZM1375 188H1343.75V156.75V125.5V94.25V63V31.75H1312.5V63V94.25V125.5V156.75V188H1281.25H1250V156.75V125.5V94.25V63V31.75V0.5H1281.25H1312.5H1343.75H1375H1406.25V31.75V63V94.25V125.5V156.75V188H1375ZM1718.75 250.5H1687.5H1656.25H1625H1593.75V219.25H1625H1656.25H1687.5V188H1656.25H1625H1593.75V156.75V125.5V94.25V63V31.75V0.5H1625H1656.25V31.75V63V94.25V125.5V156.75H1687.5V125.5V94.25V63V31.75V0.5H1718.75H1750V31.75V63V94.25V125.5V156.75V188V219.25V250.5H1718.75ZM1906.25 188H1875H1843.75H1812.5H1781.25V156.75V125.5V94.25V63V31.75V0.5H1812.5H1843.75H1875H1906.25H1937.5V31.75V63V94.25V125.5V156.75V188H1906.25ZM1875 156.75V125.5V94.25V63V31.75H1843.75V63V94.25V125.5V156.75H1875ZM2093.75 188H2062.5H2031.25H2000H1968.75V156.75V125.5V94.25V63V31.75V0.5H2000H2031.25V31.75V63V94.25V125.5V156.75H2062.5V125.5V94.25V63V31.75V0.5H2093.75H2125V31.75V63V94.25V125.5V156.75V188H2093.75ZM2187.5 94.25V63H2156.25V31.75V0.5H2187.5H2218.75V31.75V63V94.25H2187.5ZM2312.5 188H2281.25H2250V156.75V125.5V94.25V63V31.75V0.5H2281.25H2312.5V31.75V63V94.25V125.5V156.75H2343.75V188H2312.5ZM2437.5 188H2406.25H2375V156.75V125.5V94.25V63V31.75V0.5H2406.25H2437.5V31.75V63V94.25V125.5V156.75H2468.75V188H2437.5ZM2718.75 188H2687.5H2656.25V156.75V125.5V94.25V63V31.75V0.5H2687.5H2718.75V31.75V63V94.25V125.5V156.75H2750V188H2718.75ZM2906.25 188H2875H2843.75H2812.5H2781.25V156.75V125.5V94.25V63V31.75V0.5H2812.5H2843.75H2875H2906.25H2937.5V31.75V63V94.25V125.5V156.75V188H2906.25ZM2875 156.75V125.5V94.25V63V31.75H2843.75V63V94.25V125.5V156.75H2875ZM3093.75 188H3062.5H3031.25H3000H2968.75V156.75V125.5H3000H3031.25V156.75H3062.5V125.5V94.25H3031.25H3000H2968.75V63V31.75V0.5H3000H3031.25H3062.5H3093.75H3125V31.75H3093.75H3062.5H3031.25V63H3062.5H3093.75H3125V94.25V125.5V156.75V188H3093.75ZM3281.25 156.75H3312.5V188H3281.25H3250H3218.75H3187.5H3156.25V156.75V125.5V94.25V63V31.75V0.5H3187.5H3218.75H3250H3281.25H3312.5V31.75V63V94.25V125.5H3281.25H3250H3218.75V156.75H3250H3281.25ZM3250 94.25V63V31.75H3218.75V63V94.25H3250Z" fill="white"/>
</svg>
