<svg width="2000" height="251" viewBox="0 0 2000 251" fill="none" xmlns="http://www.w3.org/2000/svg">
<path d="M125 188H93.75H62.5H31.25H0V156.75V125.5V94.25V63V31.75V0.5H31.25H62.5H93.75H125H156.25V31.75V63H125V94.25H156.25V125.5V156.75V188H125ZM93.75 156.75V125.5V94.25H62.5V125.5V156.75H93.75ZM93.75 63V31.75H62.5V63H93.75ZM312.5 156.75H343.75V188H312.5H281.25H250H218.75H187.5V156.75V125.5V94.25V63V31.75V0.5H218.75H250H281.25H312.5H343.75V31.75V63V94.25V125.5H312.5H281.25H250V156.75H281.25H312.5ZM281.25 94.25V63V31.75H250V63V94.25H281.25ZM500 188H468.75H437.5H406.25H375V156.75V125.5V94.25V63V31.75V0.5H406.25H437.5H468.75H500H531.25V31.75V63H500H468.75V31.75H437.5V63V94.25V125.5V156.75H468.75V125.5H500H531.25V156.75V188H500ZM687.5 188H656.25H625H593.75H562.5V156.75V125.5V94.25V63H593.75H625H656.25V31.75H625H593.75V0.5H625H656.25H687.5H718.75V31.75V63V94.25V125.5V156.75V188H687.5ZM656.25 156.75V125.5V94.25H625V125.5V156.75H656.25ZM875 188H843.75H812.5H781.25H750V156.75V125.5V94.25V63V31.75V0.5H781.25H812.5V31.75V63V94.25V125.5V156.75H843.75V125.5V94.25V63V31.75V0.5H875H906.25V31.75V63V94.25V125.5V156.75V188H875ZM1062.5 188H1031.25H1000H968.75H937.5V156.75V125.5H968.75H1000V156.75H1031.25V125.5V94.25H1000H968.75H937.5V63V31.75V0.5H968.75H1000H1031.25H1062.5H1093.75V31.75H1062.5H1031.25H1000V63H1031.25H1062.5H1093.75V94.25V125.5V156.75V188H1062.5ZM1250 156.75H1281.25V188H1250H1218.75H1187.5H1156.25H1125V156.75V125.5V94.25V63V31.75V0.5H1156.25H1187.5H1218.75H1250H1281.25V31.75V63V94.25V125.5H1250H1218.75H1187.5V156.75H1218.75H1250ZM1218.75 94.25V63V31.75H1187.5V63V94.25H1218.75ZM1593.75 250.5H1562.5H1531.25H1500H1468.75V219.25H1500H1531.25H1562.5V188H1531.25H1500H1468.75V156.75V125.5V94.25V63V31.75V0.5H1500H1531.25V31.75V63V94.25V125.5V156.75H1562.5V125.5V94.25V63V31.75V0.5H1593.75H1625V31.75V63V94.25V125.5V156.75V188V219.25V250.5H1593.75ZM1781.25 188H1750H1718.75H1687.5H1656.25V156.75V125.5V94.25V63V31.75V0.5H1687.5H1718.75H1750H1781.25H1812.5V31.75V63V94.25V125.5V156.75V188H1781.25ZM1750 156.75V125.5V94.25V63V31.75H1718.75V63V94.25V125.5V156.75H1750ZM1968.75 188H1937.5H1906.25H1875H1843.75V156.75V125.5V94.25V63V31.75V0.5H1875H1906.25V31.75V63V94.25V125.5V156.75H1937.5V125.5V94.25V63V31.75V0.5H1968.75H2000V31.75V63V94.25V125.5V156.75V188H1968.75Z" fill="white"/>
</svg>
