<svg width="2063" height="188" viewBox="0 0 2063 188" fill="none" xmlns="http://www.w3.org/2000/svg">
<path d="M93.75 188H62.5H31.25H0V156.75H31.25V125.5V94.25V63V31.75H0V0.5H31.25H62.5H93.75H125V31.75H93.75V63V94.25V125.5V156.75H125V188H93.75ZM437.5 188H406.25H375H343.75H312.5V156.75V125.5V94.25V63V31.75V0.5H343.75H375H406.25H437.5H468.75V31.75V63H437.5H406.25V31.75H375V63V94.25V125.5V156.75H406.25V125.5H437.5H468.75V156.75V188H437.5ZM625 188H593.75H562.5H531.25H500V156.75V125.5V94.25V63H531.25H562.5H593.75V31.75H562.5H531.25V0.5H562.5H593.75H625H656.25V31.75V63V94.25V125.5V156.75V188H625ZM593.75 156.75V125.5V94.25H562.5V125.5V156.75H593.75ZM812.5 188H781.25V156.75V125.5V94.25V63V31.75H750V63V94.25V125.5V156.75V188H718.75H687.5V156.75V125.5V94.25V63V31.75V0.5H718.75H750H781.25H812.5H843.75V31.75V63V94.25V125.5V156.75V188H812.5ZM1093.75 188H1062.5V156.75V125.5V94.25H1031.25V63H1062.5V31.75V0.5H1093.75H1125H1156.25V31.75H1125V63H1156.25V94.25H1125V125.5V156.75V188H1093.75ZM1312.5 156.75H1343.75V188H1312.5H1281.25H1250H1218.75H1187.5V156.75V125.5V94.25V63V31.75V0.5H1218.75H1250H1281.25H1312.5H1343.75V31.75V63V94.25V125.5H1312.5H1281.25H1250V156.75H1281.25H1312.5ZM1281.25 94.25V63V31.75H1250V63V94.25H1281.25ZM1500 156.75H1531.25V188H1500H1468.75H1437.5H1406.25H1375V156.75V125.5V94.25V63V31.75V0.5H1406.25H1437.5H1468.75H1500H1531.25V31.75V63V94.25V125.5H1500H1468.75H1437.5V156.75H1468.75H1500ZM1468.75 94.25V63V31.75H1437.5V63V94.25H1468.75ZM1625 188H1593.75H1562.5V156.75V125.5V94.25V63V31.75V0.5H1593.75H1625V31.75V63V94.25V125.5V156.75H1656.25V188H1625ZM1875 188H1843.75V156.75V125.5V94.25V63H1875H1906.25V94.25V125.5V156.75V188H1875ZM1875 0.5H1906.25V31.75H1875H1843.75V0.5H1875ZM2031.25 188H2000H1968.75V156.75V125.5V94.25H1937.5V63H1968.75V31.75V0.5H2000H2031.25V31.75V63H2062.5V94.25H2031.25V125.5V156.75H2062.5V188H2031.25Z" fill="white"/>
</svg>
