<svg width="3250" height="251" viewBox="0 0 3250 251" fill="none" xmlns="http://www.w3.org/2000/svg">
<path d="M125 188H93.75V156.75V125.5H62.5V156.75V188H31.25H0V156.75V125.5V94.25V63V31.75V0.5H31.25H62.5H93.75H125H156.25V31.75V63V94.25V125.5V156.75V188H125ZM93.75 94.25V63V31.75H62.5V63V94.25H93.75ZM250 188H218.75H187.5V156.75V125.5V94.25V63V31.75V0.5H218.75H250V31.75V63V94.25V125.5V156.75H281.25V188H250ZM375 188H343.75H312.5V156.75V125.5V94.25V63V31.75V0.5H343.75H375V31.75V63V94.25V125.5V156.75H406.25V188H375ZM718.75 250.5H687.5H656.25H625H593.75V219.25H625H656.25H687.5V188H656.25H625H593.75V156.75V125.5V94.25V63V31.75V0.5H625H656.25V31.75V63V94.25V125.5V156.75H687.5V125.5V94.25V63V31.75V0.5H718.75H750V31.75V63V94.25V125.5V156.75V188V219.25V250.5H718.75ZM906.25 188H875H843.75H812.5H781.25V156.75V125.5V94.25V63V31.75V0.5H812.5H843.75H875H906.25H937.5V31.75V63V94.25V125.5V156.75V188H906.25ZM875 156.75V125.5V94.25V63V31.75H843.75V63V94.25V125.5V156.75H875ZM1093.75 188H1062.5H1031.25H1000H968.75V156.75V125.5V94.25V63V31.75V0.5H1000H1031.25V31.75V63V94.25V125.5V156.75H1062.5V125.5V94.25V63V31.75V0.5H1093.75H1125V31.75V63V94.25V125.5V156.75V188H1093.75ZM1187.5 188H1156.25V156.75V125.5V94.25V63V31.75V0.5H1187.5H1218.75H1250H1281.25H1312.5V31.75V63H1281.25H1250V31.75H1218.75V63V94.25V125.5V156.75V188H1187.5ZM1531.25 250.5H1500V219.25V188V156.75V125.5V94.25V63V31.75V0.5H1531.25H1562.5H1593.75H1625H1656.25V31.75V63V94.25V125.5V156.75V188H1625H1593.75H1562.5V219.25V250.5H1531.25ZM1593.75 156.75V125.5V94.25V63V31.75H1562.5V63V94.25V125.5V156.75H1593.75ZM1718.75 188H1687.5V156.75V125.5V94.25V63V31.75V0.5H1718.75H1750H1781.25H1812.5H1843.75V31.75V63H1812.5H1781.25V31.75H1750V63V94.25V125.5V156.75V188H1718.75ZM2000 188H1968.75H1937.5H1906.25H1875V156.75V125.5V94.25V63V31.75V0.5H1906.25H1937.5H1968.75H2000H2031.25V31.75V63V94.25V125.5V156.75V188H2000ZM1968.75 156.75V125.5V94.25V63V31.75H1937.5V63V94.25V125.5V156.75H1968.75ZM2187.5 250.5H2156.25H2125H2093.75V219.25H2125H2156.25V188H2125H2093.75H2062.5V156.75V125.5V94.25V63V31.75V0.5H2093.75H2125H2156.25H2187.5H2218.75V31.75V63V94.25V125.5V156.75V188V219.25V250.5H2187.5ZM2156.25 156.75V125.5V94.25V63V31.75H2125V63V94.25V125.5V156.75H2156.25ZM2281.25 188H2250V156.75V125.5V94.25V63V31.75V0.5H2281.25H2312.5H2343.75H2375H2406.25V31.75V63H2375H2343.75V31.75H2312.5V63V94.25V125.5V156.75V188H2281.25ZM2562.5 156.75H2593.75V188H2562.5H2531.25H2500H2468.75H2437.5V156.75V125.5V94.25V63V31.75V0.5H2468.75H2500H2531.25H2562.5H2593.75V31.75V63V94.25V125.5H2562.5H2531.25H2500V156.75H2531.25H2562.5ZM2531.25 94.25V63V31.75H2500V63V94.25H2531.25ZM2750 188H2718.75H2687.5H2656.25H2625V156.75V125.5H2656.25H2687.5V156.75H2718.75V125.5V94.25H2687.5H2656.25H2625V63V31.75V0.5H2656.25H2687.5H2718.75H2750H2781.25V31.75H2750H2718.75H2687.5V63H2718.75H2750H2781.25V94.25V125.5V156.75V188H2750ZM2937.5 188H2906.25H2875H2843.75H2812.5V156.75V125.5H2843.75H2875V156.75H2906.25V125.5V94.25H2875H2843.75H2812.5V63V31.75V0.5H2843.75H2875H2906.25H2937.5H2968.75V31.75H2937.5H2906.25H2875V63H2906.25H2937.5H2968.75V94.25V125.5V156.75V188H2937.5ZM3031.25 188H3000V156.75V125.5H3031.25H3062.5V156.75V188H3031.25ZM3125 188H3093.75V156.75V125.5H3125H3156.25V156.75V188H3125ZM3218.75 188H3187.5V156.75V125.5H3218.75H3250V156.75V188H3218.75Z" fill="white"/>
</svg>
