<svg width="2438" height="188" viewBox="0 0 2438 188" fill="none" xmlns="http://www.w3.org/2000/svg">
<path d="M93.75 188H62.5H31.25H0V156.75H31.25V125.5V94.25V63V31.75H0V0.5H31.25H62.5H93.75H125V31.75H93.75V63V94.25V125.5V156.75H125V188H93.75ZM531.25 188H500H468.75H437.5H406.25H375H343.75H312.5V156.75V125.5V94.25V63V31.75V0.5H343.75H375V31.75V63V94.25V125.5V156.75H406.25V125.5V94.25V63V31.75V0.5H437.5H468.75V31.75V63V94.25V125.5V156.75H500V125.5V94.25V63V31.75V0.5H531.25H562.5V31.75V63V94.25V125.5V156.75V188H531.25ZM718.75 188H687.5H656.25H625H593.75V156.75V125.5V94.25V63H625H656.25H687.5V31.75H656.25H625V0.5H656.25H687.5H718.75H750V31.75V63V94.25V125.5V156.75V188H718.75ZM687.5 156.75V125.5V94.25H656.25V125.5V156.75H687.5ZM906.25 188H875H843.75H812.5H781.25V156.75V125.5H812.5H843.75V156.75H875V125.5V94.25H843.75H812.5H781.25V63V31.75V0.5H812.5H843.75H875H906.25H937.5V31.75H906.25H875H843.75V63H875H906.25H937.5V94.25V125.5V156.75V188H906.25ZM1250 188H1218.75H1187.5H1156.25H1125V156.75V125.5H1156.25H1187.5V156.75H1218.75V125.5V94.25H1187.5H1156.25H1125V63V31.75V0.5H1156.25H1187.5H1218.75H1250H1281.25V31.75H1250H1218.75H1187.5V63H1218.75H1250H1281.25V94.25V125.5V156.75V188H1250ZM1437.5 188H1406.25H1375H1343.75H1312.5V156.75V125.5V94.25V63V31.75V0.5H1343.75H1375H1406.25H1437.5H1468.75V31.75V63V94.25V125.5V156.75V188H1437.5ZM1406.25 156.75V125.5V94.25V63V31.75H1375V63V94.25V125.5V156.75H1406.25ZM1750 188H1718.75H1687.5V156.75V125.5V94.25H1656.25V63H1687.5V31.75V0.5H1718.75H1750V31.75V63H1781.25V94.25H1750V125.5V156.75H1781.25V188H1750ZM1843.75 188H1812.5V156.75V125.5V94.25V63H1843.75H1875V94.25V125.5V156.75V188H1843.75ZM1843.75 0.5H1875V31.75H1843.75H1812.5V0.5H1843.75ZM1937.5 188H1906.25V156.75V125.5V94.25V63V31.75V0.5H1937.5H1968.75H2000H2031.25H2062.5V31.75V63H2031.25H2000V31.75H1968.75V63V94.25V125.5V156.75V188H1937.5ZM2218.75 156.75H2250V188H2218.75H2187.5H2156.25H2125H2093.75V156.75V125.5V94.25V63V31.75V0.5H2125H2156.25H2187.5H2218.75H2250V31.75V63V94.25V125.5H2218.75H2187.5H2156.25V156.75H2187.5H2218.75ZM2187.5 94.25V63V31.75H2156.25V63V94.25H2187.5ZM2406.25 188H2375H2343.75H2312.5H2281.25V156.75V125.5V94.25V63H2312.5H2343.75H2375V31.75V0.5H2406.25H2437.5V31.75V63V94.25V125.5V156.75V188H2406.25ZM2375 156.75V125.5V94.25H2343.75V125.5V156.75H2375Z" fill="white"/>
</svg>
