<svg width="907" height="188" viewBox="0 0 907 188" fill="none" xmlns="http://www.w3.org/2000/svg">
<path d="M93.75 188H62.5V156.75V125.5V94.25H31.25H0V63V31.75V0.5H31.25H62.5V31.75V63H93.75H125V31.75V0.5H156.25H187.5V31.75V63V94.25H156.25H125V125.5V156.75V188H93.75ZM343.75 188H312.5H281.25H250H218.75V156.75V125.5V94.25V63V31.75V0.5H250H281.25H312.5H343.75H375V31.75V63V94.25V125.5V156.75V188H343.75ZM312.5 156.75V125.5V94.25V63V31.75H281.25V63V94.25V125.5V156.75H312.5ZM531.25 188H500H468.75H437.5H406.25V156.75V125.5V94.25V63V31.75V0.5H437.5H468.75V31.75V63V94.25V125.5V156.75H500V125.5V94.25V63V31.75V0.5H531.25H562.5V31.75V63V94.25V125.5V156.75V188H531.25ZM625 94.25V63H593.75V31.75V0.5H625H656.25V31.75V63V94.25H625ZM750 188H718.75H687.5V156.75V125.5V94.25V63V31.75V0.5H718.75H750V31.75V63V94.25V125.5V156.75H781.25V188H750ZM875 188H843.75H812.5V156.75V125.5V94.25V63V31.75V0.5H843.75H875V31.75V63V94.25V125.5V156.75H906.25V188H875Z" fill="white"/>
</svg>
