<svg width="2407" height="251" viewBox="0 0 2407 251" fill="none" xmlns="http://www.w3.org/2000/svg">
<path d="M125 250.5H93.75H62.5H31.25H0V219.25H31.25H62.5H93.75V188H62.5H31.25H0V156.75V125.5V94.25V63V31.75V0.5H31.25H62.5V31.75V63V94.25V125.5V156.75H93.75V125.5V94.25V63V31.75V0.5H125H156.25V31.75V63V94.25V125.5V156.75V188V219.25V250.5H125ZM312.5 188H281.25H250H218.75H187.5V156.75V125.5V94.25V63V31.75V0.5H218.75H250H281.25H312.5H343.75V31.75V63V94.25V125.5V156.75V188H312.5ZM281.25 156.75V125.5V94.25V63V31.75H250V63V94.25V125.5V156.75H281.25ZM500 188H468.75H437.5H406.25H375V156.75V125.5V94.25V63V31.75V0.5H406.25H437.5V31.75V63V94.25V125.5V156.75H468.75V125.5V94.25V63V31.75V0.5H500H531.25V31.75V63V94.25V125.5V156.75V188H500ZM750 188H718.75V156.75V125.5V94.25V63V31.75V0.5H750H781.25H812.5H843.75H875V31.75V63H843.75H812.5V31.75H781.25V63V94.25V125.5V156.75V188H750ZM1031.25 156.75H1062.5V188H1031.25H1000H968.75H937.5H906.25V156.75V125.5V94.25V63V31.75V0.5H937.5H968.75H1000H1031.25H1062.5V31.75V63V94.25V125.5H1031.25H1000H968.75V156.75H1000H1031.25ZM1000 94.25V63V31.75H968.75V63V94.25H1000ZM1218.75 188H1187.5H1156.25H1125H1093.75V156.75V125.5V94.25V63H1125H1156.25H1187.5V31.75H1156.25H1125V0.5H1156.25H1187.5H1218.75H1250V31.75V63V94.25V125.5V156.75V188H1218.75ZM1187.5 156.75V125.5V94.25H1156.25V125.5V156.75H1187.5ZM1343.75 188H1312.5H1281.25V156.75V125.5V94.25V63V31.75V0.5H1312.5H1343.75V31.75V63V94.25V125.5V156.75H1375V188H1343.75ZM1468.75 188H1437.5H1406.25V156.75V125.5V94.25V63V31.75V0.5H1437.5H1468.75V31.75V63V94.25V125.5V156.75H1500V188H1468.75ZM1656.25 250.5H1625H1593.75H1562.5H1531.25V219.25H1562.5H1593.75H1625V188H1593.75H1562.5H1531.25V156.75V125.5V94.25V63V31.75V0.5H1562.5H1593.75V31.75V63V94.25V125.5V156.75H1625V125.5V94.25V63V31.75V0.5H1656.25H1687.5V31.75V63V94.25V125.5V156.75V188V219.25V250.5H1656.25ZM2000 188H1968.75V156.75V125.5H1937.5V156.75V188H1906.25H1875V156.75V125.5V94.25V63V31.75V0.5H1906.25H1937.5H1968.75H2000H2031.25V31.75V63V94.25V125.5V156.75V188H2000ZM1968.75 94.25V63V31.75H1937.5V63V94.25H1968.75ZM2187.5 188H2156.25V156.75V125.5H2125V156.75V188H2093.75H2062.5V156.75V125.5V94.25V63V31.75V0.5H2093.75H2125H2156.25H2187.5H2218.75V31.75V63V94.25H2187.5V125.5H2218.75V156.75V188H2187.5ZM2156.25 94.25V63V31.75H2125V63V94.25H2156.25ZM2375 188H2343.75H2312.5H2281.25H2250V156.75V125.5V94.25V63V31.75V0.5H2281.25H2312.5H2343.75H2375H2406.25V31.75H2375H2343.75H2312.5V63H2343.75H2375V94.25H2343.75H2312.5V125.5V156.75H2343.75V125.5H2375H2406.25V156.75V188H2375Z" fill="white"/>
</svg>
