<svg width="2063" height="220" viewBox="0 0 2063 220" fill="none" xmlns="http://www.w3.org/2000/svg">
<path d="M156.25 188H125V156.75V125.5H93.75V94.25H62.5V125.5V156.75V188H31.25H0V156.75V125.5V94.25V63V31.75V0.5H31.25H62.5V31.75H93.75V63H125V31.75V0.5H156.25H187.5V31.75V63V94.25V125.5V156.75V188H156.25ZM343.75 188H312.5H281.25H250H218.75V156.75V125.5V94.25V63V31.75V0.5H250H281.25H312.5H343.75H375V31.75V63V94.25V125.5V156.75V188H343.75ZM312.5 156.75V125.5V94.25V63V31.75H281.25V63V94.25V125.5V156.75H312.5ZM625 188H593.75H562.5H531.25H500H468.75H437.5H406.25V156.75V125.5V94.25V63V31.75V0.5H437.5H468.75V31.75V63V94.25V125.5V156.75H500V125.5V94.25V63V31.75V0.5H531.25H562.5V31.75V63V94.25V125.5V156.75H593.75V125.5V94.25V63V31.75V0.5H625H656.25V31.75V63V94.25V125.5V156.75V188H625ZM687.5 219.25V188V156.75V125.5H718.75H750V156.75V188H718.75V219.25H687.5ZM1062.5 188H1031.25H1000H968.75H937.5V156.75V125.5V94.25V63V31.75V0.5H968.75H1000H1031.25H1062.5H1093.75V31.75H1062.5H1031.25H1000V63H1031.25H1062.5V94.25H1031.25H1000V125.5V156.75H1031.25V125.5H1062.5H1093.75V156.75V188H1062.5ZM1281.25 188H1250V156.75V125.5H1218.75V94.25H1187.5V125.5V156.75V188H1156.25H1125V156.75V125.5V94.25V63V31.75V0.5H1156.25H1187.5V31.75H1218.75V63H1250V31.75V0.5H1281.25H1312.5V31.75V63V94.25V125.5V156.75V188H1281.25ZM1468.75 188H1437.5H1406.25H1375H1343.75V156.75V125.5V94.25V63V31.75V0.5H1375H1406.25H1437.5H1468.75H1500V31.75V63V94.25V125.5V156.75V188H1468.75ZM1437.5 156.75V125.5V94.25V63V31.75H1406.25V63V94.25V125.5V156.75H1437.5ZM1656.25 188H1625H1593.75H1562.5H1531.25V156.75V125.5V94.25V63V31.75V0.5H1562.5H1593.75V31.75V63V94.25V125.5V156.75H1625V125.5V94.25V63V31.75V0.5H1656.25H1687.5V31.75V63V94.25V125.5V156.75V188H1656.25ZM1843.75 188H1812.5H1781.25H1750H1718.75V156.75V125.5V94.25V63V31.75V0.5H1750H1781.25H1812.5H1843.75H1875V31.75V63H1843.75H1812.5V31.75H1781.25V63V94.25V125.5V156.75H1812.5V125.5V94.25H1843.75H1875V125.5V156.75V188H1843.75ZM2031.25 188H2000V156.75V125.5V94.25H1968.75V125.5V156.75V188H1937.5H1906.25V156.75V125.5V94.25V63V31.75V0.5H1937.5H1968.75V31.75V63H2000V31.75V0.5H2031.25H2062.5V31.75V63V94.25V125.5V156.75V188H2031.25Z" fill="white"/>
</svg>
