<svg width="1657" height="251" viewBox="0 0 1657 251" fill="none" xmlns="http://www.w3.org/2000/svg">
<path d="M125 188H93.75H62.5H31.25H0V156.75V125.5V94.25V63V31.75V0.5H31.25H62.5H93.75H125H156.25V31.75V63H125V94.25H156.25V125.5V156.75V188H125ZM93.75 156.75V125.5V94.25H62.5V125.5V156.75H93.75ZM93.75 63V31.75H62.5V63H93.75ZM312.5 156.75H343.75V188H312.5H281.25H250H218.75H187.5V156.75V125.5V94.25V63V31.75V0.5H218.75H250H281.25H312.5H343.75V31.75V63V94.25V125.5H312.5H281.25H250V156.75H281.25H312.5ZM281.25 94.25V63V31.75H250V63V94.25H281.25ZM500 188H468.75V156.75V125.5V94.25H437.5V125.5V156.75V188H406.25H375V156.75V125.5V94.25V63V31.75V0.5H406.25H437.5V31.75V63H468.75H500H531.25V94.25V125.5V156.75V188H500ZM687.5 188H656.25H625H593.75H562.5V156.75V125.5V94.25V63V31.75V0.5H593.75H625H656.25H687.5H718.75V31.75V63V94.25V125.5V156.75V188H687.5ZM656.25 156.75V125.5V94.25V63V31.75H625V63V94.25V125.5V156.75H656.25ZM812.5 188H781.25H750V156.75V125.5V94.25V63V31.75V0.5H781.25H812.5V31.75V63V94.25V125.5V156.75H843.75V188H812.5ZM1000 188H968.75H937.5H906.25H875V156.75V125.5V94.25V63H906.25H937.5H968.75V31.75V0.5H1000H1031.25V31.75V63V94.25V125.5V156.75V188H1000ZM968.75 156.75V125.5V94.25H937.5V125.5V156.75H968.75ZM1437.5 188H1406.25V156.75V125.5V94.25V63V31.75H1375V63V94.25V125.5V156.75V188H1343.75H1312.5V156.75V125.5V94.25V63V31.75H1281.25V63V94.25V125.5V156.75V188H1250H1218.75V156.75V125.5V94.25V63V31.75V0.5H1250H1281.25H1312.5H1343.75H1375H1406.25H1437.5H1468.75V31.75V63V94.25V125.5V156.75V188H1437.5ZM1625 250.5H1593.75H1562.5H1531.25H1500V219.25H1531.25H1562.5H1593.75V188H1562.5H1531.25H1500V156.75V125.5V94.25V63V31.75V0.5H1531.25H1562.5V31.75V63V94.25V125.5V156.75H1593.75V125.5V94.25V63V31.75V0.5H1625H1656.25V31.75V63V94.25V125.5V156.75V188V219.25V250.5H1625Z" fill="white"/>
</svg>
