<svg width="1938" height="251" viewBox="0 0 1938 251" fill="none" xmlns="http://www.w3.org/2000/svg">
<path d="M125 188H93.75H62.5H31.25H0V156.75V125.5H31.25H62.5V156.75H93.75V125.5V94.25H62.5H31.25H0V63V31.75V0.5H31.25H62.5H93.75H125H156.25V31.75H125H93.75H62.5V63H93.75H125H156.25V94.25V125.5V156.75V188H125ZM281.25 188H250H218.75V156.75V125.5V94.25H187.5V63H218.75V31.75V0.5H250H281.25V31.75V63H312.5V94.25H281.25V125.5V156.75H312.5V188H281.25ZM375 188H343.75V156.75V125.5V94.25V63H375H406.25V94.25V125.5V156.75V188H375ZM375 0.5H406.25V31.75H375H343.75V0.5H375ZM500 188H468.75H437.5V156.75V125.5V94.25V63V31.75V0.5H468.75H500V31.75V63V94.25V125.5V156.75H531.25V188H500ZM625 188H593.75H562.5V156.75V125.5V94.25V63V31.75V0.5H593.75H625V31.75V63V94.25V125.5V156.75H656.25V188H625ZM687.5 219.25V188V156.75V125.5H718.75H750V156.75V188H718.75V219.25H687.5ZM1062.5 250.5H1031.25H1000H968.75H937.5V219.25H968.75H1000H1031.25V188H1000H968.75H937.5V156.75V125.5V94.25V63V31.75V0.5H968.75H1000V31.75V63V94.25V125.5V156.75H1031.25V125.5V94.25V63V31.75V0.5H1062.5H1093.75V31.75V63V94.25V125.5V156.75V188V219.25V250.5H1062.5ZM1250 188H1218.75H1187.5H1156.25H1125V156.75V125.5V94.25V63V31.75V0.5H1156.25H1187.5H1218.75H1250H1281.25V31.75V63V94.25V125.5V156.75V188H1250ZM1218.75 156.75V125.5V94.25V63V31.75H1187.5V63V94.25V125.5V156.75H1218.75ZM1437.5 188H1406.25H1375H1343.75H1312.5V156.75V125.5V94.25V63V31.75V0.5H1343.75H1375V31.75V63V94.25V125.5V156.75H1406.25V125.5V94.25V63V31.75V0.5H1437.5H1468.75V31.75V63V94.25V125.5V156.75V188H1437.5ZM1531.25 94.25V63H1500V31.75V0.5H1531.25H1562.5V31.75V63V94.25H1531.25ZM1625 188H1593.75V156.75V125.5V94.25V63V31.75V0.5H1625H1656.25H1687.5H1718.75H1750V31.75V63H1718.75H1687.5V31.75H1656.25V63V94.25V125.5V156.75V188H1625ZM1906.25 156.75H1937.5V188H1906.25H1875H1843.75H1812.5H1781.25V156.75V125.5V94.25V63V31.75V0.5H1812.5H1843.75H1875H1906.25H1937.5V31.75V63V94.25V125.5H1906.25H1875H1843.75V156.75H1875H1906.25ZM1875 94.25V63V31.75H1843.75V63V94.25H1875Z" fill="white"/>
</svg>
