<svg width="915" height="246" viewBox="0 0 915 246" fill="none" xmlns="http://www.w3.org/2000/svg">
<g filter="url(#filter0_d_384_780)">
<rect x="4" width="907" height="238" fill="black"/>
<rect x="7" y="3" width="901" height="232" stroke="white" stroke-width="6"/>
</g>
<path d="M51 63V59.8H60.6V63H51ZM51 47V37.4H54.2V47H51ZM54.2 47H60.6V50.2H54.2V47ZM54.2 37.4V34.2H63.8V37.4H54.2ZM60.6 59.8V50.2H63.8V59.8H60.6ZM67 59.8V43.8H70.2V59.8H67ZM79.8 59.8V43.8H83V63H70.2V59.8H79.8ZM86.1875 59.8V47H89.3875V59.8H86.1875ZM98.9875 59.8V47H89.3875V43.8H98.9875V34.2H102.188V63H89.3875V59.8H98.9875ZM105.375 59.8V47H108.575V59.8H105.375ZM118.175 59.8V47H108.575V43.8H118.175V34.2H121.375V63H108.575V59.8H118.175ZM124.562 59.8V47H127.763V50.2H137.363V47H140.562V53.4H127.763V59.8H124.562ZM127.763 59.8H140.562V63H127.763V59.8ZM127.763 47V43.8H137.363V47H127.763ZM143.75 63V43.8H156.55V47H146.95V63H143.75ZM156.55 63V47H159.75V63H156.55ZM162.938 59.8V34.2H166.138V59.8H162.938ZM166.138 59.8H169.338V63H166.138V59.8ZM172.531 66.2V63H178.931V66.2H172.531ZM172.531 50.2V43.8H175.731V50.2H172.531ZM175.731 56.6V50.2H178.931V56.6H175.731ZM178.931 56.6H182.131V63H178.931V56.6ZM182.131 56.6V50.2H185.331V56.6H182.131ZM185.331 50.2V43.8H188.531V50.2H185.331ZM188.531 66.2V63H191.731V66.2H188.531ZM191.731 63V59.8H194.931V63H191.731ZM214.156 66.2V63H220.556V66.2H214.156ZM214.156 50.2V43.8H217.356V50.2H214.156ZM217.356 56.6V50.2H220.556V56.6H217.356ZM220.556 56.6H223.756V63H220.556V56.6ZM223.756 56.6V50.2H226.956V56.6H223.756ZM226.956 50.2V43.8H230.156V50.2H226.956ZM233.344 59.8V47H236.544V59.8H233.344ZM246.144 59.8V63H236.544V59.8H246.144ZM246.144 47H249.344V59.8H246.144V47ZM246.144 43.8V47H236.544V43.8H246.144ZM252.531 59.8V43.8H255.731V59.8H252.531ZM265.331 59.8V43.8H268.531V63H255.731V59.8H265.331ZM284.531 63V43.8H287.731V47H290.931V50.2H287.731V63H284.531ZM297.331 47H290.931V43.8H297.331V47ZM300.531 59.8V47H303.731V50.2H313.331V47H316.531V53.4H303.731V59.8H300.531ZM303.731 59.8H316.531V63H303.731V59.8ZM303.731 47V43.8H313.331V47H303.731ZM319.719 59.8V53.4H322.919V59.8H319.719ZM319.719 47V43.8H332.519V47H319.719ZM322.919 59.8H332.519V53.4H322.919V50.2H332.519V47H335.719V63H322.919V59.8ZM338.906 59.8V34.2H342.106V59.8H338.906ZM342.106 59.8H345.306V63H342.106V59.8ZM348.5 63V43.8H351.7V63H348.5ZM348.5 40.6V37.4H351.7V40.6H348.5ZM354.906 56.6H358.106V59.8H370.906V63H354.906V56.6ZM354.906 47V43.8H370.906V47H367.706V50.2H364.506V47H354.906ZM358.106 56.6V53.4H361.306V56.6H358.106ZM361.306 53.4V50.2H364.506V53.4H361.306ZM374.094 59.8V47H377.294V50.2H386.894V47H390.094V53.4H377.294V59.8H374.094ZM377.294 59.8H390.094V63H377.294V59.8ZM377.294 47V43.8H386.894V47H377.294ZM396.481 63V59.8H399.681V63H396.481Z" fill="white"/>
<defs>
<filter id="filter0_d_384_780" x="0" y="0" width="915" height="246" filterUnits="userSpaceOnUse" color-interpolation-filters="sRGB">
<feFlood flood-opacity="0" result="BackgroundImageFix"/>
<feColorMatrix in="SourceAlpha" type="matrix" values="0 0 0 0 0 0 0 0 0 0 0 0 0 0 0 0 0 0 127 0" result="hardAlpha"/>
<feOffset dy="4"/>
<feGaussianBlur stdDeviation="2"/>
<feComposite in2="hardAlpha" operator="out"/>
<feColorMatrix type="matrix" values="0 0 0 0 0 0 0 0 0 0 0 0 0 0 0 0 0 0 0.25 0"/>
<feBlend mode="normal" in2="BackgroundImageFix" result="effect1_dropShadow_384_780"/>
<feBlend mode="normal" in="SourceGraphic" in2="effect1_dropShadow_384_780" result="shape"/>
</filter>
</defs>
</svg>
