<svg width="915" height="246" viewBox="0 0 915 246" fill="none" xmlns="http://www.w3.org/2000/svg">
<g filter="url(#filter0_d_384_726)">
<rect x="4" width="907" height="238" fill="black"/>
<rect x="7" y="3" width="901" height="232" stroke="white" stroke-width="6"/>
</g>
<path d="M51 63V50.2H54.2V40.6H57.4V50.2H60.6V40.6H63.8V50.2H67V63H63.8V53.4H54.2V63H51ZM57.4 40.6V34.2H60.6V40.6H57.4ZM70.1875 47V43.8H73.3875V37.4H76.5875V43.8H82.9875V47H76.5875V63H73.3875V47H70.1875ZM76.5875 37.4V34.2H82.9875V37.4H76.5875ZM83 47V43.8H86.2V37.4H89.4V43.8H95.8V47H89.4V59.8H86.2V47H83ZM89.4 59.8H95.8V63H89.4V59.8ZM99 59.8V47H102.2V50.2H111.8V47H115V53.4H102.2V59.8H99ZM102.2 59.8H115V63H102.2V59.8ZM102.2 47V43.8H111.8V47H102.2ZM118.188 63V43.8H121.388V47H124.588V50.2H121.388V63H118.188ZM130.988 47H124.588V43.8H130.988V47ZM147 63V34.2H150.2V63H147ZM166.219 59.8V47H169.419V59.8H166.219ZM179.019 59.8V47H169.419V43.8H179.019V34.2H182.219V63H169.419V59.8H179.019ZM185.406 59.8V47H188.606V50.2H198.206V47H201.406V53.4H188.606V59.8H185.406ZM188.606 59.8H201.406V63H188.606V59.8ZM188.606 47V43.8H198.206V47H188.606ZM204.594 47V43.8H207.794V37.4H210.994V43.8H217.394V47H210.994V63H207.794V47H204.594ZM210.994 37.4V34.2H217.394V37.4H210.994ZM220.594 59.8V47H223.794V50.2H233.394V47H236.594V53.4H223.794V59.8H220.594ZM223.794 59.8H236.594V63H223.794V59.8ZM223.794 47V43.8H233.394V47H223.794ZM239.781 59.8V53.4H242.981V59.8H239.781ZM239.781 47V43.8H252.581V47H239.781ZM242.981 59.8H252.581V53.4H242.981V50.2H252.581V47H255.781V63H242.981V59.8ZM258.969 47V43.8H262.169V37.4H265.369V43.8H271.769V47H265.369V59.8H262.169V47H258.969ZM265.369 59.8H271.769V63H265.369V59.8ZM287.781 66.2V63H294.181V66.2H287.781ZM287.781 50.2V43.8H290.981V50.2H287.781ZM290.981 56.6V50.2H294.181V56.6H290.981ZM294.181 56.6H297.381V63H294.181V56.6ZM297.381 56.6V50.2H300.581V56.6H297.381ZM300.581 50.2V43.8H303.781V50.2H300.581ZM306.969 59.8V47H310.169V59.8H306.969ZM319.769 59.8V63H310.169V59.8H319.769ZM319.769 47H322.969V59.8H319.769V47ZM319.769 43.8V47H310.169V43.8H319.769ZM326.156 59.8V43.8H329.356V59.8H326.156ZM338.956 59.8V43.8H342.156V63H329.356V59.8H338.956ZM358.156 59.8V53.4H361.356V59.8H358.156ZM358.156 47V43.8H370.956V47H358.156ZM361.356 59.8H370.956V53.4H361.356V50.2H370.956V47H374.156V63H361.356V59.8ZM377.344 63V43.8H390.144V47H380.544V63H377.344ZM390.144 63V47H393.344V63H390.144ZM396.531 59.8V47H399.731V59.8H396.531ZM409.331 59.8V47H399.731V43.8H409.331V34.2H412.531V63H399.731V59.8H409.331ZM428.531 66.2V63H441.331V66.2H428.531ZM428.531 56.6V47H431.731V56.6H428.531ZM431.731 56.6H441.331V47H431.731V43.8H444.531V63H441.331V59.8H431.731V56.6ZM447.719 59.8V53.4H450.919V59.8H447.719ZM447.719 47V43.8H460.519V47H447.719ZM450.919 59.8H460.519V53.4H450.919V50.2H460.519V47H463.719V63H450.919V59.8ZM466.906 63V43.8H470.106V63H466.906ZM466.906 40.6V37.4H470.106V40.6H466.906ZM473.312 63V43.8H486.113V47H476.513V63H473.312ZM486.113 63V47H489.312V63H486.113ZM505.312 47V43.8H508.513V37.4H511.713V43.8H518.113V47H511.713V59.8H508.513V47H505.312ZM511.713 59.8H518.113V63H511.713V59.8ZM521.312 59.8V47H524.513V59.8H521.312ZM534.113 59.8V63H524.513V59.8H534.113ZM534.113 47H537.312V59.8H534.113V47ZM534.113 43.8V47H524.513V43.8H534.113ZM540.5 47V43.8H543.7V37.4H546.9V43.8H553.3V47H546.9V59.8H543.7V47H540.5ZM546.9 59.8H553.3V63H546.9V59.8ZM556.5 59.8V53.4H559.7V59.8H556.5ZM556.5 47V43.8H569.3V47H556.5ZM559.7 59.8H569.3V53.4H559.7V50.2H569.3V47H572.5V63H559.7V59.8ZM575.688 59.8V34.2H578.888V59.8H575.688ZM578.888 59.8H582.088V63H578.888V59.8ZM598.094 59.8V47H601.294V59.8H598.094ZM601.294 59.8H614.094V63H601.294V59.8ZM601.294 47V43.8H614.094V47H601.294ZM617.281 59.8V47H620.481V59.8H617.281ZM630.081 59.8V63H620.481V59.8H630.081ZM630.081 47H633.281V59.8H630.081V47ZM630.081 43.8V47H620.481V43.8H630.081ZM636.469 63V43.8H649.269V47H639.669V63H636.469ZM649.269 63V47H652.469V63H649.269ZM655.656 47V43.8H658.856V37.4H662.056V43.8H668.456V47H662.056V59.8H658.856V47H655.656ZM662.056 59.8H668.456V63H662.056V59.8ZM671.656 63V43.8H674.856V47H678.056V50.2H674.856V63H671.656ZM684.456 47H678.056V43.8H684.456V47ZM687.656 59.8V47H690.856V59.8H687.656ZM700.456 59.8V63H690.856V59.8H700.456ZM700.456 47H703.656V59.8H700.456V47ZM700.456 43.8V47H690.856V43.8H700.456ZM706.844 59.8V34.2H710.044V59.8H706.844ZM710.044 59.8H713.244V63H710.044V59.8ZM729.25 59.8V47H732.45V59.8H729.25ZM742.05 59.8V63H732.45V59.8H742.05ZM742.05 47H745.25V59.8H742.05V47ZM742.05 43.8V47H732.45V43.8H742.05ZM748.438 50.2V43.8H751.638V50.2H748.438ZM751.638 56.6V50.2H754.838V56.6H751.638ZM754.838 56.6H758.038V63H754.838V56.6ZM758.038 56.6V50.2H761.238V56.6H758.038ZM761.238 50.2V43.8H764.438V50.2H761.238ZM767.625 59.8V47H770.825V50.2H780.425V47H783.625V53.4H770.825V59.8H767.625ZM770.825 59.8H783.625V63H770.825V59.8ZM770.825 47V43.8H780.425V47H770.825ZM786.812 63V43.8H790.013V47H793.213V50.2H790.013V63H786.812ZM799.613 47H793.213V43.8H799.613V47ZM815.625 47V43.8H818.825V37.4H822.025V43.8H828.425V47H822.025V59.8H818.825V47H815.625ZM822.025 59.8H828.425V63H822.025V59.8ZM831.625 63V34.2H834.825V43.8H844.425V47H834.825V63H831.625ZM844.425 63V47H847.625V63H844.425ZM850.812 59.8V47H854.013V50.2H863.613V47H866.812V53.4H854.013V59.8H850.812ZM854.013 59.8H866.812V63H854.013V59.8ZM854.013 47V43.8H863.613V47H854.013ZM51 89V85.8H54.2V79.4H57.4V85.8H63.8V89H57.4V101.8H54.2V89H51ZM57.4 101.8H63.8V105H57.4V101.8ZM67 105V85.8H70.2V105H67ZM67 82.6V79.4H70.2V82.6H67ZM73.4062 105V85.8H92.6063V89H86.2063V105H83.0063V89H76.6063V105H73.4062ZM92.6063 105V89H95.8063V105H92.6063ZM99 101.8V89H102.2V92.2H111.8V89H115V95.4H102.2V101.8H99ZM102.2 101.8H115V105H102.2V101.8ZM102.2 89V85.8H111.8V89H102.2ZM118.188 101.8V76.2H121.388V101.8H118.188ZM121.388 101.8H124.588V105H121.388V101.8ZM127.781 105V85.8H130.981V105H127.781ZM127.781 82.6V79.4H130.981V82.6H127.781ZM134.188 105V85.8H146.988V89H137.388V105H134.188ZM146.988 105V89H150.188V105H146.988ZM153.375 101.8V89H156.575V92.2H166.175V89H169.375V95.4H156.575V101.8H153.375ZM156.575 101.8H169.375V105H156.575V101.8ZM156.575 89V85.8H166.175V89H156.575ZM175.763 105V101.8H178.963V105H175.763ZM188.575 105V101.8H191.775V105H188.575ZM201.388 105V101.8H204.588V105H201.388ZM51 147V118.2H54.2V147H51ZM70.2188 150.2V147H76.6188V150.2H70.2188ZM76.6188 147V127.8H79.8188V147H76.6188ZM76.6188 124.6V121.4H79.8188V124.6H76.6188ZM83.0312 143.8V127.8H86.2313V143.8H83.0312ZM95.8313 143.8V127.8H99.0312V147H86.2313V143.8H95.8313ZM102.219 147V143.8H111.819V147H102.219ZM102.219 134.2V131H105.419V134.2H102.219ZM105.419 131V127.8H115.019V131H105.419ZM105.419 134.2H111.819V137.4H105.419V134.2ZM111.819 143.8V137.4H115.019V143.8H111.819ZM118.219 131V127.8H121.419V121.4H124.619V127.8H131.019V131H124.619V143.8H121.419V131H118.219ZM124.619 143.8H131.019V147H124.619V143.8ZM147.031 140.6V127.8H150.231V140.6H147.031ZM150.231 140.6H153.431V147H150.231V140.6ZM153.431 140.6V131H156.631V140.6H153.431ZM156.631 140.6H159.831V147H156.631V140.6ZM159.831 140.6V127.8H163.031V140.6H159.831ZM166.219 143.8V137.4H169.419V143.8H166.219ZM166.219 131V127.8H179.019V131H166.219ZM169.419 143.8H179.019V137.4H169.419V134.2H179.019V131H182.219V147H169.419V143.8ZM185.406 147V127.8H198.206V131H188.606V147H185.406ZM198.206 147V131H201.406V147H198.206ZM204.594 131V127.8H207.794V121.4H210.994V127.8H217.394V131H210.994V143.8H207.794V131H204.594ZM210.994 143.8H217.394V147H210.994V143.8ZM233.406 131V127.8H236.606V121.4H239.806V127.8H246.206V131H239.806V143.8H236.606V131H233.406ZM239.806 143.8H246.206V147H239.806V143.8ZM249.406 143.8V131H252.606V143.8H249.406ZM262.206 143.8V147H252.606V143.8H262.206ZM262.206 131H265.406V143.8H262.206V131ZM262.206 127.8V131H252.606V127.8H262.206ZM281.406 147V127.8H284.606V131H287.806V134.2H284.606V147H281.406ZM294.206 131H287.806V127.8H294.206V131ZM297.406 143.8V131H300.606V134.2H310.206V131H313.406V137.4H300.606V143.8H297.406ZM300.606 143.8H313.406V147H300.606V143.8ZM300.606 131V127.8H310.206V131H300.606ZM316.594 147V143.8H326.194V147H316.594ZM316.594 134.2V131H319.794V134.2H316.594ZM319.794 131V127.8H329.394V131H319.794ZM319.794 134.2H326.194V137.4H319.794V134.2ZM326.194 143.8V137.4H329.394V143.8H326.194ZM332.594 143.8V131H335.794V134.2H345.394V131H348.594V137.4H335.794V143.8H332.594ZM335.794 143.8H348.594V147H335.794V143.8ZM335.794 131V127.8H345.394V131H335.794ZM351.781 131V127.8H354.981V121.4H358.181V127.8H364.581V131H358.181V143.8H354.981V131H351.781ZM358.181 143.8H364.581V147H358.181V143.8ZM380.594 143.8V131H383.794V134.2H393.394V131H396.594V137.4H383.794V143.8H380.594ZM383.794 143.8H396.594V147H383.794V143.8ZM383.794 131V127.8H393.394V131H383.794ZM399.781 134.2V127.8H402.981V134.2H399.781ZM402.981 140.6V134.2H406.181V140.6H402.981ZM406.181 140.6H409.381V147H406.181V140.6ZM409.381 140.6V134.2H412.581V140.6H409.381ZM412.581 134.2V127.8H415.781V134.2H412.581ZM418.969 143.8V131H422.169V134.2H431.769V131H434.969V137.4H422.169V143.8H418.969ZM422.169 143.8H434.969V147H422.169V143.8ZM422.169 131V127.8H431.769V131H422.169ZM438.156 147V127.8H441.356V131H444.556V134.2H441.356V147H438.156ZM450.956 131H444.556V127.8H450.956V131ZM454.156 150.2V147H460.556V150.2H454.156ZM454.156 134.2V127.8H457.356V134.2H454.156ZM457.356 140.6V134.2H460.556V140.6H457.356ZM460.556 140.6H463.756V147H460.556V140.6ZM463.756 140.6V134.2H466.956V140.6H463.756ZM466.956 134.2V127.8H470.156V134.2H466.956ZM473.344 131V127.8H476.544V121.4H479.744V127.8H486.144V131H479.744V143.8H476.544V131H473.344ZM479.744 143.8H486.144V147H479.744V143.8ZM489.344 147V118.2H492.544V127.8H502.144V131H492.544V147H489.344ZM502.144 147V131H505.344V147H502.144ZM508.531 147V127.8H511.731V147H508.531ZM508.531 124.6V121.4H511.731V124.6H508.531ZM514.938 147V127.8H527.738V131H518.138V147H514.938ZM527.738 147V131H530.938V147H527.738ZM534.125 150.2V147H546.925V150.2H534.125ZM534.125 140.6V131H537.325V140.6H534.125ZM537.325 140.6H546.925V131H537.325V127.8H550.125V147H546.925V143.8H537.325V140.6ZM556.513 147V143.8H559.713V147H556.513Z" fill="white"/>
<defs>
<filter id="filter0_d_384_726" x="0" y="0" width="915" height="246" filterUnits="userSpaceOnUse" color-interpolation-filters="sRGB">
<feFlood flood-opacity="0" result="BackgroundImageFix"/>
<feColorMatrix in="SourceAlpha" type="matrix" values="0 0 0 0 0 0 0 0 0 0 0 0 0 0 0 0 0 0 127 0" result="hardAlpha"/>
<feOffset dy="4"/>
<feGaussianBlur stdDeviation="2"/>
<feComposite in2="hardAlpha" operator="out"/>
<feColorMatrix type="matrix" values="0 0 0 0 0 0 0 0 0 0 0 0 0 0 0 0 0 0 0.25 0"/>
<feBlend mode="normal" in2="BackgroundImageFix" result="effect1_dropShadow_384_726"/>
<feBlend mode="normal" in="SourceGraphic" in2="effect1_dropShadow_384_726" result="shape"/>
</filter>
</defs>
</svg>
