<svg width="915" height="246" viewBox="0 0 915 246" fill="none" xmlns="http://www.w3.org/2000/svg">
<g filter="url(#filter0_d_384_723)">
<rect x="4" width="907" height="238" fill="black"/>
<rect x="7" y="3" width="901" height="232" stroke="white" stroke-width="6"/>
</g>
<path d="M51 63V34.2H63.8V37.4H54.2V47H63.8V50.2H54.2V63H51ZM67 63V43.8H70.2V63H67ZM67 40.6V37.4H70.2V40.6H67ZM73.4062 63V43.8H86.2063V47H76.6063V63H73.4062ZM86.2063 63V47H89.4062V63H86.2063ZM92.5938 59.8V53.4H95.7938V59.8H92.5938ZM92.5938 47V43.8H105.394V47H92.5938ZM95.7938 59.8H105.394V53.4H95.7938V50.2H105.394V47H108.594V63H95.7938V59.8ZM111.781 59.8V34.2H114.981V59.8H111.781ZM114.981 59.8H118.181V63H114.981V59.8ZM121.375 59.8V34.2H124.575V59.8H121.375ZM124.575 59.8H127.775V63H124.575V59.8ZM130.969 66.2V63H137.369V66.2H130.969ZM130.969 50.2V43.8H134.169V50.2H130.969ZM134.169 56.6V50.2H137.369V56.6H134.169ZM137.369 56.6H140.569V63H137.369V56.6ZM140.569 56.6V50.2H143.769V56.6H140.569ZM143.769 50.2V43.8H146.969V50.2H143.769ZM150.169 63V59.8H153.369V63H150.169ZM51 105V76.2H54.2V105H51ZM70.2188 98.6V85.8H73.4188V98.6H70.2188ZM73.4188 98.6H76.6188V105H73.4188V98.6ZM76.6188 98.6V89H79.8188V98.6H76.6188ZM79.8188 98.6H83.0188V105H79.8188V98.6ZM83.0188 98.6V85.8H86.2188V98.6H83.0188ZM89.4062 101.8V95.4H92.6063V101.8H89.4062ZM89.4062 89V85.8H102.206V89H89.4062ZM92.6063 101.8H102.206V95.4H92.6063V92.2H102.206V89H105.406V105H92.6063V101.8ZM108.594 105V101.8H118.194V105H108.594ZM108.594 92.2V89H111.794V92.2H108.594ZM111.794 89V85.8H121.394V89H111.794ZM111.794 92.2H118.194V95.4H111.794V92.2ZM118.194 101.8V95.4H121.394V101.8H118.194ZM137.406 105V101.8H147.006V105H137.406ZM137.406 92.2V89H140.606V92.2H137.406ZM140.606 89V85.8H150.206V89H140.606ZM140.606 92.2H147.006V95.4H140.606V92.2ZM147.006 101.8V95.4H150.206V101.8H147.006ZM153.406 101.8V89H156.606V101.8H153.406ZM166.206 101.8V105H156.606V101.8H166.206ZM166.206 89H169.406V101.8H166.206V89ZM166.206 85.8V89H156.606V85.8H166.206ZM185.406 89V85.8H188.606V79.4H191.806V85.8H198.206V89H191.806V101.8H188.606V89H185.406ZM191.806 101.8H198.206V105H191.806V101.8ZM201.406 105V85.8H204.606V105H201.406ZM201.406 82.6V79.4H204.606V82.6H201.406ZM207.812 105V85.8H211.013V89H214.213V92.2H211.013V105H207.812ZM220.613 89H214.213V85.8H220.613V89ZM223.812 101.8V89H227.013V92.2H236.613V89H239.812V95.4H227.013V101.8H223.812ZM227.013 101.8H239.812V105H227.013V101.8ZM227.013 89V85.8H236.613V89H227.013ZM243 101.8V89H246.2V101.8H243ZM255.8 101.8V89H246.2V85.8H255.8V76.2H259V105H246.2V101.8H255.8ZM275 101.8V89H278.2V101.8H275ZM287.8 101.8V105H278.2V101.8H287.8ZM287.8 89H291V101.8H287.8V89ZM287.8 85.8V89H278.2V85.8H287.8ZM294.188 89V85.8H297.388V79.4H300.588V85.8H306.988V89H300.588V105H297.388V89H294.188ZM300.588 79.4V76.2H306.988V79.4H300.588ZM323 105V76.2H326.2V85.8H335.8V89H326.2V101.8H335.8V105H323ZM335.8 101.8V89H339V101.8H335.8ZM342.188 101.8V89H345.388V92.2H354.988V89H358.188V95.4H345.388V101.8H342.188ZM345.388 101.8H358.188V105H345.388V101.8ZM345.388 89V85.8H354.988V89H345.388ZM361.375 105V85.8H364.575V105H361.375ZM361.375 82.6V79.4H364.575V82.6H361.375ZM367.781 105V85.8H380.581V89H370.981V105H367.781ZM380.581 105V89H383.781V105H380.581ZM386.969 108.2V105H399.769V108.2H386.969ZM386.969 98.6V89H390.169V98.6H386.969ZM390.169 98.6H399.769V89H390.169V85.8H402.969V105H399.769V101.8H390.169V98.6ZM418.969 101.8V95.4H422.169V101.8H418.969ZM418.969 89V85.8H431.769V89H418.969ZM422.169 101.8H431.769V95.4H422.169V92.2H431.769V89H434.969V105H422.169V101.8ZM450.969 89V85.8H454.169V79.4H457.369V85.8H463.769V89H457.369V105H454.169V89H450.969ZM457.369 79.4V76.2H463.769V79.4H457.369ZM466.969 101.8V76.2H470.169V101.8H466.969ZM470.169 101.8H473.369V105H470.169V101.8ZM476.562 101.8V89H479.763V101.8H476.562ZM489.363 101.8V105H479.763V101.8H489.363ZM489.363 89H492.562V101.8H489.363V89ZM489.363 85.8V89H479.763V85.8H489.363ZM495.75 98.6V85.8H498.95V98.6H495.75ZM498.95 98.6H502.15V105H498.95V98.6ZM502.15 98.6V89H505.35V98.6H502.15ZM505.35 98.6H508.55V105H505.35V98.6ZM508.55 98.6V85.8H511.75V98.6H508.55ZM514.938 101.8V89H518.138V92.2H527.738V89H530.938V95.4H518.138V101.8H514.938ZM518.138 101.8H530.938V105H518.138V101.8ZM518.138 89V85.8H527.738V89H518.138ZM534.125 105V85.8H537.325V89H540.525V92.2H537.325V105H534.125ZM546.925 89H540.525V85.8H546.925V89ZM550.138 105V101.8H553.338V105H550.138Z" fill="white"/>
<defs>
<filter id="filter0_d_384_723" x="0" y="0" width="915" height="246" filterUnits="userSpaceOnUse" color-interpolation-filters="sRGB">
<feFlood flood-opacity="0" result="BackgroundImageFix"/>
<feColorMatrix in="SourceAlpha" type="matrix" values="0 0 0 0 0 0 0 0 0 0 0 0 0 0 0 0 0 0 127 0" result="hardAlpha"/>
<feOffset dy="4"/>
<feGaussianBlur stdDeviation="2"/>
<feComposite in2="hardAlpha" operator="out"/>
<feColorMatrix type="matrix" values="0 0 0 0 0 0 0 0 0 0 0 0 0 0 0 0 0 0 0.25 0"/>
<feBlend mode="normal" in2="BackgroundImageFix" result="effect1_dropShadow_384_723"/>
<feBlend mode="normal" in="SourceGraphic" in2="effect1_dropShadow_384_723" result="shape"/>
</filter>
</defs>
</svg>
