<svg width="915" height="246" viewBox="0 0 915 246" fill="none" xmlns="http://www.w3.org/2000/svg">
<g filter="url(#filter0_d_384_734)">
<rect x="4" width="907" height="238" fill="black"/>
<rect x="7" y="3" width="901" height="232" stroke="white" stroke-width="6"/>
</g>
<path d="M51 63V34.2H63.8V37.4H54.2V47H63.8V50.2H54.2V59.8H63.8V63H51ZM63.8 59.8V50.2H67V59.8H63.8ZM63.8 47V37.4H67V47H63.8ZM70.1875 59.8V47H73.3875V50.2H82.9875V47H86.1875V53.4H73.3875V59.8H70.1875ZM73.3875 59.8H86.1875V63H73.3875V59.8ZM73.3875 47V43.8H82.9875V47H73.3875ZM89.375 59.8V47H92.575V59.8H89.375ZM92.575 59.8H105.375V63H92.575V59.8ZM92.575 47V43.8H105.375V47H92.575ZM108.562 59.8V53.4H111.763V59.8H108.562ZM108.562 47V43.8H121.363V47H108.562ZM111.763 59.8H121.363V53.4H111.763V50.2H121.363V47H124.562V63H111.763V59.8ZM127.75 59.8V43.8H130.95V59.8H127.75ZM140.55 59.8V43.8H143.75V63H130.95V59.8H140.55ZM146.938 63V59.8H156.538V63H146.938ZM146.938 50.2V47H150.138V50.2H146.938ZM150.138 47V43.8H159.738V47H150.138ZM150.138 50.2H156.538V53.4H150.138V50.2ZM156.538 59.8V53.4H159.738V59.8H156.538ZM162.938 59.8V47H166.138V50.2H175.738V47H178.938V53.4H166.138V59.8H162.938ZM166.138 59.8H178.938V63H166.138V59.8ZM166.138 47V43.8H175.738V47H166.138ZM194.938 66.2V63H201.338V66.2H194.938ZM194.938 50.2V43.8H198.138V50.2H194.938ZM198.138 56.6V50.2H201.338V56.6H198.138ZM201.338 56.6H204.538V63H201.338V56.6ZM204.538 56.6V50.2H207.738V56.6H204.538ZM207.738 50.2V43.8H210.938V50.2H207.738ZM214.125 59.8V47H217.325V59.8H214.125ZM226.925 59.8V63H217.325V59.8H226.925ZM226.925 47H230.125V59.8H226.925V47ZM226.925 43.8V47H217.325V43.8H226.925ZM233.312 59.8V43.8H236.513V59.8H233.312ZM246.113 59.8V43.8H249.312V63H236.513V59.8H246.113ZM265.312 40.6V34.2H268.513V40.6H265.312ZM271.713 40.6V34.2H274.913V40.6H271.713ZM278.125 59.8V34.2H281.325V59.8H278.125ZM281.325 59.8H284.525V63H281.325V59.8ZM287.719 59.8V47H290.919V59.8H287.719ZM300.519 59.8V63H290.919V59.8H300.519ZM300.519 47H303.719V59.8H300.519V47ZM300.519 43.8V47H290.919V43.8H300.519ZM306.906 50.2V43.8H310.106V50.2H306.906ZM310.106 56.6V50.2H313.306V56.6H310.106ZM313.306 56.6H316.506V63H313.306V56.6ZM316.506 56.6V50.2H319.706V56.6H316.506ZM319.706 50.2V43.8H322.906V50.2H319.706ZM326.094 59.8V47H329.294V50.2H338.894V47H342.094V53.4H329.294V59.8H326.094ZM329.294 59.8H342.094V63H329.294V59.8ZM329.294 47V43.8H338.894V47H329.294ZM358.094 66.2V63H364.494V66.2H358.094ZM358.094 50.2V43.8H361.294V50.2H358.094ZM361.294 56.6V50.2H364.494V56.6H361.294ZM364.494 56.6H367.694V63H364.494V56.6ZM367.694 56.6V50.2H370.894V56.6H367.694ZM370.894 50.2V43.8H374.094V50.2H370.894ZM377.281 59.8V47H380.481V59.8H377.281ZM390.081 59.8V63H380.481V59.8H390.081ZM390.081 47H393.281V59.8H390.081V47ZM390.081 43.8V47H380.481V43.8H390.081ZM396.469 59.8V43.8H399.669V59.8H396.469ZM409.269 59.8V43.8H412.469V63H399.669V59.8H409.269ZM415.656 63V43.8H418.856V47H422.056V50.2H418.856V63H415.656ZM428.456 47H422.056V43.8H428.456V47ZM444.469 47V43.8H447.669V37.4H450.869V43.8H457.269V47H450.869V63H447.669V47H444.469ZM450.869 37.4V34.2H457.269V37.4H450.869ZM460.469 63V43.8H463.669V47H466.869V50.2H463.669V63H460.469ZM473.269 47H466.869V43.8H473.269V47ZM476.469 63V43.8H479.669V63H476.469ZM476.469 40.6V37.4H479.669V40.6H476.469ZM482.875 59.8V47H486.075V50.2H495.675V47H498.875V53.4H486.075V59.8H482.875ZM486.075 59.8H498.875V63H486.075V59.8ZM486.075 47V43.8H495.675V47H486.075ZM502.062 63V43.8H514.863V47H505.263V63H502.062ZM514.863 63V47H518.062V63H514.863ZM521.25 59.8V47H524.45V59.8H521.25ZM534.05 59.8V47H524.45V43.8H534.05V34.2H537.25V63H524.45V59.8H534.05ZM540.438 63V59.8H550.038V63H540.438ZM540.438 50.2V47H543.638V50.2H540.438ZM543.638 47V43.8H553.238V47H543.638ZM543.638 50.2H550.038V53.4H543.638V50.2ZM550.038 59.8V53.4H553.238V59.8H550.038ZM559.638 63V59.8H562.838V63H559.638ZM566.062 40.6V34.2H569.263V40.6H566.062ZM572.463 40.6V34.2H575.663V40.6H572.463Z" fill="white"/>
<defs>
<filter id="filter0_d_384_734" x="0" y="0" width="915" height="246" filterUnits="userSpaceOnUse" color-interpolation-filters="sRGB">
<feFlood flood-opacity="0" result="BackgroundImageFix"/>
<feColorMatrix in="SourceAlpha" type="matrix" values="0 0 0 0 0 0 0 0 0 0 0 0 0 0 0 0 0 0 127 0" result="hardAlpha"/>
<feOffset dy="4"/>
<feGaussianBlur stdDeviation="2"/>
<feComposite in2="hardAlpha" operator="out"/>
<feColorMatrix type="matrix" values="0 0 0 0 0 0 0 0 0 0 0 0 0 0 0 0 0 0 0.25 0"/>
<feBlend mode="normal" in2="BackgroundImageFix" result="effect1_dropShadow_384_734"/>
<feBlend mode="normal" in="SourceGraphic" in2="effect1_dropShadow_384_734" result="shape"/>
</filter>
</defs>
</svg>
