<svg width="915" height="246" viewBox="0 0 915 246" fill="none" xmlns="http://www.w3.org/2000/svg">
<g filter="url(#filter0_d_384_781)">
<rect x="4" width="907" height="238" fill="black"/>
<rect x="7" y="3" width="901" height="232" stroke="white" stroke-width="6"/>
</g>
<path d="M51 40.6V34.2H54.2V40.6H51ZM54.2 47V40.6H57.4V47H54.2ZM57.4 63V47H60.6V63H57.4ZM60.6 47V40.6H63.8V47H60.6ZM63.8 40.6V34.2H67V40.6H63.8ZM67 59.8V47H70.2V59.8H67ZM79.8 59.8V63H70.2V59.8H79.8ZM79.8 47H83V59.8H79.8V47ZM79.8 43.8V47H70.2V43.8H79.8ZM86.1875 59.8V43.8H89.3875V59.8H86.1875ZM98.9875 59.8V43.8H102.188V63H89.3875V59.8H98.9875ZM118.188 63V43.8H121.388V47H124.588V50.2H121.388V63H118.188ZM130.988 47H124.588V43.8H130.988V47ZM134.188 59.8V47H137.388V50.2H146.988V47H150.188V53.4H137.388V59.8H134.188ZM137.388 59.8H150.188V63H137.388V59.8ZM137.388 47V43.8H146.988V47H137.388ZM153.375 59.8V53.4H156.575V59.8H153.375ZM153.375 47V43.8H166.175V47H153.375ZM156.575 59.8H166.175V53.4H156.575V50.2H166.175V47H169.375V63H156.575V59.8ZM172.562 59.8V47H175.763V59.8H172.562ZM175.763 59.8H188.562V63H175.763V59.8ZM175.763 47V43.8H188.562V47H175.763ZM191.75 63V34.2H194.95V43.8H204.55V47H194.95V63H191.75ZM204.55 63V47H207.75V63H204.55ZM223.75 59.8V47H226.95V59.8H223.75ZM236.55 59.8V63H226.95V59.8H236.55ZM236.55 47H239.75V59.8H236.55V47ZM236.55 43.8V47H226.95V43.8H236.55ZM242.938 59.8V43.8H246.138V59.8H242.938ZM255.738 59.8V43.8H258.938V63H246.138V59.8H255.738ZM262.125 47V43.8H265.325V37.4H268.525V43.8H274.925V47H268.525V59.8H265.325V47H262.125ZM268.525 59.8H274.925V63H268.525V59.8ZM290.938 59.8V53.4H294.138V59.8H290.938ZM290.938 47V43.8H303.738V47H290.938ZM294.138 59.8H303.738V53.4H294.138V50.2H303.738V47H306.938V63H294.138V59.8ZM310.125 63V43.8H322.925V47H313.325V63H310.125ZM322.925 63V47H326.125V63H322.925ZM329.312 59.8V47H332.513V59.8H329.312ZM342.113 59.8V47H332.513V43.8H342.113V34.2H345.312V63H332.513V59.8H342.113ZM361.312 59.8V47H364.513V59.8H361.312ZM364.513 59.8H377.312V63H364.513V59.8ZM364.513 47V43.8H377.312V47H364.513ZM380.5 59.8V53.4H383.7V59.8H380.5ZM380.5 47V43.8H393.3V47H380.5ZM383.7 59.8H393.3V53.4H383.7V50.2H393.3V47H396.5V63H383.7V59.8ZM399.688 59.8V34.2H402.888V59.8H399.688ZM402.888 59.8H406.088V63H402.888V59.8ZM409.281 59.8V34.2H412.481V59.8H409.281ZM412.481 59.8H415.681V63H412.481V59.8ZM431.688 47V43.8H434.888V37.4H438.088V43.8H444.488V47H438.088V59.8H434.888V47H431.688ZM438.088 59.8H444.488V63H438.088V59.8ZM447.688 63V34.2H450.888V43.8H460.488V47H450.888V63H447.688ZM460.488 63V47H463.688V63H460.488ZM466.875 59.8V47H470.075V50.2H479.675V47H482.875V53.4H470.075V59.8H466.875ZM470.075 59.8H482.875V63H470.075V59.8ZM470.075 47V43.8H479.675V47H470.075ZM486.062 63V43.8H489.263V63H486.062ZM486.062 40.6V37.4H489.263V40.6H486.062ZM492.469 63V43.8H495.669V47H498.869V50.2H495.669V63H492.469ZM505.269 47H498.869V43.8H505.269V47ZM521.281 63V43.8H534.081V47H524.481V63H521.281ZM534.081 63V47H537.281V63H534.081ZM540.469 59.8V53.4H543.669V59.8H540.469ZM540.469 47V43.8H553.269V47H540.469ZM543.669 59.8H553.269V53.4H543.669V50.2H553.269V47H556.469V63H543.669V59.8ZM559.656 63V43.8H578.856V47H572.456V63H569.256V47H562.856V63H559.656ZM578.856 63V47H582.056V63H578.856ZM585.25 59.8V47H588.45V50.2H598.05V47H601.25V53.4H588.45V59.8H585.25ZM588.45 59.8H601.25V63H588.45V59.8ZM588.45 47V43.8H598.05V47H588.45ZM607.638 63V59.8H610.838V63H607.638Z" fill="white"/>
<defs>
<filter id="filter0_d_384_781" x="0" y="0" width="915" height="246" filterUnits="userSpaceOnUse" color-interpolation-filters="sRGB">
<feFlood flood-opacity="0" result="BackgroundImageFix"/>
<feColorMatrix in="SourceAlpha" type="matrix" values="0 0 0 0 0 0 0 0 0 0 0 0 0 0 0 0 0 0 127 0" result="hardAlpha"/>
<feOffset dy="4"/>
<feGaussianBlur stdDeviation="2"/>
<feComposite in2="hardAlpha" operator="out"/>
<feColorMatrix type="matrix" values="0 0 0 0 0 0 0 0 0 0 0 0 0 0 0 0 0 0 0.25 0"/>
<feBlend mode="normal" in2="BackgroundImageFix" result="effect1_dropShadow_384_781"/>
<feBlend mode="normal" in="SourceGraphic" in2="effect1_dropShadow_384_781" result="shape"/>
</filter>
</defs>
</svg>
