<svg width="915" height="246" viewBox="0 0 915 246" fill="none" xmlns="http://www.w3.org/2000/svg">
<g filter="url(#filter0_d_384_771)">
<rect x="4" width="907" height="238" fill="black"/>
<rect x="7" y="3" width="901" height="232" stroke="white" stroke-width="6"/>
</g>
<path d="M51 59.8V34.2H54.2V59.8H51ZM63.8 59.8V63H54.2V59.8H63.8ZM63.8 34.2H67V59.8H63.8V34.2ZM70.1875 63V43.8H73.3875V47H76.5875V50.2H73.3875V63H70.1875ZM82.9875 47H76.5875V43.8H82.9875V47ZM86.1875 59.8V53.4H89.3875V59.8H86.1875ZM86.1875 47V43.8H98.9875V47H86.1875ZM89.3875 59.8H98.9875V53.4H89.3875V50.2H98.9875V47H102.188V63H89.3875V59.8ZM105.375 63V34.2H108.575V43.8H118.175V47H108.575V63H105.375ZM118.175 63V47H121.375V63H118.175ZM137.375 63V34.2H140.575V43.8H150.175V47H140.575V63H137.375ZM150.175 63V47H153.375V63H150.175ZM156.562 59.8V53.4H159.763V59.8H156.562ZM156.562 47V43.8H169.363V47H156.562ZM159.763 59.8H169.363V53.4H159.763V50.2H169.363V47H172.562V63H159.763V59.8ZM188.562 63V34.2H191.763V43.8H201.363V47H191.763V63H188.562ZM201.363 63V47H204.562V63H201.363ZM207.75 59.8V53.4H210.95V59.8H207.75ZM207.75 47V43.8H220.55V47H207.75ZM210.95 59.8H220.55V53.4H210.95V50.2H220.55V47H223.75V63H210.95V59.8ZM239.75 63V34.2H242.95V43.8H252.55V47H242.95V63H239.75ZM252.55 63V47H255.75V63H252.55ZM258.938 59.8V53.4H262.138V59.8H258.938ZM258.938 47V43.8H271.738V47H258.938ZM262.138 59.8H271.738V53.4H262.138V50.2H271.738V47H274.938V63H262.138V59.8ZM281.325 63V59.8H284.525V63H281.325ZM294.138 63V59.8H297.338V63H294.138ZM306.95 63V59.8H310.15V63H306.95ZM329.375 63V34.2H342.175V37.4H332.575V47H342.175V50.2H332.575V59.8H342.175V63H329.375ZM342.175 59.8V50.2H345.375V59.8H342.175ZM342.175 47V37.4H345.375V47H342.175ZM348.562 59.8V47H351.763V50.2H361.363V47H364.562V53.4H351.763V59.8H348.562ZM351.763 59.8H364.562V63H351.763V59.8ZM351.763 47V43.8H361.363V47H351.763ZM367.75 63V34.2H370.95V43.8H380.55V47H370.95V63H367.75ZM380.55 63V47H383.75V63H380.55ZM386.938 59.8V47H390.138V59.8H386.938ZM399.738 59.8V63H390.138V59.8H399.738ZM399.738 47H402.938V59.8H399.738V47ZM399.738 43.8V47H390.138V43.8H399.738ZM406.125 59.8V34.2H409.325V59.8H406.125ZM409.325 59.8H412.525V63H409.325V59.8ZM415.719 59.8V47H418.919V59.8H415.719ZM428.519 59.8V47H418.919V43.8H428.519V34.2H431.719V63H418.919V59.8H428.519ZM447.719 63V43.8H466.919V47H460.519V63H457.319V47H450.919V63H447.719ZM466.919 63V47H470.119V63H466.919ZM473.312 66.2V63H479.713V66.2H473.312ZM473.312 50.2V43.8H476.513V50.2H473.312ZM476.513 56.6V50.2H479.713V56.6H476.513ZM479.713 56.6H482.913V63H479.713V56.6ZM482.913 56.6V50.2H486.113V56.6H482.913ZM486.113 50.2V43.8H489.312V50.2H486.113ZM505.312 37.4V34.2H521.312V37.4H514.913V63H511.713V37.4H505.312ZM524.5 63V34.2H537.3V37.4H527.7V47H537.3V56.6H534.1V50.2H527.7V63H524.5ZM537.3 56.6H540.5V63H537.3V56.6ZM537.3 47V37.4H540.5V47H537.3ZM543.688 59.8V34.2H546.888V59.8H543.688ZM556.488 59.8V63H546.888V59.8H556.488ZM556.488 34.2H559.688V59.8H556.488V34.2ZM562.875 63V34.2H575.675V37.4H566.075V47H575.675V50.2H566.075V59.8H575.675V63H562.875ZM591.688 66.2V43.8H604.488V47H594.888V56.6H604.488V59.8H594.888V66.2H591.688ZM604.488 56.6V47H607.688V56.6H604.488ZM610.875 59.8V47H614.075V59.8H610.875ZM623.675 59.8V63H614.075V59.8H623.675ZM623.675 47H626.875V59.8H623.675V47ZM623.675 43.8V47H614.075V43.8H623.675ZM630.062 56.6V43.8H633.263V56.6H630.062ZM633.263 56.6H636.463V63H633.263V56.6ZM636.463 56.6V47H639.663V56.6H636.463ZM639.663 56.6H642.863V63H639.663V56.6ZM642.863 56.6V43.8H646.062V56.6H642.863ZM649.25 59.8V47H652.45V50.2H662.05V47H665.25V53.4H652.45V59.8H649.25ZM652.45 59.8H665.25V63H652.45V59.8ZM652.45 47V43.8H662.05V47H652.45ZM668.438 63V43.8H671.638V47H674.838V50.2H671.638V63H668.438ZM681.238 47H674.838V43.8H681.238V47ZM687.638 56.6H690.838V63H687.638V56.6ZM687.638 53.4V34.2H690.838V53.4H687.638Z" fill="white"/>
<defs>
<filter id="filter0_d_384_771" x="0" y="0" width="915" height="246" filterUnits="userSpaceOnUse" color-interpolation-filters="sRGB">
<feFlood flood-opacity="0" result="BackgroundImageFix"/>
<feColorMatrix in="SourceAlpha" type="matrix" values="0 0 0 0 0 0 0 0 0 0 0 0 0 0 0 0 0 0 127 0" result="hardAlpha"/>
<feOffset dy="4"/>
<feGaussianBlur stdDeviation="2"/>
<feComposite in2="hardAlpha" operator="out"/>
<feColorMatrix type="matrix" values="0 0 0 0 0 0 0 0 0 0 0 0 0 0 0 0 0 0 0.25 0"/>
<feBlend mode="normal" in2="BackgroundImageFix" result="effect1_dropShadow_384_771"/>
<feBlend mode="normal" in="SourceGraphic" in2="effect1_dropShadow_384_771" result="shape"/>
</filter>
</defs>
</svg>
