<svg width="915" height="246" viewBox="0 0 915 246" fill="none" xmlns="http://www.w3.org/2000/svg">
<g filter="url(#filter0_d_384_731)">
<rect x="4" width="907" height="238" fill="black"/>
<rect x="7" y="3" width="901" height="232" stroke="white" stroke-width="6"/>
</g>
<path d="M51 63V50.2H54.2V40.6H57.4V50.2H60.6V40.6H63.8V50.2H67V63H63.8V53.4H54.2V63H51ZM57.4 40.6V34.2H60.6V40.6H57.4ZM70.1875 63V43.8H82.9875V47H73.3875V63H70.1875ZM82.9875 63V47H86.1875V63H82.9875ZM89.375 59.8V47H92.575V59.8H89.375ZM102.175 59.8V47H92.575V43.8H102.175V34.2H105.375V63H92.575V59.8H102.175ZM121.375 59.8V53.4H124.575V59.8H121.375ZM121.375 47V43.8H134.175V47H121.375ZM124.575 59.8H134.175V53.4H124.575V50.2H134.175V47H137.375V63H124.575V59.8ZM140.562 66.2V63H153.363V66.2H140.562ZM140.562 56.6V47H143.763V56.6H140.562ZM143.763 56.6H153.363V47H143.763V43.8H156.562V63H153.363V59.8H143.763V56.6ZM159.75 59.8V53.4H162.95V59.8H159.75ZM159.75 47V43.8H172.55V47H159.75ZM162.95 59.8H172.55V53.4H162.95V50.2H172.55V47H175.75V63H162.95V59.8ZM178.938 63V43.8H182.138V63H178.938ZM178.938 40.6V37.4H182.138V40.6H178.938ZM185.344 63V43.8H198.144V47H188.544V63H185.344ZM198.144 63V47H201.344V63H198.144ZM207.731 63V59.8H210.931V63H207.731Z" fill="white"/>
<defs>
<filter id="filter0_d_384_731" x="0" y="0" width="915" height="246" filterUnits="userSpaceOnUse" color-interpolation-filters="sRGB">
<feFlood flood-opacity="0" result="BackgroundImageFix"/>
<feColorMatrix in="SourceAlpha" type="matrix" values="0 0 0 0 0 0 0 0 0 0 0 0 0 0 0 0 0 0 127 0" result="hardAlpha"/>
<feOffset dy="4"/>
<feGaussianBlur stdDeviation="2"/>
<feComposite in2="hardAlpha" operator="out"/>
<feColorMatrix type="matrix" values="0 0 0 0 0 0 0 0 0 0 0 0 0 0 0 0 0 0 0.25 0"/>
<feBlend mode="normal" in2="BackgroundImageFix" result="effect1_dropShadow_384_731"/>
<feBlend mode="normal" in="SourceGraphic" in2="effect1_dropShadow_384_731" result="shape"/>
</filter>
</defs>
</svg>
