<svg width="915" height="246" viewBox="0 0 915 246" fill="none" xmlns="http://www.w3.org/2000/svg">
<g filter="url(#filter0_d_384_776)">
<rect x="4" width="907" height="238" fill="black"/>
<rect x="7" y="3" width="901" height="232" stroke="white" stroke-width="6"/>
</g>
<path d="M51 63V59.8H60.6V63H51ZM51 47V37.4H54.2V47H51ZM54.2 47H60.6V50.2H54.2V47ZM54.2 37.4V34.2H63.8V37.4H54.2ZM60.6 59.8V50.2H63.8V59.8H60.6ZM67 59.8V47H70.2V59.8H67ZM79.8 59.8V63H70.2V59.8H79.8ZM79.8 47H83V59.8H79.8V47ZM79.8 43.8V47H70.2V43.8H79.8ZM86.1875 63V43.8H105.388V47H98.9875V63H95.7875V47H89.3875V63H86.1875ZM105.388 63V47H108.588V63H105.388ZM111.781 59.8V47H114.981V50.2H124.581V47H127.781V53.4H114.981V59.8H111.781ZM114.981 59.8H127.781V63H114.981V59.8ZM114.981 47V43.8H124.581V47H114.981ZM130.969 47V43.8H134.169V37.4H137.369V43.8H143.769V47H137.369V59.8H134.169V47H130.969ZM137.369 59.8H143.769V63H137.369V59.8ZM146.969 63V34.2H150.169V43.8H159.769V47H150.169V63H146.969ZM159.769 63V47H162.969V63H159.769ZM166.156 63V43.8H169.356V63H166.156ZM166.156 40.6V37.4H169.356V40.6H166.156ZM172.562 63V43.8H185.363V47H175.763V63H172.562ZM185.363 63V47H188.562V63H185.363ZM191.75 66.2V63H204.55V66.2H191.75ZM191.75 56.6V47H194.95V56.6H191.75ZM194.95 56.6H204.55V47H194.95V43.8H207.75V63H204.55V59.8H194.95V56.6ZM223.75 59.8V47H226.95V50.2H236.55V47H239.75V53.4H226.95V59.8H223.75ZM226.95 59.8H239.75V63H226.95V59.8ZM226.95 47V43.8H236.55V47H226.95ZM242.938 59.8V34.2H246.138V59.8H242.938ZM246.138 59.8H249.338V63H246.138V59.8ZM252.531 63V59.8H262.131V63H252.531ZM252.531 50.2V47H255.731V50.2H252.531ZM255.731 47V43.8H265.331V47H255.731ZM255.731 50.2H262.131V53.4H255.731V50.2ZM262.131 59.8V53.4H265.331V59.8H262.131ZM268.531 59.8V47H271.731V50.2H281.331V47H284.531V53.4H271.731V59.8H268.531ZM271.731 59.8H284.531V63H271.731V59.8ZM271.731 47V43.8H281.331V47H271.731ZM300.531 63V34.2H303.731V43.8H313.331V47H303.731V59.8H313.331V63H300.531ZM313.331 59.8V47H316.531V59.8H313.331ZM319.719 59.8V47H322.919V50.2H332.519V47H335.719V53.4H322.919V59.8H319.719ZM322.919 59.8H335.719V63H322.919V59.8ZM322.919 47V43.8H332.519V47H322.919ZM338.906 66.2V63H351.706V66.2H338.906ZM338.906 56.6V47H342.106V56.6H338.906ZM342.106 56.6H351.706V47H342.106V43.8H354.906V63H351.706V59.8H342.106V56.6ZM358.094 59.8V53.4H361.294V59.8H358.094ZM358.094 47V43.8H370.894V47H358.094ZM361.294 59.8H370.894V53.4H361.294V50.2H370.894V47H374.094V63H361.294V59.8ZM377.281 63V43.8H390.081V47H380.481V63H377.281ZM390.081 63V47H393.281V63H390.081ZM409.281 63V43.8H412.481V47H415.681V50.2H412.481V63H409.281ZM422.081 47H415.681V43.8H422.081V47ZM425.281 59.8V47H428.481V50.2H438.081V47H441.281V53.4H428.481V59.8H425.281ZM428.481 59.8H441.281V63H428.481V59.8ZM428.481 47V43.8H438.081V47H428.481ZM444.469 63V59.8H454.069V63H444.469ZM444.469 50.2V47H447.669V50.2H444.469ZM447.669 47V43.8H457.269V47H447.669ZM447.669 50.2H454.069V53.4H447.669V50.2ZM454.069 59.8V53.4H457.269V59.8H454.069ZM460.469 59.8V47H463.669V59.8H460.469ZM473.269 59.8V63H463.669V59.8H473.269ZM473.269 47H476.469V59.8H473.269V47ZM473.269 43.8V47H463.669V43.8H473.269ZM479.656 63V43.8H492.456V47H482.856V63H479.656ZM492.456 63V47H495.656V63H492.456ZM498.844 59.8V53.4H502.044V59.8H498.844ZM498.844 47V43.8H511.644V47H498.844ZM502.044 59.8H511.644V53.4H502.044V50.2H511.644V47H514.844V63H502.044V59.8ZM518.031 47V43.8H521.231V37.4H524.431V43.8H530.831V47H524.431V59.8H521.231V47H518.031ZM524.431 59.8H530.831V63H524.431V59.8ZM534.031 63V43.8H537.231V63H534.031ZM534.031 40.6V37.4H537.231V40.6H534.031ZM540.438 63V43.8H553.238V47H543.638V63H540.438ZM553.238 63V47H556.438V63H553.238ZM559.625 66.2V63H572.425V66.2H559.625ZM559.625 56.6V47H562.825V56.6H559.625ZM562.825 56.6H572.425V47H562.825V43.8H575.625V63H572.425V59.8H562.825V56.6ZM591.625 56.6V43.8H594.825V56.6H591.625ZM594.825 56.6H598.025V63H594.825V56.6ZM598.025 56.6V47H601.225V56.6H598.025ZM601.225 56.6H604.425V63H601.225V56.6ZM604.425 56.6V43.8H607.625V56.6H604.425ZM610.812 63V43.8H614.013V63H610.812ZM610.812 40.6V37.4H614.013V40.6H610.812ZM617.219 47V43.8H620.419V37.4H623.619V43.8H630.019V47H623.619V59.8H620.419V47H617.219ZM623.619 59.8H630.019V63H623.619V59.8ZM633.219 63V34.2H636.419V43.8H646.019V47H636.419V63H633.219ZM646.019 63V47H649.219V63H646.019ZM652.406 63V43.8H655.606V63H652.406ZM652.406 40.6V37.4H655.606V40.6H652.406ZM658.812 63V43.8H671.613V47H662.013V63H658.812ZM671.613 63V47H674.812V63H671.613ZM690.812 47V43.8H694.013V37.4H697.213V43.8H703.613V47H697.213V59.8H694.013V47H690.812ZM697.213 59.8H703.613V63H697.213V59.8ZM706.812 63V34.2H710.013V43.8H719.613V47H710.013V63H706.812ZM719.613 63V47H722.812V63H719.613ZM726 59.8V47H729.2V50.2H738.8V47H742V53.4H729.2V59.8H726ZM729.2 59.8H742V63H729.2V59.8ZM729.2 47V43.8H738.8V47H729.2ZM758 63V59.8H767.6V63H758ZM758 47V37.4H761.2V47H758ZM761.2 47H767.6V50.2H761.2V47ZM761.2 37.4V34.2H770.8V37.4H761.2ZM767.6 59.8V50.2H770.8V59.8H767.6ZM774 59.8V37.4H777.2V59.8H774ZM786.8 59.8V63H777.2V59.8H786.8ZM786.8 34.2V37.4H777.2V34.2H786.8ZM786.8 37.4H790V59.8H786.8V37.4ZM793.188 59.8V34.2H796.388V59.8H793.188ZM805.988 59.8V63H796.388V59.8H805.988ZM805.988 34.2H809.188V59.8H805.988V34.2ZM812.375 63V34.2H815.575V59.8H825.175V63H812.375ZM828.375 66.2V63H831.575V66.2H828.375ZM831.575 63V59.8H834.775V63H831.575ZM51 105V101.8H60.6V105H51ZM51 92.2V89H54.2V92.2H51ZM54.2 89V85.8H63.8V89H54.2ZM54.2 92.2H60.6V95.4H54.2V92.2ZM60.6 101.8V95.4H63.8V101.8H60.6ZM67 89V85.8H70.2V79.4H73.4V85.8H79.8V89H73.4V101.8H70.2V89H67ZM73.4 101.8H79.8V105H73.4V101.8ZM83 105V85.8H86.2V89H89.4V92.2H86.2V105H83ZM95.8 89H89.4V85.8H95.8V89ZM99 101.8V89H102.2V101.8H99ZM111.8 101.8V105H102.2V101.8H111.8ZM111.8 89H115V101.8H111.8V89ZM111.8 85.8V89H102.2V85.8H111.8ZM118.188 105V85.8H130.988V89H121.388V105H118.188ZM130.988 105V89H134.188V105H130.988ZM137.375 108.2V105H150.175V108.2H137.375ZM137.375 98.6V89H140.575V98.6H137.375ZM140.575 98.6H150.175V89H140.575V85.8H153.375V105H150.175V101.8H140.575V98.6ZM156.562 101.8V89H159.763V92.2H169.363V89H172.562V95.4H159.763V101.8H156.562ZM159.763 101.8H172.562V105H159.763V101.8ZM159.763 89V85.8H169.363V89H159.763ZM175.75 105V85.8H178.95V89H182.15V92.2H178.95V105H175.75ZM188.55 89H182.15V85.8H188.55V89ZM204.562 101.8V95.4H207.763V101.8H204.562ZM204.562 89V85.8H217.363V89H204.562ZM207.763 101.8H217.363V95.4H207.763V92.2H217.363V89H220.562V105H207.763V101.8ZM223.75 105V85.8H236.55V89H226.95V105H223.75ZM236.55 105V89H239.75V105H236.55ZM242.938 101.8V89H246.138V101.8H242.938ZM255.738 101.8V89H246.138V85.8H255.738V76.2H258.938V105H246.138V101.8H255.738ZM274.938 105V101.8H284.538V105H274.938ZM274.938 92.2V89H278.138V92.2H274.938ZM278.138 89V85.8H287.738V89H278.138ZM278.138 92.2H284.538V95.4H278.138V92.2ZM284.538 101.8V95.4H287.738V101.8H284.538ZM290.938 89V85.8H294.138V79.4H297.338V85.8H303.738V89H297.338V101.8H294.138V89H290.938ZM297.338 101.8H303.738V105H297.338V101.8ZM306.938 105V85.8H310.138V89H313.338V92.2H310.138V105H306.938ZM319.738 89H313.338V85.8H319.738V89ZM322.938 101.8V89H326.138V101.8H322.938ZM335.738 101.8V105H326.138V101.8H335.738ZM335.738 89H338.938V101.8H335.738V89ZM335.738 85.8V89H326.138V85.8H335.738ZM342.125 105V85.8H354.925V89H345.325V105H342.125ZM354.925 105V89H358.125V105H354.925ZM361.312 108.2V105H374.113V108.2H361.312ZM361.312 98.6V89H364.513V98.6H361.312ZM364.513 98.6H374.113V89H364.513V85.8H377.312V105H374.113V101.8H364.513V98.6ZM380.5 101.8V89H383.7V92.2H393.3V89H396.5V95.4H383.7V101.8H380.5ZM383.7 101.8H396.5V105H383.7V101.8ZM383.7 89V85.8H393.3V89H383.7ZM399.688 105V85.8H402.888V89H406.088V92.2H402.888V105H399.688ZM412.488 89H406.088V85.8H412.488V89ZM415.7 105V101.8H418.9V105H415.7Z" fill="white"/>
<defs>
<filter id="filter0_d_384_776" x="0" y="0" width="915" height="246" filterUnits="userSpaceOnUse" color-interpolation-filters="sRGB">
<feFlood flood-opacity="0" result="BackgroundImageFix"/>
<feColorMatrix in="SourceAlpha" type="matrix" values="0 0 0 0 0 0 0 0 0 0 0 0 0 0 0 0 0 0 127 0" result="hardAlpha"/>
<feOffset dy="4"/>
<feGaussianBlur stdDeviation="2"/>
<feComposite in2="hardAlpha" operator="out"/>
<feColorMatrix type="matrix" values="0 0 0 0 0 0 0 0 0 0 0 0 0 0 0 0 0 0 0.25 0"/>
<feBlend mode="normal" in2="BackgroundImageFix" result="effect1_dropShadow_384_776"/>
<feBlend mode="normal" in="SourceGraphic" in2="effect1_dropShadow_384_776" result="shape"/>
</filter>
</defs>
</svg>
