<svg width="915" height="246" viewBox="0 0 915 246" fill="none" xmlns="http://www.w3.org/2000/svg">
<g filter="url(#filter0_d_384_772)">
<rect x="4" width="907" height="238" fill="black"/>
<rect x="7" y="3" width="901" height="232" stroke="white" stroke-width="6"/>
</g>
<path d="M51 63V34.2H54.2V63H51ZM70.2188 59.8V47H73.4188V59.8H70.2188ZM73.4188 59.8H86.2188V63H73.4188V59.8ZM73.4188 47V43.8H86.2188V47H73.4188ZM89.4062 59.8V53.4H92.6063V59.8H89.4062ZM89.4062 47V43.8H102.206V47H89.4062ZM92.6063 59.8H102.206V53.4H92.6063V50.2H102.206V47H105.406V63H92.6063V59.8ZM108.594 63V43.8H121.394V47H111.794V63H108.594ZM121.394 63V47H124.594V63H121.394ZM140.594 47V43.8H143.794V37.4H146.994V43.8H153.394V47H146.994V63H143.794V47H140.594ZM146.994 37.4V34.2H153.394V37.4H146.994ZM156.594 59.8V47H159.794V50.2H169.394V47H172.594V53.4H159.794V59.8H156.594ZM159.794 59.8H172.594V63H159.794V59.8ZM159.794 47V43.8H169.394V47H159.794ZM175.781 59.8V47H178.981V50.2H188.581V47H191.781V53.4H178.981V59.8H175.781ZM178.981 59.8H191.781V63H178.981V59.8ZM178.981 47V43.8H188.581V47H178.981ZM194.969 59.8V34.2H198.169V59.8H194.969ZM198.169 59.8H201.369V63H198.169V59.8ZM217.375 63V43.8H220.575V63H217.375ZM217.375 40.6V37.4H220.575V40.6H217.375ZM223.781 47V43.8H226.981V37.4H230.181V43.8H236.581V47H230.181V59.8H226.981V47H223.781ZM230.181 59.8H236.581V63H230.181V59.8ZM242.981 63V59.8H246.181V63H242.981ZM255.794 63V59.8H258.994V63H255.794ZM268.606 63V59.8H271.806V63H268.606ZM291.031 63V34.2H303.831V37.4H294.231V47H303.831V50.2H294.231V59.8H303.831V63H291.031ZM307.031 50.2V43.8H310.231V50.2H307.031ZM310.231 56.6V50.2H313.431V56.6H310.231ZM313.431 56.6H316.631V63H313.431V56.6ZM316.631 56.6V50.2H319.831V56.6H316.631ZM319.831 50.2V43.8H323.031V50.2H319.831ZM326.219 59.8V47H329.419V50.2H339.019V47H342.219V53.4H329.419V59.8H326.219ZM329.419 59.8H342.219V63H329.419V59.8ZM329.419 47V43.8H339.019V47H329.419ZM345.406 63V43.8H348.606V47H351.806V50.2H348.606V63H345.406ZM358.206 47H351.806V43.8H358.206V47ZM361.406 66.2V63H367.806V66.2H361.406ZM361.406 50.2V43.8H364.606V50.2H361.406ZM364.606 56.6V50.2H367.806V56.6H364.606ZM367.806 56.6H371.006V63H367.806V56.6ZM371.006 56.6V50.2H374.206V56.6H371.006ZM374.206 50.2V43.8H377.406V50.2H374.206ZM393.406 47V43.8H396.606V37.4H399.806V43.8H406.206V47H399.806V59.8H396.606V47H393.406ZM399.806 59.8H406.206V63H399.806V59.8ZM409.406 63V43.8H412.606V63H409.406ZM409.406 40.6V37.4H412.606V40.6H409.406ZM415.812 63V43.8H435.013V47H428.613V63H425.413V47H419.013V63H415.812ZM435.013 63V47H438.213V63H435.013ZM441.406 59.8V47H444.606V50.2H454.206V47H457.406V53.4H444.606V59.8H441.406ZM444.606 59.8H457.406V63H444.606V59.8ZM444.606 47V43.8H454.206V47H444.606ZM473.406 66.2V63H479.806V66.2H473.406ZM473.406 50.2V43.8H476.606V50.2H473.406ZM476.606 56.6V50.2H479.806V56.6H476.606ZM479.806 56.6H483.006V63H479.806V56.6ZM483.006 56.6V50.2H486.206V56.6H483.006ZM486.206 50.2V43.8H489.406V50.2H486.206ZM492.594 59.8V47H495.794V59.8H492.594ZM505.394 59.8V63H495.794V59.8H505.394ZM505.394 47H508.594V59.8H505.394V47ZM505.394 43.8V47H495.794V43.8H505.394ZM511.781 59.8V43.8H514.981V59.8H511.781ZM524.581 59.8V43.8H527.781V63H514.981V59.8H524.581ZM543.781 59.8V47H546.981V59.8H543.781ZM556.581 59.8V47H546.981V43.8H556.581V34.2H559.781V63H546.981V59.8H556.581ZM562.969 63V43.8H566.169V63H562.969ZM562.969 40.6V37.4H566.169V40.6H562.969ZM569.375 59.8V47H572.575V50.2H582.175V47H585.375V53.4H572.575V59.8H569.375ZM572.575 59.8H585.375V63H572.575V59.8ZM572.575 47V43.8H582.175V47H572.575ZM588.562 66.2V63H591.763V66.2H588.562ZM591.763 63V59.8H594.963V63H591.763ZM614.188 66.2V63H620.588V66.2H614.188ZM614.188 50.2V43.8H617.388V50.2H614.188ZM617.388 56.6V50.2H620.588V56.6H617.388ZM620.588 56.6H623.788V63H620.588V56.6ZM623.788 56.6V50.2H626.988V56.6H623.788ZM626.988 50.2V43.8H630.188V50.2H626.988ZM633.375 59.8V47H636.575V59.8H633.375ZM646.175 59.8V63H636.575V59.8H646.175ZM646.175 47H649.375V59.8H646.175V47ZM646.175 43.8V47H636.575V43.8H646.175ZM652.562 59.8V43.8H655.763V59.8H652.562ZM665.363 59.8V43.8H668.562V63H655.763V59.8H665.363ZM671.75 63V43.8H674.95V47H678.15V50.2H674.95V63H671.75ZM684.55 47H678.15V43.8H684.55V47ZM700.562 66.2V63H713.363V66.2H700.562ZM700.562 56.6V47H703.763V56.6H700.562ZM703.763 56.6H713.363V47H703.763V43.8H716.562V63H713.363V59.8H703.763V56.6ZM719.75 63V43.8H722.95V47H726.15V50.2H722.95V63H719.75ZM732.55 47H726.15V43.8H732.55V47ZM735.75 63V43.8H738.95V63H735.75ZM735.75 40.6V37.4H738.95V40.6H735.75ZM742.156 66.2V43.8H754.956V47H745.356V56.6H754.956V59.8H745.356V66.2H742.156ZM754.956 56.6V47H758.156V56.6H754.956ZM774.156 59.8V47H777.356V59.8H774.156ZM786.956 59.8V63H777.356V59.8H786.956ZM786.956 47H790.156V59.8H786.956V47ZM786.956 43.8V47H777.356V43.8H786.956ZM793.344 63V43.8H806.144V47H796.544V63H793.344ZM806.144 63V47H809.344V63H806.144ZM825.344 47V43.8H828.544V37.4H831.744V43.8H838.144V47H831.744V59.8H828.544V47H825.344ZM831.744 59.8H838.144V63H831.744V59.8ZM841.344 63V34.2H844.544V43.8H854.144V47H844.544V63H841.344ZM854.144 63V47H857.344V63H854.144ZM860.531 63V43.8H863.731V63H860.531ZM860.531 40.6V37.4H863.731V40.6H860.531ZM866.938 63V59.8H876.538V63H866.938ZM866.938 50.2V47H870.138V50.2H866.938ZM870.138 47V43.8H879.738V47H870.138ZM870.138 50.2H876.538V53.4H870.138V50.2ZM876.538 59.8V53.4H879.738V59.8H876.538ZM51 98.6V85.8H54.2V98.6H51ZM54.2 98.6H57.4V105H54.2V98.6ZM57.4 98.6V89H60.6V98.6H57.4ZM60.6 98.6H63.8V105H60.6V98.6ZM63.8 98.6V85.8H67V98.6H63.8ZM70.1875 101.8V89H73.3875V101.8H70.1875ZM82.9875 101.8V105H73.3875V101.8H82.9875ZM82.9875 89H86.1875V101.8H82.9875V89ZM82.9875 85.8V89H73.3875V85.8H82.9875ZM89.375 105V85.8H92.575V89H95.775V92.2H92.575V105H89.375ZM102.175 89H95.775V85.8H102.175V89ZM105.375 101.8V76.2H108.575V101.8H105.375ZM108.575 101.8H111.775V105H108.575V101.8ZM114.969 101.8V89H118.169V101.8H114.969ZM127.769 101.8V89H118.169V85.8H127.769V76.2H130.969V105H118.169V101.8H127.769ZM146.969 105V101.8H156.569V105H146.969ZM146.969 92.2V89H150.169V92.2H146.969ZM150.169 89V85.8H159.769V89H150.169ZM150.169 92.2H156.569V95.4H150.169V92.2ZM156.569 101.8V95.4H159.769V101.8H156.569ZM162.969 101.8V76.2H166.169V101.8H162.969ZM166.169 101.8H169.369V105H166.169V101.8ZM172.562 105V85.8H175.763V105H172.562ZM172.562 82.6V79.4H175.763V82.6H172.562ZM178.969 108.2V85.8H191.769V89H182.169V98.6H191.769V101.8H182.169V108.2H178.969ZM191.769 98.6V89H194.969V98.6H191.769ZM198.156 105V101.8H207.756V105H198.156ZM198.156 92.2V89H201.356V92.2H198.156ZM201.356 89V85.8H210.956V89H201.356ZM201.356 92.2H207.756V95.4H201.356V92.2ZM207.756 101.8V95.4H210.956V101.8H207.756ZM226.969 101.8V95.4H230.169V101.8H226.969ZM226.969 89V85.8H239.769V89H226.969ZM230.169 101.8H239.769V95.4H230.169V92.2H239.769V89H242.969V105H230.169V101.8ZM246.156 98.6V85.8H249.356V98.6H246.156ZM249.356 98.6H252.556V105H249.356V98.6ZM252.556 98.6V89H255.756V98.6H252.556ZM255.756 98.6H258.956V105H255.756V98.6ZM258.956 98.6V85.8H262.156V98.6H258.956ZM265.344 101.8V95.4H268.544V101.8H265.344ZM265.344 89V85.8H278.144V89H265.344ZM268.544 101.8H278.144V95.4H268.544V92.2H278.144V89H281.344V105H268.544V101.8ZM284.531 108.2V105H290.931V108.2H284.531ZM284.531 92.2V85.8H287.731V92.2H284.531ZM287.731 98.6V92.2H290.931V98.6H287.731ZM290.931 98.6H294.131V105H290.931V98.6ZM294.131 98.6V92.2H297.331V98.6H294.131ZM297.331 92.2V85.8H300.531V92.2H297.331ZM303.731 105V101.8H306.931V105H303.731ZM326.156 105V76.2H338.956V79.4H329.356V89H338.956V92.2H329.356V101.8H338.956V105H326.156ZM342.156 92.2V85.8H345.356V92.2H342.156ZM345.356 98.6V92.2H348.556V98.6H345.356ZM348.556 98.6H351.756V105H348.556V98.6ZM351.756 98.6V92.2H354.956V98.6H351.756ZM354.956 92.2V85.8H358.156V92.2H354.956ZM361.344 101.8V89H364.544V92.2H374.144V89H377.344V95.4H364.544V101.8H361.344ZM364.544 101.8H377.344V105H364.544V101.8ZM364.544 89V85.8H374.144V89H364.544ZM380.531 105V85.8H383.731V89H386.931V92.2H383.731V105H380.531ZM393.331 89H386.931V85.8H393.331V89ZM396.531 108.2V105H402.931V108.2H396.531ZM396.531 92.2V85.8H399.731V92.2H396.531ZM399.731 98.6V92.2H402.931V98.6H399.731ZM402.931 98.6H406.131V105H402.931V98.6ZM406.131 98.6V92.2H409.331V98.6H406.131ZM409.331 92.2V85.8H412.531V92.2H409.331ZM428.531 89V85.8H431.731V79.4H434.931V85.8H441.331V89H434.931V101.8H431.731V89H428.531ZM434.931 101.8H441.331V105H434.931V101.8ZM444.531 105V85.8H447.731V105H444.531ZM444.531 82.6V79.4H447.731V82.6H444.531ZM450.938 105V85.8H470.138V89H463.738V105H460.538V89H454.138V105H450.938ZM470.138 105V89H473.338V105H470.138ZM476.531 101.8V89H479.731V92.2H489.331V89H492.531V95.4H479.731V101.8H476.531ZM479.731 101.8H492.531V105H479.731V101.8ZM479.731 89V85.8H489.331V89H479.731ZM508.531 108.2V105H514.931V108.2H508.531ZM508.531 92.2V85.8H511.731V92.2H508.531ZM511.731 98.6V92.2H514.931V98.6H511.731ZM514.931 98.6H518.131V105H514.931V98.6ZM518.131 98.6V92.2H521.331V98.6H518.131ZM521.331 92.2V85.8H524.531V92.2H521.331ZM527.719 101.8V89H530.919V101.8H527.719ZM540.519 101.8V105H530.919V101.8H540.519ZM540.519 89H543.719V101.8H540.519V89ZM540.519 85.8V89H530.919V85.8H540.519ZM546.906 101.8V85.8H550.106V101.8H546.906ZM559.706 101.8V85.8H562.906V105H550.106V101.8H559.706ZM578.906 101.8V89H582.106V101.8H578.906ZM591.706 101.8V89H582.106V85.8H591.706V76.2H594.906V105H582.106V101.8H591.706ZM598.094 105V85.8H601.294V105H598.094ZM598.094 82.6V79.4H601.294V82.6H598.094ZM604.5 101.8V89H607.7V92.2H617.3V89H620.5V95.4H607.7V101.8H604.5ZM607.7 101.8H620.5V105H607.7V101.8ZM607.7 89V85.8H617.3V89H607.7ZM623.688 108.2V105H626.888V108.2H623.688ZM626.888 105V101.8H630.088V105H626.888ZM649.312 108.2V105H655.713V108.2H649.312ZM649.312 92.2V85.8H652.513V92.2H649.312ZM652.513 98.6V92.2H655.713V98.6H652.513ZM655.713 98.6H658.913V105H655.713V98.6ZM658.913 98.6V92.2H662.113V98.6H658.913ZM662.113 92.2V85.8H665.312V92.2H662.113ZM668.5 101.8V89H671.7V101.8H668.5ZM681.3 101.8V105H671.7V101.8H681.3ZM681.3 89H684.5V101.8H681.3V89ZM681.3 85.8V89H671.7V85.8H681.3ZM687.688 101.8V85.8H690.888V101.8H687.688ZM700.488 101.8V85.8H703.688V105H690.888V101.8H700.488ZM706.875 105V85.8H710.075V89H713.275V92.2H710.075V105H706.875ZM719.675 89H713.275V85.8H719.675V89ZM735.688 89V85.8H738.888V79.4H742.088V85.8H748.488V89H742.088V105H738.888V89H735.688ZM742.088 79.4V76.2H748.488V79.4H742.088ZM751.688 105V85.8H754.888V89H758.088V92.2H754.888V105H751.688ZM764.488 89H758.088V85.8H764.488V89ZM767.688 105V85.8H770.888V105H767.688ZM767.688 82.6V79.4H770.888V82.6H767.688ZM774.094 101.8V89H777.294V92.2H786.894V89H790.094V95.4H777.294V101.8H774.094ZM777.294 101.8H790.094V105H777.294V101.8ZM777.294 89V85.8H786.894V89H777.294ZM793.281 105V85.8H806.081V89H796.481V105H793.281ZM806.081 105V89H809.281V105H806.081ZM812.469 101.8V89H815.669V101.8H812.469ZM825.269 101.8V89H815.669V85.8H825.269V76.2H828.469V105H815.669V101.8H825.269ZM831.656 105V101.8H841.256V105H831.656ZM831.656 92.2V89H834.856V92.2H831.656ZM834.856 89V85.8H844.456V89H834.856ZM834.856 92.2H841.256V95.4H834.856V92.2ZM841.256 101.8V95.4H844.456V101.8H841.256ZM51 131V127.8H54.2V121.4H57.4V127.8H63.8V131H57.4V147H54.2V131H51ZM57.4 121.4V118.2H63.8V121.4H57.4ZM67 143.8V131H70.2V143.8H67ZM79.8 143.8V147H70.2V143.8H79.8ZM79.8 131H83V143.8H79.8V131ZM79.8 127.8V131H70.2V127.8H79.8ZM86.1875 147V127.8H89.3875V131H92.5875V134.2H89.3875V147H86.1875ZM98.9875 131H92.5875V127.8H98.9875V131ZM102.188 150.2V147H114.988V150.2H102.188ZM102.188 140.6V131H105.388V140.6H102.188ZM105.388 140.6H114.988V131H105.388V127.8H118.188V147H114.988V143.8H105.388V140.6ZM121.375 143.8V131H124.575V134.2H134.175V131H137.375V137.4H124.575V143.8H121.375ZM124.575 143.8H137.375V147H124.575V143.8ZM124.575 131V127.8H134.175V131H124.575ZM140.562 131V127.8H143.763V121.4H146.963V127.8H153.363V131H146.963V143.8H143.763V131H140.562ZM146.963 143.8H153.363V147H146.963V143.8ZM169.375 150.2V147H175.775V150.2H169.375ZM169.375 134.2V127.8H172.575V134.2H169.375ZM172.575 140.6V134.2H175.775V140.6H172.575ZM175.775 140.6H178.975V147H175.775V140.6ZM178.975 140.6V134.2H182.175V140.6H178.975ZM182.175 134.2V127.8H185.375V134.2H182.175ZM188.562 143.8V131H191.763V143.8H188.562ZM201.363 143.8V147H191.763V143.8H201.363ZM201.363 131H204.562V143.8H201.363V131ZM201.363 127.8V131H191.763V127.8H201.363ZM207.75 143.8V127.8H210.95V143.8H207.75ZM220.55 143.8V127.8H223.75V147H210.95V143.8H220.55ZM239.75 143.8V137.4H242.95V143.8H239.75ZM239.75 131V127.8H252.55V131H239.75ZM242.95 143.8H252.55V137.4H242.95V134.2H252.55V131H255.75V147H242.95V143.8ZM271.75 143.8V118.2H274.95V143.8H271.75ZM274.95 143.8H278.15V147H274.95V143.8ZM281.344 147V127.8H284.544V147H281.344ZM281.344 124.6V121.4H284.544V124.6H281.344ZM287.75 131V127.8H290.95V121.4H294.15V127.8H300.55V131H294.15V143.8H290.95V131H287.75ZM294.15 143.8H300.55V147H294.15V143.8ZM300.562 131V127.8H303.763V121.4H306.963V127.8H313.363V131H306.963V143.8H303.763V131H300.562ZM306.963 143.8H313.363V147H306.963V143.8ZM316.562 143.8V118.2H319.763V143.8H316.562ZM319.763 143.8H322.963V147H319.763V143.8ZM326.156 143.8V131H329.356V134.2H338.956V131H342.156V137.4H329.356V143.8H326.156ZM329.356 143.8H342.156V147H329.356V143.8ZM329.356 131V127.8H338.956V131H329.356ZM358.156 147V127.8H377.356V131H370.956V147H367.756V131H361.356V147H358.156ZM377.356 147V131H380.556V147H377.356ZM383.75 143.8V131H386.95V143.8H383.75ZM396.55 143.8V147H386.95V143.8H396.55ZM396.55 131H399.75V143.8H396.55V131ZM396.55 127.8V131H386.95V127.8H396.55ZM402.938 147V127.8H406.138V131H409.338V134.2H406.138V147H402.938ZM415.738 131H409.338V127.8H415.738V131ZM418.938 143.8V131H422.138V134.2H431.738V131H434.938V137.4H422.138V143.8H418.938ZM422.138 143.8H434.938V147H422.138V143.8ZM422.138 131V127.8H431.738V131H422.138ZM441.325 147V143.8H444.525V147H441.325ZM463.75 124.6V118.2H466.95V124.6H463.75ZM466.95 131V124.6H470.15V131H466.95ZM470.15 147V131H473.35V147H470.15ZM473.35 131V124.6H476.55V131H473.35ZM476.55 124.6V118.2H479.75V124.6H476.55ZM479.75 143.8V131H482.95V143.8H479.75ZM492.55 143.8V147H482.95V143.8H492.55ZM492.55 131H495.75V143.8H492.55V131ZM492.55 127.8V131H482.95V127.8H492.55ZM498.938 143.8V127.8H502.138V143.8H498.938ZM511.738 143.8V127.8H514.938V147H502.138V143.8H511.738ZM518.125 147V127.8H521.325V131H524.525V134.2H521.325V147H518.125ZM530.925 131H524.525V127.8H530.925V131ZM546.938 143.8V118.2H550.138V143.8H546.938ZM550.138 143.8H553.338V147H550.138V143.8ZM556.531 147V127.8H559.731V147H556.531ZM556.531 124.6V121.4H559.731V124.6H556.531ZM562.938 131V127.8H566.138V121.4H569.338V127.8H575.738V131H569.338V147H566.138V131H562.938ZM569.338 121.4V118.2H575.738V121.4H569.338ZM578.938 143.8V131H582.138V134.2H591.738V131H594.938V137.4H582.138V143.8H578.938ZM582.138 143.8H594.938V147H582.138V143.8ZM582.138 131V127.8H591.738V131H582.138ZM610.938 140.6V127.8H614.138V140.6H610.938ZM614.138 140.6H617.338V147H614.138V140.6ZM617.338 140.6V131H620.538V140.6H617.338ZM620.538 140.6H623.738V147H620.538V140.6ZM623.738 140.6V127.8H626.938V140.6H623.738ZM630.125 147V127.8H633.325V147H630.125ZM630.125 124.6V121.4H633.325V124.6H630.125ZM636.531 143.8V118.2H639.731V143.8H636.531ZM639.731 143.8H642.931V147H639.731V143.8ZM646.125 143.8V118.2H649.325V143.8H646.125ZM649.325 143.8H652.525V147H649.325V143.8ZM668.531 143.8V131H671.731V134.2H681.331V131H684.531V137.4H671.731V143.8H668.531ZM671.731 143.8H684.531V147H671.731V143.8ZM671.731 131V127.8H681.331V131H671.731ZM687.719 147V127.8H700.519V131H690.919V147H687.719ZM700.519 147V131H703.719V147H700.519ZM706.906 143.8V131H710.106V143.8H706.906ZM719.706 143.8V131H710.106V127.8H719.706V118.2H722.906V147H710.106V143.8H719.706ZM738.906 147V118.2H742.106V127.8H751.706V131H742.106V147H738.906ZM751.706 147V131H754.906V147H751.706ZM758.094 143.8V131H761.294V134.2H770.894V131H774.094V137.4H761.294V143.8H758.094ZM761.294 143.8H774.094V147H761.294V143.8ZM761.294 131V127.8H770.894V131H761.294ZM777.281 147V127.8H780.481V131H783.681V134.2H780.481V147H777.281ZM790.081 131H783.681V127.8H790.081V131ZM793.281 143.8V131H796.481V134.2H806.081V131H809.281V137.4H796.481V143.8H793.281ZM796.481 143.8H809.281V147H796.481V143.8ZM796.481 131V127.8H806.081V131H796.481ZM812.469 150.2V147H815.669V150.2H812.469ZM815.669 147V143.8H818.869V147H815.669ZM838.094 147V127.8H841.294V147H838.094ZM838.094 124.6V121.4H841.294V124.6H838.094ZM844.5 147V127.8H857.3V131H847.7V147H844.5ZM857.3 147V131H860.5V147H857.3ZM51 185.8V179.4H54.2V185.8H51ZM51 173V169.8H63.8V173H51ZM54.2 185.8H63.8V179.4H54.2V176.2H63.8V173H67V189H54.2V185.8ZM83 182.6V169.8H86.2V182.6H83ZM86.2 182.6H89.4V189H86.2V182.6ZM89.4 182.6V173H92.6V182.6H89.4ZM92.6 182.6H95.8V189H92.6V182.6ZM95.8 182.6V169.8H99V182.6H95.8ZM102.188 185.8V173H105.388V185.8H102.188ZM114.988 185.8V189H105.388V185.8H114.988ZM114.988 173H118.188V185.8H114.988V173ZM114.988 169.8V173H105.388V169.8H114.988ZM121.375 189V169.8H124.575V173H127.775V176.2H124.575V189H121.375ZM134.175 173H127.775V169.8H134.175V173ZM137.375 185.8V160.2H140.575V185.8H137.375ZM140.575 185.8H143.775V189H140.575V185.8ZM146.969 185.8V173H150.169V185.8H146.969ZM159.769 185.8V173H150.169V169.8H159.769V160.2H162.969V189H150.169V185.8H159.769ZM178.969 182.6V169.8H182.169V182.6H178.969ZM182.169 182.6H185.369V189H182.169V182.6ZM185.369 182.6V173H188.569V182.6H185.369ZM188.569 182.6H191.769V189H188.569V182.6ZM191.769 182.6V169.8H194.969V182.6H191.769ZM198.156 189V160.2H201.356V169.8H210.956V173H201.356V189H198.156ZM210.956 189V173H214.156V189H210.956ZM217.344 185.8V173H220.544V176.2H230.144V173H233.344V179.4H220.544V185.8H217.344ZM220.544 185.8H233.344V189H220.544V185.8ZM220.544 173V169.8H230.144V173H220.544ZM236.531 189V169.8H239.731V173H242.931V176.2H239.731V189H236.531ZM249.331 173H242.931V169.8H249.331V173ZM252.531 185.8V173H255.731V176.2H265.331V173H268.531V179.4H255.731V185.8H252.531ZM255.731 185.8H268.531V189H255.731V185.8ZM255.731 173V169.8H265.331V173H255.731ZM284.531 189V169.8H297.331V173H287.731V189H284.531ZM297.331 189V173H300.531V189H297.331ZM303.719 185.8V173H306.919V185.8H303.719ZM316.519 185.8V189H306.919V185.8H316.519ZM316.519 173H319.719V185.8H316.519V173ZM316.519 169.8V173H306.919V169.8H316.519ZM335.719 185.8V173H338.919V185.8H335.719ZM348.519 185.8V189H338.919V185.8H348.519ZM348.519 173H351.719V185.8H348.519V173ZM348.519 169.8V173H338.919V169.8H348.519ZM354.906 189V169.8H367.706V173H358.106V189H354.906ZM367.706 189V173H370.906V189H367.706ZM374.094 185.8V173H377.294V176.2H386.894V173H390.094V179.4H377.294V185.8H374.094ZM377.294 185.8H390.094V189H377.294V185.8ZM377.294 173V169.8H386.894V173H377.294ZM406.094 189V169.8H409.294V173H412.494V176.2H409.294V189H406.094ZM418.894 173H412.494V169.8H418.894V173ZM422.094 185.8V173H425.294V176.2H434.894V173H438.094V179.4H425.294V185.8H422.094ZM425.294 185.8H438.094V189H425.294V185.8ZM425.294 173V169.8H434.894V173H425.294ZM441.281 189V169.8H460.481V173H454.081V189H450.881V173H444.481V189H441.281ZM460.481 189V173H463.681V189H460.481ZM466.875 185.8V173H470.075V176.2H479.675V173H482.875V179.4H470.075V185.8H466.875ZM470.075 185.8H482.875V189H470.075V185.8ZM470.075 173V169.8H479.675V173H470.075ZM486.062 189V169.8H505.263V173H498.863V189H495.663V173H489.263V189H486.062ZM505.263 189V173H508.463V189H505.263ZM511.656 189V160.2H514.856V169.8H524.456V173H514.856V185.8H524.456V189H511.656ZM524.456 185.8V173H527.656V185.8H524.456ZM530.844 185.8V173H534.044V176.2H543.644V173H546.844V179.4H534.044V185.8H530.844ZM534.044 185.8H546.844V189H534.044V185.8ZM534.044 173V169.8H543.644V173H534.044ZM550.031 189V169.8H553.231V173H556.431V176.2H553.231V189H550.031ZM562.831 173H556.431V169.8H562.831V173ZM566.031 189V185.8H575.631V189H566.031ZM566.031 176.2V173H569.231V176.2H566.031ZM569.231 173V169.8H578.831V173H569.231ZM569.231 176.2H575.631V179.4H569.231V176.2ZM575.631 185.8V179.4H578.831V185.8H575.631ZM594.844 192.2V189H601.244V192.2H594.844ZM594.844 176.2V169.8H598.044V176.2H594.844ZM598.044 182.6V176.2H601.244V182.6H598.044ZM601.244 182.6H604.444V189H601.244V182.6ZM604.444 182.6V176.2H607.644V182.6H604.444ZM607.644 176.2V169.8H610.844V176.2H607.644ZM614.031 185.8V173H617.231V185.8H614.031ZM626.831 185.8V189H617.231V185.8H626.831ZM626.831 173H630.031V185.8H626.831V173ZM626.831 169.8V173H617.231V169.8H626.831ZM633.219 185.8V169.8H636.419V185.8H633.219ZM646.019 185.8V169.8H649.219V189H636.419V185.8H646.019ZM655.606 189V185.8H658.806V189H655.606ZM668.419 189V185.8H671.619V189H668.419ZM681.231 189V185.8H684.431V189H681.231Z" fill="white"/>
<defs>
<filter id="filter0_d_384_772" x="0" y="0" width="915" height="246" filterUnits="userSpaceOnUse" color-interpolation-filters="sRGB">
<feFlood flood-opacity="0" result="BackgroundImageFix"/>
<feColorMatrix in="SourceAlpha" type="matrix" values="0 0 0 0 0 0 0 0 0 0 0 0 0 0 0 0 0 0 127 0" result="hardAlpha"/>
<feOffset dy="4"/>
<feGaussianBlur stdDeviation="2"/>
<feComposite in2="hardAlpha" operator="out"/>
<feColorMatrix type="matrix" values="0 0 0 0 0 0 0 0 0 0 0 0 0 0 0 0 0 0 0.25 0"/>
<feBlend mode="normal" in2="BackgroundImageFix" result="effect1_dropShadow_384_772"/>
<feBlend mode="normal" in="SourceGraphic" in2="effect1_dropShadow_384_772" result="shape"/>
</filter>
</defs>
</svg>
