<svg width="915" height="246" viewBox="0 0 915 246" fill="none" xmlns="http://www.w3.org/2000/svg">
<g filter="url(#filter0_d_384_725)">
<rect x="4" width="907" height="238" fill="black"/>
<rect x="7" y="3" width="901" height="232" stroke="white" stroke-width="6"/>
</g>
<path d="M51 40.6V34.2H54.2V40.6H51ZM54.2 47V40.6H57.4V47H54.2ZM57.4 63V47H60.6V63H57.4ZM60.6 47V40.6H63.8V47H60.6ZM63.8 40.6V34.2H67V40.6H63.8ZM67 59.8V47H70.2V59.8H67ZM79.8 59.8V63H70.2V59.8H79.8ZM79.8 47H83V59.8H79.8V47ZM79.8 43.8V47H70.2V43.8H79.8ZM86.1875 59.8V43.8H89.3875V59.8H86.1875ZM98.9875 59.8V43.8H102.188V63H89.3875V59.8H98.9875ZM118.188 63V34.2H121.388V50.2H124.588V53.4H121.388V63H118.188ZM124.588 56.6V53.4H127.788V56.6H124.588ZM124.588 50.2V47H127.788V50.2H124.588ZM127.788 56.6H130.988V63H127.788V56.6ZM127.788 47V43.8H130.988V47H127.788ZM134.188 63V43.8H146.988V47H137.388V63H134.188ZM146.988 63V47H150.188V63H146.988ZM153.375 59.8V47H156.575V59.8H153.375ZM166.175 59.8V63H156.575V59.8H166.175ZM166.175 47H169.375V59.8H166.175V47ZM166.175 43.8V47H156.575V43.8H166.175ZM172.562 56.6V43.8H175.763V56.6H172.562ZM175.763 56.6H178.963V63H175.763V56.6ZM178.963 56.6V47H182.163V56.6H178.963ZM182.163 56.6H185.363V63H182.163V56.6ZM185.363 56.6V43.8H188.562V56.6H185.363ZM191.763 63V59.8H194.963V63H191.763ZM204.575 63V59.8H207.775V63H204.575ZM217.388 63V59.8H220.588V63H217.388ZM51 105V76.2H54.2V105H51ZM70.2188 101.8V89H73.4188V101.8H70.2188ZM83.0188 101.8V89H73.4188V85.8H83.0188V76.2H86.2188V105H73.4188V101.8H83.0188ZM89.4062 101.8V89H92.6063V101.8H89.4062ZM102.206 101.8V105H92.6063V101.8H102.206ZM102.206 89H105.406V101.8H102.206V89ZM102.206 85.8V89H92.6063V85.8H102.206ZM108.594 105V85.8H121.394V89H111.794V105H108.594ZM121.394 105V89H124.594V105H121.394ZM127.781 82.6V76.2H130.981V82.6H127.781ZM134.188 89V85.8H137.388V79.4H140.588V85.8H146.988V89H140.588V101.8H137.388V89H134.188ZM140.588 101.8H146.988V105H140.588V101.8ZM163 101.8V89H166.2V101.8H163ZM166.2 101.8H179V105H166.2V101.8ZM166.2 89V85.8H179V89H166.2ZM182.188 101.8V95.4H185.388V101.8H182.188ZM182.188 89V85.8H194.988V89H182.188ZM185.388 101.8H194.988V95.4H185.388V92.2H194.988V89H198.188V105H185.388V101.8ZM201.375 105V85.8H204.575V89H207.775V92.2H204.575V105H201.375ZM214.175 89H207.775V85.8H214.175V89ZM217.375 101.8V89H220.575V92.2H230.175V89H233.375V95.4H220.575V101.8H217.375ZM220.575 101.8H233.375V105H220.575V101.8ZM220.575 89V85.8H230.175V89H220.575ZM249.375 101.8V95.4H252.575V101.8H249.375ZM249.375 89V85.8H262.175V89H249.375ZM252.575 101.8H262.175V95.4H252.575V92.2H262.175V89H265.375V105H252.575V101.8ZM268.562 105V76.2H271.763V85.8H281.363V89H271.763V101.8H281.363V105H268.562ZM281.363 101.8V89H284.562V101.8H281.363ZM287.75 101.8V89H290.95V101.8H287.75ZM300.55 101.8V105H290.95V101.8H300.55ZM300.55 89H303.75V101.8H300.55V89ZM300.55 85.8V89H290.95V85.8H300.55ZM306.938 101.8V85.8H310.138V101.8H306.938ZM319.738 101.8V85.8H322.938V105H310.138V101.8H319.738ZM326.125 89V85.8H329.325V79.4H332.525V85.8H338.925V89H332.525V101.8H329.325V89H326.125ZM332.525 101.8H338.925V105H332.525V101.8ZM354.938 101.8V89H358.138V101.8H354.938ZM367.738 101.8V89H358.138V85.8H367.738V76.2H370.938V105H358.138V101.8H367.738ZM374.125 101.8V89H377.325V92.2H386.925V89H390.125V95.4H377.325V101.8H374.125ZM377.325 101.8H390.125V105H377.325V101.8ZM377.325 89V85.8H386.925V89H377.325ZM393.312 105V101.8H402.913V105H393.312ZM393.312 92.2V89H396.513V92.2H393.312ZM396.513 89V85.8H406.113V89H396.513ZM396.513 92.2H402.913V95.4H396.513V92.2ZM402.913 101.8V95.4H406.113V101.8H402.913ZM409.312 89V85.8H412.513V79.4H415.713V85.8H422.113V89H415.713V101.8H412.513V89H409.312ZM415.713 101.8H422.113V105H415.713V101.8ZM425.312 105V85.8H428.513V89H431.713V92.2H428.513V105H425.312ZM438.113 89H431.713V85.8H438.113V89ZM441.312 101.8V89H444.513V101.8H441.312ZM454.113 101.8V105H444.513V101.8H454.113ZM454.113 89H457.312V101.8H454.113V89ZM454.113 85.8V89H444.513V85.8H454.113ZM460.5 108.2V105H466.9V108.2H460.5ZM460.5 92.2V85.8H463.7V92.2H460.5ZM463.7 98.6V92.2H466.9V98.6H463.7ZM466.9 98.6H470.1V105H466.9V98.6ZM470.1 98.6V92.2H473.3V98.6H470.1ZM473.3 92.2V85.8H476.5V92.2H473.3ZM479.688 105V85.8H482.888V105H479.688ZM479.688 82.6V79.4H482.888V82.6H479.688ZM486.094 105V85.8H498.894V89H489.294V105H486.094ZM498.894 105V89H502.094V105H498.894ZM505.281 108.2V105H518.081V108.2H505.281ZM505.281 98.6V89H508.481V98.6H505.281ZM508.481 98.6H518.081V89H508.481V85.8H521.281V105H518.081V101.8H508.481V98.6ZM537.281 89V85.8H540.481V79.4H543.681V85.8H550.081V89H543.681V101.8H540.481V89H537.281ZM543.681 101.8H550.081V105H543.681V101.8ZM553.281 105V76.2H556.481V85.8H566.081V89H556.481V105H553.281ZM566.081 105V89H569.281V105H566.081ZM572.469 105V85.8H575.669V105H572.469ZM572.469 82.6V79.4H575.669V82.6H572.469ZM578.875 105V101.8H588.475V105H578.875ZM578.875 92.2V89H582.075V92.2H578.875ZM582.075 89V85.8H591.675V89H582.075ZM582.075 92.2H588.475V95.4H582.075V92.2ZM588.475 101.8V95.4H591.675V101.8H588.475ZM607.688 98.6V85.8H610.888V98.6H607.688ZM610.888 98.6H614.088V105H610.888V98.6ZM614.088 98.6V89H617.288V98.6H614.088ZM617.288 98.6H620.488V105H617.288V98.6ZM620.488 98.6V85.8H623.688V98.6H620.488ZM626.875 101.8V89H630.075V101.8H626.875ZM639.675 101.8V105H630.075V101.8H639.675ZM639.675 89H642.875V101.8H639.675V89ZM639.675 85.8V89H630.075V85.8H639.675ZM646.062 105V85.8H649.263V89H652.463V92.2H649.263V105H646.062ZM658.863 89H652.463V85.8H658.863V89ZM662.062 101.8V76.2H665.263V101.8H662.062ZM665.263 101.8H668.463V105H665.263V101.8ZM671.656 101.8V89H674.856V101.8H671.656ZM684.456 101.8V89H674.856V85.8H684.456V76.2H687.656V105H674.856V101.8H684.456ZM703.656 101.8V95.4H706.856V101.8H703.656ZM703.656 89V85.8H716.456V89H703.656ZM706.856 101.8H716.456V95.4H706.856V92.2H716.456V89H719.656V105H706.856V101.8ZM722.844 105V85.8H735.644V89H726.044V105H722.844ZM735.644 105V89H738.844V105H735.644ZM742.031 108.2V105H748.431V108.2H742.031ZM742.031 92.2V85.8H745.231V92.2H742.031ZM745.231 98.6V92.2H748.431V98.6H745.231ZM748.431 98.6H751.631V105H748.431V98.6ZM751.631 98.6V92.2H754.831V98.6H751.631ZM754.831 92.2V85.8H758.031V92.2H754.831ZM761.219 105V85.8H780.419V89H774.019V105H770.819V89H764.419V105H761.219ZM780.419 105V89H783.619V105H780.419ZM786.812 101.8V89H790.013V101.8H786.812ZM799.613 101.8V105H790.013V101.8H799.613ZM799.613 89H802.812V101.8H799.613V89ZM799.613 85.8V89H790.013V85.8H799.613ZM806 105V85.8H809.2V89H812.4V92.2H809.2V105H806ZM818.8 89H812.4V85.8H818.8V89ZM822 101.8V89H825.2V92.2H834.8V89H838V95.4H825.2V101.8H822ZM825.2 101.8H838V105H825.2V101.8ZM825.2 89V85.8H834.8V89H825.2ZM844.388 105V101.8H847.588V105H844.388Z" fill="white"/>
<defs>
<filter id="filter0_d_384_725" x="0" y="0" width="915" height="246" filterUnits="userSpaceOnUse" color-interpolation-filters="sRGB">
<feFlood flood-opacity="0" result="BackgroundImageFix"/>
<feColorMatrix in="SourceAlpha" type="matrix" values="0 0 0 0 0 0 0 0 0 0 0 0 0 0 0 0 0 0 127 0" result="hardAlpha"/>
<feOffset dy="4"/>
<feGaussianBlur stdDeviation="2"/>
<feComposite in2="hardAlpha" operator="out"/>
<feColorMatrix type="matrix" values="0 0 0 0 0 0 0 0 0 0 0 0 0 0 0 0 0 0 0.25 0"/>
<feBlend mode="normal" in2="BackgroundImageFix" result="effect1_dropShadow_384_725"/>
<feBlend mode="normal" in="SourceGraphic" in2="effect1_dropShadow_384_725" result="shape"/>
</filter>
</defs>
</svg>
