<svg width="915" height="246" viewBox="0 0 915 246" fill="none" xmlns="http://www.w3.org/2000/svg">
<g filter="url(#filter0_d_384_770)">
<rect x="4" width="907" height="238" fill="black"/>
<rect x="7" y="3" width="901" height="232" stroke="white" stroke-width="6"/>
</g>
<path d="M51 63V34.2H63.8V37.4H54.2V47H63.8V50.2H54.2V59.8H63.8V63H51ZM63.8 59.8V50.2H67V59.8H63.8ZM63.8 47V37.4H67V47H63.8ZM70.1875 59.8V43.8H73.3875V59.8H70.1875ZM82.9875 59.8V43.8H86.1875V63H73.3875V59.8H82.9875ZM89.375 47V43.8H92.575V37.4H95.775V43.8H102.175V47H95.775V59.8H92.575V47H89.375ZM95.775 59.8H102.175V63H95.775V59.8ZM118.188 59.8V47H121.388V59.8H118.188ZM130.988 59.8V47H121.388V43.8H130.988V34.2H134.188V63H121.388V59.8H130.988ZM137.375 59.8V47H140.575V59.8H137.375ZM150.175 59.8V63H140.575V59.8H150.175ZM150.175 47H153.375V59.8H150.175V47ZM150.175 43.8V47H140.575V43.8H150.175ZM156.562 63V43.8H169.363V47H159.763V63H156.562ZM169.363 63V47H172.562V63H169.363ZM175.75 40.6V34.2H178.95V40.6H175.75ZM182.156 47V43.8H185.356V37.4H188.556V43.8H194.956V47H188.556V59.8H185.356V47H182.156ZM188.556 59.8H194.956V63H188.556V59.8ZM210.969 66.2V63H223.769V66.2H210.969ZM210.969 56.6V47H214.169V56.6H210.969ZM214.169 56.6H223.769V47H214.169V43.8H226.969V63H223.769V59.8H214.169V56.6ZM230.156 59.8V47H233.356V50.2H242.956V47H246.156V53.4H233.356V59.8H230.156ZM233.356 59.8H246.156V63H233.356V59.8ZM233.356 47V43.8H242.956V47H233.356ZM249.344 47V43.8H252.544V37.4H255.744V43.8H262.144V47H255.744V59.8H252.544V47H249.344ZM255.744 59.8H262.144V63H255.744V59.8ZM278.156 59.8V47H281.356V59.8H278.156ZM281.356 59.8H294.156V63H281.356V59.8ZM281.356 47V43.8H294.156V47H281.356ZM297.344 59.8V47H300.544V59.8H297.344ZM310.144 59.8V63H300.544V59.8H310.144ZM310.144 47H313.344V59.8H310.144V47ZM310.144 43.8V47H300.544V43.8H310.144ZM316.531 59.8V47H319.731V59.8H316.531ZM319.731 59.8H332.531V63H319.731V59.8ZM319.731 47V43.8H332.531V47H319.731ZM335.719 63V34.2H338.919V50.2H342.119V53.4H338.919V63H335.719ZM342.119 56.6V53.4H345.319V56.6H342.119ZM342.119 50.2V47H345.319V50.2H342.119ZM345.319 56.6H348.519V63H345.319V56.6ZM345.319 47V43.8H348.519V47H345.319ZM351.719 66.2V63H358.119V66.2H351.719ZM351.719 50.2V43.8H354.919V50.2H351.719ZM354.919 56.6V50.2H358.119V56.6H354.919ZM358.119 56.6H361.319V63H358.119V56.6ZM361.319 56.6V50.2H364.519V56.6H361.319ZM364.519 50.2V43.8H367.719V50.2H364.519ZM370.919 63V59.8H374.119V63H370.919ZM51 101.8V76.2H54.2V101.8H51ZM63.8 101.8V105H54.2V101.8H63.8ZM63.8 76.2H67V101.8H63.8V76.2ZM70.1875 108.2V85.8H82.9875V89H73.3875V98.6H82.9875V101.8H73.3875V108.2H70.1875ZM82.9875 98.6V89H86.1875V98.6H82.9875ZM102.188 101.8V85.8H105.388V101.8H102.188ZM114.988 101.8V85.8H118.188V105H105.388V101.8H114.988ZM121.375 105V85.8H134.175V89H124.575V105H121.375ZM134.175 105V89H137.375V105H134.175ZM140.562 89V85.8H143.763V79.4H146.963V85.8H153.363V89H146.963V101.8H143.763V89H140.562ZM146.963 101.8H153.363V105H146.963V101.8ZM156.562 105V85.8H159.763V105H156.562ZM156.562 82.6V79.4H159.763V82.6H156.562ZM162.969 101.8V76.2H166.169V101.8H162.969ZM166.169 101.8H169.369V105H166.169V101.8ZM172.562 101.8V76.2H175.763V101.8H172.562ZM175.763 101.8H178.963V105H175.763V101.8ZM194.969 105V85.8H207.769V89H198.169V105H194.969ZM207.769 105V89H210.969V105H207.769ZM214.156 101.8V89H217.356V101.8H214.156ZM226.956 101.8V105H217.356V101.8H226.956ZM226.956 89H230.156V101.8H226.956V89ZM226.956 85.8V89H217.356V85.8H226.956ZM233.344 98.6V85.8H236.544V98.6H233.344ZM236.544 98.6H239.744V105H236.544V98.6ZM239.744 98.6V89H242.944V98.6H239.744ZM242.944 98.6H246.144V105H242.944V98.6ZM246.144 98.6V85.8H249.344V98.6H246.144ZM249.344 108.2V105H252.544V108.2H249.344ZM252.544 105V101.8H255.744V105H252.544ZM274.969 105V76.2H278.169V105H274.969ZM281.375 82.6V76.2H284.575V82.6H281.375ZM287.781 92.2V85.8H290.981V92.2H287.781ZM290.981 98.6V92.2H294.181V98.6H290.981ZM294.181 98.6H297.381V105H294.181V98.6ZM297.381 98.6V92.2H300.581V98.6H297.381ZM300.581 92.2V85.8H303.781V92.2H300.581ZM306.969 101.8V89H310.169V92.2H319.769V89H322.969V95.4H310.169V101.8H306.969ZM310.169 101.8H322.969V105H310.169V101.8ZM310.169 89V85.8H319.769V89H310.169ZM338.969 101.8V89H342.169V101.8H338.969ZM351.769 101.8V105H342.169V101.8H351.769ZM351.769 89H354.969V101.8H351.769V89ZM351.769 85.8V89H342.169V85.8H351.769ZM358.156 105V85.8H370.956V89H361.356V105H358.156ZM370.956 105V89H374.156V105H370.956ZM377.344 101.8V76.2H380.544V101.8H377.344ZM380.544 101.8H383.744V105H380.544V101.8ZM386.938 108.2V105H393.338V108.2H386.938ZM386.938 92.2V85.8H390.138V92.2H386.938ZM390.138 98.6V92.2H393.338V98.6H390.138ZM393.338 98.6H396.538V105H393.338V98.6ZM396.538 98.6V92.2H399.738V98.6H396.538ZM399.738 92.2V85.8H402.938V92.2H399.738ZM418.938 105V76.2H422.138V85.8H431.738V89H422.138V101.8H431.738V105H418.938ZM431.738 101.8V89H434.938V101.8H431.738ZM438.125 101.8V89H441.325V92.2H450.925V89H454.125V95.4H441.325V101.8H438.125ZM441.325 101.8H454.125V105H441.325V101.8ZM441.325 89V85.8H450.925V89H441.325ZM457.312 101.8V89H460.513V92.2H470.113V89H473.312V95.4H460.513V101.8H457.312ZM460.513 101.8H473.312V105H460.513V101.8ZM460.513 89V85.8H470.113V89H460.513ZM476.5 105V85.8H489.3V89H479.7V105H476.5ZM489.3 105V89H492.5V105H489.3ZM508.5 101.8V85.8H511.7V101.8H508.5ZM521.3 101.8V85.8H524.5V105H511.7V101.8H521.3ZM527.688 105V101.8H537.288V105H527.688ZM527.688 92.2V89H530.888V92.2H527.688ZM530.888 89V85.8H540.488V89H530.888ZM530.888 92.2H537.288V95.4H530.888V92.2ZM537.288 101.8V95.4H540.488V101.8H537.288ZM543.688 105V85.8H546.888V105H543.688ZM543.688 82.6V79.4H546.888V82.6H543.688ZM550.094 105V85.8H562.894V89H553.294V105H550.094ZM562.894 105V89H566.094V105H562.894ZM569.281 108.2V105H582.081V108.2H569.281ZM569.281 98.6V89H572.481V98.6H569.281ZM572.481 98.6H582.081V89H572.481V85.8H585.281V105H582.081V101.8H572.481V98.6ZM601.281 101.8V95.4H604.481V101.8H601.281ZM601.281 89V85.8H614.081V89H601.281ZM604.481 101.8H614.081V95.4H604.481V92.2H614.081V89H617.281V105H604.481V101.8ZM633.281 89V85.8H636.481V79.4H639.681V85.8H646.081V89H639.681V105H636.481V89H633.281ZM639.681 79.4V76.2H646.081V79.4H639.681ZM649.281 105V85.8H652.481V89H655.681V92.2H652.481V105H649.281ZM662.081 89H655.681V85.8H662.081V89ZM665.281 101.8V95.4H668.481V101.8H665.281ZM665.281 89V85.8H678.081V89H665.281ZM668.481 101.8H678.081V95.4H668.481V92.2H678.081V89H681.281V105H668.481V101.8ZM684.469 101.8V89H687.669V101.8H684.469ZM687.669 101.8H700.469V105H687.669V101.8ZM687.669 89V85.8H700.469V89H687.669ZM703.656 89V85.8H706.856V79.4H710.056V85.8H716.456V89H710.056V101.8H706.856V89H703.656ZM710.056 101.8H716.456V105H710.056V101.8ZM719.656 105V85.8H722.856V105H719.656ZM719.656 82.6V79.4H722.856V82.6H719.656ZM726.062 101.8V89H729.263V101.8H726.062ZM738.863 101.8V105H729.263V101.8H738.863ZM738.863 89H742.062V101.8H738.863V89ZM738.863 85.8V89H729.263V85.8H738.863ZM745.25 105V85.8H758.05V89H748.45V105H745.25ZM758.05 105V89H761.25V105H758.05ZM777.25 101.8V89H780.45V101.8H777.25ZM790.05 101.8V105H780.45V101.8H790.05ZM790.05 89H793.25V101.8H790.05V89ZM790.05 85.8V89H780.45V85.8H790.05ZM796.438 89V85.8H799.638V79.4H802.838V85.8H809.238V89H802.838V105H799.638V89H796.438ZM802.838 79.4V76.2H809.238V79.4H802.838ZM825.25 105V85.8H844.45V89H838.05V105H834.85V89H828.45V105H825.25ZM844.45 105V89H847.65V105H844.45ZM850.844 108.2V105H857.244V108.2H850.844ZM850.844 92.2V85.8H854.044V92.2H850.844ZM854.044 98.6V92.2H857.244V98.6H854.044ZM857.244 98.6H860.444V105H857.244V98.6ZM860.444 98.6V92.2H863.644V98.6H860.444ZM863.644 92.2V85.8H866.844V92.2H863.644ZM51 147V118.2H63.8V121.4H54.2V131H63.8V140.6H60.6V134.2H54.2V147H51ZM63.8 140.6H67V147H63.8V140.6ZM63.8 131V121.4H67V131H63.8ZM70.1875 147V118.2H82.9875V121.4H73.3875V131H82.9875V134.2H73.3875V143.8H82.9875V147H70.1875ZM86.1875 147V134.2H89.3875V124.6H92.5875V134.2H95.7875V124.6H98.9875V134.2H102.188V147H98.9875V137.4H89.3875V147H86.1875ZM92.5875 124.6V118.2H95.7875V124.6H92.5875ZM105.375 147V118.2H108.575V143.8H118.175V147H105.375ZM134.188 150.2V127.8H146.988V131H137.388V140.6H146.988V143.8H137.388V150.2H134.188ZM146.988 140.6V131H150.188V140.6H146.988ZM153.375 143.8V131H156.575V143.8H153.375ZM166.175 143.8V147H156.575V143.8H166.175ZM166.175 131H169.375V143.8H166.175V131ZM166.175 127.8V131H156.575V127.8H166.175ZM172.562 140.6V127.8H175.763V140.6H172.562ZM175.763 140.6H178.963V147H175.763V140.6ZM178.963 140.6V131H182.163V140.6H178.963ZM182.163 140.6H185.363V147H182.163V140.6ZM185.363 140.6V127.8H188.562V140.6H185.363ZM191.75 143.8V131H194.95V134.2H204.55V131H207.75V137.4H194.95V143.8H191.75ZM194.95 143.8H207.75V147H194.95V143.8ZM194.95 131V127.8H204.55V131H194.95ZM210.938 147V127.8H214.138V131H217.338V134.2H214.138V147H210.938ZM223.738 131H217.338V127.8H223.738V131ZM230.138 140.6H233.338V147H230.138V140.6ZM230.138 137.4V118.2H233.338V137.4H230.138ZM252.562 147V118.2H255.763V143.8H265.363V147H252.562ZM268.562 143.8V131H271.763V134.2H281.363V131H284.562V137.4H271.763V143.8H268.562ZM271.763 143.8H284.562V147H271.763V143.8ZM271.763 131V127.8H281.363V131H271.763ZM287.75 131V127.8H290.95V121.4H294.15V127.8H300.55V131H294.15V143.8H290.95V131H287.75ZM294.15 143.8H300.55V147H294.15V143.8ZM303.75 124.6V118.2H306.95V124.6H303.75ZM310.156 147V143.8H319.756V147H310.156ZM310.156 134.2V131H313.356V134.2H310.156ZM313.356 131V127.8H322.956V131H313.356ZM313.356 134.2H319.756V137.4H313.356V134.2ZM319.756 143.8V137.4H322.956V143.8H319.756ZM338.969 147V143.8H348.569V147H338.969ZM338.969 134.2V131H342.169V134.2H338.969ZM342.169 131V127.8H351.769V131H342.169ZM342.169 134.2H348.569V137.4H342.169V134.2ZM348.569 143.8V137.4H351.769V143.8H348.569ZM354.969 143.8V131H358.169V134.2H367.769V131H370.969V137.4H358.169V143.8H354.969ZM358.169 143.8H370.969V147H358.169V143.8ZM358.169 131V127.8H367.769V131H358.169ZM374.156 143.8V131H377.356V134.2H386.956V131H390.156V137.4H377.356V143.8H374.156ZM377.356 143.8H390.156V147H377.356V143.8ZM377.356 131V127.8H386.956V131H377.356ZM406.156 140.6V127.8H409.356V140.6H406.156ZM409.356 140.6H412.556V147H409.356V140.6ZM412.556 140.6V131H415.756V140.6H412.556ZM415.756 140.6H418.956V147H415.756V140.6ZM418.956 140.6V127.8H422.156V140.6H418.956ZM425.344 147V118.2H428.544V127.8H438.144V131H428.544V147H425.344ZM438.144 147V131H441.344V147H438.144ZM444.531 143.8V137.4H447.731V143.8H444.531ZM444.531 131V127.8H457.331V131H444.531ZM447.731 143.8H457.331V137.4H447.731V134.2H457.331V131H460.531V147H447.731V143.8ZM463.719 131V127.8H466.919V121.4H470.119V127.8H476.519V131H470.119V143.8H466.919V131H463.719ZM470.119 143.8H476.519V147H470.119V143.8ZM492.531 150.2V147H505.331V150.2H492.531ZM492.531 140.6V131H495.731V140.6H492.531ZM495.731 140.6H505.331V131H495.731V127.8H508.531V147H505.331V143.8H495.731V140.6ZM511.719 143.8V131H514.919V143.8H511.719ZM524.519 143.8V147H514.919V143.8H524.519ZM524.519 131H527.719V143.8H524.519V131ZM524.519 127.8V131H514.919V127.8H524.519ZM530.906 143.8V131H534.106V143.8H530.906ZM543.706 143.8V147H534.106V143.8H543.706ZM543.706 131H546.906V143.8H543.706V131ZM543.706 127.8V131H534.106V127.8H543.706ZM550.094 143.8V131H553.294V143.8H550.094ZM562.894 143.8V131H553.294V127.8H562.894V118.2H566.094V147H553.294V143.8H562.894ZM582.094 150.2V147H588.494V150.2H582.094ZM582.094 134.2V127.8H585.294V134.2H582.094ZM585.294 140.6V134.2H588.494V140.6H585.294ZM588.494 140.6H591.694V147H588.494V140.6ZM591.694 140.6V134.2H594.894V140.6H591.694ZM594.894 134.2V127.8H598.094V134.2H594.894ZM601.281 143.8V131H604.481V143.8H601.281ZM614.081 143.8V147H604.481V143.8H614.081ZM614.081 131H617.281V143.8H614.081V131ZM614.081 127.8V131H604.481V127.8H614.081ZM620.469 143.8V127.8H623.669V143.8H620.469ZM633.269 143.8V127.8H636.469V147H623.669V143.8H633.269ZM639.656 147V127.8H642.856V131H646.056V134.2H642.856V147H639.656ZM652.456 131H646.056V127.8H652.456V131ZM668.469 147V118.2H681.269V121.4H671.669V143.8H681.269V147H668.469ZM681.269 143.8V121.4H684.469V143.8H681.269ZM687.656 147V118.2H700.456V121.4H690.856V131H700.456V134.2H690.856V143.8H700.456V147H687.656ZM703.656 121.4V118.2H719.656V121.4H713.256V147H710.056V121.4H703.656ZM722.844 147V118.2H735.644V121.4H726.044V131H735.644V134.2H726.044V143.8H735.644V147H722.844ZM738.844 147V118.2H751.644V121.4H742.044V131H751.644V140.6H748.444V134.2H742.044V147H738.844ZM751.644 140.6H754.844V147H751.644V140.6ZM751.644 131V121.4H754.844V131H751.644ZM758.031 147V118.2H761.231V124.6H764.431V131H761.231V147H758.031ZM764.431 131H767.631V137.4H764.431V131ZM767.631 131V124.6H770.831V118.2H774.031V147H770.831V131H767.631ZM777.219 147V118.2H780.419V147H777.219ZM783.625 147V118.2H786.825V121.4H790.025V127.8H786.825V147H783.625ZM790.025 134.2V127.8H793.225V134.2H790.025ZM793.225 140.6V134.2H796.425V118.2H799.625V147H796.425V140.6H793.225ZM802.812 147V134.2H806.013V124.6H809.213V134.2H812.413V124.6H815.613V134.2H818.812V147H815.613V137.4H806.013V147H802.812ZM809.213 124.6V118.2H812.413V124.6H809.213ZM818.812 121.4V118.2H834.812V121.4H828.413V147H825.213V121.4H818.812ZM838 147V118.2H841.2V147H838ZM844.406 143.8V121.4H847.606V143.8H844.406ZM857.206 143.8V147H847.606V143.8H857.206ZM857.206 118.2V121.4H847.606V118.2H857.206ZM857.206 121.4H860.406V143.8H857.206V121.4ZM863.594 147V118.2H866.794V121.4H869.994V127.8H866.794V147H863.594ZM869.994 134.2V127.8H873.194V134.2H869.994ZM873.194 140.6V134.2H876.394V118.2H879.594V147H876.394V140.6H873.194ZM51 189V169.8H54.2V189H51ZM51 166.6V163.4H54.2V166.6H51ZM57.4062 189V185.8H67.0063V189H57.4062ZM57.4062 176.2V173H60.6063V176.2H57.4062ZM60.6063 173V169.8H70.2063V173H60.6063ZM60.6063 176.2H67.0063V179.4H60.6063V176.2ZM67.0063 185.8V179.4H70.2063V185.8H67.0063ZM86.2188 185.8V179.4H89.4188V185.8H86.2188ZM86.2188 173V169.8H99.0188V173H86.2188ZM89.4188 185.8H99.0188V179.4H89.4188V176.2H99.0188V173H102.219V189H89.4188V185.8ZM105.406 192.2V189H118.206V192.2H105.406ZM105.406 182.6V173H108.606V182.6H105.406ZM108.606 182.6H118.206V173H108.606V169.8H121.406V189H118.206V185.8H108.606V182.6ZM124.594 185.8V179.4H127.794V185.8H124.594ZM124.594 173V169.8H137.394V173H124.594ZM127.794 185.8H137.394V179.4H127.794V176.2H137.394V173H140.594V189H127.794V185.8ZM143.781 189V169.8H146.981V189H143.781ZM143.781 166.6V163.4H146.981V166.6H143.781ZM150.188 189V169.8H162.988V173H153.388V189H150.188ZM162.988 189V173H166.188V189H162.988ZM169.375 189V185.8H178.975V189H169.375ZM169.375 176.2V173H172.575V176.2H169.375ZM172.575 173V169.8H182.175V173H172.575ZM172.575 176.2H178.975V179.4H172.575V176.2ZM178.975 185.8V179.4H182.175V185.8H178.975ZM185.375 173V169.8H188.575V163.4H191.775V169.8H198.175V173H191.775V185.8H188.575V173H185.375ZM191.775 185.8H198.175V189H191.775V185.8ZM214.188 163.4V160.2H230.188V163.4H223.788V189H220.588V163.4H214.188ZM233.375 189V160.2H236.575V173H246.175V160.2H249.375V189H246.175V176.2H236.575V189H233.375ZM252.562 189V160.2H255.763V189H252.562ZM258.969 189V185.8H268.569V189H258.969ZM258.969 173V163.4H262.169V173H258.969ZM262.169 173H268.569V176.2H262.169V173ZM262.169 163.4V160.2H271.769V163.4H262.169ZM268.569 185.8V176.2H271.769V185.8H268.569ZM278.169 182.6H281.369V189H278.169V182.6ZM278.169 179.4V160.2H281.369V179.4H278.169ZM290.981 182.6H294.181V189H290.981V182.6ZM290.981 179.4V160.2H294.181V179.4H290.981Z" fill="white"/>
<defs>
<filter id="filter0_d_384_770" x="0" y="0" width="915" height="246" filterUnits="userSpaceOnUse" color-interpolation-filters="sRGB">
<feFlood flood-opacity="0" result="BackgroundImageFix"/>
<feColorMatrix in="SourceAlpha" type="matrix" values="0 0 0 0 0 0 0 0 0 0 0 0 0 0 0 0 0 0 127 0" result="hardAlpha"/>
<feOffset dy="4"/>
<feGaussianBlur stdDeviation="2"/>
<feComposite in2="hardAlpha" operator="out"/>
<feColorMatrix type="matrix" values="0 0 0 0 0 0 0 0 0 0 0 0 0 0 0 0 0 0 0.25 0"/>
<feBlend mode="normal" in2="BackgroundImageFix" result="effect1_dropShadow_384_770"/>
<feBlend mode="normal" in="SourceGraphic" in2="effect1_dropShadow_384_770" result="shape"/>
</filter>
</defs>
</svg>
