<svg width="915" height="246" viewBox="0 0 915 246" fill="none" xmlns="http://www.w3.org/2000/svg">
<g filter="url(#filter0_d_384_727)">
<rect x="4" width="907" height="238" fill="black"/>
<rect x="7" y="3" width="901" height="232" stroke="white" stroke-width="6"/>
</g>
<path d="M51 63V50.2H54.2V40.6H57.4V50.2H60.6V40.6H63.8V50.2H67V63H63.8V53.4H54.2V63H51ZM57.4 40.6V34.2H60.6V40.6H57.4ZM70.1875 59.8V34.2H73.3875V59.8H70.1875ZM73.3875 59.8H76.5875V63H73.3875V59.8ZM79.7812 59.8V34.2H82.9813V59.8H79.7812ZM82.9813 59.8H86.1813V63H82.9813V59.8ZM102.188 66.2V63H108.588V66.2H102.188ZM102.188 50.2V43.8H105.388V50.2H102.188ZM105.388 56.6V50.2H108.588V56.6H105.388ZM108.588 56.6H111.788V63H108.588V56.6ZM111.788 56.6V50.2H114.988V56.6H111.788ZM114.988 50.2V43.8H118.188V50.2H114.988ZM121.375 59.8V47H124.575V59.8H121.375ZM134.175 59.8V63H124.575V59.8H134.175ZM134.175 47H137.375V59.8H134.175V47ZM134.175 43.8V47H124.575V43.8H134.175ZM140.562 59.8V43.8H143.763V59.8H140.562ZM153.363 59.8V43.8H156.562V63H143.763V59.8H153.363ZM159.75 63V43.8H162.95V47H166.15V50.2H162.95V63H159.75ZM172.55 47H166.15V43.8H172.55V47ZM188.562 66.2V43.8H201.363V47H191.763V56.6H201.363V59.8H191.763V66.2H188.562ZM201.363 56.6V47H204.562V56.6H201.363ZM207.75 63V43.8H210.95V47H214.15V50.2H210.95V63H207.75ZM220.55 47H214.15V43.8H220.55V47ZM223.75 59.8V47H226.95V59.8H223.75ZM236.55 59.8V63H226.95V59.8H236.55ZM236.55 47H239.75V59.8H236.55V47ZM236.55 43.8V47H226.95V43.8H236.55ZM242.938 66.2V63H255.738V66.2H242.938ZM242.938 56.6V47H246.138V56.6H242.938ZM246.138 56.6H255.738V47H246.138V43.8H258.938V63H255.738V59.8H246.138V56.6ZM262.125 63V43.8H265.325V47H268.525V50.2H265.325V63H262.125ZM274.925 47H268.525V43.8H274.925V47ZM278.125 59.8V47H281.325V50.2H290.925V47H294.125V53.4H281.325V59.8H278.125ZM281.325 59.8H294.125V63H281.325V59.8ZM281.325 47V43.8H290.925V47H281.325ZM297.312 63V59.8H306.913V63H297.312ZM297.312 50.2V47H300.513V50.2H297.312ZM300.513 47V43.8H310.113V47H300.513ZM300.513 50.2H306.913V53.4H300.513V50.2ZM306.913 59.8V53.4H310.113V59.8H306.913ZM313.312 63V59.8H322.913V63H313.312ZM313.312 50.2V47H316.513V50.2H313.312ZM316.513 47V43.8H326.113V47H316.513ZM316.513 50.2H322.913V53.4H316.513V50.2ZM322.913 59.8V53.4H326.113V59.8H322.913ZM332.513 63V59.8H335.713V63H332.513ZM345.325 63V59.8H348.525V63H345.325ZM358.138 63V59.8H361.338V63H358.138ZM380.562 63V34.2H393.363V37.4H383.763V47H393.363V50.2H383.763V59.8H393.363V63H380.562ZM396.562 50.2V43.8H399.763V50.2H396.562ZM399.763 56.6V50.2H402.963V56.6H399.763ZM402.963 56.6H406.163V63H402.963V56.6ZM406.163 56.6V50.2H409.363V56.6H406.163ZM409.363 50.2V43.8H412.562V50.2H409.363ZM415.75 59.8V47H418.95V50.2H428.55V47H431.75V53.4H418.95V59.8H415.75ZM418.95 59.8H431.75V63H418.95V59.8ZM418.95 47V43.8H428.55V47H418.95ZM434.938 63V43.8H438.138V47H441.338V50.2H438.138V63H434.938ZM447.738 47H441.338V43.8H447.738V47ZM450.938 66.2V63H457.338V66.2H450.938ZM450.938 50.2V43.8H454.138V50.2H450.938ZM454.138 56.6V50.2H457.338V56.6H454.138ZM457.338 56.6H460.538V63H457.338V56.6ZM460.538 56.6V50.2H463.738V56.6H460.538ZM463.738 50.2V43.8H466.938V50.2H463.738ZM470.125 59.8V47H473.325V59.8H470.125ZM482.925 59.8V63H473.325V59.8H482.925ZM482.925 47H486.125V59.8H482.925V47ZM482.925 43.8V47H473.325V43.8H482.925ZM489.312 63V43.8H502.113V47H492.513V63H489.312ZM502.113 63V47H505.312V63H502.113ZM508.5 59.8V47H511.7V50.2H521.3V47H524.5V53.4H511.7V59.8H508.5ZM511.7 59.8H524.5V63H511.7V59.8ZM511.7 47V43.8H521.3V47H511.7ZM527.688 40.6V34.2H530.888V40.6H527.688ZM534.094 63V59.8H543.694V63H534.094ZM534.094 50.2V47H537.294V50.2H534.094ZM537.294 47V43.8H546.894V47H537.294ZM537.294 50.2H543.694V53.4H537.294V50.2ZM543.694 59.8V53.4H546.894V59.8H543.694ZM562.906 63V43.8H582.106V47H575.706V63H572.506V47H566.106V63H562.906ZM582.106 63V47H585.306V63H582.106ZM588.5 59.8V47H591.7V50.2H601.3V47H604.5V53.4H591.7V59.8H588.5ZM591.7 59.8H604.5V63H591.7V59.8ZM591.7 47V43.8H601.3V47H591.7ZM607.688 63V43.8H626.888V47H620.488V63H617.288V47H610.888V63H607.688ZM626.888 63V47H630.088V63H626.888ZM633.281 59.8V47H636.481V59.8H633.281ZM646.081 59.8V63H636.481V59.8H646.081ZM646.081 47H649.281V59.8H646.081V47ZM646.081 43.8V47H636.481V43.8H646.081ZM652.469 63V43.8H655.669V47H658.869V50.2H655.669V63H652.469ZM665.269 47H658.869V43.8H665.269V47ZM668.469 63V43.8H671.669V63H668.469ZM668.469 40.6V37.4H671.669V40.6H668.469ZM674.875 59.8V47H678.075V50.2H687.675V47H690.875V53.4H678.075V59.8H674.875ZM678.075 59.8H690.875V63H678.075V59.8ZM678.075 47V43.8H687.675V47H678.075ZM694.062 63V59.8H703.663V63H694.062ZM694.062 50.2V47H697.263V50.2H694.062ZM697.263 47V43.8H706.863V47H697.263ZM697.263 50.2H703.663V53.4H697.263V50.2ZM703.663 59.8V53.4H706.863V59.8H703.663ZM713.263 63V59.8H716.463V63H713.263ZM51 105V76.2H54.2V105H51ZM57.4062 82.6V76.2H60.6063V82.6H57.4062ZM63.8125 101.8V76.2H67.0125V101.8H63.8125ZM67.0125 101.8H70.2125V105H67.0125V101.8ZM73.4062 101.8V76.2H76.6063V101.8H73.4062ZM76.6063 101.8H79.8063V105H76.6063V101.8ZM95.8125 105V76.2H99.0125V85.8H108.613V89H99.0125V101.8H108.613V105H95.8125ZM108.613 101.8V89H111.812V101.8H108.613ZM115 105V85.8H118.2V89H121.4V92.2H118.2V105H115ZM127.8 89H121.4V85.8H127.8V89ZM131 105V85.8H134.2V105H131ZM131 82.6V79.4H134.2V82.6H131ZM137.406 105V85.8H150.206V89H140.606V105H137.406ZM150.206 105V89H153.406V105H150.206ZM156.594 108.2V105H169.394V108.2H156.594ZM156.594 98.6V89H159.794V98.6H156.594ZM159.794 98.6H169.394V89H159.794V85.8H172.594V105H169.394V101.8H159.794V98.6ZM188.594 89V85.8H191.794V79.4H194.994V85.8H201.394V89H194.994V101.8H191.794V89H188.594ZM194.994 101.8H201.394V105H194.994V101.8ZM204.594 105V76.2H207.794V85.8H217.394V89H207.794V105H204.594ZM217.394 105V89H220.594V105H217.394ZM223.781 101.8V89H226.981V92.2H236.581V89H239.781V95.4H226.981V101.8H223.781ZM226.981 101.8H239.781V105H226.981V101.8ZM226.981 89V85.8H236.581V89H226.981ZM242.969 105V85.8H262.169V89H255.769V105H252.569V89H246.169V105H242.969ZM262.169 105V89H265.369V105H262.169ZM281.375 101.8V95.4H284.575V101.8H281.375ZM281.375 89V85.8H294.175V89H281.375ZM284.575 101.8H294.175V95.4H284.575V92.2H294.175V89H297.375V105H284.575V101.8ZM300.562 101.8V76.2H303.763V101.8H300.562ZM303.763 101.8H306.963V105H303.763V101.8ZM310.156 101.8V76.2H313.356V101.8H310.156ZM313.356 101.8H316.556V105H313.356V101.8ZM332.562 105V76.2H335.763V85.8H345.363V89H335.763V101.8H345.363V105H332.562ZM345.363 101.8V89H348.562V101.8H345.363ZM351.75 101.8V95.4H354.95V101.8H351.75ZM351.75 89V85.8H364.55V89H351.75ZM354.95 101.8H364.55V95.4H354.95V92.2H364.55V89H367.75V105H354.95V101.8ZM370.938 101.8V89H374.138V101.8H370.938ZM374.138 101.8H386.938V105H374.138V101.8ZM374.138 89V85.8H386.938V89H374.138ZM390.125 105V76.2H393.325V92.2H396.525V95.4H393.325V105H390.125ZM396.525 98.6V95.4H399.725V98.6H396.525ZM396.525 92.2V89H399.725V92.2H396.525ZM399.725 98.6H402.925V105H399.725V98.6ZM399.725 89V85.8H402.925V89H399.725ZM418.938 89V85.8H422.138V79.4H425.338V85.8H431.738V89H425.338V101.8H422.138V89H418.938ZM425.338 101.8H431.738V105H425.338V101.8ZM434.938 101.8V89H438.138V101.8H434.938ZM447.738 101.8V105H438.138V101.8H447.738ZM447.738 89H450.938V101.8H447.738V89ZM447.738 85.8V89H438.138V85.8H447.738ZM466.938 98.6H470.138V101.8H482.938V105H466.938V98.6ZM466.938 89V85.8H482.938V89H479.738V92.2H476.538V89H466.938ZM470.138 98.6V95.4H473.338V98.6H470.138ZM473.338 95.4V92.2H476.538V95.4H473.338ZM486.125 101.8V89H489.325V92.2H498.925V89H502.125V95.4H489.325V101.8H486.125ZM489.325 101.8H502.125V105H489.325V101.8ZM489.325 89V85.8H498.925V89H489.325ZM505.312 105V85.8H508.513V89H511.713V92.2H508.513V105H505.312ZM518.113 89H511.713V85.8H518.113V89ZM521.312 101.8V89H524.513V101.8H521.312ZM534.113 101.8V105H524.513V101.8H534.113ZM534.113 89H537.312V101.8H534.113V89ZM534.113 85.8V89H524.513V85.8H534.113ZM543.7 98.6H546.9V105H543.7V98.6ZM543.7 95.4V76.2H546.9V95.4H543.7Z" fill="white"/>
<defs>
<filter id="filter0_d_384_727" x="0" y="0" width="915" height="246" filterUnits="userSpaceOnUse" color-interpolation-filters="sRGB">
<feFlood flood-opacity="0" result="BackgroundImageFix"/>
<feColorMatrix in="SourceAlpha" type="matrix" values="0 0 0 0 0 0 0 0 0 0 0 0 0 0 0 0 0 0 127 0" result="hardAlpha"/>
<feOffset dy="4"/>
<feGaussianBlur stdDeviation="2"/>
<feComposite in2="hardAlpha" operator="out"/>
<feColorMatrix type="matrix" values="0 0 0 0 0 0 0 0 0 0 0 0 0 0 0 0 0 0 0.25 0"/>
<feBlend mode="normal" in2="BackgroundImageFix" result="effect1_dropShadow_384_727"/>
<feBlend mode="normal" in="SourceGraphic" in2="effect1_dropShadow_384_727" result="shape"/>
</filter>
</defs>
</svg>
