<svg width="915" height="246" viewBox="0 0 915 246" fill="none" xmlns="http://www.w3.org/2000/svg">
<g filter="url(#filter0_d_384_774)">
<rect x="4" width="907" height="238" fill="black"/>
<rect x="7" y="3" width="901" height="232" stroke="white" stroke-width="6"/>
</g>
<path d="M51 59.8V34.2H54.2V59.8H51ZM63.8 59.8V63H54.2V59.8H63.8ZM63.8 34.2H67V59.8H63.8V34.2ZM70.1875 63V43.8H73.3875V47H76.5875V50.2H73.3875V63H70.1875ZM82.9875 47H76.5875V43.8H82.9875V47ZM86.1875 59.8V53.4H89.3875V59.8H86.1875ZM86.1875 47V43.8H98.9875V47H86.1875ZM89.3875 59.8H98.9875V53.4H89.3875V50.2H98.9875V47H102.188V63H89.3875V59.8ZM118.188 63V34.2H121.388V43.8H130.988V47H121.388V63H118.188ZM130.988 63V47H134.188V63H130.988ZM137.375 59.8V53.4H140.575V59.8H137.375ZM137.375 47V43.8H150.175V47H137.375ZM140.575 59.8H150.175V53.4H140.575V50.2H150.175V47H153.375V63H140.575V59.8ZM169.375 63V34.2H172.575V43.8H182.175V47H172.575V63H169.375ZM182.175 63V47H185.375V63H182.175ZM188.562 59.8V53.4H191.763V59.8H188.562ZM188.562 47V43.8H201.363V47H188.562ZM191.763 59.8H201.363V53.4H191.763V50.2H201.363V47H204.562V63H191.763V59.8ZM210.95 63V59.8H214.15V63H210.95ZM223.763 63V59.8H226.963V63H223.763ZM236.575 63V59.8H239.775V63H236.575ZM51 105V101.8H60.6V105H51ZM51 89V79.4H54.2V89H51ZM54.2 89H60.6V92.2H54.2V89ZM54.2 79.4V76.2H63.8V79.4H54.2ZM60.6 101.8V92.2H63.8V101.8H60.6ZM67 89V85.8H70.2V79.4H73.4V85.8H79.8V89H73.4V101.8H70.2V89H67ZM73.4 101.8H79.8V105H73.4V101.8ZM83 105V85.8H86.2V105H83ZM83 82.6V79.4H86.2V82.6H83ZM89.4062 101.8V76.2H92.6063V101.8H89.4062ZM92.6063 101.8H95.8063V105H92.6063V101.8ZM99 101.8V76.2H102.2V101.8H99ZM102.2 101.8H105.4V105H102.2V101.8ZM111.794 98.6H114.994V105H111.794V98.6ZM111.794 95.4V76.2H114.994V95.4H111.794ZM121.406 79.4V76.2H131.006V79.4H121.406ZM124.606 98.6H127.806V105H124.606V98.6ZM124.606 89H127.806V95.4H124.606V89ZM127.806 89V85.8H131.006V89H127.806ZM131.006 85.8V79.4H134.206V85.8H131.006ZM51 143.8V121.4H54.2V143.8H51ZM54.2 143.8H67V147H54.2V143.8ZM54.2 121.4V118.2H67V121.4H54.2ZM70.1875 143.8V131H73.3875V143.8H70.1875ZM82.9875 143.8V147H73.3875V143.8H82.9875ZM82.9875 131H86.1875V143.8H82.9875V131ZM82.9875 127.8V131H73.3875V127.8H82.9875ZM89.375 147V127.8H108.575V131H102.175V147H98.975V131H92.575V147H89.375ZM108.575 147V131H111.775V147H108.575ZM114.969 143.8V131H118.169V134.2H127.769V131H130.969V137.4H118.169V143.8H114.969ZM118.169 143.8H130.969V147H118.169V143.8ZM118.169 131V127.8H127.769V131H118.169ZM146.969 143.8V131H150.169V143.8H146.969ZM159.769 143.8V147H150.169V143.8H159.769ZM159.769 131H162.969V143.8H159.769V131ZM159.769 127.8V131H150.169V127.8H159.769ZM166.156 147V127.8H178.956V131H169.356V147H166.156ZM178.956 147V131H182.156V147H178.956ZM188.544 147V143.8H191.744V147H188.544ZM201.356 147V143.8H204.556V147H201.356ZM214.169 147V143.8H217.369V147H214.169ZM51 189V185.8H60.6V189H51ZM51 173V163.4H54.2V173H51ZM54.2 173H60.6V176.2H54.2V173ZM54.2 163.4V160.2H63.8V163.4H54.2ZM60.6 185.8V176.2H63.8V185.8H60.6ZM67 189V160.2H70.2V169.8H79.8V173H70.2V189H67ZM79.8 189V173H83V189H79.8ZM86.1875 185.8V173H89.3875V185.8H86.1875ZM98.9875 185.8V189H89.3875V185.8H98.9875ZM98.9875 173H102.188V185.8H98.9875V173ZM98.9875 169.8V173H89.3875V169.8H98.9875ZM105.375 182.6V169.8H108.575V182.6H105.375ZM108.575 182.6H111.775V189H108.575V182.6ZM111.775 182.6V173H114.975V182.6H111.775ZM114.975 182.6H118.175V189H114.975V182.6ZM118.175 182.6V169.8H121.375V182.6H118.175ZM137.375 189V169.8H156.575V173H150.175V189H146.975V173H140.575V189H137.375ZM156.575 189V173H159.775V189H156.575ZM162.969 185.8V173H166.169V176.2H175.769V173H178.969V179.4H166.169V185.8H162.969ZM166.169 185.8H178.969V189H166.169V185.8ZM166.169 173V169.8H175.769V173H166.169ZM194.969 182.6V169.8H198.169V182.6H194.969ZM198.169 182.6H201.369V189H198.169V182.6ZM201.369 182.6V173H204.569V182.6H201.369ZM204.569 182.6H207.769V189H204.569V182.6ZM207.769 182.6V169.8H210.969V182.6H207.769ZM214.156 189V160.2H217.356V169.8H226.956V173H217.356V189H214.156ZM226.956 189V173H230.156V189H226.956ZM233.344 185.8V179.4H236.544V185.8H233.344ZM233.344 173V169.8H246.144V173H233.344ZM236.544 185.8H246.144V179.4H236.544V176.2H246.144V173H249.344V189H236.544V185.8ZM252.531 173V169.8H255.731V163.4H258.931V169.8H265.331V173H258.931V185.8H255.731V173H252.531ZM258.931 185.8H265.331V189H258.931V185.8ZM281.344 192.2V189H294.144V192.2H281.344ZM281.344 182.6V173H284.544V182.6H281.344ZM284.544 182.6H294.144V173H284.544V169.8H297.344V189H294.144V185.8H284.544V182.6ZM300.531 185.8V173H303.731V185.8H300.531ZM313.331 185.8V189H303.731V185.8H313.331ZM313.331 173H316.531V185.8H313.331V173ZM313.331 169.8V173H303.731V169.8H313.331ZM319.719 185.8V173H322.919V185.8H319.719ZM332.519 185.8V189H322.919V185.8H332.519ZM332.519 173H335.719V185.8H332.519V173ZM332.519 169.8V173H322.919V169.8H332.519ZM338.906 185.8V173H342.106V185.8H338.906ZM351.706 185.8V173H342.106V169.8H351.706V160.2H354.906V189H342.106V185.8H351.706ZM370.906 192.2V189H377.306V192.2H370.906ZM370.906 176.2V169.8H374.106V176.2H370.906ZM374.106 182.6V176.2H377.306V182.6H374.106ZM377.306 182.6H380.506V189H377.306V182.6ZM380.506 182.6V176.2H383.706V182.6H380.506ZM383.706 176.2V169.8H386.906V176.2H383.706ZM390.094 185.8V173H393.294V185.8H390.094ZM402.894 185.8V189H393.294V185.8H402.894ZM402.894 173H406.094V185.8H402.894V173ZM402.894 169.8V173H393.294V169.8H402.894ZM409.281 185.8V169.8H412.481V185.8H409.281ZM422.081 185.8V169.8H425.281V189H412.481V185.8H422.081ZM428.469 189V169.8H431.669V173H434.869V176.2H431.669V189H428.469ZM441.269 173H434.869V169.8H441.269V173ZM457.281 189V160.2H470.081V163.4H460.481V185.8H470.081V189H457.281ZM470.081 185.8V163.4H473.281V185.8H470.081ZM476.469 189V160.2H489.269V163.4H479.669V173H489.269V176.2H479.669V185.8H489.269V189H476.469ZM492.469 163.4V160.2H508.469V163.4H502.069V189H498.869V163.4H492.469ZM511.656 189V160.2H524.456V163.4H514.856V173H524.456V176.2H514.856V185.8H524.456V189H511.656ZM527.656 189V160.2H540.456V163.4H530.856V173H540.456V182.6H537.256V176.2H530.856V189H527.656ZM540.456 182.6H543.656V189H540.456V182.6ZM540.456 173V163.4H543.656V173H540.456ZM546.844 189V160.2H550.044V166.6H553.244V173H550.044V189H546.844ZM553.244 173H556.444V179.4H553.244V173ZM556.444 173V166.6H559.644V160.2H562.844V189H559.644V173H556.444ZM566.031 189V160.2H569.231V189H566.031ZM572.438 189V160.2H575.638V163.4H578.838V169.8H575.638V189H572.438ZM578.838 176.2V169.8H582.038V176.2H578.838ZM582.038 182.6V176.2H585.238V160.2H588.438V189H585.238V182.6H582.038ZM591.625 189V176.2H594.825V166.6H598.025V176.2H601.225V166.6H604.425V176.2H607.625V189H604.425V179.4H594.825V189H591.625ZM598.025 166.6V160.2H601.225V166.6H598.025ZM607.625 163.4V160.2H623.625V163.4H617.225V189H614.025V163.4H607.625ZM626.812 189V160.2H630.013V189H626.812ZM633.219 185.8V163.4H636.419V185.8H633.219ZM646.019 185.8V189H636.419V185.8H646.019ZM646.019 160.2V163.4H636.419V160.2H646.019ZM646.019 163.4H649.219V185.8H646.019V163.4ZM652.406 189V160.2H655.606V163.4H658.806V169.8H655.606V189H652.406ZM658.806 176.2V169.8H662.006V176.2H658.806ZM662.006 182.6V176.2H665.206V160.2H668.406V189H665.206V182.6H662.006ZM684.406 189V169.8H687.606V189H684.406ZM684.406 166.6V163.4H687.606V166.6H684.406ZM690.812 189V185.8H700.413V189H690.812ZM690.812 176.2V173H694.013V176.2H690.812ZM694.013 173V169.8H703.613V173H694.013ZM694.013 176.2H700.413V179.4H694.013V176.2ZM700.413 185.8V179.4H703.613V185.8H700.413ZM719.625 189V169.8H732.425V173H722.825V189H719.625ZM732.425 189V173H735.625V189H732.425ZM738.812 185.8V173H742.013V185.8H738.812ZM751.613 185.8V189H742.013V185.8H751.613ZM751.613 173H754.812V185.8H751.613V173ZM751.613 169.8V173H742.013V169.8H751.613ZM758 182.6V169.8H761.2V182.6H758ZM761.2 182.6H764.4V189H761.2V182.6ZM764.4 182.6V173H767.6V182.6H764.4ZM767.6 182.6H770.8V189H767.6V182.6ZM770.8 182.6V169.8H774V182.6H770.8ZM780.388 182.6H783.588V189H780.388V182.6ZM780.388 179.4V160.2H783.588V179.4H780.388Z" fill="white"/>
<defs>
<filter id="filter0_d_384_774" x="0" y="0" width="915" height="246" filterUnits="userSpaceOnUse" color-interpolation-filters="sRGB">
<feFlood flood-opacity="0" result="BackgroundImageFix"/>
<feColorMatrix in="SourceAlpha" type="matrix" values="0 0 0 0 0 0 0 0 0 0 0 0 0 0 0 0 0 0 127 0" result="hardAlpha"/>
<feOffset dy="4"/>
<feGaussianBlur stdDeviation="2"/>
<feComposite in2="hardAlpha" operator="out"/>
<feColorMatrix type="matrix" values="0 0 0 0 0 0 0 0 0 0 0 0 0 0 0 0 0 0 0.25 0"/>
<feBlend mode="normal" in2="BackgroundImageFix" result="effect1_dropShadow_384_774"/>
<feBlend mode="normal" in="SourceGraphic" in2="effect1_dropShadow_384_774" result="shape"/>
</filter>
</defs>
</svg>
