<svg width="915" height="246" viewBox="0 0 915 246" fill="none" xmlns="http://www.w3.org/2000/svg">
<g filter="url(#filter0_d_384_735)">
<rect x="4" width="907" height="238" fill="black"/>
<rect x="7" y="3" width="901" height="232" stroke="white" stroke-width="6"/>
</g>
<path d="M51 63V34.2H63.8V37.4H54.2V47H63.8V50.2H54.2V59.8H63.8V63H51ZM63.8 59.8V50.2H67V59.8H63.8ZM63.8 47V37.4H67V47H63.8ZM70.1875 59.8V47H73.3875V50.2H82.9875V47H86.1875V53.4H73.3875V59.8H70.1875ZM73.3875 59.8H86.1875V63H73.3875V59.8ZM73.3875 47V43.8H82.9875V47H73.3875ZM89.375 59.8V47H92.575V59.8H89.375ZM92.575 59.8H105.375V63H92.575V59.8ZM92.575 47V43.8H105.375V47H92.575ZM108.562 59.8V53.4H111.763V59.8H108.562ZM108.562 47V43.8H121.363V47H108.562ZM111.763 59.8H121.363V53.4H111.763V50.2H121.363V47H124.562V63H111.763V59.8ZM127.75 59.8V43.8H130.95V59.8H127.75ZM140.55 59.8V43.8H143.75V63H130.95V59.8H140.55ZM146.938 63V59.8H156.538V63H146.938ZM146.938 50.2V47H150.138V50.2H146.938ZM150.138 47V43.8H159.738V47H150.138ZM150.138 50.2H156.538V53.4H150.138V50.2ZM156.538 59.8V53.4H159.738V59.8H156.538ZM162.938 59.8V47H166.138V50.2H175.738V47H178.938V53.4H166.138V59.8H162.938ZM166.138 59.8H178.938V63H166.138V59.8ZM166.138 47V43.8H175.738V47H166.138ZM194.938 66.2V63H201.338V66.2H194.938ZM194.938 50.2V43.8H198.138V50.2H194.938ZM198.138 56.6V50.2H201.338V56.6H198.138ZM201.338 56.6H204.538V63H201.338V56.6ZM204.538 56.6V50.2H207.738V56.6H204.538ZM207.738 50.2V43.8H210.938V50.2H207.738ZM214.125 59.8V47H217.325V59.8H214.125ZM226.925 59.8V63H217.325V59.8H226.925ZM226.925 47H230.125V59.8H226.925V47ZM226.925 43.8V47H217.325V43.8H226.925ZM233.312 59.8V43.8H236.513V59.8H233.312ZM246.113 59.8V43.8H249.312V63H236.513V59.8H246.113ZM265.312 40.6V34.2H268.513V40.6H265.312ZM271.713 40.6V34.2H274.913V40.6H271.713ZM278.125 63V43.8H290.925V47H281.325V63H278.125ZM290.925 63V47H294.125V63H290.925ZM297.312 59.8V47H300.513V50.2H310.113V47H313.312V53.4H300.513V59.8H297.312ZM300.513 59.8H313.312V63H300.513V59.8ZM300.513 47V43.8H310.113V47H300.513ZM316.5 50.2V43.8H319.7V50.2H316.5ZM319.7 56.6V50.2H322.9V56.6H319.7ZM322.9 56.6H326.1V63H322.9V56.6ZM326.1 56.6V50.2H329.3V56.6H326.1ZM329.3 50.2V43.8H332.5V50.2H329.3ZM335.688 59.8V47H338.888V50.2H348.488V47H351.688V53.4H338.888V59.8H335.688ZM338.888 59.8H351.688V63H338.888V59.8ZM338.888 47V43.8H348.488V47H338.888ZM354.875 63V43.8H358.075V47H361.275V50.2H358.075V63H354.875ZM367.675 47H361.275V43.8H367.675V47ZM383.688 66.2V63H396.488V66.2H383.688ZM383.688 56.6V47H386.888V56.6H383.688ZM386.888 56.6H396.488V47H386.888V43.8H399.688V63H396.488V59.8H386.888V56.6ZM402.875 63V43.8H406.075V63H402.875ZM402.875 40.6V37.4H406.075V40.6H402.875ZM409.281 50.2V43.8H412.481V50.2H409.281ZM412.481 56.6V50.2H415.681V56.6H412.481ZM415.681 56.6H418.881V63H415.681V56.6ZM418.881 56.6V50.2H422.081V56.6H418.881ZM422.081 50.2V43.8H425.281V50.2H422.081ZM428.469 59.8V47H431.669V50.2H441.269V47H444.469V53.4H431.669V59.8H428.469ZM431.669 59.8H444.469V63H431.669V59.8ZM431.669 47V43.8H441.269V47H431.669ZM460.469 59.8V43.8H463.669V59.8H460.469ZM473.269 59.8V43.8H476.469V63H463.669V59.8H473.269ZM479.656 66.2V43.8H492.456V47H482.856V56.6H492.456V59.8H482.856V66.2H479.656ZM492.456 56.6V47H495.656V56.6H492.456ZM502.044 63V59.8H505.244V63H502.044ZM508.469 40.6V34.2H511.669V40.6H508.469ZM514.869 40.6V34.2H518.069V40.6H514.869Z" fill="white"/>
<defs>
<filter id="filter0_d_384_735" x="0" y="0" width="915" height="246" filterUnits="userSpaceOnUse" color-interpolation-filters="sRGB">
<feFlood flood-opacity="0" result="BackgroundImageFix"/>
<feColorMatrix in="SourceAlpha" type="matrix" values="0 0 0 0 0 0 0 0 0 0 0 0 0 0 0 0 0 0 127 0" result="hardAlpha"/>
<feOffset dy="4"/>
<feGaussianBlur stdDeviation="2"/>
<feComposite in2="hardAlpha" operator="out"/>
<feColorMatrix type="matrix" values="0 0 0 0 0 0 0 0 0 0 0 0 0 0 0 0 0 0 0.25 0"/>
<feBlend mode="normal" in2="BackgroundImageFix" result="effect1_dropShadow_384_735"/>
<feBlend mode="normal" in="SourceGraphic" in2="effect1_dropShadow_384_735" result="shape"/>
</filter>
</defs>
</svg>
