<svg width="915" height="246" viewBox="0 0 915 246" fill="none" xmlns="http://www.w3.org/2000/svg">
<g filter="url(#filter0_d_384_775)">
<rect x="4" width="907" height="238" fill="black"/>
<rect x="7" y="3" width="901" height="232" stroke="white" stroke-width="6"/>
</g>
<path d="M51 63V59.8H60.6V63H51ZM51 47V37.4H54.2V47H51ZM54.2 47H60.6V50.2H54.2V47ZM54.2 37.4V34.2H63.8V37.4H54.2ZM60.6 59.8V50.2H63.8V59.8H60.6ZM67 47V43.8H70.2V37.4H73.4V43.8H79.8V47H73.4V59.8H70.2V47H67ZM73.4 59.8H79.8V63H73.4V59.8ZM83 63V43.8H86.2V47H89.4V50.2H86.2V63H83ZM95.8 47H89.4V43.8H95.8V47ZM99 59.8V53.4H102.2V59.8H99ZM99 47V43.8H111.8V47H99ZM102.2 59.8H111.8V53.4H102.2V50.2H111.8V47H115V63H102.2V59.8ZM118.188 63V43.8H130.988V47H121.388V63H118.188ZM130.988 63V47H134.188V63H130.988ZM137.375 66.2V63H150.175V66.2H137.375ZM137.375 56.6V47H140.575V56.6H137.375ZM140.575 56.6H150.175V47H140.575V43.8H153.375V63H150.175V59.8H140.575V56.6ZM156.562 59.8V47H159.763V50.2H169.363V47H172.562V53.4H159.763V59.8H156.562ZM159.763 59.8H172.562V63H159.763V59.8ZM159.763 47V43.8H169.363V47H159.763ZM175.75 59.8V34.2H178.95V59.8H175.75ZM178.95 59.8H182.15V63H178.95V59.8ZM185.344 66.2V63H191.744V66.2H185.344ZM185.344 50.2V43.8H188.544V50.2H185.344ZM188.544 56.6V50.2H191.744V56.6H188.544ZM191.744 56.6H194.944V63H191.744V56.6ZM194.944 56.6V50.2H198.144V56.6H194.944ZM198.144 50.2V43.8H201.344V50.2H198.144ZM201.344 66.2V63H204.544V66.2H201.344ZM204.544 63V59.8H207.744V63H204.544ZM226.969 59.8V53.4H230.169V59.8H226.969ZM226.969 47V43.8H239.769V47H226.969ZM230.169 59.8H239.769V53.4H230.169V50.2H239.769V47H242.969V63H230.169V59.8ZM246.156 63V59.8H255.756V63H246.156ZM246.156 50.2V47H249.356V50.2H246.156ZM249.356 47V43.8H258.956V47H249.356ZM249.356 50.2H255.756V53.4H249.356V50.2ZM255.756 59.8V53.4H258.956V59.8H255.756ZM274.969 66.2V63H281.369V66.2H274.969ZM274.969 50.2V43.8H278.169V50.2H274.969ZM278.169 56.6V50.2H281.369V56.6H278.169ZM281.369 56.6H284.569V63H281.369V56.6ZM284.569 56.6V50.2H287.769V56.6H284.569ZM287.769 50.2V43.8H290.969V50.2H287.769ZM294.156 59.8V47H297.356V59.8H294.156ZM306.956 59.8V63H297.356V59.8H306.956ZM306.956 47H310.156V59.8H306.956V47ZM306.956 43.8V47H297.356V43.8H306.956ZM313.344 59.8V43.8H316.544V59.8H313.344ZM326.144 59.8V43.8H329.344V63H316.544V59.8H326.144ZM332.531 63V43.8H335.731V47H338.931V50.2H335.731V63H332.531ZM345.331 47H338.931V43.8H345.331V47ZM361.344 47V43.8H364.544V37.4H367.744V43.8H374.144V47H367.744V63H364.544V47H361.344ZM367.744 37.4V34.2H374.144V37.4H367.744ZM377.344 63V43.8H380.544V47H383.744V50.2H380.544V63H377.344ZM390.144 47H383.744V43.8H390.144V47ZM393.344 63V43.8H396.544V63H393.344ZM393.344 40.6V37.4H396.544V40.6H393.344ZM399.75 59.8V47H402.95V50.2H412.55V47H415.75V53.4H402.95V59.8H399.75ZM402.95 59.8H415.75V63H402.95V59.8ZM402.95 47V43.8H412.55V47H402.95ZM418.938 63V43.8H431.738V47H422.138V63H418.938ZM431.738 63V47H434.938V63H431.738ZM438.125 59.8V47H441.325V59.8H438.125ZM450.925 59.8V47H441.325V43.8H450.925V34.2H454.125V63H441.325V59.8H450.925ZM457.312 63V59.8H466.913V63H457.312ZM457.312 50.2V47H460.513V50.2H457.312ZM460.513 47V43.8H470.113V47H460.513ZM460.513 50.2H466.913V53.4H460.513V50.2ZM466.913 59.8V53.4H470.113V59.8H466.913ZM486.125 63V43.8H489.325V47H492.525V50.2H489.325V63H486.125ZM498.925 47H492.525V43.8H498.925V47ZM502.125 59.8V47H505.325V50.2H514.925V47H518.125V53.4H505.325V59.8H502.125ZM505.325 59.8H518.125V63H505.325V59.8ZM505.325 47V43.8H514.925V47H505.325ZM521.312 63V43.8H540.513V47H534.113V63H530.913V47H524.513V63H521.312ZM540.513 63V47H543.713V63H540.513ZM546.906 59.8V47H550.106V50.2H559.706V47H562.906V53.4H550.106V59.8H546.906ZM550.106 59.8H562.906V63H550.106V59.8ZM550.106 47V43.8H559.706V47H550.106ZM566.094 63V43.8H585.294V47H578.894V63H575.694V47H569.294V63H566.094ZM585.294 63V47H588.494V63H585.294ZM591.688 63V34.2H594.888V43.8H604.488V47H594.888V59.8H604.488V63H591.688ZM604.488 59.8V47H607.688V59.8H604.488ZM610.875 59.8V47H614.075V50.2H623.675V47H626.875V53.4H614.075V59.8H610.875ZM614.075 59.8H626.875V63H614.075V59.8ZM614.075 47V43.8H623.675V47H614.075ZM630.062 63V43.8H633.263V47H636.463V50.2H633.263V63H630.062ZM642.863 47H636.463V43.8H642.863V47ZM646.062 59.8V47H649.263V50.2H658.863V47H662.062V53.4H649.263V59.8H646.062ZM649.263 59.8H662.062V63H649.263V59.8ZM649.263 47V43.8H658.863V47H649.263ZM665.25 59.8V47H668.45V59.8H665.25ZM678.05 59.8V47H668.45V43.8H678.05V34.2H681.25V63H668.45V59.8H678.05ZM697.25 66.2V63H703.65V66.2H697.25ZM697.25 50.2V43.8H700.45V50.2H697.25ZM700.45 56.6V50.2H703.65V56.6H700.45ZM703.65 56.6H706.85V63H703.65V56.6ZM706.85 56.6V50.2H710.05V56.6H706.85ZM710.05 50.2V43.8H713.25V50.2H710.05ZM716.438 59.8V47H719.638V59.8H716.438ZM729.238 59.8V63H719.638V59.8H729.238ZM729.238 47H732.438V59.8H729.238V47ZM729.238 43.8V47H719.638V43.8H729.238ZM735.625 59.8V43.8H738.825V59.8H735.625ZM748.425 59.8V43.8H751.625V63H738.825V59.8H748.425ZM758.013 63V59.8H761.213V63H758.013ZM770.825 63V59.8H774.025V63H770.825ZM783.638 63V59.8H786.838V63H783.638Z" fill="white"/>
<defs>
<filter id="filter0_d_384_775" x="0" y="0" width="915" height="246" filterUnits="userSpaceOnUse" color-interpolation-filters="sRGB">
<feFlood flood-opacity="0" result="BackgroundImageFix"/>
<feColorMatrix in="SourceAlpha" type="matrix" values="0 0 0 0 0 0 0 0 0 0 0 0 0 0 0 0 0 0 127 0" result="hardAlpha"/>
<feOffset dy="4"/>
<feGaussianBlur stdDeviation="2"/>
<feComposite in2="hardAlpha" operator="out"/>
<feColorMatrix type="matrix" values="0 0 0 0 0 0 0 0 0 0 0 0 0 0 0 0 0 0 0.25 0"/>
<feBlend mode="normal" in2="BackgroundImageFix" result="effect1_dropShadow_384_775"/>
<feBlend mode="normal" in="SourceGraphic" in2="effect1_dropShadow_384_775" result="shape"/>
</filter>
</defs>
</svg>
