<svg width="915" height="246" viewBox="0 0 915 246" fill="none" xmlns="http://www.w3.org/2000/svg">
<g filter="url(#filter0_d_384_733)">
<rect x="4" width="907" height="238" fill="black"/>
<rect x="7" y="3" width="901" height="232" stroke="white" stroke-width="6"/>
</g>
<path d="M51 63V34.2H63.8V37.4H54.2V47H63.8V50.2H54.2V59.8H63.8V63H51ZM63.8 59.8V50.2H67V59.8H63.8ZM63.8 47V37.4H67V47H63.8ZM70.1875 59.8V47H73.3875V50.2H82.9875V47H86.1875V53.4H73.3875V59.8H70.1875ZM73.3875 59.8H86.1875V63H73.3875V59.8ZM73.3875 47V43.8H82.9875V47H73.3875ZM89.375 59.8V47H92.575V59.8H89.375ZM92.575 59.8H105.375V63H92.575V59.8ZM92.575 47V43.8H105.375V47H92.575ZM108.562 59.8V53.4H111.763V59.8H108.562ZM108.562 47V43.8H121.363V47H108.562ZM111.763 59.8H121.363V53.4H111.763V50.2H121.363V47H124.562V63H111.763V59.8ZM127.75 59.8V43.8H130.95V59.8H127.75ZM140.55 59.8V43.8H143.75V63H130.95V59.8H140.55ZM146.938 63V59.8H156.538V63H146.938ZM146.938 50.2V47H150.138V50.2H146.938ZM150.138 47V43.8H159.738V47H150.138ZM150.138 50.2H156.538V53.4H150.138V50.2ZM156.538 59.8V53.4H159.738V59.8H156.538ZM162.938 59.8V47H166.138V50.2H175.738V47H178.938V53.4H166.138V59.8H162.938ZM166.138 59.8H178.938V63H166.138V59.8ZM166.138 47V43.8H175.738V47H166.138ZM194.938 66.2V63H201.338V66.2H194.938ZM194.938 50.2V43.8H198.138V50.2H194.938ZM198.138 56.6V50.2H201.338V56.6H198.138ZM201.338 56.6H204.538V63H201.338V56.6ZM204.538 56.6V50.2H207.738V56.6H204.538ZM207.738 50.2V43.8H210.938V50.2H207.738ZM214.125 59.8V47H217.325V59.8H214.125ZM226.925 59.8V63H217.325V59.8H226.925ZM226.925 47H230.125V59.8H226.925V47ZM226.925 43.8V47H217.325V43.8H226.925ZM233.312 59.8V43.8H236.513V59.8H233.312ZM246.113 59.8V43.8H249.312V63H236.513V59.8H246.113ZM265.312 56.6V43.8H268.513V56.6H265.312ZM268.513 56.6H271.713V63H268.513V56.6ZM271.713 56.6V47H274.913V56.6H271.713ZM274.913 56.6H278.113V63H274.913V56.6ZM278.113 56.6V43.8H281.312V56.6H278.113ZM284.5 59.8V53.4H287.7V59.8H284.5ZM284.5 47V43.8H297.3V47H284.5ZM287.7 59.8H297.3V53.4H287.7V50.2H297.3V47H300.5V63H287.7V59.8ZM303.688 63V43.8H316.488V47H306.888V63H303.688ZM316.488 63V47H319.688V63H316.488ZM322.875 47V43.8H326.075V37.4H329.275V43.8H335.675V47H329.275V59.8H326.075V47H322.875ZM329.275 59.8H335.675V63H329.275V59.8ZM351.688 59.8V53.4H354.888V59.8H351.688ZM351.688 47V43.8H364.488V47H351.688ZM354.888 59.8H364.488V53.4H354.888V50.2H364.488V47H367.688V63H354.888V59.8ZM383.688 40.6V34.2H386.888V40.6H383.688ZM390.088 40.6V34.2H393.288V40.6H390.088ZM396.5 63V34.2H399.7V43.8H409.3V47H399.7V63H396.5ZM409.3 63V47H412.5V63H409.3ZM415.688 59.8V53.4H418.888V59.8H415.688ZM415.688 47V43.8H428.488V47H415.688ZM418.888 59.8H428.488V53.4H418.888V50.2H428.488V47H431.688V63H418.888V59.8ZM434.875 66.2V43.8H447.675V47H438.075V56.6H447.675V59.8H438.075V66.2H434.875ZM447.675 56.6V47H450.875V56.6H447.675ZM454.062 66.2V43.8H466.863V47H457.263V56.6H466.863V59.8H457.263V66.2H454.062ZM466.863 56.6V47H470.062V56.6H466.863ZM473.25 66.2V63H479.65V66.2H473.25ZM473.25 50.2V43.8H476.45V50.2H473.25ZM476.45 56.6V50.2H479.65V56.6H476.45ZM479.65 56.6H482.85V63H479.65V56.6ZM482.85 56.6V50.2H486.05V56.6H482.85ZM486.05 50.2V43.8H489.25V50.2H486.05ZM505.25 59.8V47H508.45V50.2H518.05V47H521.25V53.4H508.45V59.8H505.25ZM508.45 59.8H521.25V63H508.45V59.8ZM508.45 47V43.8H518.05V47H508.45ZM524.438 63V43.8H537.238V47H527.638V63H524.438ZM537.238 63V47H540.438V63H537.238ZM543.625 59.8V47H546.825V59.8H543.625ZM556.425 59.8V47H546.825V43.8H556.425V34.2H559.625V63H546.825V59.8H556.425ZM562.812 63V43.8H566.013V63H562.812ZM562.812 40.6V37.4H566.013V40.6H562.812ZM569.219 63V43.8H582.019V47H572.419V63H569.219ZM582.019 63V47H585.219V63H582.019ZM588.406 66.2V63H601.206V66.2H588.406ZM588.406 56.6V47H591.606V56.6H588.406ZM591.606 56.6H601.206V47H591.606V43.8H604.406V63H601.206V59.8H591.606V56.6ZM610.794 63V59.8H613.994V63H610.794ZM617.219 40.6V34.2H620.419V40.6H617.219ZM623.619 40.6V34.2H626.819V40.6H623.619Z" fill="white"/>
<path d="M415.688 67.8H630.019V71H415.688V67.8Z" fill="white"/>
<a href="https://namu.wiki/w/%EC%96%B8%EB%8D%94%ED%85%8C%EC%9D%BC/%EB%B6%88%EC%82%B4%20%EC%97%94%EB%94%A9">
<rect fill="black" fill-opacity="0" x="364.688" y="0.200003" width="214.331" height="41.6"/>
</a>
<defs>
<filter id="filter0_d_384_733" x="0" y="0" width="915" height="246" filterUnits="userSpaceOnUse" color-interpolation-filters="sRGB">
<feFlood flood-opacity="0" result="BackgroundImageFix"/>
<feColorMatrix in="SourceAlpha" type="matrix" values="0 0 0 0 0 0 0 0 0 0 0 0 0 0 0 0 0 0 127 0" result="hardAlpha"/>
<feOffset dy="4"/>
<feGaussianBlur stdDeviation="2"/>
<feComposite in2="hardAlpha" operator="out"/>
<feColorMatrix type="matrix" values="0 0 0 0 0 0 0 0 0 0 0 0 0 0 0 0 0 0 0.25 0"/>
<feBlend mode="normal" in2="BackgroundImageFix" result="effect1_dropShadow_384_733"/>
<feBlend mode="normal" in="SourceGraphic" in2="effect1_dropShadow_384_733" result="shape"/>
</filter>
</defs>
</svg>
