<svg width="915" height="246" viewBox="0 0 915 246" fill="none" xmlns="http://www.w3.org/2000/svg">
<g filter="url(#filter0_d_384_768)">
<rect x="4" width="907" height="238" fill="black"/>
<rect x="7" y="3" width="901" height="232" stroke="white" stroke-width="6"/>
</g>
<path d="M51 63V34.2H54.2V37.4H57.4V43.8H54.2V63H51ZM57.4 50.2V43.8H60.6V50.2H57.4ZM60.6 56.6V50.2H63.8V34.2H67V63H63.8V56.6H60.6ZM70.1875 59.8V47H73.3875V59.8H70.1875ZM82.9875 59.8V63H73.3875V59.8H82.9875ZM82.9875 47H86.1875V59.8H82.9875V47ZM82.9875 43.8V47H73.3875V43.8H82.9875ZM89.375 56.6V43.8H92.575V56.6H89.375ZM92.575 56.6H95.775V63H92.575V56.6ZM95.775 56.6V47H98.975V56.6H95.775ZM98.975 56.6H102.175V63H98.975V56.6ZM102.175 56.6V43.8H105.375V56.6H102.175ZM105.375 66.2V63H108.575V66.2H105.375ZM108.575 63V59.8H111.775V63H108.575ZM131 63V34.2H143.8V37.4H134.2V47H143.8V50.2H134.2V59.8H143.8V63H131ZM147 63V34.2H150.2V37.4H153.4V43.8H150.2V63H147ZM153.4 50.2V43.8H156.6V50.2H153.4ZM156.6 56.6V50.2H159.8V34.2H163V63H159.8V56.6H156.6ZM166.188 59.8V37.4H169.388V59.8H166.188ZM178.988 59.8V63H169.388V59.8H178.988ZM178.988 34.2V37.4H169.388V34.2H178.988ZM178.988 37.4H182.188V59.8H178.988V37.4ZM185.375 59.8V34.2H188.575V59.8H185.375ZM198.175 59.8V63H188.575V59.8H198.175ZM198.175 34.2H201.375V59.8H198.175V34.2ZM204.562 59.8V37.4H207.763V59.8H204.562ZM207.763 59.8H217.363V63H207.763V59.8ZM207.763 37.4V34.2H220.562V37.4H207.763ZM210.963 50.2V47H220.562V59.8H217.363V50.2H210.963ZM223.75 63V34.2H226.95V47H236.55V34.2H239.75V63H236.55V50.2H226.95V63H223.75ZM255.75 63V43.8H274.95V47H268.55V63H265.35V47H258.95V63H255.75ZM274.95 63V47H278.15V63H274.95ZM281.344 59.8V47H284.544V50.2H294.144V47H297.344V53.4H284.544V59.8H281.344ZM284.544 59.8H297.344V63H284.544V59.8ZM284.544 47V43.8H294.144V47H284.544ZM300.531 63V59.8H310.131V63H300.531ZM300.531 50.2V47H303.731V50.2H300.531ZM303.731 47V43.8H313.331V47H303.731ZM303.731 50.2H310.131V53.4H303.731V50.2ZM310.131 59.8V53.4H313.331V59.8H310.131ZM316.531 63V59.8H326.131V63H316.531ZM316.531 50.2V47H319.731V50.2H316.531ZM319.731 47V43.8H329.331V47H319.731ZM319.731 50.2H326.131V53.4H319.731V50.2ZM326.131 59.8V53.4H329.331V59.8H326.131ZM332.531 63V43.8H335.731V63H332.531ZM332.531 40.6V37.4H335.731V40.6H332.531ZM338.938 63V43.8H351.738V47H342.138V63H338.938ZM351.738 63V47H354.938V63H351.738ZM358.125 66.2V63H370.925V66.2H358.125ZM358.125 56.6V47H361.325V56.6H358.125ZM361.325 56.6H370.925V47H361.325V43.8H374.125V63H370.925V59.8H361.325V56.6ZM390.125 59.8V53.4H393.325V59.8H390.125ZM390.125 47V43.8H402.925V47H390.125ZM393.325 59.8H402.925V53.4H393.325V50.2H402.925V47H406.125V63H393.325V59.8ZM409.312 63V43.8H412.513V47H415.713V50.2H412.513V63H409.312ZM422.113 47H415.713V43.8H422.113V47ZM425.312 59.8V47H428.513V59.8H425.312ZM438.113 59.8V63H428.513V59.8H438.113ZM438.113 47H441.312V59.8H438.113V47ZM438.113 43.8V47H428.513V43.8H438.113ZM444.5 59.8V43.8H447.7V59.8H444.5ZM457.3 59.8V43.8H460.5V63H447.7V59.8H457.3ZM463.688 63V43.8H476.488V47H466.888V63H463.688ZM476.488 63V47H479.688V63H476.488ZM482.875 59.8V47H486.075V59.8H482.875ZM495.675 59.8V47H486.075V43.8H495.675V34.2H498.875V63H486.075V59.8H495.675ZM505.263 56.6H508.463V63H505.263V56.6ZM505.263 53.4V34.2H508.463V53.4H505.263ZM51 105V76.2H54.2V105H51ZM57.4062 89V85.8H60.6063V79.4H63.8063V85.8H70.2063V89H63.8063V101.8H60.6063V89H57.4062ZM63.8063 101.8H70.2063V105H63.8063V101.8ZM73.4062 82.6V76.2H76.6063V82.6H73.4062ZM79.8125 105V101.8H89.4125V105H79.8125ZM79.8125 92.2V89H83.0125V92.2H79.8125ZM83.0125 89V85.8H92.6125V89H83.0125ZM83.0125 92.2H89.4125V95.4H83.0125V92.2ZM89.4125 101.8V95.4H92.6125V101.8H89.4125ZM108.625 89V85.8H111.825V79.4H115.025V85.8H121.425V89H115.025V101.8H111.825V89H108.625ZM115.025 101.8H121.425V105H115.025V101.8ZM124.625 105V85.8H127.825V105H124.625ZM124.625 82.6V79.4H127.825V82.6H124.625ZM131.031 105V85.8H150.231V89H143.831V105H140.631V89H134.231V105H131.031ZM150.231 105V89H153.431V105H150.231ZM156.625 101.8V89H159.825V92.2H169.425V89H172.625V95.4H159.825V101.8H156.625ZM159.825 101.8H172.625V105H159.825V101.8ZM159.825 89V85.8H169.425V89H159.825ZM188.625 89V85.8H191.825V79.4H195.025V85.8H201.425V89H195.025V101.8H191.825V89H188.625ZM195.025 101.8H201.425V105H195.025V101.8ZM204.625 101.8V89H207.825V101.8H204.625ZM217.425 101.8V105H207.825V101.8H217.425ZM217.425 89H220.625V101.8H217.425V89ZM217.425 85.8V89H207.825V85.8H217.425ZM236.625 108.2V85.8H249.425V89H239.825V98.6H249.425V101.8H239.825V108.2H236.625ZM249.425 98.6V89H252.625V98.6H249.425ZM255.812 101.8V85.8H259.013V101.8H255.812ZM268.613 101.8V85.8H271.812V105H259.013V101.8H268.613ZM275 105V85.8H278.2V89H281.4V92.2H278.2V105H275ZM287.8 89H281.4V85.8H287.8V89ZM291 108.2V105H303.8V108.2H291ZM291 98.6V89H294.2V98.6H291ZM294.2 98.6H303.8V89H294.2V85.8H307V105H303.8V101.8H294.2V98.6ZM310.188 101.8V89H313.388V92.2H322.988V89H326.188V95.4H313.388V101.8H310.188ZM313.388 101.8H326.188V105H313.388V101.8ZM313.388 89V85.8H322.988V89H313.388ZM342.188 89V85.8H345.388V79.4H348.588V85.8H354.988V89H348.588V101.8H345.388V89H342.188ZM348.588 101.8H354.988V105H348.588V101.8ZM358.188 105V76.2H361.388V85.8H370.988V89H361.388V105H358.188ZM370.988 105V89H374.188V105H370.988ZM377.375 105V85.8H380.575V105H377.375ZM377.375 82.6V79.4H380.575V82.6H377.375ZM383.781 105V101.8H393.381V105H383.781ZM383.781 92.2V89H386.981V92.2H383.781ZM386.981 89V85.8H396.581V89H386.981ZM386.981 92.2H393.381V95.4H386.981V92.2ZM393.381 101.8V95.4H396.581V101.8H393.381ZM412.594 89V85.8H415.794V79.4H418.994V85.8H425.394V89H418.994V101.8H415.794V89H412.594ZM418.994 101.8H425.394V105H418.994V101.8ZM428.594 105V85.8H431.794V105H428.594ZM428.594 82.6V79.4H431.794V82.6H428.594ZM435 105V85.8H454.2V89H447.8V105H444.6V89H438.2V105H435ZM454.2 105V89H457.4V105H454.2ZM460.594 101.8V89H463.794V92.2H473.394V89H476.594V95.4H463.794V101.8H460.594ZM463.794 101.8H476.594V105H463.794V101.8ZM463.794 89V85.8H473.394V89H463.794ZM479.781 101.8V76.2H482.981V101.8H479.781ZM482.981 101.8H486.181V105H482.981V101.8ZM489.375 105V85.8H492.575V105H489.375ZM489.375 82.6V79.4H492.575V82.6H489.375ZM495.781 105V85.8H508.581V89H498.981V105H495.781ZM508.581 105V89H511.781V105H508.581ZM514.969 101.8V89H518.169V92.2H527.769V89H530.969V95.4H518.169V101.8H514.969ZM518.169 101.8H530.969V105H518.169V101.8ZM518.169 89V85.8H527.769V89H518.169ZM546.969 101.8V89H550.169V101.8H546.969ZM559.769 101.8V105H550.169V101.8H559.769ZM559.769 89H562.969V101.8H559.769V89ZM559.769 85.8V89H550.169V85.8H559.769ZM566.156 105V85.8H578.956V89H569.356V105H566.156ZM578.956 105V89H582.156V105H578.956ZM585.344 101.8V89H588.544V101.8H585.344ZM588.544 101.8H601.344V105H588.544V101.8ZM588.544 89V85.8H601.344V89H588.544ZM604.531 101.8V89H607.731V92.2H617.331V89H620.531V95.4H607.731V101.8H604.531ZM607.731 101.8H620.531V105H607.731V101.8ZM607.731 89V85.8H617.331V89H607.731ZM636.531 101.8V95.4H639.731V101.8H636.531ZM636.531 89V85.8H649.331V89H636.531ZM639.731 101.8H649.331V95.4H639.731V92.2H649.331V89H652.531V105H639.731V101.8ZM655.719 105V85.8H668.519V89H658.919V105H655.719ZM668.519 105V89H671.719V105H668.519ZM674.906 101.8V89H678.106V101.8H674.906ZM687.706 101.8V89H678.106V85.8H687.706V76.2H690.906V105H678.106V101.8H687.706ZM706.906 89V85.8H710.106V79.4H713.306V85.8H719.706V89H713.306V105H710.106V89H706.906ZM713.306 79.4V76.2H719.706V79.4H713.306ZM722.906 101.8V89H726.106V101.8H722.906ZM735.706 101.8V105H726.106V101.8H735.706ZM735.706 89H738.906V101.8H735.706V89ZM735.706 85.8V89H726.106V85.8H735.706ZM742.094 105V85.8H745.294V89H748.494V92.2H745.294V105H742.094ZM754.894 89H748.494V85.8H754.894V89ZM770.906 101.8V95.4H774.106V101.8H770.906ZM770.906 89V85.8H783.706V89H770.906ZM774.106 101.8H783.706V95.4H774.106V92.2H783.706V89H786.906V105H774.106V101.8ZM790.094 101.8V76.2H793.294V101.8H790.094ZM793.294 101.8H796.494V105H793.294V101.8ZM799.688 101.8V76.2H802.888V101.8H799.688ZM802.888 101.8H806.088V105H802.888V101.8ZM812.481 98.6H815.681V105H812.481V98.6ZM812.481 95.4V76.2H815.681V95.4H812.481Z" fill="white"/>
<defs>
<filter id="filter0_d_384_768" x="0" y="0" width="915" height="246" filterUnits="userSpaceOnUse" color-interpolation-filters="sRGB">
<feFlood flood-opacity="0" result="BackgroundImageFix"/>
<feColorMatrix in="SourceAlpha" type="matrix" values="0 0 0 0 0 0 0 0 0 0 0 0 0 0 0 0 0 0 127 0" result="hardAlpha"/>
<feOffset dy="4"/>
<feGaussianBlur stdDeviation="2"/>
<feComposite in2="hardAlpha" operator="out"/>
<feColorMatrix type="matrix" values="0 0 0 0 0 0 0 0 0 0 0 0 0 0 0 0 0 0 0.25 0"/>
<feBlend mode="normal" in2="BackgroundImageFix" result="effect1_dropShadow_384_768"/>
<feBlend mode="normal" in="SourceGraphic" in2="effect1_dropShadow_384_768" result="shape"/>
</filter>
</defs>
</svg>
