<svg width="915" height="246" viewBox="0 0 915 246" fill="none" xmlns="http://www.w3.org/2000/svg">
<g filter="url(#filter0_d_384_778)">
<rect x="4" width="907" height="238" fill="black"/>
<rect x="7" y="3" width="901" height="232" stroke="white" stroke-width="6"/>
</g>
<path d="M51 63V34.2H63.8V37.4H54.2V47H63.8V50.2H54.2V59.8H63.8V63H51ZM63.8 59.8V50.2H67V59.8H63.8ZM63.8 47V37.4H67V47H63.8ZM70.1875 59.8V43.8H73.3875V59.8H70.1875ZM82.9875 59.8V43.8H86.1875V63H73.3875V59.8H82.9875ZM89.375 47V43.8H92.575V37.4H95.775V43.8H102.175V47H95.775V59.8H92.575V47H89.375ZM95.775 59.8H102.175V63H95.775V59.8ZM118.188 56.6V43.8H121.388V56.6H118.188ZM121.388 56.6H124.588V63H121.388V56.6ZM124.588 56.6V47H127.788V56.6H124.588ZM127.788 56.6H130.988V63H127.788V56.6ZM130.988 56.6V43.8H134.188V56.6H130.988ZM137.375 63V34.2H140.575V43.8H150.175V47H140.575V63H137.375ZM150.175 63V47H153.375V63H150.175ZM156.562 59.8V47H159.763V59.8H156.562ZM169.363 59.8V63H159.763V59.8H169.363ZM169.363 47H172.562V59.8H169.363V47ZM169.363 43.8V47H159.763V43.8H169.363ZM178.95 63V59.8H182.15V63H178.95ZM191.763 63V59.8H194.963V63H191.763ZM204.575 63V59.8H207.775V63H204.575ZM214.188 37.4V34.2H223.788V37.4H214.188ZM217.388 56.6H220.588V63H217.388V56.6ZM217.388 47H220.588V53.4H217.388V47ZM220.588 47V43.8H223.788V47H220.588ZM223.788 43.8V37.4H226.988V43.8H223.788Z" fill="white"/>
<defs>
<filter id="filter0_d_384_778" x="0" y="0" width="915" height="246" filterUnits="userSpaceOnUse" color-interpolation-filters="sRGB">
<feFlood flood-opacity="0" result="BackgroundImageFix"/>
<feColorMatrix in="SourceAlpha" type="matrix" values="0 0 0 0 0 0 0 0 0 0 0 0 0 0 0 0 0 0 127 0" result="hardAlpha"/>
<feOffset dy="4"/>
<feGaussianBlur stdDeviation="2"/>
<feComposite in2="hardAlpha" operator="out"/>
<feColorMatrix type="matrix" values="0 0 0 0 0 0 0 0 0 0 0 0 0 0 0 0 0 0 0.25 0"/>
<feBlend mode="normal" in2="BackgroundImageFix" result="effect1_dropShadow_384_778"/>
<feBlend mode="normal" in="SourceGraphic" in2="effect1_dropShadow_384_778" result="shape"/>
</filter>
</defs>
</svg>
