<svg width="915" height="246" viewBox="0 0 915 246" fill="none" xmlns="http://www.w3.org/2000/svg">
<g filter="url(#filter0_d_384_728)">
<rect x="4" width="907" height="238" fill="black"/>
<rect x="7" y="3" width="901" height="232" stroke="white" stroke-width="6"/>
</g>
<path d="M51 37.4V34.2H67V37.4H60.6V63H57.4V37.4H51ZM70.1875 63V34.2H73.3875V43.8H82.9875V47H73.3875V63H70.1875ZM82.9875 63V47H86.1875V63H82.9875ZM89.375 59.8V47H92.575V50.2H102.175V47H105.375V53.4H92.575V59.8H89.375ZM92.575 59.8H105.375V63H92.575V59.8ZM92.575 47V43.8H102.175V47H92.575ZM108.562 63V43.8H121.363V47H111.763V63H108.562ZM121.363 63V47H124.562V63H121.363ZM140.562 56.6V43.8H143.763V56.6H140.562ZM143.763 56.6H146.963V63H143.763V56.6ZM146.963 56.6V47H150.163V56.6H146.963ZM150.163 56.6H153.363V63H150.163V56.6ZM153.363 56.6V43.8H156.562V56.6H153.363ZM159.75 59.8V47H162.95V50.2H172.55V47H175.75V53.4H162.95V59.8H159.75ZM162.95 59.8H175.75V63H162.95V59.8ZM162.95 47V43.8H172.55V47H162.95ZM191.75 59.8V47H194.95V59.8H191.75ZM194.95 59.8H207.75V63H194.95V59.8ZM194.95 47V43.8H207.75V47H194.95ZM210.938 59.8V53.4H214.138V59.8H210.938ZM210.938 47V43.8H223.738V47H210.938ZM214.138 59.8H223.738V53.4H214.138V50.2H223.738V47H226.938V63H214.138V59.8ZM230.125 63V43.8H242.925V47H233.325V63H230.125ZM242.925 63V47H246.125V63H242.925ZM262.125 59.8V47H265.325V59.8H262.125ZM274.925 59.8V47H265.325V43.8H274.925V34.2H278.125V63H265.325V59.8H274.925ZM281.312 59.8V47H284.513V59.8H281.312ZM294.113 59.8V63H284.513V59.8H294.113ZM294.113 47H297.312V59.8H294.113V47ZM294.113 43.8V47H284.513V43.8H294.113ZM313.312 59.8V47H316.513V50.2H326.113V47H329.312V53.4H316.513V59.8H313.312ZM316.513 59.8H329.312V63H316.513V59.8ZM316.513 47V43.8H326.113V47H316.513ZM332.5 50.2V43.8H335.7V50.2H332.5ZM335.7 56.6V50.2H338.9V56.6H335.7ZM338.9 56.6H342.1V63H338.9V56.6ZM342.1 56.6V50.2H345.3V56.6H342.1ZM345.3 50.2V43.8H348.5V50.2H345.3ZM351.688 59.8V47H354.888V50.2H364.488V47H367.688V53.4H354.888V59.8H351.688ZM354.888 59.8H367.688V63H354.888V59.8ZM354.888 47V43.8H364.488V47H354.888ZM370.875 63V43.8H374.075V47H377.275V50.2H374.075V63H370.875ZM383.675 47H377.275V43.8H383.675V47ZM386.875 66.2V63H393.275V66.2H386.875ZM386.875 50.2V43.8H390.075V50.2H386.875ZM390.075 56.6V50.2H393.275V56.6H390.075ZM393.275 56.6H396.475V63H393.275V56.6ZM396.475 56.6V50.2H399.675V56.6H396.475ZM399.675 50.2V43.8H402.875V50.2H399.675ZM406.062 47V43.8H409.263V37.4H412.463V43.8H418.863V47H412.463V59.8H409.263V47H406.062ZM412.463 59.8H418.863V63H412.463V59.8ZM422.062 63V34.2H425.263V43.8H434.863V47H425.263V63H422.062ZM434.863 63V47H438.062V63H434.863ZM441.25 63V43.8H444.45V63H441.25ZM441.25 40.6V37.4H444.45V40.6H441.25ZM447.656 63V43.8H460.456V47H450.856V63H447.656ZM460.456 63V47H463.656V63H460.456ZM466.844 66.2V63H479.644V66.2H466.844ZM466.844 56.6V47H470.044V56.6H466.844ZM470.044 56.6H479.644V47H470.044V43.8H482.844V63H479.644V59.8H470.044V56.6ZM498.844 63V50.2H502.044V40.6H505.244V50.2H508.444V40.6H511.644V50.2H514.844V63H511.644V53.4H502.044V63H498.844ZM505.244 40.6V34.2H508.444V40.6H505.244ZM518.031 63V34.2H521.231V59.8H530.831V63H518.031ZM534.031 63V34.2H537.231V59.8H546.831V63H534.031ZM562.844 59.8V47H566.044V59.8H562.844ZM575.644 59.8V63H566.044V59.8H575.644ZM575.644 47H578.844V59.8H575.644V47ZM575.644 43.8V47H566.044V43.8H575.644ZM582.031 50.2V43.8H585.231V50.2H582.031ZM585.231 56.6V50.2H588.431V56.6H585.231ZM588.431 56.6H591.631V63H588.431V56.6ZM591.631 56.6V50.2H594.831V56.6H591.631ZM594.831 50.2V43.8H598.031V50.2H594.831ZM601.219 59.8V47H604.419V50.2H614.019V47H617.219V53.4H604.419V59.8H601.219ZM604.419 59.8H617.219V63H604.419V59.8ZM604.419 47V43.8H614.019V47H604.419ZM620.406 63V43.8H623.606V47H626.806V50.2H623.606V63H620.406ZM633.206 47H626.806V43.8H633.206V47ZM649.219 59.8V53.4H652.419V59.8H649.219ZM649.219 47V43.8H662.019V47H649.219ZM652.419 59.8H662.019V53.4H652.419V50.2H662.019V47H665.219V63H652.419V59.8ZM668.406 66.2V63H681.206V66.2H668.406ZM668.406 56.6V47H671.606V56.6H668.406ZM671.606 56.6H681.206V47H671.606V43.8H684.406V63H681.206V59.8H671.606V56.6ZM687.594 59.8V53.4H690.794V59.8H687.594ZM687.594 47V43.8H700.394V47H687.594ZM690.794 59.8H700.394V53.4H690.794V50.2H700.394V47H703.594V63H690.794V59.8ZM706.781 63V43.8H709.981V63H706.781ZM706.781 40.6V37.4H709.981V40.6H706.781ZM713.188 63V43.8H725.988V47H716.388V63H713.188ZM725.988 63V47H729.188V63H725.988ZM735.575 63V59.8H738.775V63H735.575Z" fill="white"/>
<defs>
<filter id="filter0_d_384_728" x="0" y="0" width="915" height="246" filterUnits="userSpaceOnUse" color-interpolation-filters="sRGB">
<feFlood flood-opacity="0" result="BackgroundImageFix"/>
<feColorMatrix in="SourceAlpha" type="matrix" values="0 0 0 0 0 0 0 0 0 0 0 0 0 0 0 0 0 0 127 0" result="hardAlpha"/>
<feOffset dy="4"/>
<feGaussianBlur stdDeviation="2"/>
<feComposite in2="hardAlpha" operator="out"/>
<feColorMatrix type="matrix" values="0 0 0 0 0 0 0 0 0 0 0 0 0 0 0 0 0 0 0.25 0"/>
<feBlend mode="normal" in2="BackgroundImageFix" result="effect1_dropShadow_384_728"/>
<feBlend mode="normal" in="SourceGraphic" in2="effect1_dropShadow_384_728" result="shape"/>
</filter>
</defs>
</svg>
