<svg width="915" height="246" viewBox="0 0 915 246" fill="none" xmlns="http://www.w3.org/2000/svg">
<g filter="url(#filter0_d_384_736)">
<rect x="4" width="907" height="238" fill="black"/>
<rect x="7" y="3" width="901" height="232" stroke="white" stroke-width="6"/>
</g>
<path d="M51 63V34.2H54.2V63H51ZM57.4062 63V59.8H67.0063V63H57.4062ZM57.4062 50.2V47H60.6063V50.2H57.4062ZM60.6063 47V43.8H70.2063V47H60.6063ZM60.6063 50.2H67.0063V53.4H60.6063V50.2ZM67.0063 59.8V53.4H70.2063V59.8H67.0063ZM73.4062 63V43.8H86.2063V47H76.6063V63H73.4062ZM86.2063 63V47H89.4062V63H86.2063ZM92.5938 40.6V34.2H95.7938V40.6H92.5938ZM99 47V43.8H102.2V37.4H105.4V43.8H111.8V47H105.4V59.8H102.2V47H99ZM105.4 59.8H111.8V63H105.4V59.8ZM127.812 47V43.8H131.013V37.4H134.213V43.8H140.613V47H134.213V59.8H131.013V47H127.812ZM134.213 59.8H140.613V63H134.213V59.8ZM143.812 63V34.2H147.013V43.8H156.613V47H147.013V63H143.812ZM156.613 63V47H159.812V63H156.613ZM163 59.8V53.4H166.2V59.8H163ZM163 47V43.8H175.8V47H163ZM166.2 59.8H175.8V53.4H166.2V50.2H175.8V47H179V63H166.2V59.8ZM182.188 47V43.8H185.388V37.4H188.588V43.8H194.988V47H188.588V59.8H185.388V47H182.188ZM188.588 59.8H194.988V63H188.588V59.8ZM211 59.8V47H214.2V59.8H211ZM223.8 59.8V47H214.2V43.8H223.8V34.2H227V63H214.2V59.8H223.8ZM230.188 59.8V47H233.388V50.2H242.988V47H246.188V53.4H233.388V59.8H230.188ZM233.388 59.8H246.188V63H233.388V59.8ZM233.388 47V43.8H242.988V47H233.388ZM249.375 59.8V34.2H252.575V59.8H249.375ZM252.575 59.8H255.775V63H252.575V59.8ZM258.969 63V43.8H262.169V63H258.969ZM258.969 40.6V37.4H262.169V40.6H258.969ZM265.375 59.8V47H268.575V59.8H265.375ZM268.575 59.8H281.375V63H268.575V59.8ZM268.575 47V43.8H281.375V47H268.575ZM284.562 63V43.8H287.763V63H284.562ZM284.562 40.6V37.4H287.763V40.6H284.562ZM290.969 59.8V47H294.169V59.8H290.969ZM303.769 59.8V63H294.169V59.8H303.769ZM303.769 47H306.969V59.8H303.769V47ZM303.769 43.8V47H294.169V43.8H303.769ZM310.156 59.8V43.8H313.356V59.8H310.156ZM322.956 59.8V43.8H326.156V63H313.356V59.8H322.956ZM329.344 63V59.8H338.944V63H329.344ZM329.344 50.2V47H332.544V50.2H329.344ZM332.544 47V43.8H342.144V47H332.544ZM332.544 50.2H338.944V53.4H332.544V50.2ZM338.944 59.8V53.4H342.144V59.8H338.944ZM345.344 37.4V34.2H354.944V37.4H345.344ZM348.544 56.6H351.744V63H348.544V56.6ZM348.544 47H351.744V53.4H348.544V47ZM351.744 47V43.8H354.944V47H351.744ZM354.944 43.8V37.4H358.144V43.8H354.944ZM51 82.6V76.2H54.2V82.6H51ZM54.2 89V82.6H57.4V89H54.2ZM57.4 105V89H60.6V105H57.4ZM60.6 89V82.6H63.8V89H60.6ZM63.8 82.6V76.2H67V82.6H63.8ZM67 101.8V89H70.2V101.8H67ZM79.8 101.8V105H70.2V101.8H79.8ZM79.8 89H83V101.8H79.8V89ZM79.8 85.8V89H70.2V85.8H79.8ZM86.1875 101.8V85.8H89.3875V101.8H86.1875ZM98.9875 101.8V85.8H102.188V105H89.3875V101.8H98.9875ZM105.375 105V85.8H108.575V89H111.775V92.2H108.575V105H105.375ZM118.175 89H111.775V85.8H118.175V89ZM134.188 82.6V76.2H137.388V82.6H134.188ZM140.588 82.6V76.2H143.788V82.6H140.588ZM147 101.8V89H150.2V101.8H147ZM159.8 101.8V89H150.2V85.8H159.8V76.2H163V105H150.2V101.8H159.8ZM166.188 101.8V89H169.388V92.2H178.988V89H182.188V95.4H169.388V101.8H166.188ZM169.388 101.8H182.188V105H169.388V101.8ZM169.388 89V85.8H178.988V89H169.388ZM185.375 89V85.8H188.575V79.4H191.775V85.8H198.175V89H191.775V101.8H188.575V89H185.375ZM191.775 101.8H198.175V105H191.775V101.8ZM201.375 101.8V89H204.575V92.2H214.175V89H217.375V95.4H204.575V101.8H201.375ZM204.575 101.8H217.375V105H204.575V101.8ZM204.575 89V85.8H214.175V89H204.575ZM220.562 105V85.8H223.763V89H226.963V92.2H223.763V105H220.562ZM233.363 89H226.963V85.8H233.363V89ZM236.562 105V85.8H255.763V89H249.363V105H246.163V89H239.763V105H236.562ZM255.763 105V89H258.963V105H255.763ZM262.156 105V85.8H265.356V105H262.156ZM262.156 82.6V79.4H265.356V82.6H262.156ZM268.562 105V85.8H281.363V89H271.763V105H268.562ZM281.363 105V89H284.562V105H281.363ZM287.75 101.8V95.4H290.95V101.8H287.75ZM287.75 89V85.8H300.55V89H287.75ZM290.95 101.8H300.55V95.4H290.95V92.2H300.55V89H303.75V105H290.95V101.8ZM306.938 89V85.8H310.138V79.4H313.338V85.8H319.738V89H313.338V101.8H310.138V89H306.938ZM313.338 101.8H319.738V105H313.338V101.8ZM322.938 105V85.8H326.138V105H322.938ZM322.938 82.6V79.4H326.138V82.6H322.938ZM329.344 101.8V89H332.544V101.8H329.344ZM342.144 101.8V105H332.544V101.8H342.144ZM342.144 89H345.344V101.8H342.144V89ZM342.144 85.8V89H332.544V85.8H342.144ZM348.531 105V85.8H361.331V89H351.731V105H348.531ZM361.331 105V89H364.531V105H361.331ZM370.919 105V101.8H374.119V105H370.919ZM377.344 82.6V76.2H380.544V82.6H377.344ZM383.744 82.6V76.2H386.944V82.6H383.744ZM402.969 79.4V76.2H418.969V79.4H412.569V105H409.369V79.4H402.969ZM422.156 105V76.2H425.356V85.8H434.956V89H425.356V105H422.156ZM434.956 105V89H438.156V105H434.956ZM441.344 101.8V89H444.544V92.2H454.144V89H457.344V95.4H444.544V101.8H441.344ZM444.544 101.8H457.344V105H444.544V101.8ZM444.544 89V85.8H454.144V89H444.544ZM473.344 108.2V85.8H486.144V89H476.544V98.6H486.144V101.8H476.544V108.2H473.344ZM486.144 98.6V89H489.344V98.6H486.144ZM492.531 101.8V89H495.731V101.8H492.531ZM505.331 101.8V105H495.731V101.8H505.331ZM505.331 89H508.531V101.8H505.331V89ZM505.331 85.8V89H495.731V85.8H505.331ZM511.719 98.6V85.8H514.919V98.6H511.719ZM514.919 98.6H518.119V105H514.919V98.6ZM518.119 98.6V89H521.319V98.6H518.119ZM521.319 98.6H524.519V105H521.319V98.6ZM524.519 98.6V85.8H527.719V98.6H524.519ZM530.906 101.8V89H534.106V92.2H543.706V89H546.906V95.4H534.106V101.8H530.906ZM534.106 101.8H546.906V105H534.106V101.8ZM534.106 89V85.8H543.706V89H534.106ZM550.094 105V85.8H553.294V89H556.494V92.2H553.294V105H550.094ZM562.894 89H556.494V85.8H562.894V89ZM578.906 89V85.8H582.106V79.4H585.306V85.8H591.706V89H585.306V101.8H582.106V89H578.906ZM585.306 101.8H591.706V105H585.306V101.8ZM594.906 105V76.2H598.106V85.8H607.706V89H598.106V105H594.906ZM607.706 105V89H610.906V105H607.706ZM614.094 101.8V95.4H617.294V101.8H614.094ZM614.094 89V85.8H626.894V89H614.094ZM617.294 101.8H626.894V95.4H617.294V92.2H626.894V89H630.094V105H617.294V101.8ZM633.281 89V85.8H636.481V79.4H639.681V85.8H646.081V89H639.681V101.8H636.481V89H633.281ZM639.681 101.8H646.081V105H639.681V101.8ZM662.094 101.8V76.2H665.294V101.8H662.094ZM665.294 101.8H668.494V105H665.294V101.8ZM671.688 101.8V89H674.888V92.2H684.488V89H687.688V95.4H674.888V101.8H671.688ZM674.888 101.8H687.688V105H674.888V101.8ZM674.888 89V85.8H684.488V89H674.888ZM690.875 89V85.8H694.075V79.4H697.275V85.8H703.675V89H697.275V101.8H694.075V89H690.875ZM697.275 101.8H703.675V105H697.275V101.8ZM719.688 108.2V105H726.088V108.2H719.688ZM719.688 92.2V85.8H722.888V92.2H719.688ZM722.888 98.6V92.2H726.088V98.6H722.888ZM726.088 98.6H729.288V105H726.088V98.6ZM729.288 98.6V92.2H732.488V98.6H729.288ZM732.488 92.2V85.8H735.688V92.2H732.488ZM738.875 101.8V89H742.075V101.8H738.875ZM751.675 101.8V105H742.075V101.8H751.675ZM751.675 89H754.875V101.8H751.675V89ZM751.675 85.8V89H742.075V85.8H751.675ZM758.062 101.8V85.8H761.263V101.8H758.062ZM770.863 101.8V85.8H774.062V105H761.263V101.8H770.863ZM790.062 108.2V105H802.863V108.2H790.062ZM790.062 98.6V89H793.263V98.6H790.062ZM793.263 98.6H802.863V89H793.263V85.8H806.062V105H802.863V101.8H793.263V98.6ZM809.25 101.8V89H812.45V92.2H822.05V89H825.25V95.4H812.45V101.8H809.25ZM812.45 101.8H825.25V105H812.45V101.8ZM812.45 89V85.8H822.05V89H812.45ZM828.438 89V85.8H831.638V79.4H834.838V85.8H841.238V89H834.838V101.8H831.638V89H828.438ZM834.838 101.8H841.238V105H834.838V101.8ZM51 131V127.8H54.2V121.4H57.4V127.8H63.8V131H57.4V143.8H54.2V131H51ZM57.4 143.8H63.8V147H57.4V143.8ZM67 147V118.2H70.2V127.8H79.8V131H70.2V147H67ZM79.8 147V131H83V147H79.8ZM86.1875 147V127.8H89.3875V147H86.1875ZM86.1875 124.6V121.4H89.3875V124.6H86.1875ZM92.5938 147V143.8H102.194V147H92.5938ZM92.5938 134.2V131H95.7938V134.2H92.5938ZM95.7938 131V127.8H105.394V131H95.7938ZM95.7938 134.2H102.194V137.4H95.7938V134.2ZM102.194 143.8V137.4H105.394V143.8H102.194ZM121.406 131V127.8H124.606V121.4H127.806V127.8H134.206V131H127.806V147H124.606V131H121.406ZM127.806 121.4V118.2H134.206V121.4H127.806ZM137.406 143.8V137.4H140.606V143.8H137.406ZM137.406 131V127.8H150.206V131H137.406ZM140.606 143.8H150.206V137.4H140.606V134.2H150.206V131H153.406V147H140.606V143.8ZM156.594 147V127.8H159.794V131H162.994V134.2H159.794V147H156.594ZM169.394 131H162.994V127.8H169.394V131ZM172.606 147V143.8H175.806V147H172.606ZM185.419 147V143.8H188.619V147H185.419ZM198.231 147V143.8H201.431V147H198.231ZM51 189V160.2H54.2V189H51ZM57.4062 173V169.8H60.6063V163.4H63.8063V169.8H70.2063V173H63.8063V185.8H60.6063V173H57.4062ZM63.8063 185.8H70.2063V189H63.8063V185.8ZM73.4062 166.6V160.2H76.6063V166.6H73.4062ZM79.8125 189V185.8H89.4125V189H79.8125ZM79.8125 176.2V173H83.0125V176.2H79.8125ZM83.0125 173V169.8H92.6125V173H83.0125ZM83.0125 176.2H89.4125V179.4H83.0125V176.2ZM89.4125 185.8V179.4H92.6125V185.8H89.4125ZM108.625 192.2V189H121.425V192.2H108.625ZM108.625 182.6V173H111.825V182.6H108.625ZM111.825 182.6H121.425V173H111.825V169.8H124.625V189H121.425V185.8H111.825V182.6ZM127.812 185.8V173H131.013V185.8H127.812ZM140.613 185.8V189H131.013V185.8H140.613ZM140.613 173H143.812V185.8H140.613V173ZM140.613 169.8V173H131.013V169.8H140.613ZM147 189V169.8H159.8V173H150.2V189H147ZM159.8 189V173H163V189H159.8ZM166.188 189V169.8H178.988V173H169.388V189H166.188ZM178.988 189V173H182.188V189H178.988ZM185.375 185.8V179.4H188.575V185.8H185.375ZM185.375 173V169.8H198.175V173H185.375ZM188.575 185.8H198.175V179.4H188.575V176.2H198.175V173H201.375V189H188.575V185.8ZM217.375 189V160.2H220.575V169.8H230.175V173H220.575V185.8H230.175V189H217.375ZM230.175 185.8V173H233.375V185.8H230.175ZM236.562 185.8V173H239.763V176.2H249.363V173H252.562V179.4H239.763V185.8H236.562ZM239.763 185.8H252.562V189H239.763V185.8ZM239.763 173V169.8H249.363V173H239.763ZM268.562 192.2V189H274.963V192.2H268.562ZM268.562 176.2V169.8H271.763V176.2H268.562ZM271.763 182.6V176.2H274.963V182.6H271.763ZM274.963 182.6H278.163V189H274.963V182.6ZM278.163 182.6V176.2H281.363V182.6H278.163ZM281.363 176.2V169.8H284.562V176.2H281.363ZM287.75 185.8V173H290.95V185.8H287.75ZM300.55 185.8V189H290.95V185.8H300.55ZM300.55 173H303.75V185.8H300.55V173ZM300.55 169.8V173H290.95V169.8H300.55ZM306.938 185.8V169.8H310.138V185.8H306.938ZM319.738 185.8V169.8H322.938V189H310.138V185.8H319.738ZM326.125 189V169.8H329.325V173H332.525V176.2H329.325V189H326.125ZM338.925 173H332.525V169.8H338.925V173ZM354.938 185.8V173H358.138V185.8H354.938ZM367.738 185.8V173H358.138V169.8H367.738V160.2H370.938V189H358.138V185.8H367.738ZM374.125 185.8V173H377.325V185.8H374.125ZM386.925 185.8V189H377.325V185.8H386.925ZM386.925 173H390.125V185.8H386.925V173ZM386.925 169.8V173H377.325V169.8H386.925ZM393.312 182.6V169.8H396.513V182.6H393.312ZM396.513 182.6H399.713V189H396.513V182.6ZM399.713 182.6V173H402.913V182.6H399.713ZM402.913 182.6H406.113V189H402.913V182.6ZM406.113 182.6V169.8H409.312V182.6H406.113ZM412.5 189V169.8H425.3V173H415.7V189H412.5ZM425.3 189V173H428.5V189H425.3ZM431.688 173V169.8H434.888V163.4H438.088V169.8H444.488V173H438.088V189H434.888V173H431.688ZM438.088 163.4V160.2H444.488V163.4H438.088ZM447.688 185.8V179.4H450.888V185.8H447.688ZM447.688 173V169.8H460.488V173H447.688ZM450.888 185.8H460.488V179.4H450.888V176.2H460.488V173H463.688V189H450.888V185.8ZM466.875 185.8V160.2H470.075V185.8H466.875ZM470.075 185.8H473.275V189H470.075V185.8ZM476.469 185.8V160.2H479.669V185.8H476.469ZM479.669 185.8H482.869V189H479.669V185.8ZM489.263 182.6H492.463V189H489.263V182.6ZM489.263 179.4V160.2H492.463V179.4H489.263Z" fill="white"/>
<defs>
<filter id="filter0_d_384_736" x="0" y="0" width="915" height="246" filterUnits="userSpaceOnUse" color-interpolation-filters="sRGB">
<feFlood flood-opacity="0" result="BackgroundImageFix"/>
<feColorMatrix in="SourceAlpha" type="matrix" values="0 0 0 0 0 0 0 0 0 0 0 0 0 0 0 0 0 0 127 0" result="hardAlpha"/>
<feOffset dy="4"/>
<feGaussianBlur stdDeviation="2"/>
<feComposite in2="hardAlpha" operator="out"/>
<feColorMatrix type="matrix" values="0 0 0 0 0 0 0 0 0 0 0 0 0 0 0 0 0 0 0.25 0"/>
<feBlend mode="normal" in2="BackgroundImageFix" result="effect1_dropShadow_384_736"/>
<feBlend mode="normal" in="SourceGraphic" in2="effect1_dropShadow_384_736" result="shape"/>
</filter>
</defs>
</svg>
