<svg width="915" height="246" viewBox="0 0 915 246" fill="none" xmlns="http://www.w3.org/2000/svg">
<g filter="url(#filter0_d_384_777)">
<rect x="4" width="907" height="238" fill="black"/>
<rect x="7" y="3" width="901" height="232" stroke="white" stroke-width="6"/>
</g>
<path d="M51 63V34.2H54.2V63H51ZM57.4062 47V43.8H60.6063V37.4H63.8063V43.8H70.2063V47H63.8063V59.8H60.6063V47H57.4062ZM63.8063 59.8H70.2063V63H63.8063V59.8ZM86.2188 63V59.8H95.8188V63H86.2188ZM86.2188 50.2V47H89.4188V50.2H86.2188ZM89.4188 47V43.8H99.0188V47H89.4188ZM89.4188 50.2H95.8188V53.4H89.4188V50.2ZM95.8188 59.8V53.4H99.0188V59.8H95.8188ZM102.219 59.8V47H105.419V50.2H115.019V47H118.219V53.4H105.419V59.8H102.219ZM105.419 59.8H118.219V63H105.419V59.8ZM105.419 47V43.8H115.019V47H105.419ZM121.406 59.8V47H124.606V50.2H134.206V47H137.406V53.4H124.606V59.8H121.406ZM124.606 59.8H137.406V63H124.606V59.8ZM124.606 47V43.8H134.206V47H124.606ZM140.594 63V43.8H159.794V47H153.394V63H150.194V47H143.794V63H140.594ZM159.794 63V47H162.994V63H159.794ZM166.188 63V59.8H175.788V63H166.188ZM166.188 50.2V47H169.388V50.2H166.188ZM169.388 47V43.8H178.988V47H169.388ZM169.388 50.2H175.788V53.4H169.388V50.2ZM175.788 59.8V53.4H178.988V59.8H175.788ZM195 47V43.8H198.2V37.4H201.4V43.8H207.8V47H201.4V59.8H198.2V47H195ZM201.4 59.8H207.8V63H201.4V59.8ZM211 63V34.2H214.2V43.8H223.8V47H214.2V63H211ZM223.8 63V47H227V63H223.8ZM230.188 59.8V53.4H233.388V59.8H230.188ZM230.188 47V43.8H242.988V47H230.188ZM233.388 59.8H242.988V53.4H233.388V50.2H242.988V47H246.188V63H233.388V59.8ZM249.375 47V43.8H252.575V37.4H255.775V43.8H262.175V47H255.775V59.8H252.575V47H249.375ZM255.775 59.8H262.175V63H255.775V59.8ZM278.188 47V43.8H281.388V37.4H284.588V43.8H290.988V47H284.588V59.8H281.388V47H278.188ZM284.588 59.8H290.988V63H284.588V59.8ZM294.188 63V34.2H297.388V43.8H306.988V47H297.388V63H294.188ZM306.988 63V47H310.188V63H306.988ZM313.375 59.8V47H316.575V50.2H326.175V47H329.375V53.4H316.575V59.8H313.375ZM316.575 59.8H329.375V63H316.575V59.8ZM316.575 47V43.8H326.175V47H316.575ZM332.562 63V43.8H335.763V47H338.963V50.2H335.763V63H332.562ZM345.363 47H338.963V43.8H345.363V47ZM348.562 59.8V47H351.763V50.2H361.363V47H364.562V53.4H351.763V59.8H348.562ZM351.763 59.8H364.562V63H351.763V59.8ZM351.763 47V43.8H361.363V47H351.763ZM367.75 40.6V34.2H370.95V40.6H367.75ZM374.156 63V59.8H383.756V63H374.156ZM374.156 50.2V47H377.356V50.2H374.156ZM377.356 47V43.8H386.956V47H377.356ZM377.356 50.2H383.756V53.4H377.356V50.2ZM383.756 59.8V53.4H386.956V59.8H383.756ZM402.969 63V59.8H412.569V63H402.969ZM402.969 50.2V47H406.169V50.2H402.969ZM406.169 47V43.8H415.769V47H406.169ZM406.169 50.2H412.569V53.4H406.169V50.2ZM412.569 59.8V53.4H415.769V59.8H412.569ZM418.969 47V43.8H422.169V37.4H425.369V43.8H431.769V47H425.369V59.8H422.169V47H418.969ZM425.369 59.8H431.769V63H425.369V59.8ZM434.969 63V43.8H438.169V63H434.969ZM434.969 40.6V37.4H438.169V40.6H434.969ZM441.375 59.8V34.2H444.575V59.8H441.375ZM444.575 59.8H447.775V63H444.575V59.8ZM450.969 59.8V34.2H454.169V59.8H450.969ZM454.169 59.8H457.369V63H454.169V59.8ZM473.375 59.8V47H476.575V59.8H473.375ZM486.175 59.8V63H476.575V59.8H486.175ZM486.175 47H489.375V59.8H486.175V47ZM486.175 43.8V47H476.575V43.8H486.175ZM492.562 63V43.8H505.363V47H495.763V63H492.562ZM505.363 63V47H508.562V63H505.363ZM511.75 59.8V47H514.95V50.2H524.55V47H527.75V53.4H514.95V59.8H511.75ZM514.95 59.8H527.75V63H514.95V59.8ZM514.95 47V43.8H524.55V47H514.95ZM543.75 59.8V34.2H546.95V59.8H543.75ZM546.95 59.8H550.15V63H546.95V59.8ZM553.344 59.8V53.4H556.544V59.8H553.344ZM553.344 47V43.8H566.144V47H553.344ZM556.544 59.8H566.144V53.4H556.544V50.2H566.144V47H569.344V63H556.544V59.8ZM572.531 63V59.8H582.131V63H572.531ZM572.531 50.2V47H575.731V50.2H572.531ZM575.731 47V43.8H585.331V47H575.731ZM575.731 50.2H582.131V53.4H575.731V50.2ZM582.131 59.8V53.4H585.331V59.8H582.131ZM588.531 47V43.8H591.731V37.4H594.931V43.8H601.331V47H594.931V59.8H591.731V47H588.531ZM594.931 59.8H601.331V63H594.931V59.8ZM617.344 66.2V43.8H630.144V47H620.544V56.6H630.144V59.8H620.544V66.2H617.344ZM630.144 56.6V47H633.344V56.6H630.144ZM636.531 59.8V47H639.731V50.2H649.331V47H652.531V53.4H639.731V59.8H636.531ZM639.731 59.8H652.531V63H639.731V59.8ZM639.731 47V43.8H649.331V47H639.731ZM655.719 63V43.8H658.919V47H662.119V50.2H658.919V63H655.719ZM668.519 47H662.119V43.8H668.519V47ZM671.719 63V59.8H681.319V63H671.719ZM671.719 50.2V47H674.919V50.2H671.719ZM674.919 47V43.8H684.519V47H674.919ZM674.919 50.2H681.319V53.4H674.919V50.2ZM681.319 59.8V53.4H684.519V59.8H681.319ZM687.719 59.8V47H690.919V59.8H687.719ZM700.519 59.8V63H690.919V59.8H700.519ZM700.519 47H703.719V59.8H700.519V47ZM700.519 43.8V47H690.919V43.8H700.519ZM706.906 63V43.8H719.706V47H710.106V63H706.906ZM719.706 63V47H722.906V63H719.706ZM738.906 47V43.8H742.106V37.4H745.306V43.8H751.706V47H745.306V59.8H742.106V47H738.906ZM745.306 59.8H751.706V63H745.306V59.8ZM754.906 63V34.2H758.106V43.8H767.706V47H758.106V63H754.906ZM767.706 63V47H770.906V63H767.706ZM774.094 59.8V53.4H777.294V59.8H774.094ZM774.094 47V43.8H786.894V47H774.094ZM777.294 59.8H786.894V53.4H777.294V50.2H786.894V47H790.094V63H777.294V59.8ZM793.281 47V43.8H796.481V37.4H799.681V43.8H806.081V47H799.681V59.8H796.481V47H793.281ZM799.681 59.8H806.081V63H799.681V59.8ZM51 105V85.8H63.8V89H54.2V105H51ZM63.8 105V89H67V105H63.8ZM70.1875 101.8V89H73.3875V92.2H82.9875V89H86.1875V95.4H73.3875V101.8H70.1875ZM73.3875 101.8H86.1875V105H73.3875V101.8ZM73.3875 89V85.8H82.9875V89H73.3875ZM89.375 101.8V89H92.575V92.2H102.175V89H105.375V95.4H92.575V101.8H89.375ZM92.575 101.8H105.375V105H92.575V101.8ZM92.575 89V85.8H102.175V89H92.575ZM108.562 101.8V89H111.763V101.8H108.562ZM121.363 101.8V89H111.763V85.8H121.363V76.2H124.562V105H111.763V101.8H121.363ZM127.75 105V101.8H137.35V105H127.75ZM127.75 92.2V89H130.95V92.2H127.75ZM130.95 89V85.8H140.55V89H130.95ZM130.95 92.2H137.35V95.4H130.95V92.2ZM137.35 101.8V95.4H140.55V101.8H137.35ZM156.562 89V85.8H159.763V79.4H162.963V85.8H169.363V89H162.963V101.8H159.763V89H156.562ZM162.963 101.8H169.363V105H162.963V101.8ZM172.562 101.8V89H175.763V101.8H172.562ZM185.363 101.8V105H175.763V101.8H185.363ZM185.363 89H188.562V101.8H185.363V89ZM185.363 85.8V89H175.763V85.8H185.363ZM204.562 105V76.2H207.763V85.8H217.363V89H207.763V101.8H217.363V105H204.562ZM217.363 101.8V89H220.562V101.8H217.363ZM223.75 101.8V89H226.95V92.2H236.55V89H239.75V95.4H226.95V101.8H223.75ZM226.95 101.8H239.75V105H226.95V101.8ZM226.95 89V85.8H236.55V89H226.95ZM255.75 105V101.8H265.35V105H255.75ZM255.75 92.2V89H258.95V92.2H255.75ZM258.95 89V85.8H268.55V89H258.95ZM258.95 92.2H265.35V95.4H258.95V92.2ZM265.35 101.8V95.4H268.55V101.8H265.35ZM271.75 101.8V95.4H274.95V101.8H271.75ZM271.75 89V85.8H284.55V89H271.75ZM274.95 101.8H284.55V95.4H274.95V92.2H284.55V89H287.75V105H274.95V101.8ZM290.938 92.2V85.8H294.138V92.2H290.938ZM294.138 98.6V92.2H297.338V98.6H294.138ZM297.338 98.6H300.538V105H297.338V98.6ZM300.538 98.6V92.2H303.738V98.6H300.538ZM303.738 92.2V85.8H306.938V92.2H303.738ZM310.125 101.8V89H313.325V92.2H322.925V89H326.125V95.4H313.325V101.8H310.125ZM313.325 101.8H326.125V105H313.325V101.8ZM313.325 89V85.8H322.925V89H313.325ZM329.312 101.8V89H332.513V101.8H329.312ZM342.113 101.8V89H332.513V85.8H342.113V76.2H345.312V105H332.513V101.8H342.113ZM351.7 105V101.8H354.9V105H351.7Z" fill="white"/>
<defs>
<filter id="filter0_d_384_777" x="0" y="0" width="915" height="246" filterUnits="userSpaceOnUse" color-interpolation-filters="sRGB">
<feFlood flood-opacity="0" result="BackgroundImageFix"/>
<feColorMatrix in="SourceAlpha" type="matrix" values="0 0 0 0 0 0 0 0 0 0 0 0 0 0 0 0 0 0 127 0" result="hardAlpha"/>
<feOffset dy="4"/>
<feGaussianBlur stdDeviation="2"/>
<feComposite in2="hardAlpha" operator="out"/>
<feColorMatrix type="matrix" values="0 0 0 0 0 0 0 0 0 0 0 0 0 0 0 0 0 0 0.25 0"/>
<feBlend mode="normal" in2="BackgroundImageFix" result="effect1_dropShadow_384_777"/>
<feBlend mode="normal" in="SourceGraphic" in2="effect1_dropShadow_384_777" result="shape"/>
</filter>
</defs>
</svg>
