<svg width="915" height="246" viewBox="0 0 915 246" fill="none" xmlns="http://www.w3.org/2000/svg">
<g filter="url(#filter0_d_384_729)">
<rect x="4" width="907" height="238" fill="black"/>
<rect x="7" y="3" width="901" height="232" stroke="white" stroke-width="6"/>
</g>
<path d="M51 63V50.2H54.2V40.6H57.4V50.2H60.6V40.6H63.8V50.2H67V63H63.8V53.4H54.2V63H51ZM57.4 40.6V34.2H60.6V40.6H57.4ZM70.1875 63V43.8H82.9875V47H73.3875V63H70.1875ZM82.9875 63V47H86.1875V63H82.9875ZM89.375 59.8V47H92.575V59.8H89.375ZM102.175 59.8V47H92.575V43.8H102.175V34.2H105.375V63H92.575V59.8H102.175ZM121.375 66.2V63H127.775V66.2H121.375ZM121.375 50.2V43.8H124.575V50.2H121.375ZM124.575 56.6V50.2H127.775V56.6H124.575ZM127.775 56.6H130.975V63H127.775V56.6ZM130.975 56.6V50.2H134.175V56.6H130.975ZM134.175 50.2V43.8H137.375V50.2H134.175ZM140.562 59.8V47H143.763V59.8H140.562ZM153.363 59.8V63H143.763V59.8H153.363ZM153.363 47H156.562V59.8H153.363V47ZM153.363 43.8V47H143.763V43.8H153.363ZM159.75 59.8V43.8H162.95V59.8H159.75ZM172.55 59.8V43.8H175.75V63H162.95V59.8H172.55ZM191.75 63V34.2H194.95V50.2H198.15V53.4H194.95V63H191.75ZM198.15 56.6V53.4H201.35V56.6H198.15ZM198.15 50.2V47H201.35V50.2H198.15ZM201.35 56.6H204.55V63H201.35V56.6ZM201.35 47V43.8H204.55V47H201.35ZM207.75 63V43.8H220.55V47H210.95V63H207.75ZM220.55 63V47H223.75V63H220.55ZM226.938 59.8V47H230.138V59.8H226.938ZM239.738 59.8V63H230.138V59.8H239.738ZM239.738 47H242.938V59.8H239.738V47ZM239.738 43.8V47H230.138V43.8H239.738ZM246.125 56.6V43.8H249.325V56.6H246.125ZM249.325 56.6H252.525V63H249.325V56.6ZM252.525 56.6V47H255.725V56.6H252.525ZM255.725 56.6H258.925V63H255.725V56.6ZM258.925 56.6V43.8H262.125V56.6H258.925ZM278.125 56.6V43.8H281.325V56.6H278.125ZM281.325 56.6H284.525V63H281.325V56.6ZM284.525 56.6V47H287.725V56.6H284.525ZM287.725 56.6H290.925V63H287.725V56.6ZM290.925 56.6V43.8H294.125V56.6H290.925ZM297.312 63V34.2H300.513V43.8H310.113V47H300.513V63H297.312ZM310.113 63V47H313.312V63H310.113ZM316.5 59.8V53.4H319.7V59.8H316.5ZM316.5 47V43.8H329.3V47H316.5ZM319.7 59.8H329.3V53.4H319.7V50.2H329.3V47H332.5V63H319.7V59.8ZM335.688 47V43.8H338.888V37.4H342.088V43.8H348.488V47H342.088V59.8H338.888V47H335.688ZM342.088 59.8H348.488V63H342.088V59.8ZM364.5 47V43.8H367.7V37.4H370.9V43.8H377.3V47H370.9V59.8H367.7V47H364.5ZM370.9 59.8H377.3V63H370.9V59.8ZM380.5 63V34.2H383.7V43.8H393.3V47H383.7V63H380.5ZM393.3 63V47H396.5V63H393.3ZM399.688 59.8V47H402.888V50.2H412.488V47H415.688V53.4H402.888V59.8H399.688ZM402.888 59.8H415.688V63H402.888V59.8ZM402.888 47V43.8H412.488V47H402.888ZM431.688 63V34.2H434.888V43.8H444.488V47H434.888V59.8H444.488V63H431.688ZM444.488 59.8V47H447.688V59.8H444.488ZM450.875 59.8V47H454.075V50.2H463.675V47H466.875V53.4H454.075V59.8H450.875ZM454.075 59.8H466.875V63H454.075V59.8ZM454.075 47V43.8H463.675V47H454.075ZM470.062 63V59.8H479.663V63H470.062ZM470.062 50.2V47H473.263V50.2H470.062ZM473.263 47V43.8H482.863V47H473.263ZM473.263 50.2H479.663V53.4H473.263V50.2ZM479.663 59.8V53.4H482.863V59.8H479.663ZM486.062 47V43.8H489.263V37.4H492.463V43.8H498.863V47H492.463V59.8H489.263V47H486.062ZM492.463 59.8H498.863V63H492.463V59.8ZM514.875 66.2V43.8H527.675V47H518.075V56.6H527.675V59.8H518.075V66.2H514.875ZM527.675 56.6V47H530.875V56.6H527.675ZM534.062 59.8V53.4H537.263V59.8H534.062ZM534.062 47V43.8H546.863V47H534.062ZM537.263 59.8H546.863V53.4H537.263V50.2H546.863V47H550.062V63H537.263V59.8ZM553.25 63V43.8H556.45V47H559.65V50.2H556.45V63H553.25ZM566.05 47H559.65V43.8H566.05V47ZM569.25 47V43.8H572.45V37.4H575.65V43.8H582.05V47H575.65V59.8H572.45V47H569.25ZM575.65 59.8H582.05V63H575.65V59.8ZM598.062 59.8V47H601.263V59.8H598.062ZM610.863 59.8V63H601.263V59.8H610.863ZM610.863 47H614.062V59.8H610.863V47ZM610.863 43.8V47H601.263V43.8H610.863ZM617.25 47V43.8H620.45V37.4H623.65V43.8H630.05V47H623.65V63H620.45V47H617.25ZM623.65 37.4V34.2H630.05V37.4H623.65ZM646.062 59.8V53.4H649.263V59.8H646.062ZM646.062 47V43.8H658.863V47H646.062ZM649.263 59.8H658.863V53.4H649.263V50.2H658.863V47H662.062V63H649.263V59.8ZM665.25 59.8V34.2H668.45V59.8H665.25ZM668.45 59.8H671.65V63H668.45V59.8ZM674.844 59.8V34.2H678.044V59.8H674.844ZM678.044 59.8H681.244V63H678.044V59.8ZM697.25 47V43.8H700.45V37.4H703.65V43.8H710.05V47H703.65V59.8H700.45V47H697.25ZM703.65 59.8H710.05V63H703.65V59.8ZM713.25 63V34.2H716.45V43.8H726.05V47H716.45V63H713.25ZM726.05 63V47H729.25V63H726.05ZM732.438 63V43.8H735.638V63H732.438ZM732.438 40.6V37.4H735.638V40.6H732.438ZM738.844 63V59.8H748.444V63H738.844ZM738.844 50.2V47H742.044V50.2H738.844ZM742.044 47V43.8H751.644V47H742.044ZM742.044 50.2H748.444V53.4H742.044V50.2ZM748.444 59.8V53.4H751.644V59.8H748.444ZM767.656 63V43.8H770.856V63H767.656ZM767.656 40.6V37.4H770.856V40.6H767.656ZM774.062 63V59.8H783.663V63H774.062ZM774.062 50.2V47H777.263V50.2H774.062ZM777.263 47V43.8H786.863V47H777.263ZM777.263 50.2H783.663V53.4H777.263V50.2ZM783.663 59.8V53.4H786.863V59.8H783.663ZM790.062 37.4V34.2H799.663V37.4H790.062ZM793.263 56.6H796.463V63H793.263V56.6ZM793.263 47H796.463V53.4H793.263V47ZM796.463 47V43.8H799.663V47H796.463ZM799.663 43.8V37.4H802.863V43.8H799.663ZM51 82.6V76.2H54.2V82.6H51ZM54.2 89V82.6H57.4V89H54.2ZM57.4 105V89H60.6V105H57.4ZM60.6 89V82.6H63.8V89H60.6ZM63.8 82.6V76.2H67V82.6H63.8ZM67 101.8V89H70.2V101.8H67ZM79.8 101.8V105H70.2V101.8H79.8ZM79.8 89H83V101.8H79.8V89ZM79.8 85.8V89H70.2V85.8H79.8ZM86.1875 101.8V85.8H89.3875V101.8H86.1875ZM98.9875 101.8V85.8H102.188V105H89.3875V101.8H98.9875ZM105.375 82.6V76.2H108.575V82.6H105.375ZM111.781 101.8V76.2H114.981V101.8H111.781ZM114.981 101.8H118.181V105H114.981V101.8ZM121.375 101.8V76.2H124.575V101.8H121.375ZM124.575 101.8H127.775V105H124.575V101.8ZM143.781 105V76.2H156.581V79.4H146.981V101.8H156.581V105H143.781ZM156.581 101.8V79.4H159.781V101.8H156.581ZM162.969 101.8V79.4H166.169V101.8H162.969ZM175.769 101.8V105H166.169V101.8H175.769ZM175.769 76.2V79.4H166.169V76.2H175.769ZM175.769 79.4H178.969V101.8H175.769V79.4ZM194.969 105V85.8H198.169V105H194.969ZM194.969 82.6V79.4H198.169V82.6H194.969ZM201.375 89V85.8H204.575V79.4H207.775V85.8H214.175V89H207.775V101.8H204.575V89H201.375ZM207.775 101.8H214.175V105H207.775V101.8ZM220.575 105V101.8H223.775V105H220.575Z" fill="white"/>
<defs>
<filter id="filter0_d_384_729" x="0" y="0" width="915" height="246" filterUnits="userSpaceOnUse" color-interpolation-filters="sRGB">
<feFlood flood-opacity="0" result="BackgroundImageFix"/>
<feColorMatrix in="SourceAlpha" type="matrix" values="0 0 0 0 0 0 0 0 0 0 0 0 0 0 0 0 0 0 127 0" result="hardAlpha"/>
<feOffset dy="4"/>
<feGaussianBlur stdDeviation="2"/>
<feComposite in2="hardAlpha" operator="out"/>
<feColorMatrix type="matrix" values="0 0 0 0 0 0 0 0 0 0 0 0 0 0 0 0 0 0 0.25 0"/>
<feBlend mode="normal" in2="BackgroundImageFix" result="effect1_dropShadow_384_729"/>
<feBlend mode="normal" in="SourceGraphic" in2="effect1_dropShadow_384_729" result="shape"/>
</filter>
</defs>
</svg>
