<svg width="915" height="246" viewBox="0 0 915 246" fill="none" xmlns="http://www.w3.org/2000/svg">
<g filter="url(#filter0_d_384_769)">
<rect x="4" width="907" height="238" fill="black"/>
<rect x="7" y="3" width="901" height="232" stroke="white" stroke-width="6"/>
</g>
<path d="M54.2 63V59.8H57.4V63H54.2ZM67.0125 63V59.8H70.2125V63H67.0125ZM79.825 63V59.8H83.025V63H79.825ZM89.4375 59.8V47H92.6375V50.2H102.238V47H105.438V53.4H92.6375V59.8H89.4375ZM92.6375 59.8H105.438V63H92.6375V59.8ZM92.6375 47V43.8H102.238V47H92.6375ZM108.625 50.2V43.8H111.825V50.2H108.625ZM111.825 56.6V50.2H115.025V56.6H111.825ZM115.025 56.6H118.225V63H115.025V56.6ZM118.225 56.6V50.2H121.425V56.6H118.225ZM121.425 50.2V43.8H124.625V50.2H121.425ZM127.812 59.8V47H131.013V50.2H140.613V47H143.812V53.4H131.013V59.8H127.812ZM131.013 59.8H143.812V63H131.013V59.8ZM131.013 47V43.8H140.613V47H131.013ZM147 63V43.8H159.8V47H150.2V63H147ZM159.8 63V47H163V63H159.8ZM179 59.8V53.4H182.2V59.8H179ZM179 47V43.8H191.8V47H179ZM182.2 59.8H191.8V53.4H182.2V50.2H191.8V47H195V63H182.2V59.8ZM198.188 47V43.8H201.388V37.4H204.588V43.8H210.988V47H204.588V63H201.388V47H198.188ZM204.588 37.4V34.2H210.988V37.4H204.588ZM211 47V43.8H214.2V37.4H217.4V43.8H223.8V47H217.4V59.8H214.2V47H211ZM217.4 59.8H223.8V63H217.4V59.8ZM227 59.8V47H230.2V50.2H239.8V47H243V53.4H230.2V59.8H227ZM230.2 59.8H243V63H230.2V59.8ZM230.2 47V43.8H239.8V47H230.2ZM246.188 63V43.8H249.388V47H252.588V50.2H249.388V63H246.188ZM258.988 47H252.588V43.8H258.988V47ZM275 47V43.8H278.2V37.4H281.4V43.8H287.8V47H281.4V59.8H278.2V47H275ZM281.4 59.8H287.8V63H281.4V59.8ZM291 63V34.2H294.2V43.8H303.8V47H294.2V63H291ZM303.8 63V47H307V63H303.8ZM310.188 59.8V53.4H313.388V59.8H310.188ZM310.188 47V43.8H322.988V47H310.188ZM313.388 59.8H322.988V53.4H313.388V50.2H322.988V47H326.188V63H313.388V59.8ZM329.375 47V43.8H332.575V37.4H335.775V43.8H342.175V47H335.775V59.8H332.575V47H329.375ZM335.775 59.8H342.175V63H335.775V59.8ZM358.188 59.8V53.4H361.388V59.8H358.188ZM358.188 47V43.8H370.988V47H358.188ZM361.388 59.8H370.988V53.4H361.388V50.2H370.988V47H374.188V63H361.388V59.8ZM377.375 47V43.8H380.575V37.4H383.775V43.8H390.175V47H383.775V59.8H380.575V47H377.375ZM383.775 59.8H390.175V63H383.775V59.8ZM390.188 47V43.8H393.388V37.4H396.588V43.8H402.988V47H396.588V59.8H393.388V47H390.188ZM396.588 59.8H402.988V63H396.588V59.8ZM406.188 59.8V53.4H409.388V59.8H406.188ZM406.188 47V43.8H418.988V47H406.188ZM409.388 59.8H418.988V53.4H409.388V50.2H418.988V47H422.188V63H409.388V59.8ZM425.375 59.8V47H428.575V59.8H425.375ZM428.575 59.8H441.375V63H428.575V59.8ZM428.575 47V43.8H441.375V47H428.575ZM444.562 63V34.2H447.763V50.2H450.963V53.4H447.763V63H444.562ZM450.963 56.6V53.4H454.163V56.6H450.963ZM450.963 50.2V47H454.163V50.2H450.963ZM454.163 56.6H457.363V63H454.163V56.6ZM454.163 47V43.8H457.363V47H454.163ZM460.562 66.2V63H463.763V66.2H460.562ZM463.763 63V59.8H466.963V63H463.763ZM486.188 66.2V63H492.588V66.2H486.188ZM486.188 50.2V43.8H489.388V50.2H486.188ZM489.388 56.6V50.2H492.588V56.6H489.388ZM492.588 56.6H495.788V63H492.588V56.6ZM495.788 56.6V50.2H498.988V56.6H495.788ZM498.988 50.2V43.8H502.188V50.2H498.988ZM505.375 59.8V47H508.575V59.8H505.375ZM518.175 59.8V63H508.575V59.8H518.175ZM518.175 47H521.375V59.8H518.175V47ZM518.175 43.8V47H508.575V43.8H518.175ZM524.562 59.8V43.8H527.763V59.8H524.562ZM537.363 59.8V43.8H540.562V63H527.763V59.8H537.363ZM543.75 40.6V34.2H546.95V40.6H543.75ZM550.156 63V43.8H553.356V47H556.556V50.2H553.356V63H550.156ZM562.956 47H556.556V43.8H562.956V47ZM566.156 59.8V47H569.356V50.2H578.956V47H582.156V53.4H569.356V59.8H566.156ZM569.356 59.8H582.156V63H569.356V59.8ZM569.356 47V43.8H578.956V47H569.356ZM598.156 63V59.8H607.756V63H598.156ZM598.156 50.2V47H601.356V50.2H598.156ZM601.356 47V43.8H610.956V47H601.356ZM601.356 50.2H607.756V53.4H601.356V50.2ZM607.756 59.8V53.4H610.956V59.8H607.756ZM614.156 47V43.8H617.356V37.4H620.556V43.8H626.956V47H620.556V59.8H617.356V47H614.156ZM620.556 59.8H626.956V63H620.556V59.8ZM630.156 63V43.8H633.356V63H630.156ZM630.156 40.6V37.4H633.356V40.6H630.156ZM636.562 59.8V34.2H639.763V59.8H636.562ZM639.763 59.8H642.963V63H639.763V59.8ZM646.156 59.8V34.2H649.356V59.8H646.156ZM649.356 59.8H652.556V63H649.356V59.8ZM668.562 63V59.8H678.163V63H668.562ZM668.562 50.2V47H671.763V50.2H668.562ZM671.763 47V43.8H681.363V47H671.763ZM671.763 50.2H678.163V53.4H671.763V50.2ZM678.163 59.8V53.4H681.363V59.8H678.163ZM684.562 47V43.8H687.763V37.4H690.963V43.8H697.363V47H690.963V59.8H687.763V47H684.562ZM690.963 59.8H697.363V63H690.963V59.8ZM700.562 59.8V53.4H703.763V59.8H700.562ZM700.562 47V43.8H713.363V47H700.562ZM703.763 59.8H713.363V53.4H703.763V50.2H713.363V47H716.562V63H703.763V59.8ZM719.75 63V43.8H732.55V47H722.95V63H719.75ZM732.55 63V47H735.75V63H732.55ZM738.938 59.8V47H742.138V59.8H738.938ZM751.738 59.8V47H742.138V43.8H751.738V34.2H754.938V63H742.138V59.8H751.738ZM758.125 63V43.8H761.325V63H758.125ZM758.125 40.6V37.4H761.325V40.6H758.125ZM764.531 63V43.8H777.331V47H767.731V63H764.531ZM777.331 63V47H780.531V63H777.331ZM783.719 66.2V63H796.519V66.2H783.719ZM783.719 56.6V47H786.919V56.6H783.719ZM786.919 56.6H796.519V47H786.919V43.8H799.719V63H796.519V59.8H786.919V56.6ZM815.719 63V43.8H818.919V63H815.719ZM815.719 40.6V37.4H818.919V40.6H815.719ZM822.125 63V43.8H834.925V47H825.325V63H822.125ZM834.925 63V47H838.125V63H834.925ZM51 105V85.8H70.2V89H63.8V105H60.6V89H54.2V105H51ZM70.2 105V89H73.4V105H70.2ZM76.5938 108.2V105H82.9938V108.2H76.5938ZM76.5938 92.2V85.8H79.7938V92.2H76.5938ZM79.7938 98.6V92.2H82.9938V98.6H79.7938ZM82.9938 98.6H86.1938V105H82.9938V98.6ZM86.1938 98.6V92.2H89.3938V98.6H86.1938ZM89.3938 92.2V85.8H92.5938V92.2H89.3938ZM108.594 98.6V85.8H111.794V98.6H108.594ZM111.794 98.6H114.994V105H111.794V98.6ZM114.994 98.6V89H118.194V98.6H114.994ZM118.194 98.6H121.394V105H118.194V98.6ZM121.394 98.6V85.8H124.594V98.6H121.394ZM127.781 101.8V95.4H130.981V101.8H127.781ZM127.781 89V85.8H140.581V89H127.781ZM130.981 101.8H140.581V95.4H130.981V92.2H140.581V89H143.781V105H130.981V101.8ZM146.969 108.2V105H153.369V108.2H146.969ZM146.969 92.2V85.8H150.169V92.2H146.969ZM150.169 98.6V92.2H153.369V98.6H150.169ZM153.369 98.6H156.569V105H153.369V98.6ZM156.569 98.6V92.2H159.769V98.6H156.569ZM159.769 92.2V85.8H162.969V92.2H159.769ZM166.169 105V101.8H169.369V105H166.169ZM178.981 105V101.8H182.181V105H178.981ZM191.794 105V101.8H194.994V105H191.794ZM201.406 79.4V76.2H211.006V79.4H201.406ZM204.606 98.6H207.806V105H204.606V98.6ZM204.606 89H207.806V95.4H204.606V89ZM207.806 89V85.8H211.006V89H207.806ZM211.006 85.8V79.4H214.206V85.8H211.006ZM51 137.4V118.2H54.2V137.4H51ZM54.2 147V137.4H57.4V147H54.2ZM57.4 137.4V124.6H60.6V137.4H57.4ZM60.6 147V137.4H63.8V147H60.6ZM63.8 137.4V118.2H67V137.4H63.8ZM70.1875 143.8V131H73.3875V143.8H70.1875ZM82.9875 143.8V147H73.3875V143.8H82.9875ZM82.9875 131H86.1875V143.8H82.9875V131ZM82.9875 127.8V131H73.3875V127.8H82.9875ZM89.375 140.6V127.8H92.575V140.6H89.375ZM92.575 140.6H95.775V147H92.575V140.6ZM95.775 140.6V131H98.975V140.6H95.775ZM98.975 140.6H102.175V147H98.975V140.6ZM102.175 140.6V127.8H105.375V140.6H102.175ZM108.575 147V143.8H111.775V147H108.575ZM121.388 147V143.8H124.588V147H121.388ZM134.2 147V143.8H137.4V147H134.2ZM156.625 150.2V147H163.025V150.2H156.625ZM156.625 134.2V127.8H159.825V134.2H156.625ZM159.825 140.6V134.2H163.025V140.6H159.825ZM163.025 140.6H166.225V147H163.025V140.6ZM166.225 140.6V134.2H169.425V140.6H166.225ZM169.425 134.2V127.8H172.625V134.2H169.425ZM175.812 143.8V131H179.013V143.8H175.812ZM188.613 143.8V147H179.013V143.8H188.613ZM188.613 131H191.812V143.8H188.613V131ZM188.613 127.8V131H179.013V127.8H188.613ZM195 143.8V127.8H198.2V143.8H195ZM207.8 143.8V127.8H211V147H198.2V143.8H207.8ZM227 147V127.8H230.2V131H233.4V134.2H230.2V147H227ZM239.8 131H233.4V127.8H239.8V131ZM243 143.8V131H246.2V134.2H255.8V131H259V137.4H246.2V143.8H243ZM246.2 143.8H259V147H246.2V143.8ZM246.2 131V127.8H255.8V131H246.2ZM262.188 143.8V137.4H265.388V143.8H262.188ZM262.188 131V127.8H274.988V131H262.188ZM265.388 143.8H274.988V137.4H265.388V134.2H274.988V131H278.188V147H265.388V143.8ZM281.375 143.8V118.2H284.575V143.8H281.375ZM284.575 143.8H287.775V147H284.575V143.8ZM290.969 143.8V118.2H294.169V143.8H290.969ZM294.169 143.8H297.369V147H294.169V143.8ZM300.562 150.2V147H306.963V150.2H300.562ZM300.562 134.2V127.8H303.763V134.2H300.562ZM303.763 140.6V134.2H306.963V140.6H303.763ZM306.963 140.6H310.163V147H306.963V140.6ZM310.163 140.6V134.2H313.363V140.6H310.163ZM313.363 134.2V127.8H316.562V134.2H313.363ZM332.562 147V134.2H335.763V124.6H338.963V134.2H342.163V124.6H345.363V134.2H348.562V147H345.363V137.4H335.763V147H332.562ZM338.963 124.6V118.2H342.163V124.6H338.963ZM351.75 147V118.2H364.55V121.4H354.95V131H364.55V140.6H361.35V134.2H354.95V147H351.75ZM364.55 140.6H367.75V147H364.55V140.6ZM364.55 131V121.4H367.75V131H364.55ZM370.938 147V118.2H383.738V121.4H374.138V131H383.738V134.2H374.138V143.8H383.738V147H370.938ZM399.75 147V143.8H409.35V147H399.75ZM399.75 134.2V131H402.95V134.2H399.75ZM402.95 131V127.8H412.55V131H402.95ZM402.95 134.2H409.35V137.4H402.95V134.2ZM409.35 143.8V137.4H412.55V143.8H409.35ZM415.75 143.8V131H418.95V143.8H415.75ZM428.55 143.8V147H418.95V143.8H428.55ZM428.55 131H431.75V143.8H428.55V131ZM428.55 127.8V131H418.95V127.8H428.55ZM434.938 147V127.8H454.138V131H447.738V147H444.538V131H438.138V147H434.938ZM454.138 147V131H457.338V147H454.138ZM460.531 143.8V131H463.731V134.2H473.331V131H476.531V137.4H463.731V143.8H460.531ZM463.731 143.8H476.531V147H463.731V143.8ZM463.731 131V127.8H473.331V131H463.731ZM479.719 131V127.8H482.919V121.4H486.119V127.8H492.519V131H486.119V143.8H482.919V131H479.719ZM486.119 143.8H492.519V147H486.119V143.8ZM495.719 147V118.2H498.919V127.8H508.519V131H498.919V147H495.719ZM508.519 147V131H511.719V147H508.519ZM514.906 147V127.8H518.106V147H514.906ZM514.906 124.6V121.4H518.106V124.6H514.906ZM521.312 147V127.8H534.113V131H524.513V147H521.312ZM534.113 147V131H537.312V147H534.113ZM540.5 150.2V147H553.3V150.2H540.5ZM540.5 140.6V131H543.7V140.6H540.5ZM543.7 140.6H553.3V131H543.7V127.8H556.5V147H553.3V143.8H543.7V140.6ZM572.5 147V143.8H582.1V147H572.5ZM572.5 134.2V131H575.7V134.2H572.5ZM575.7 131V127.8H585.3V131H575.7ZM575.7 134.2H582.1V137.4H575.7V134.2ZM582.1 143.8V137.4H585.3V143.8H582.1ZM588.5 150.2V127.8H601.3V131H591.7V140.6H601.3V143.8H591.7V150.2H588.5ZM601.3 140.6V131H604.5V140.6H601.3ZM607.688 143.8V131H610.888V134.2H620.488V131H623.688V137.4H610.888V143.8H607.688ZM610.888 143.8H623.688V147H610.888V143.8ZM610.888 131V127.8H620.488V131H610.888ZM626.875 143.8V131H630.075V143.8H626.875ZM630.075 143.8H642.875V147H630.075V143.8ZM630.075 131V127.8H642.875V131H630.075ZM646.062 147V127.8H649.263V147H646.062ZM646.062 124.6V121.4H649.263V124.6H646.062ZM652.469 143.8V137.4H655.669V143.8H652.469ZM652.469 131V127.8H665.269V131H652.469ZM655.669 143.8H665.269V137.4H655.669V134.2H665.269V131H668.469V147H655.669V143.8ZM671.656 143.8V118.2H674.856V143.8H671.656ZM674.856 143.8H678.056V147H674.856V143.8ZM684.45 147V143.8H687.65V147H684.45Z" fill="white"/>
<defs>
<filter id="filter0_d_384_769" x="0" y="0" width="915" height="246" filterUnits="userSpaceOnUse" color-interpolation-filters="sRGB">
<feFlood flood-opacity="0" result="BackgroundImageFix"/>
<feColorMatrix in="SourceAlpha" type="matrix" values="0 0 0 0 0 0 0 0 0 0 0 0 0 0 0 0 0 0 127 0" result="hardAlpha"/>
<feOffset dy="4"/>
<feGaussianBlur stdDeviation="2"/>
<feComposite in2="hardAlpha" operator="out"/>
<feColorMatrix type="matrix" values="0 0 0 0 0 0 0 0 0 0 0 0 0 0 0 0 0 0 0.25 0"/>
<feBlend mode="normal" in2="BackgroundImageFix" result="effect1_dropShadow_384_769"/>
<feBlend mode="normal" in="SourceGraphic" in2="effect1_dropShadow_384_769" result="shape"/>
</filter>
</defs>
</svg>
