<svg width="915" height="246" viewBox="0 0 915 246" fill="none" xmlns="http://www.w3.org/2000/svg">
<g filter="url(#filter0_d_384_730)">
<rect x="4" width="907" height="238" fill="black"/>
<rect x="7" y="3" width="901" height="232" stroke="white" stroke-width="6"/>
</g>
<path d="M51 63V50.2H54.2V40.6H57.4V50.2H60.6V40.6H63.8V50.2H67V63H63.8V53.4H54.2V63H51ZM57.4 40.6V34.2H60.6V40.6H57.4ZM70.1875 63V43.8H82.9875V47H73.3875V63H70.1875ZM82.9875 63V47H86.1875V63H82.9875ZM89.375 59.8V47H92.575V59.8H89.375ZM102.175 59.8V47H92.575V43.8H102.175V34.2H105.375V63H92.575V59.8H102.175ZM121.375 47V43.8H124.575V37.4H127.775V43.8H134.175V47H127.775V59.8H124.575V47H121.375ZM127.775 59.8H134.175V63H127.775V59.8ZM137.375 63V34.2H140.575V43.8H150.175V47H140.575V63H137.375ZM150.175 63V47H153.375V63H150.175ZM156.562 59.8V47H159.763V50.2H169.363V47H172.562V53.4H159.763V59.8H156.562ZM159.763 59.8H172.562V63H159.763V59.8ZM159.763 47V43.8H169.363V47H159.763ZM175.75 63V43.8H188.55V47H178.95V63H175.75ZM188.55 63V47H191.75V63H188.55ZM207.75 66.2V63H214.15V66.2H207.75ZM207.75 50.2V43.8H210.95V50.2H207.75ZM210.95 56.6V50.2H214.15V56.6H210.95ZM214.15 56.6H217.35V63H214.15V56.6ZM217.35 56.6V50.2H220.55V56.6H217.35ZM220.55 50.2V43.8H223.75V50.2H220.55ZM226.938 59.8V47H230.138V59.8H226.938ZM239.738 59.8V63H230.138V59.8H239.738ZM239.738 47H242.938V59.8H239.738V47ZM239.738 43.8V47H230.138V43.8H239.738ZM246.125 59.8V43.8H249.325V59.8H246.125ZM258.925 59.8V43.8H262.125V63H249.325V59.8H258.925ZM265.312 40.6V34.2H268.513V40.6H265.312ZM271.719 59.8V34.2H274.919V59.8H271.719ZM274.919 59.8H278.119V63H274.919V59.8ZM281.312 59.8V34.2H284.513V59.8H281.312ZM284.513 59.8H287.713V63H284.513V59.8ZM303.719 59.8V34.2H306.919V59.8H303.719ZM306.919 59.8H310.119V63H306.919V59.8ZM313.312 59.8V47H316.513V59.8H313.312ZM326.113 59.8V63H316.513V59.8H326.113ZM326.113 47H329.312V59.8H326.113V47ZM326.113 43.8V47H316.513V43.8H326.113ZM332.5 63V59.8H342.1V63H332.5ZM332.5 50.2V47H335.7V50.2H332.5ZM335.7 47V43.8H345.3V47H335.7ZM335.7 50.2H342.1V53.4H335.7V50.2ZM342.1 59.8V53.4H345.3V59.8H342.1ZM348.5 59.8V47H351.7V50.2H361.3V47H364.5V53.4H351.7V59.8H348.5ZM351.7 59.8H364.5V63H351.7V59.8ZM351.7 47V43.8H361.3V47H351.7ZM380.5 47V43.8H383.7V37.4H386.9V43.8H393.3V47H386.9V59.8H383.7V47H380.5ZM386.9 59.8H393.3V63H386.9V59.8ZM396.5 59.8V47H399.7V59.8H396.5ZM409.3 59.8V63H399.7V59.8H409.3ZM409.3 47H412.5V59.8H409.3V47ZM409.3 43.8V47H399.7V43.8H409.3ZM428.5 63V43.8H447.7V47H441.3V63H438.1V47H431.7V63H428.5ZM447.7 63V47H450.9V63H447.7ZM454.094 59.8V47H457.294V50.2H466.894V47H470.094V53.4H457.294V59.8H454.094ZM457.294 59.8H470.094V63H457.294V59.8ZM457.294 47V43.8H466.894V47H457.294ZM486.094 59.8V53.4H489.294V59.8H486.094ZM486.094 47V43.8H498.894V47H486.094ZM489.294 59.8H498.894V53.4H489.294V50.2H498.894V47H502.094V63H489.294V59.8ZM505.281 66.2V63H518.081V66.2H505.281ZM505.281 56.6V47H508.481V56.6H505.281ZM508.481 56.6H518.081V47H508.481V43.8H521.281V63H518.081V59.8H508.481V56.6ZM524.469 59.8V53.4H527.669V59.8H524.469ZM524.469 47V43.8H537.269V47H524.469ZM527.669 59.8H537.269V53.4H527.669V50.2H537.269V47H540.469V63H527.669V59.8ZM543.656 63V43.8H546.856V63H543.656ZM543.656 40.6V37.4H546.856V40.6H543.656ZM550.062 63V43.8H562.863V47H553.263V63H550.062ZM562.863 63V47H566.062V63H562.863ZM572.45 63V59.8H575.65V63H572.45Z" fill="white"/>
<defs>
<filter id="filter0_d_384_730" x="0" y="0" width="915" height="246" filterUnits="userSpaceOnUse" color-interpolation-filters="sRGB">
<feFlood flood-opacity="0" result="BackgroundImageFix"/>
<feColorMatrix in="SourceAlpha" type="matrix" values="0 0 0 0 0 0 0 0 0 0 0 0 0 0 0 0 0 0 127 0" result="hardAlpha"/>
<feOffset dy="4"/>
<feGaussianBlur stdDeviation="2"/>
<feComposite in2="hardAlpha" operator="out"/>
<feColorMatrix type="matrix" values="0 0 0 0 0 0 0 0 0 0 0 0 0 0 0 0 0 0 0.25 0"/>
<feBlend mode="normal" in2="BackgroundImageFix" result="effect1_dropShadow_384_730"/>
<feBlend mode="normal" in="SourceGraphic" in2="effect1_dropShadow_384_730" result="shape"/>
</filter>
</defs>
</svg>
