<svg width="915" height="246" viewBox="0 0 915 246" fill="none" xmlns="http://www.w3.org/2000/svg">
<g filter="url(#filter0_d_384_724)">
<rect x="4" width="907" height="238" fill="black"/>
<rect x="7" y="3" width="901" height="232" stroke="white" stroke-width="6"/>
</g>
<path d="M51 63V34.2H54.2V47H63.8V34.2H67V63H63.8V50.2H54.2V63H51ZM70.1875 59.8V47H73.3875V59.8H70.1875ZM82.9875 59.8V63H73.3875V59.8H82.9875ZM82.9875 47H86.1875V59.8H82.9875V47ZM82.9875 43.8V47H73.3875V43.8H82.9875ZM89.375 56.6V43.8H92.575V56.6H89.375ZM92.575 56.6H95.775V63H92.575V56.6ZM95.775 56.6V47H98.975V56.6H95.775ZM98.975 56.6H102.175V63H98.975V56.6ZM102.175 56.6V43.8H105.375V56.6H102.175ZM108.562 59.8V47H111.763V59.8H108.562ZM121.363 59.8V47H111.763V43.8H121.363V34.2H124.562V63H111.763V59.8H121.363ZM127.75 66.2V63H134.15V66.2H127.75ZM127.75 50.2V43.8H130.95V50.2H127.75ZM130.95 56.6V50.2H134.15V56.6H130.95ZM134.15 56.6H137.35V63H134.15V56.6ZM137.35 56.6V50.2H140.55V56.6H137.35ZM140.55 50.2V43.8H143.75V50.2H140.55ZM150.138 56.6H153.338V63H150.138V56.6ZM150.138 53.4V34.2H153.338V53.4H150.138ZM51 101.8V79.4H54.2V101.8H51ZM54.2 101.8H67V105H54.2V101.8ZM54.2 79.4V76.2H67V79.4H54.2ZM70.1875 105V76.2H73.3875V85.8H82.9875V89H73.3875V105H70.1875ZM82.9875 105V89H86.1875V105H82.9875ZM89.375 101.8V95.4H92.575V101.8H89.375ZM89.375 89V85.8H102.175V89H89.375ZM92.575 101.8H102.175V95.4H92.575V92.2H102.175V89H105.375V105H92.575V101.8ZM108.562 105V85.8H111.763V89H114.963V92.2H111.763V105H108.562ZM121.363 89H114.963V85.8H121.363V89ZM124.562 101.8V95.4H127.763V101.8H124.562ZM124.562 89V85.8H137.363V89H124.562ZM127.763 101.8H137.363V95.4H127.763V92.2H137.363V89H140.562V105H127.763V101.8ZM143.75 108.2V105H146.95V108.2H143.75ZM146.95 105V101.8H150.15V105H146.95ZM169.375 101.8V95.4H172.575V101.8H169.375ZM169.375 89V85.8H182.175V89H169.375ZM172.575 101.8H182.175V95.4H172.575V92.2H182.175V89H185.375V105H172.575V101.8ZM188.562 105V85.8H191.763V89H194.963V92.2H191.763V105H188.562ZM201.363 89H194.963V85.8H201.363V89ZM204.562 101.8V89H207.763V92.2H217.363V89H220.562V95.4H207.763V101.8H204.562ZM207.763 101.8H220.562V105H207.763V101.8ZM207.763 89V85.8H217.363V89H207.763ZM236.562 108.2V105H242.963V108.2H236.562ZM236.562 92.2V85.8H239.763V92.2H236.562ZM239.763 98.6V92.2H242.963V98.6H239.763ZM242.963 98.6H246.163V105H242.963V98.6ZM246.163 98.6V92.2H249.363V98.6H246.163ZM249.363 92.2V85.8H252.562V92.2H249.363ZM255.75 101.8V89H258.95V101.8H255.75ZM268.55 101.8V105H258.95V101.8H268.55ZM268.55 89H271.75V101.8H268.55V89ZM268.55 85.8V89H258.95V85.8H268.55ZM274.938 101.8V85.8H278.138V101.8H274.938ZM287.738 101.8V85.8H290.938V105H278.138V101.8H287.738ZM306.938 89V85.8H310.138V79.4H313.338V85.8H319.738V89H313.338V101.8H310.138V89H306.938ZM313.338 101.8H319.738V105H313.338V101.8ZM322.938 105V76.2H326.138V85.8H335.738V89H326.138V105H322.938ZM335.738 105V89H338.938V105H335.738ZM342.125 101.8V89H345.325V92.2H354.925V89H358.125V95.4H345.325V101.8H342.125ZM345.325 101.8H358.125V105H345.325V101.8ZM345.325 89V85.8H354.925V89H345.325ZM361.312 105V85.8H364.513V89H367.713V92.2H364.513V105H361.312ZM374.113 89H367.713V85.8H374.113V89ZM377.312 101.8V89H380.513V92.2H390.113V89H393.312V95.4H380.513V101.8H377.312ZM380.513 101.8H393.312V105H380.513V101.8ZM380.513 89V85.8H390.113V89H380.513ZM396.5 79.4V76.2H406.1V79.4H396.5ZM399.7 98.6H402.9V105H399.7V98.6ZM399.7 89H402.9V95.4H399.7V89ZM402.9 89V85.8H406.1V89H402.9ZM406.1 85.8V79.4H409.3V85.8H406.1ZM51 147V118.2H54.2V147H51ZM57.4062 131V127.8H60.6063V121.4H63.8063V127.8H70.2063V131H63.8063V143.8H60.6063V131H57.4062ZM63.8063 143.8H70.2063V147H63.8063V143.8ZM73.4062 124.6V118.2H76.6063V124.6H73.4062ZM79.8125 147V143.8H89.4125V147H79.8125ZM79.8125 134.2V131H83.0125V134.2H79.8125ZM83.0125 131V127.8H92.6125V131H83.0125ZM83.0125 134.2H89.4125V137.4H83.0125V134.2ZM89.4125 143.8V137.4H92.6125V143.8H89.4125ZM108.625 147V127.8H127.825V131H121.425V147H118.225V131H111.825V147H108.625ZM127.825 147V131H131.025V147H127.825ZM134.219 143.8V131H137.419V134.2H147.019V131H150.219V137.4H137.419V143.8H134.219ZM137.419 143.8H150.219V147H137.419V143.8ZM137.419 131V127.8H147.019V131H137.419ZM153.406 150.2V147H156.606V150.2H153.406ZM156.606 147V143.8H159.806V147H156.606ZM179.031 150.2V147H185.431V150.2H179.031ZM179.031 134.2V127.8H182.231V134.2H179.031ZM182.231 140.6V134.2H185.431V140.6H182.231ZM185.431 140.6H188.631V147H185.431V140.6ZM188.631 140.6V134.2H191.831V140.6H188.631ZM191.831 134.2V127.8H195.031V134.2H191.831ZM198.219 143.8V131H201.419V143.8H198.219ZM211.019 143.8V147H201.419V143.8H211.019ZM211.019 131H214.219V143.8H211.019V131ZM211.019 127.8V131H201.419V127.8H211.019ZM217.406 143.8V127.8H220.606V143.8H217.406ZM230.206 143.8V127.8H233.406V147H220.606V143.8H230.206ZM236.594 147V127.8H239.794V131H242.994V134.2H239.794V147H236.594ZM249.394 131H242.994V127.8H249.394V131ZM265.406 147V118.2H268.606V127.8H278.206V131H268.606V143.8H278.206V147H265.406ZM278.206 143.8V131H281.406V143.8H278.206ZM284.594 143.8V131H287.794V134.2H297.394V131H300.594V137.4H287.794V143.8H284.594ZM287.794 143.8H300.594V147H287.794V143.8ZM287.794 131V127.8H297.394V131H287.794ZM303.781 147V143.8H313.381V147H303.781ZM303.781 134.2V131H306.981V134.2H303.781ZM306.981 131V127.8H316.581V131H306.981ZM306.981 134.2H313.381V137.4H306.981V134.2ZM313.381 143.8V137.4H316.581V143.8H313.381ZM319.781 131V127.8H322.981V121.4H326.181V127.8H332.581V131H326.181V143.8H322.981V131H319.781ZM326.181 143.8H332.581V147H326.181V143.8ZM348.594 131V127.8H351.794V121.4H354.994V127.8H361.394V131H354.994V147H351.794V131H348.594ZM354.994 121.4V118.2H361.394V121.4H354.994ZM364.594 147V127.8H367.794V131H370.994V134.2H367.794V147H364.594ZM377.394 131H370.994V127.8H377.394V131ZM380.594 147V127.8H383.794V147H380.594ZM380.594 124.6V121.4H383.794V124.6H380.594ZM387 143.8V131H390.2V134.2H399.8V131H403V137.4H390.2V143.8H387ZM390.2 143.8H403V147H390.2V143.8ZM390.2 131V127.8H399.8V131H390.2ZM406.188 147V127.8H418.988V131H409.388V147H406.188ZM418.988 147V131H422.188V147H418.988ZM425.375 143.8V131H428.575V143.8H425.375ZM438.175 143.8V131H428.575V127.8H438.175V118.2H441.375V147H428.575V143.8H438.175ZM447.763 147V143.8H450.963V147H447.763Z" fill="white"/>
<path d="M51 109.8H143.75V113H51V109.8Z" fill="white"/>
<a href="https://namu.wiki/w/%EC%B0%A8%EB%9D%BC(%EC%96%B8%EB%8D%94%ED%85%8C%EC%9D%BC)">
<rect fill="black" fill-opacity="0" y="42.2" width="92.7625" height="41.6"/>
</a>
<defs>
<filter id="filter0_d_384_724" x="0" y="0" width="915" height="246" filterUnits="userSpaceOnUse" color-interpolation-filters="sRGB">
<feFlood flood-opacity="0" result="BackgroundImageFix"/>
<feColorMatrix in="SourceAlpha" type="matrix" values="0 0 0 0 0 0 0 0 0 0 0 0 0 0 0 0 0 0 127 0" result="hardAlpha"/>
<feOffset dy="4"/>
<feGaussianBlur stdDeviation="2"/>
<feComposite in2="hardAlpha" operator="out"/>
<feColorMatrix type="matrix" values="0 0 0 0 0 0 0 0 0 0 0 0 0 0 0 0 0 0 0.25 0"/>
<feBlend mode="normal" in2="BackgroundImageFix" result="effect1_dropShadow_384_724"/>
<feBlend mode="normal" in="SourceGraphic" in2="effect1_dropShadow_384_724" result="shape"/>
</filter>
</defs>
</svg>
