<svg width="915" height="246" viewBox="0 0 915 246" fill="none" xmlns="http://www.w3.org/2000/svg">
<g filter="url(#filter0_d_384_773)">
<rect x="4" width="907" height="238" fill="black"/>
<rect x="7" y="3" width="901" height="232" stroke="white" stroke-width="6"/>
</g>
<path d="M51 63V59.8H60.6V63H51ZM51 47V37.4H54.2V47H51ZM54.2 47H60.6V50.2H54.2V47ZM54.2 37.4V34.2H63.8V37.4H54.2ZM60.6 59.8V50.2H63.8V59.8H60.6ZM67 47V43.8H70.2V37.4H73.4V43.8H79.8V47H73.4V59.8H70.2V47H67ZM73.4 59.8H79.8V63H73.4V59.8ZM83 63V43.8H86.2V63H83ZM83 40.6V37.4H86.2V40.6H83ZM89.4062 59.8V34.2H92.6063V59.8H89.4062ZM92.6063 59.8H95.8063V63H92.6063V59.8ZM99 59.8V34.2H102.2V59.8H99ZM102.2 59.8H105.4V63H102.2V59.8ZM108.594 66.2V63H111.794V66.2H108.594ZM111.794 63V59.8H114.994V63H111.794ZM134.219 66.2V63H140.619V66.2H134.219ZM134.219 50.2V43.8H137.419V50.2H134.219ZM137.419 56.6V50.2H140.619V56.6H137.419ZM140.619 56.6H143.819V63H140.619V56.6ZM143.819 56.6V50.2H147.019V56.6H143.819ZM147.019 50.2V43.8H150.219V50.2H147.019ZM153.406 59.8V47H156.606V59.8H153.406ZM166.206 59.8V63H156.606V59.8H166.206ZM166.206 47H169.406V59.8H166.206V47ZM166.206 43.8V47H156.606V43.8H166.206ZM172.594 59.8V43.8H175.794V59.8H172.594ZM185.394 59.8V43.8H188.594V63H175.794V59.8H185.394ZM191.781 40.6V34.2H194.981V40.6H191.781ZM198.188 63V43.8H201.388V47H204.588V50.2H201.388V63H198.188ZM210.988 47H204.588V43.8H210.988V47ZM214.188 59.8V47H217.388V50.2H226.988V47H230.188V53.4H217.388V59.8H214.188ZM217.388 59.8H230.188V63H217.388V59.8ZM217.388 47V43.8H226.988V47H217.388ZM246.188 63V34.2H249.388V43.8H258.988V47H249.388V63H246.188ZM258.988 63V47H262.188V63H258.988ZM265.375 59.8V53.4H268.575V59.8H265.375ZM265.375 47V43.8H278.175V47H265.375ZM268.575 59.8H278.175V53.4H268.575V50.2H278.175V47H281.375V63H268.575V59.8ZM284.562 63V43.8H297.363V47H287.763V63H284.562ZM297.363 63V47H300.562V63H297.363ZM303.75 66.2V63H316.55V66.2H303.75ZM303.75 56.6V47H306.95V56.6H303.75ZM306.95 56.6H316.55V47H306.95V43.8H319.75V63H316.55V59.8H306.95V56.6ZM322.938 63V43.8H326.138V63H322.938ZM322.938 40.6V37.4H326.138V40.6H322.938ZM329.344 63V43.8H342.144V47H332.544V63H329.344ZM342.144 63V47H345.344V63H342.144ZM348.531 66.2V63H361.331V66.2H348.531ZM348.531 56.6V47H351.731V56.6H348.531ZM351.731 56.6H361.331V47H351.731V43.8H364.531V63H361.331V59.8H351.731V56.6ZM380.531 59.8V47H383.731V59.8H380.531ZM393.331 59.8V63H383.731V59.8H393.331ZM393.331 47H396.531V59.8H393.331V47ZM393.331 43.8V47H383.731V43.8H393.331ZM399.719 63V43.8H412.519V47H402.919V63H399.719ZM412.519 63V47H415.719V63H412.519ZM422.106 63V59.8H425.306V63H422.106ZM434.919 63V59.8H438.119V63H434.919ZM447.731 63V59.8H450.931V63H447.731ZM457.344 37.4V34.2H466.944V37.4H457.344ZM460.544 56.6H463.744V63H460.544V56.6ZM460.544 47H463.744V53.4H460.544V47ZM463.744 47V43.8H466.944V47H463.744ZM466.944 43.8V37.4H470.144V43.8H466.944ZM51 79.4V76.2H67V79.4H60.6V105H57.4V79.4H51ZM70.1875 105V76.2H73.3875V85.8H82.9875V89H73.3875V105H70.1875ZM82.9875 105V89H86.1875V105H82.9875ZM89.375 101.8V95.4H92.575V101.8H89.375ZM89.375 89V85.8H102.175V89H89.375ZM92.575 101.8H102.175V95.4H92.575V92.2H102.175V89H105.375V105H92.575V101.8ZM108.562 89V85.8H111.763V79.4H114.963V85.8H121.363V89H114.963V101.8H111.763V89H108.562ZM114.963 101.8H121.363V105H114.963V101.8ZM124.562 82.6V76.2H127.763V82.6H124.562ZM130.969 105V101.8H140.569V105H130.969ZM130.969 92.2V89H134.169V92.2H130.969ZM134.169 89V85.8H143.769V89H134.169ZM134.169 92.2H140.569V95.4H134.169V92.2ZM140.569 101.8V95.4H143.769V101.8H140.569ZM159.781 89V85.8H162.981V79.4H166.181V85.8H172.581V89H166.181V105H162.981V89H159.781ZM166.181 79.4V76.2H172.581V79.4H166.181ZM175.781 105V85.8H178.981V105H175.781ZM175.781 82.6V79.4H178.981V82.6H175.781ZM182.188 105V85.8H194.988V89H185.388V105H182.188ZM194.988 105V89H198.188V105H194.988ZM201.375 101.8V89H204.575V92.2H214.175V89H217.375V95.4H204.575V101.8H201.375ZM204.575 101.8H217.375V105H204.575V101.8ZM204.575 89V85.8H214.175V89H204.575ZM223.763 105V101.8H226.963V105H223.763ZM51 147V118.2H54.2V147H51ZM57.4062 147V127.8H70.2063V131H60.6063V147H57.4062ZM70.2063 147V131H73.4062V147H70.2063ZM89.4062 143.8V137.4H92.6063V143.8H89.4062ZM89.4062 131V127.8H102.206V131H89.4062ZM92.6063 143.8H102.206V137.4H92.6063V134.2H102.206V131H105.406V147H92.6063V143.8ZM121.406 131V127.8H124.606V121.4H127.806V127.8H134.206V131H127.806V147H124.606V131H121.406ZM127.806 121.4V118.2H134.206V121.4H127.806ZM137.406 143.8V131H140.606V134.2H150.206V131H153.406V137.4H140.606V143.8H137.406ZM140.606 143.8H153.406V147H140.606V143.8ZM140.606 131V127.8H150.206V131H140.606ZM156.594 140.6V127.8H159.794V140.6H156.594ZM159.794 140.6H162.994V147H159.794V140.6ZM162.994 140.6V131H166.194V140.6H162.994ZM166.194 140.6H169.394V147H166.194V140.6ZM169.394 140.6V127.8H172.594V140.6H169.394ZM188.594 147V127.8H207.794V131H201.394V147H198.194V131H191.794V147H188.594ZM207.794 147V131H210.994V147H207.794ZM214.188 143.8V131H217.388V143.8H214.188ZM226.988 143.8V147H217.388V143.8H226.988ZM226.988 131H230.188V143.8H226.988V131ZM226.988 127.8V131H217.388V127.8H226.988ZM233.375 147V127.8H252.575V131H246.175V147H242.975V131H236.575V147H233.375ZM252.575 147V131H255.775V147H252.575ZM258.969 143.8V131H262.169V134.2H271.769V131H274.969V137.4H262.169V143.8H258.969ZM262.169 143.8H274.969V147H262.169V143.8ZM262.169 131V127.8H271.769V131H262.169ZM278.156 147V127.8H290.956V131H281.356V147H278.156ZM290.956 147V131H294.156V147H290.956ZM297.344 131V127.8H300.544V121.4H303.744V127.8H310.144V131H303.744V143.8H300.544V131H297.344ZM303.744 143.8H310.144V147H303.744V143.8ZM313.344 147V143.8H322.944V147H313.344ZM313.344 134.2V131H316.544V134.2H313.344ZM316.544 131V127.8H326.144V131H316.544ZM316.544 134.2H322.944V137.4H316.544V134.2ZM322.944 143.8V137.4H326.144V143.8H322.944ZM329.344 150.2V147H332.544V150.2H329.344ZM332.544 147V143.8H335.744V147H332.544ZM354.969 150.2V147H361.369V150.2H354.969ZM354.969 134.2V127.8H358.169V134.2H354.969ZM358.169 140.6V134.2H361.369V140.6H358.169ZM361.369 140.6H364.569V147H361.369V140.6ZM364.569 140.6V134.2H367.769V140.6H364.569ZM367.769 134.2V127.8H370.969V134.2H367.769ZM374.156 143.8V131H377.356V143.8H374.156ZM386.956 143.8V147H377.356V143.8H386.956ZM386.956 131H390.156V143.8H386.956V131ZM386.956 127.8V131H377.356V127.8H386.956ZM393.344 143.8V127.8H396.544V143.8H393.344ZM406.144 143.8V127.8H409.344V147H396.544V143.8H406.144ZM412.531 124.6V118.2H415.731V124.6H412.531ZM418.938 143.8V118.2H422.138V143.8H418.938ZM422.138 143.8H425.338V147H422.138V143.8ZM428.531 143.8V118.2H431.731V143.8H428.531ZM431.731 143.8H434.931V147H431.731V143.8ZM450.938 131V127.8H454.138V121.4H457.338V127.8H463.738V131H457.338V147H454.138V131H450.938ZM457.338 121.4V118.2H463.738V121.4H457.338ZM466.938 143.8V131H470.138V143.8H466.938ZM479.738 143.8V147H470.138V143.8H479.738ZM479.738 131H482.938V143.8H479.738V131ZM479.738 127.8V131H470.138V127.8H479.738ZM486.125 147V127.8H489.325V131H492.525V134.2H489.325V147H486.125ZM498.925 131H492.525V127.8H498.925V131ZM502.125 150.2V147H514.925V150.2H502.125ZM502.125 140.6V131H505.325V140.6H502.125ZM505.325 140.6H514.925V131H505.325V127.8H518.125V147H514.925V143.8H505.325V140.6ZM521.312 143.8V131H524.513V134.2H534.113V131H537.312V137.4H524.513V143.8H521.312ZM524.513 143.8H537.312V147H524.513V143.8ZM524.513 131V127.8H534.113V131H524.513ZM540.5 131V127.8H543.7V121.4H546.9V127.8H553.3V131H546.9V143.8H543.7V131H540.5ZM546.9 143.8H553.3V147H546.9V143.8ZM569.312 143.8V131H572.513V134.2H582.113V131H585.312V137.4H572.513V143.8H569.312ZM572.513 143.8H585.312V147H572.513V143.8ZM572.513 131V127.8H582.113V131H572.513ZM588.5 134.2V127.8H591.7V134.2H588.5ZM591.7 140.6V134.2H594.9V140.6H591.7ZM594.9 140.6H598.1V147H594.9V140.6ZM598.1 140.6V134.2H601.3V140.6H598.1ZM601.3 134.2V127.8H604.5V134.2H601.3ZM607.688 143.8V131H610.888V134.2H620.488V131H623.688V137.4H610.888V143.8H607.688ZM610.888 143.8H623.688V147H610.888V143.8ZM610.888 131V127.8H620.488V131H610.888ZM626.875 147V127.8H630.075V131H633.275V134.2H630.075V147H626.875ZM639.675 131H633.275V127.8H639.675V131ZM642.875 150.2V147H649.275V150.2H642.875ZM642.875 134.2V127.8H646.075V134.2H642.875ZM646.075 140.6V134.2H649.275V140.6H646.075ZM649.275 140.6H652.475V147H649.275V140.6ZM652.475 140.6V134.2H655.675V140.6H652.475ZM655.675 134.2V127.8H658.875V134.2H655.675ZM662.062 131V127.8H665.263V121.4H668.463V127.8H674.863V131H668.463V143.8H665.263V131H662.062ZM668.463 143.8H674.863V147H668.463V143.8ZM678.062 147V118.2H681.263V127.8H690.863V131H681.263V147H678.062ZM690.863 147V131H694.062V147H690.863ZM697.25 147V127.8H700.45V147H697.25ZM697.25 124.6V121.4H700.45V124.6H697.25ZM703.656 147V127.8H716.456V131H706.856V147H703.656ZM716.456 147V131H719.656V147H716.456ZM722.844 150.2V147H735.644V150.2H722.844ZM722.844 140.6V131H726.044V140.6H722.844ZM726.044 140.6H735.644V131H726.044V127.8H738.844V147H735.644V143.8H726.044V140.6ZM742.031 150.2V147H745.231V150.2H742.031ZM745.231 147V143.8H748.431V147H745.231ZM767.656 131V127.8H770.856V121.4H774.056V127.8H780.456V131H774.056V143.8H770.856V131H767.656ZM774.056 143.8H780.456V147H774.056V143.8ZM783.656 143.8V131H786.856V143.8H783.656ZM796.456 143.8V147H786.856V143.8H796.456ZM796.456 131H799.656V143.8H796.456V131ZM796.456 127.8V131H786.856V127.8H796.456ZM802.844 143.8V131H806.044V143.8H802.844ZM815.644 143.8V147H806.044V143.8H815.644ZM815.644 131H818.844V143.8H815.644V131ZM815.644 127.8V131H806.044V127.8H815.644ZM825.231 147V143.8H828.431V147H825.231ZM51 163.4V160.2H67V163.4H60.6V189H57.4V163.4H51ZM70.1875 189V160.2H73.3875V169.8H82.9875V173H73.3875V189H70.1875ZM82.9875 189V173H86.1875V189H82.9875ZM89.375 185.8V179.4H92.575V185.8H89.375ZM89.375 173V169.8H102.175V173H89.375ZM92.575 185.8H102.175V179.4H92.575V176.2H102.175V173H105.375V189H92.575V185.8ZM108.562 173V169.8H111.763V163.4H114.963V169.8H121.363V173H114.963V185.8H111.763V173H108.562ZM114.963 185.8H121.363V189H114.963V185.8ZM137.375 185.8V179.4H140.575V185.8H137.375ZM137.375 173V169.8H150.175V173H137.375ZM140.575 185.8H150.175V179.4H140.575V176.2H150.175V173H153.375V189H140.575V185.8ZM156.562 173V169.8H159.763V163.4H162.963V169.8H169.363V173H162.963V185.8H159.763V173H156.562ZM162.963 185.8H169.363V189H162.963V185.8ZM169.375 173V169.8H172.575V163.4H175.775V169.8H182.175V173H175.775V185.8H172.575V173H169.375ZM175.775 185.8H182.175V189H175.775V185.8ZM185.375 189V169.8H188.575V189H185.375ZM185.375 166.6V163.4H188.575V166.6H185.375ZM191.781 173V169.8H194.981V163.4H198.181V169.8H204.581V173H198.181V185.8H194.981V173H191.781ZM198.181 185.8H204.581V189H198.181V185.8ZM207.781 185.8V169.8H210.981V185.8H207.781ZM220.581 185.8V169.8H223.781V189H210.981V185.8H220.581ZM226.969 185.8V173H230.169V185.8H226.969ZM239.769 185.8V173H230.169V169.8H239.769V160.2H242.969V189H230.169V185.8H239.769ZM246.156 185.8V173H249.356V176.2H258.956V173H262.156V179.4H249.356V185.8H246.156ZM249.356 185.8H262.156V189H249.356V185.8ZM249.356 173V169.8H258.956V173H249.356ZM278.156 182.6V169.8H281.356V182.6H278.156ZM281.356 182.6H284.556V189H281.356V182.6ZM284.556 182.6V173H287.756V182.6H284.556ZM287.756 182.6H290.956V189H287.756V182.6ZM290.956 182.6V169.8H294.156V182.6H290.956ZM297.344 189V169.8H300.544V189H297.344ZM297.344 166.6V163.4H300.544V166.6H297.344ZM303.75 185.8V160.2H306.95V185.8H303.75ZM306.95 185.8H310.15V189H306.95V185.8ZM313.344 185.8V160.2H316.544V185.8H313.344ZM316.544 185.8H319.744V189H316.544V185.8ZM335.75 189V185.8H345.35V189H335.75ZM335.75 176.2V173H338.95V176.2H335.75ZM338.95 173V169.8H348.55V173H338.95ZM338.95 176.2H345.35V179.4H338.95V176.2ZM345.35 185.8V179.4H348.55V185.8H345.35ZM351.75 185.8V173H354.95V176.2H364.55V173H367.75V179.4H354.95V185.8H351.75ZM354.95 185.8H367.75V189H354.95V185.8ZM354.95 173V169.8H364.55V173H354.95ZM370.938 189V169.8H374.138V173H377.338V176.2H374.138V189H370.938ZM383.738 173H377.338V169.8H383.738V173ZM386.938 176.2V169.8H390.138V176.2H386.938ZM390.138 182.6V176.2H393.338V182.6H390.138ZM393.338 182.6H396.538V189H393.338V182.6ZM396.538 182.6V176.2H399.738V182.6H396.538ZM399.738 176.2V169.8H402.938V176.2H399.738ZM406.125 185.8V173H409.325V176.2H418.925V173H422.125V179.4H409.325V185.8H406.125ZM409.325 185.8H422.125V189H409.325V185.8ZM409.325 173V169.8H418.925V173H409.325ZM438.125 192.2V189H444.525V192.2H438.125ZM438.125 176.2V169.8H441.325V176.2H438.125ZM441.325 182.6V176.2H444.525V182.6H441.325ZM444.525 182.6H447.725V189H444.525V182.6ZM447.725 182.6V176.2H450.925V182.6H447.725ZM450.925 176.2V169.8H454.125V176.2H450.925ZM457.312 185.8V173H460.513V185.8H457.312ZM470.113 185.8V189H460.513V185.8H470.113ZM470.113 173H473.312V185.8H470.113V173ZM470.113 169.8V173H460.513V169.8H470.113ZM476.5 185.8V169.8H479.7V185.8H476.5ZM489.3 185.8V169.8H492.5V189H479.7V185.8H489.3ZM508.5 182.6V169.8H511.7V182.6H508.5ZM511.7 182.6H514.9V189H511.7V182.6ZM514.9 182.6V173H518.1V182.6H514.9ZM518.1 182.6H521.3V189H518.1V182.6ZM521.3 182.6V169.8H524.5V182.6H521.3ZM527.688 185.8V173H530.888V176.2H540.488V173H543.688V179.4H530.888V185.8H527.688ZM530.888 185.8H543.688V189H530.888V185.8ZM530.888 173V169.8H540.488V173H530.888ZM546.875 185.8V160.2H550.075V185.8H546.875ZM550.075 185.8H553.275V189H550.075V185.8ZM556.469 185.8V160.2H559.669V185.8H556.469ZM559.669 185.8H562.869V189H559.669V185.8ZM578.875 189V169.8H582.075V189H578.875ZM578.875 166.6V163.4H582.075V166.6H578.875ZM585.281 189V169.8H598.081V173H588.481V189H585.281ZM598.081 189V173H601.281V189H598.081ZM617.281 192.2V189H623.681V192.2H617.281ZM617.281 176.2V169.8H620.481V176.2H617.281ZM620.481 182.6V176.2H623.681V182.6H620.481ZM623.681 182.6H626.881V189H623.681V182.6ZM626.881 182.6V176.2H630.081V182.6H626.881ZM630.081 176.2V169.8H633.281V176.2H630.081ZM636.469 185.8V173H639.669V185.8H636.469ZM649.269 185.8V189H639.669V185.8H649.269ZM649.269 173H652.469V185.8H649.269V173ZM649.269 169.8V173H639.669V169.8H649.269ZM655.656 185.8V169.8H658.856V185.8H655.656ZM668.456 185.8V169.8H671.656V189H658.856V185.8H668.456ZM674.844 189V169.8H678.044V173H681.244V176.2H678.044V189H674.844ZM687.644 173H681.244V169.8H687.644V173ZM703.656 189V169.8H716.456V173H706.856V189H703.656ZM716.456 189V173H719.656V189H716.456ZM722.844 185.8V173H726.044V176.2H735.644V173H738.844V179.4H726.044V185.8H722.844ZM726.044 185.8H738.844V189H726.044V185.8ZM726.044 173V169.8H735.644V173H726.044ZM742.031 189V185.8H745.231V189H742.031ZM742.031 173V169.8H745.231V173H742.031ZM748.431 182.6V185.8H745.231V182.6H748.431ZM748.431 173V176.2H745.231V173H748.431ZM748.431 176.2H751.631V182.6H748.431V176.2ZM754.831 182.6V185.8H751.631V182.6H754.831ZM754.831 185.8H758.031V189H754.831V185.8ZM754.831 173V176.2H751.631V173H754.831ZM754.831 169.8H758.031V173H754.831V169.8ZM761.219 173V169.8H764.419V163.4H767.619V169.8H774.019V173H767.619V185.8H764.419V173H761.219ZM767.619 185.8H774.019V189H767.619V185.8ZM790.031 185.8V160.2H793.231V185.8H790.031ZM793.231 185.8H796.431V189H793.231V185.8ZM799.625 189V169.8H802.825V189H799.625ZM799.625 166.6V163.4H802.825V166.6H799.625ZM806.031 173V169.8H809.231V163.4H812.431V169.8H818.831V173H812.431V189H809.231V173H806.031ZM812.431 163.4V160.2H818.831V163.4H812.431ZM822.031 185.8V173H825.231V176.2H834.831V173H838.031V179.4H825.231V185.8H822.031ZM825.231 185.8H838.031V189H825.231V185.8ZM825.231 173V169.8H834.831V173H825.231ZM844.419 182.6H847.619V189H844.419V182.6ZM844.419 179.4V160.2H847.619V179.4H844.419Z" fill="white"/>
<defs>
<filter id="filter0_d_384_773" x="0" y="0" width="915" height="246" filterUnits="userSpaceOnUse" color-interpolation-filters="sRGB">
<feFlood flood-opacity="0" result="BackgroundImageFix"/>
<feColorMatrix in="SourceAlpha" type="matrix" values="0 0 0 0 0 0 0 0 0 0 0 0 0 0 0 0 0 0 127 0" result="hardAlpha"/>
<feOffset dy="4"/>
<feGaussianBlur stdDeviation="2"/>
<feComposite in2="hardAlpha" operator="out"/>
<feColorMatrix type="matrix" values="0 0 0 0 0 0 0 0 0 0 0 0 0 0 0 0 0 0 0.25 0"/>
<feBlend mode="normal" in2="BackgroundImageFix" result="effect1_dropShadow_384_773"/>
<feBlend mode="normal" in="SourceGraphic" in2="effect1_dropShadow_384_773" result="shape"/>
</filter>
</defs>
</svg>
