<svg width="915" height="246" viewBox="0 0 915 246" fill="none" xmlns="http://www.w3.org/2000/svg">
<g filter="url(#filter0_d_384_812)">
<rect x="4" width="907" height="238" fill="black"/>
<rect x="7" y="3" width="901" height="232" stroke="white" stroke-width="6"/>
</g>
<path d="M51 63V34.2H54.2V47H63.8V34.2H67V63H63.8V50.2H54.2V63H51ZM70.1875 59.8V43.8H73.3875V59.8H70.1875ZM82.9875 59.8V43.8H86.1875V63H73.3875V59.8H82.9875ZM89.375 63V34.2H92.575V43.8H102.175V47H92.575V63H89.375ZM102.175 63V47H105.375V63H102.175ZM108.562 37.4V34.2H118.163V37.4H108.562ZM111.763 56.6H114.963V63H111.763V56.6ZM111.763 47H114.963V53.4H111.763V47ZM114.963 47V43.8H118.163V47H114.963ZM118.163 43.8V37.4H121.363V43.8H118.163ZM137.375 53.4V34.2H140.575V53.4H137.375ZM140.575 63V53.4H143.775V63H140.575ZM143.775 53.4V40.6H146.975V53.4H143.775ZM146.975 63V53.4H150.175V63H146.975ZM150.175 53.4V34.2H153.375V53.4H150.175ZM156.562 63V34.2H159.763V43.8H169.363V47H159.763V63H156.562ZM169.363 63V47H172.562V63H169.363ZM175.75 59.8V53.4H178.95V59.8H175.75ZM175.75 47V43.8H188.55V47H175.75ZM178.95 59.8H188.55V53.4H178.95V50.2H188.55V47H191.75V63H178.95V59.8ZM194.938 47V43.8H198.138V37.4H201.338V43.8H207.738V47H201.338V59.8H198.138V47H194.938ZM201.338 59.8H207.738V63H201.338V59.8ZM223.75 59.8V53.4H226.95V59.8H223.75ZM223.75 47V43.8H236.55V47H223.75ZM226.95 59.8H236.55V53.4H226.95V50.2H236.55V47H239.75V63H226.95V59.8ZM242.938 63V43.8H246.138V47H249.338V50.2H246.138V63H242.938ZM255.738 47H249.338V43.8H255.738V47ZM258.938 59.8V47H262.138V50.2H271.738V47H274.938V53.4H262.138V59.8H258.938ZM262.138 59.8H274.938V63H262.138V59.8ZM262.138 47V43.8H271.738V47H262.138ZM290.938 66.2V63H297.338V66.2H290.938ZM290.938 50.2V43.8H294.138V50.2H290.938ZM294.138 56.6V50.2H297.338V56.6H294.138ZM297.338 56.6H300.538V63H297.338V56.6ZM300.538 56.6V50.2H303.738V56.6H300.538ZM303.738 50.2V43.8H306.938V50.2H303.738ZM310.125 59.8V47H313.325V59.8H310.125ZM322.925 59.8V63H313.325V59.8H322.925ZM322.925 47H326.125V59.8H322.925V47ZM322.925 43.8V47H313.325V43.8H322.925ZM329.312 59.8V43.8H332.513V59.8H329.312ZM342.113 59.8V43.8H345.312V63H332.513V59.8H342.113ZM361.312 59.8V47H364.513V59.8H361.312ZM374.113 59.8V47H364.513V43.8H374.113V34.2H377.312V63H364.513V59.8H374.113ZM380.5 59.8V47H383.7V59.8H380.5ZM393.3 59.8V63H383.7V59.8H393.3ZM393.3 47H396.5V59.8H393.3V47ZM393.3 43.8V47H383.7V43.8H393.3ZM399.688 63V43.8H402.888V63H399.688ZM399.688 40.6V37.4H402.888V40.6H399.688ZM406.094 63V43.8H418.894V47H409.294V63H406.094ZM418.894 63V47H422.094V63H418.894ZM425.281 66.2V63H438.081V66.2H425.281ZM425.281 56.6V47H428.481V56.6H425.281ZM428.481 56.6H438.081V47H428.481V43.8H441.281V63H438.081V59.8H428.481V56.6ZM447.669 63V59.8H450.869V63H447.669ZM460.481 63V59.8H463.681V63H460.481ZM473.294 63V59.8H476.494V63H473.294ZM486.106 56.6H489.306V63H486.106V56.6ZM486.106 53.4V34.2H489.306V53.4H486.106ZM495.719 37.4V34.2H505.319V37.4H495.719ZM498.919 56.6H502.119V63H498.919V56.6ZM498.919 47H502.119V53.4H498.919V47ZM502.119 47V43.8H505.319V47H502.119ZM505.319 43.8V37.4H508.519V43.8H505.319Z" fill="white"/>
<defs>
<filter id="filter0_d_384_812" x="0" y="0" width="915" height="246" filterUnits="userSpaceOnUse" color-interpolation-filters="sRGB">
<feFlood flood-opacity="0" result="BackgroundImageFix"/>
<feColorMatrix in="SourceAlpha" type="matrix" values="0 0 0 0 0 0 0 0 0 0 0 0 0 0 0 0 0 0 127 0" result="hardAlpha"/>
<feOffset dy="4"/>
<feGaussianBlur stdDeviation="2"/>
<feComposite in2="hardAlpha" operator="out"/>
<feColorMatrix type="matrix" values="0 0 0 0 0 0 0 0 0 0 0 0 0 0 0 0 0 0 0.25 0"/>
<feBlend mode="normal" in2="BackgroundImageFix" result="effect1_dropShadow_384_812"/>
<feBlend mode="normal" in="SourceGraphic" in2="effect1_dropShadow_384_812" result="shape"/>
</filter>
</defs>
</svg>
