<svg width="2157" height="251" viewBox="0 0 2157 251" fill="none" xmlns="http://www.w3.org/2000/svg">
<path d="M125 188H93.75H62.5H31.25H0V156.75V125.5V94.25V63H31.25H62.5H93.75V31.75H62.5H31.25V0.5H62.5H93.75H125H156.25V31.75V63V94.25V125.5V156.75V188H125ZM93.75 156.75V125.5V94.25H62.5V125.5V156.75H93.75ZM312.5 188H281.25V156.75V125.5V94.25V63V31.75H250V63V94.25V125.5V156.75V188H218.75H187.5V156.75V125.5V94.25V63V31.75V0.5H218.75H250H281.25H312.5H343.75V31.75V63V94.25V125.5V156.75V188H312.5ZM500 188H468.75H437.5H406.25H375V156.75V125.5V94.25V63H406.25H437.5H468.75V31.75V0.5H500H531.25V31.75V63V94.25V125.5V156.75V188H500ZM468.75 156.75V125.5V94.25H437.5V125.5V156.75H468.75ZM843.75 188H812.5H781.25H750H718.75V156.75V125.5H750H781.25V156.75H812.5V125.5V94.25H781.25H750H718.75V63V31.75V0.5H750H781.25H812.5H843.75H875V31.75H843.75H812.5H781.25V63H812.5H843.75H875V94.25V125.5V156.75V188H843.75ZM1000 188H968.75H937.5V156.75V125.5V94.25H906.25V63H937.5V31.75V0.5H968.75H1000V31.75V63H1031.25V94.25H1000V125.5V156.75H1031.25V188H1000ZM1093.75 188H1062.5V156.75V125.5V94.25V63V31.75V0.5H1093.75H1125H1156.25H1187.5H1218.75V31.75V63H1187.5H1156.25V31.75H1125V63V94.25V125.5V156.75V188H1093.75ZM1375 188H1343.75H1312.5H1281.25H1250V156.75V125.5V94.25V63V31.75V0.5H1281.25H1312.5H1343.75H1375H1406.25V31.75V63V94.25V125.5V156.75V188H1375ZM1343.75 156.75V125.5V94.25V63V31.75H1312.5V63V94.25V125.5V156.75H1343.75ZM1562.5 188H1531.25V156.75V125.5V94.25V63V31.75H1500V63V94.25V125.5V156.75V188H1468.75H1437.5V156.75V125.5V94.25V63V31.75V0.5H1468.75H1500H1531.25H1562.5H1593.75V31.75V63V94.25V125.5V156.75V188H1562.5ZM1750 250.5H1718.75H1687.5H1656.25V219.25H1687.5H1718.75V188H1687.5H1656.25H1625V156.75V125.5V94.25V63V31.75V0.5H1656.25H1687.5H1718.75H1750H1781.25V31.75V63V94.25V125.5V156.75V188V219.25V250.5H1750ZM1718.75 156.75V125.5V94.25V63V31.75H1687.5V63V94.25V125.5V156.75H1718.75ZM1937.5 156.75H1968.75V188H1937.5H1906.25H1875H1843.75H1812.5V156.75V125.5V94.25V63V31.75V0.5H1843.75H1875H1906.25H1937.5H1968.75V31.75V63V94.25V125.5H1937.5H1906.25H1875V156.75H1906.25H1937.5ZM1906.25 94.25V63V31.75H1875V63V94.25H1906.25ZM2031.25 188H2000V156.75V125.5V94.25V63V31.75V0.5H2031.25H2062.5H2093.75H2125H2156.25V31.75V63H2125H2093.75V31.75H2062.5V63V94.25V125.5V156.75V188H2031.25Z" fill="white"/>
</svg>
