<svg width="2907" height="251" viewBox="0 0 2907 251" fill="none" xmlns="http://www.w3.org/2000/svg">
<path d="M125 188H93.75H62.5H31.25H0V156.75V125.5V94.25V63H31.25H62.5H93.75V31.75H62.5H31.25V0.5H62.5H93.75H125H156.25V31.75V63V94.25V125.5V156.75V188H125ZM93.75 156.75V125.5V94.25H62.5V125.5V156.75H93.75ZM468.75 94.25H437.5V63V31.75H468.75V0.5H500V31.75V63V94.25H468.75ZM375 94.25H343.75V63V31.75H375V0.5H406.25V31.75V63V94.25H375ZM656.25 188H625V156.75V125.5V94.25H593.75V125.5V156.75V188H562.5H531.25V156.75V125.5V94.25V63V31.75V0.5H562.5H593.75V31.75V63H625H656.25H687.5V94.25V125.5V156.75V188H656.25ZM843.75 188H812.5H781.25H750H718.75V156.75V125.5V94.25V63H750H781.25H812.5V31.75H781.25H750V0.5H781.25H812.5H843.75H875V31.75V63V94.25V125.5V156.75V188H843.75ZM812.5 156.75V125.5V94.25H781.25V125.5V156.75H812.5ZM937.5 250.5H906.25V219.25V188V156.75V125.5V94.25V63V31.75V0.5H937.5H968.75H1000H1031.25H1062.5V31.75V63V94.25V125.5V156.75V188H1031.25H1000H968.75V219.25V250.5H937.5ZM1000 156.75V125.5V94.25V63V31.75H968.75V63V94.25V125.5V156.75H1000ZM1125 250.5H1093.75V219.25V188V156.75V125.5V94.25V63V31.75V0.5H1125H1156.25H1187.5H1218.75H1250V31.75V63V94.25V125.5V156.75V188H1218.75H1187.5H1156.25V219.25V250.5H1125ZM1187.5 156.75V125.5V94.25V63V31.75H1156.25V63V94.25V125.5V156.75H1187.5ZM1406.25 250.5H1375H1343.75H1312.5H1281.25V219.25H1312.5H1343.75H1375V188H1343.75H1312.5H1281.25V156.75V125.5V94.25V63V31.75V0.5H1312.5H1343.75V31.75V63V94.25V125.5V156.75H1375V125.5V94.25V63V31.75V0.5H1406.25H1437.5V31.75V63V94.25V125.5V156.75V188V219.25V250.5H1406.25ZM1750 156.75H1781.25V188H1750H1718.75H1687.5H1656.25H1625V156.75V125.5V94.25V63V31.75V0.5H1656.25H1687.5H1718.75H1750H1781.25V31.75V63V94.25V125.5H1750H1718.75H1687.5V156.75H1718.75H1750ZM1718.75 94.25V63V31.75H1687.5V63V94.25H1718.75ZM1937.5 188H1906.25V156.75V125.5V94.25V63V31.75H1875V63V94.25V125.5V156.75V188H1843.75H1812.5V156.75V125.5V94.25V63V31.75V0.5H1843.75H1875H1906.25H1937.5H1968.75V31.75V63V94.25V125.5V156.75V188H1937.5ZM2125 188H2093.75H2062.5H2031.25H2000V156.75V125.5V94.25V63H2031.25H2062.5H2093.75V31.75V0.5H2125H2156.25V31.75V63V94.25V125.5V156.75V188H2125ZM2093.75 156.75V125.5V94.25H2062.5V125.5V156.75H2093.75ZM2218.75 188H2187.5V156.75V125.5V94.25V63H2218.75H2250V94.25V125.5V156.75V188H2218.75ZM2218.75 0.5H2250V31.75H2218.75H2187.5V0.5H2218.75ZM2406.25 188H2375V156.75V125.5V94.25V63V31.75H2343.75V63V94.25V125.5V156.75V188H2312.5H2281.25V156.75V125.5V94.25V63V31.75V0.5H2312.5H2343.75H2375H2406.25H2437.5V31.75V63V94.25V125.5V156.75V188H2406.25ZM2593.75 250.5H2562.5H2531.25H2500V219.25H2531.25H2562.5V188H2531.25H2500H2468.75V156.75V125.5V94.25V63V31.75V0.5H2500H2531.25H2562.5H2593.75H2625V31.75V63V94.25V125.5V156.75V188V219.25V250.5H2593.75ZM2562.5 156.75V125.5V94.25V63V31.75H2531.25V63V94.25V125.5V156.75H2562.5ZM2687.5 188H2656.25V156.75V125.5H2687.5H2718.75V156.75V188H2687.5ZM2875 94.25V63H2843.75V31.75V0.5H2875H2906.25V31.75V63V94.25H2875ZM2781.25 94.25V63H2750V31.75V0.5H2781.25H2812.5V31.75V63V94.25H2781.25Z" fill="white"/>
</svg>
