<svg width="3282" height="251" viewBox="0 0 3282 251" fill="none" xmlns="http://www.w3.org/2000/svg">
<path d="M93.75 188H62.5H31.25V156.75V125.5V94.25H0V63H31.25V31.75V0.5H62.5H93.75V31.75V63H125V94.25H93.75V125.5V156.75H125V188H93.75ZM281.25 188H250H218.75H187.5H156.25V156.75V125.5V94.25V63V31.75V0.5H187.5H218.75H250H281.25H312.5V31.75V63V94.25V125.5V156.75V188H281.25ZM250 156.75V125.5V94.25V63V31.75H218.75V63V94.25V125.5V156.75H250ZM531.25 188H500V156.75V125.5V94.25V63V31.75V0.5H531.25H562.5H593.75H625H656.25V31.75V63H625H593.75V31.75H562.5V63V94.25V125.5V156.75V188H531.25ZM812.5 156.75H843.75V188H812.5H781.25H750H718.75H687.5V156.75V125.5V94.25V63V31.75V0.5H718.75H750H781.25H812.5H843.75V31.75V63V94.25V125.5H812.5H781.25H750V156.75H781.25H812.5ZM781.25 94.25V63V31.75H750V63V94.25H781.25ZM1000 188H968.75H937.5H906.25H875V156.75V125.5H906.25H937.5V156.75H968.75V125.5V94.25H937.5H906.25H875V63V31.75V0.5H906.25H937.5H968.75H1000H1031.25V31.75H1000H968.75H937.5V63H968.75H1000H1031.25V94.25V125.5V156.75V188H1000ZM1187.5 156.75H1218.75V188H1187.5H1156.25H1125H1093.75H1062.5V156.75V125.5V94.25V63V31.75V0.5H1093.75H1125H1156.25H1187.5H1218.75V31.75V63V94.25V125.5H1187.5H1156.25H1125V156.75H1156.25H1187.5ZM1156.25 94.25V63V31.75H1125V63V94.25H1156.25ZM1343.75 188H1312.5H1281.25V156.75V125.5V94.25H1250V63H1281.25V31.75V0.5H1312.5H1343.75V31.75V63H1375V94.25H1343.75V125.5V156.75H1375V188H1343.75ZM1687.5 156.75H1718.75V188H1687.5H1656.25H1625H1593.75H1562.5V156.75V125.5V94.25V63V31.75V0.5H1593.75H1625H1656.25H1687.5H1718.75V31.75V63V94.25V125.5H1687.5H1656.25H1625V156.75H1656.25H1687.5ZM1656.25 94.25V63V31.75H1625V63V94.25H1656.25ZM1875 188H1843.75H1812.5H1781.25V156.75H1750V125.5V94.25V63V31.75V0.5H1781.25H1812.5V31.75V63V94.25V125.5V156.75H1843.75V125.5V94.25V63V31.75V0.5H1875H1906.25V31.75V63V94.25V125.5V156.75V188H1875ZM2062.5 156.75H2093.75V188H2062.5H2031.25H2000H1968.75H1937.5V156.75V125.5V94.25V63V31.75V0.5H1968.75H2000H2031.25H2062.5H2093.75V31.75V63V94.25V125.5H2062.5H2031.25H2000V156.75H2031.25H2062.5ZM2031.25 94.25V63V31.75H2000V63V94.25H2031.25ZM2156.25 188H2125V156.75V125.5V94.25V63V31.75V0.5H2156.25H2187.5H2218.75H2250H2281.25V31.75V63H2250H2218.75V31.75H2187.5V63V94.25V125.5V156.75V188H2156.25ZM2437.5 250.5H2406.25H2375H2343.75H2312.5V219.25H2343.75H2375H2406.25V188H2375H2343.75H2312.5V156.75V125.5V94.25V63V31.75V0.5H2343.75H2375V31.75V63V94.25V125.5V156.75H2406.25V125.5V94.25V63V31.75V0.5H2437.5H2468.75V31.75V63V94.25V125.5V156.75V188V219.25V250.5H2437.5ZM2593.75 188H2562.5H2531.25V156.75V125.5V94.25H2500V63H2531.25V31.75V0.5H2562.5H2593.75V31.75V63H2625V94.25H2593.75V125.5V156.75H2625V188H2593.75ZM2781.25 188H2750V156.75V125.5V94.25H2718.75V125.5V156.75V188H2687.5H2656.25V156.75V125.5V94.25V63V31.75V0.5H2687.5H2718.75V31.75V63H2750H2781.25H2812.5V94.25V125.5V156.75V188H2781.25ZM2875 188H2843.75V156.75V125.5V94.25V63H2875H2906.25V94.25V125.5V156.75V188H2875ZM2875 0.5H2906.25V31.75H2875H2843.75V0.5H2875ZM3062.5 188H3031.25V156.75V125.5V94.25V63V31.75H3000V63V94.25V125.5V156.75V188H2968.75H2937.5V156.75V125.5V94.25V63V31.75V0.5H2968.75H3000H3031.25H3062.5H3093.75V31.75V63V94.25V125.5V156.75V188H3062.5ZM3250 250.5H3218.75H3187.5H3156.25V219.25H3187.5H3218.75V188H3187.5H3156.25H3125V156.75V125.5V94.25V63V31.75V0.5H3156.25H3187.5H3218.75H3250H3281.25V31.75V63V94.25V125.5V156.75V188V219.25V250.5H3250ZM3218.75 156.75V125.5V94.25V63V31.75H3187.5V63V94.25V125.5V156.75H3218.75Z" fill="white"/>
</svg>
