<svg width="3750" height="251" viewBox="0 0 3750 251" fill="none" xmlns="http://www.w3.org/2000/svg">
<path d="M187.5 188H156.25V156.75H125V125.5H93.75V156.75H62.5V188H31.25H0V156.75V125.5V94.25V63V31.75V0.5H31.25H62.5V31.75V63V94.25H93.75V63H125V94.25H156.25V63V31.75V0.5H187.5H218.75V31.75V63V94.25V125.5V156.75V188H187.5ZM375 188H343.75V156.75V125.5V94.25H312.5V125.5V156.75V188H281.25H250V156.75V125.5V94.25V63V31.75V0.5H281.25H312.5V31.75V63H343.75H375H406.25V94.25V125.5V156.75V188H375ZM562.5 188H531.25H500H468.75H437.5V156.75V125.5V94.25V63H468.75H500H531.25V31.75H500H468.75V0.5H500H531.25H562.5H593.75V31.75V63V94.25V125.5V156.75V188H562.5ZM531.25 156.75V125.5V94.25H500V125.5V156.75H531.25ZM718.75 188H687.5H656.25V156.75V125.5V94.25H625V63H656.25V31.75V0.5H687.5H718.75V31.75V63H750V94.25H718.75V125.5V156.75H750V188H718.75ZM1062.5 188H1031.25H1000H968.75H937.5V156.75V125.5V94.25V63H968.75H1000H1031.25V31.75H1000H968.75V0.5H1000H1031.25H1062.5H1093.75V31.75V63V94.25V125.5V156.75V188H1062.5ZM1031.25 156.75V125.5V94.25H1000V125.5V156.75H1031.25ZM1156.25 188H1125V156.75V125.5V94.25V63V31.75V0.5H1156.25H1187.5H1218.75H1250H1281.25V31.75V63H1250H1218.75V31.75H1187.5V63V94.25V125.5V156.75V188H1156.25ZM1437.5 156.75H1468.75V188H1437.5H1406.25H1375H1343.75H1312.5V156.75V125.5V94.25V63V31.75V0.5H1343.75H1375H1406.25H1437.5H1468.75V31.75V63V94.25V125.5H1437.5H1406.25H1375V156.75H1406.25H1437.5ZM1406.25 94.25V63V31.75H1375V63V94.25H1406.25ZM1781.25 250.5H1750H1718.75H1687.5H1656.25V219.25H1687.5H1718.75H1750V188H1718.75H1687.5H1656.25V156.75V125.5V94.25V63V31.75V0.5H1687.5H1718.75V31.75V63V94.25V125.5V156.75H1750V125.5V94.25V63V31.75V0.5H1781.25H1812.5V31.75V63V94.25V125.5V156.75V188V219.25V250.5H1781.25ZM1968.75 188H1937.5H1906.25H1875H1843.75V156.75V125.5V94.25V63V31.75V0.5H1875H1906.25H1937.5H1968.75H2000V31.75V63V94.25V125.5V156.75V188H1968.75ZM1937.5 156.75V125.5V94.25V63V31.75H1906.25V63V94.25V125.5V156.75H1937.5ZM2156.25 188H2125H2093.75H2062.5H2031.25V156.75V125.5V94.25V63V31.75V0.5H2062.5H2093.75V31.75V63V94.25V125.5V156.75H2125V125.5V94.25V63V31.75V0.5H2156.25H2187.5V31.75V63V94.25V125.5V156.75V188H2156.25ZM2500 188H2468.75H2437.5H2406.25H2375V156.75V125.5V94.25V63H2406.25H2437.5H2468.75V31.75V0.5H2500H2531.25V31.75V63V94.25V125.5V156.75V188H2500ZM2468.75 156.75V125.5V94.25H2437.5V125.5V156.75H2468.75ZM2687.5 188H2656.25H2625H2593.75H2562.5V156.75V125.5V94.25V63V31.75V0.5H2593.75H2625H2656.25H2687.5H2718.75V31.75V63V94.25V125.5V156.75V188H2687.5ZM2656.25 156.75V125.5V94.25V63V31.75H2625V63V94.25V125.5V156.75H2656.25ZM2781.25 188H2750V156.75V125.5V94.25V63H2781.25H2812.5V94.25V125.5V156.75V188H2781.25ZM2781.25 0.5H2812.5V31.75H2781.25H2750V0.5H2781.25ZM2968.75 188H2937.5V156.75V125.5V94.25V63V31.75H2906.25V63V94.25V125.5V156.75V188H2875H2843.75V156.75V125.5V94.25V63V31.75V0.5H2875H2906.25H2937.5H2968.75H3000V31.75V63V94.25V125.5V156.75V188H2968.75ZM3156.25 250.5H3125H3093.75H3062.5V219.25H3093.75H3125V188H3093.75H3062.5H3031.25V156.75V125.5V94.25V63V31.75V0.5H3062.5H3093.75H3125H3156.25H3187.5V31.75V63V94.25V125.5V156.75V188V219.25V250.5H3156.25ZM3125 156.75V125.5V94.25V63V31.75H3093.75V63V94.25V125.5V156.75H3125ZM3250 188H3218.75V156.75V125.5H3250H3281.25V156.75V188H3250ZM3343.75 188H3312.5V156.75V125.5H3343.75H3375V156.75V188H3343.75ZM3437.5 188H3406.25V156.75V125.5H3437.5H3468.75V156.75V188H3437.5ZM3531.25 156.75H3562.5V188H3531.25H3500V156.75H3531.25ZM3531.25 125.5H3500V94.25V63V31.75V0.5H3531.25H3562.5V31.75V63V94.25V125.5H3531.25ZM3656.25 156.75H3687.5V188H3656.25H3625V156.75H3656.25ZM3718.75 125.5H3687.5H3656.25H3625V94.25H3656.25H3687.5V63V31.75H3656.25H3625H3593.75V0.5H3625H3656.25H3687.5H3718.75H3750V31.75V63V94.25V125.5H3718.75Z" fill="white"/>
</svg>
