<svg width="1594" height="251" viewBox="0 0 1594 251" fill="none" xmlns="http://www.w3.org/2000/svg">
<path d="M125 250.5H93.75H62.5H31.25V219.25H62.5H93.75V188H62.5H31.25H0V156.75V125.5V94.25V63V31.75V0.5H31.25H62.5H93.75H125H156.25V31.75V63V94.25V125.5V156.75V188V219.25V250.5H125ZM93.75 156.75V125.5V94.25V63V31.75H62.5V63V94.25V125.5V156.75H93.75ZM312.5 156.75H343.75V188H312.5H281.25H250H218.75H187.5V156.75V125.5V94.25V63V31.75V0.5H218.75H250H281.25H312.5H343.75V31.75V63V94.25V125.5H312.5H281.25H250V156.75H281.25H312.5ZM281.25 94.25V63V31.75H250V63V94.25H281.25ZM468.75 188H437.5H406.25V156.75V125.5V94.25H375V63H406.25V31.75V0.5H437.5H468.75V31.75V63H500V94.25H468.75V125.5V156.75H500V188H468.75ZM812.5 188H781.25H750H718.75H687.5V156.75V125.5V94.25V63V31.75V0.5H718.75H750H781.25H812.5H843.75V31.75V63H812.5H781.25V31.75H750V63V94.25V125.5V156.75H781.25V125.5H812.5H843.75V156.75V188H812.5ZM1000 188H968.75H937.5H906.25H875V156.75V125.5V94.25V63V31.75V0.5H906.25H937.5H968.75H1000H1031.25V31.75V63V94.25V125.5V156.75V188H1000ZM968.75 156.75V125.5V94.25V63V31.75H937.5V63V94.25V125.5V156.75H968.75ZM1187.5 188H1156.25H1125H1093.75H1062.5V156.75V125.5V94.25V63V31.75V0.5H1093.75H1125H1156.25H1187.5H1218.75V31.75V63H1187.5H1156.25V31.75H1125V63V94.25V125.5V156.75H1156.25V125.5H1187.5H1218.75V156.75V188H1187.5ZM1375 188H1343.75V156.75V125.5V94.25H1312.5V125.5V156.75V188H1281.25H1250V156.75V125.5V94.25V63V31.75V0.5H1281.25H1312.5V31.75V63H1343.75V31.75H1375H1406.25V63H1375V94.25H1406.25V125.5V156.75V188H1375ZM1562.5 250.5H1531.25H1500H1468.75H1437.5V219.25H1468.75H1500H1531.25V188H1500H1468.75H1437.5V156.75V125.5V94.25V63V31.75V0.5H1468.75H1500V31.75V63V94.25V125.5V156.75H1531.25V125.5V94.25V63V31.75V0.5H1562.5H1593.75V31.75V63V94.25V125.5V156.75V188V219.25V250.5H1562.5Z" fill="white"/>
</svg>
