<svg width="3032" height="251" viewBox="0 0 3032 251" fill="none" xmlns="http://www.w3.org/2000/svg">
<path d="M31.25 188H0V156.75V125.5V94.25V63V31.75V0.5H31.25H62.5H93.75H125H156.25V31.75V63H125H93.75V31.75H62.5V63V94.25V125.5V156.75V188H31.25ZM312.5 156.75H343.75V188H312.5H281.25H250H218.75H187.5V156.75V125.5V94.25V63V31.75V0.5H218.75H250H281.25H312.5H343.75V31.75V63V94.25V125.5H312.5H281.25H250V156.75H281.25H312.5ZM281.25 94.25V63V31.75H250V63V94.25H281.25ZM593.75 188H562.5V156.75V125.5V94.25V63V31.75H531.25V63V94.25V125.5V156.75V188H500H468.75V156.75V125.5V94.25V63V31.75H437.5V63V94.25V125.5V156.75V188H406.25H375V156.75V125.5V94.25V63V31.75V0.5H406.25H437.5H468.75H500H531.25H562.5H593.75H625V31.75V63V94.25V125.5V156.75V188H593.75ZM781.25 156.75H812.5V188H781.25H750H718.75H687.5H656.25V156.75V125.5V94.25V63V31.75V0.5H687.5H718.75H750H781.25H812.5V31.75V63V94.25V125.5H781.25H750H718.75V156.75H750H781.25ZM750 94.25V63V31.75H718.75V63V94.25H750ZM1062.5 188H1031.25V156.75V125.5V94.25V63V31.75H1000V63V94.25V125.5V156.75V188H968.75H937.5V156.75V125.5V94.25V63V31.75H906.25V63V94.25V125.5V156.75V188H875H843.75V156.75V125.5V94.25V63V31.75V0.5H875H906.25H937.5H968.75H1000H1031.25H1062.5H1093.75V31.75V63V94.25V125.5V156.75V188H1062.5ZM1250 188H1218.75H1187.5H1156.25H1125V156.75V125.5V94.25V63V31.75V0.5H1156.25H1187.5V31.75V63H1218.75H1250H1281.25V94.25V125.5V156.75V188H1250ZM1218.75 156.75V125.5V94.25H1187.5V125.5V156.75H1218.75ZM1437.5 156.75H1468.75V188H1437.5H1406.25H1375H1343.75H1312.5V156.75V125.5V94.25V63V31.75V0.5H1343.75H1375H1406.25H1437.5H1468.75V31.75V63V94.25V125.5H1437.5H1406.25H1375V156.75H1406.25H1437.5ZM1406.25 94.25V63V31.75H1375V63V94.25H1406.25ZM1531.25 188H1500V156.75V125.5V94.25V63V31.75V0.5H1531.25H1562.5H1593.75H1625H1656.25V31.75V63H1625H1593.75V31.75H1562.5V63V94.25V125.5V156.75V188H1531.25ZM1812.5 156.75H1843.75V188H1812.5H1781.25H1750H1718.75H1687.5V156.75V125.5V94.25V63V31.75V0.5H1718.75H1750H1781.25H1812.5H1843.75V31.75V63V94.25V125.5H1812.5H1781.25H1750V156.75H1781.25H1812.5ZM1781.25 94.25V63V31.75H1750V63V94.25H1781.25ZM2000 188H1968.75H1937.5H1906.25H1875V156.75V125.5V94.25V63H1906.25H1937.5H1968.75V31.75V0.5H2000H2031.25V31.75V63V94.25V125.5V156.75V188H2000ZM1968.75 156.75V125.5V94.25H1937.5V125.5V156.75H1968.75ZM2343.75 250.5H2312.5H2281.25H2250H2218.75V219.25H2250H2281.25H2312.5V188H2281.25H2250H2218.75V156.75V125.5V94.25V63V31.75V0.5H2250H2281.25V31.75V63V94.25V125.5V156.75H2312.5V125.5V94.25V63V31.75V0.5H2343.75H2375V31.75V63V94.25V125.5V156.75V188V219.25V250.5H2343.75ZM2531.25 188H2500H2468.75H2437.5H2406.25V156.75V125.5V94.25V63V31.75V0.5H2437.5H2468.75H2500H2531.25H2562.5V31.75V63V94.25V125.5V156.75V188H2531.25ZM2500 156.75V125.5V94.25V63V31.75H2468.75V63V94.25V125.5V156.75H2500ZM2718.75 188H2687.5H2656.25H2625H2593.75V156.75V125.5V94.25V63V31.75V0.5H2625H2656.25V31.75V63V94.25V125.5V156.75H2687.5V125.5V94.25V63V31.75V0.5H2718.75H2750V31.75V63V94.25V125.5V156.75V188H2718.75ZM2812.5 188H2781.25V156.75V125.5H2812.5H2843.75V156.75V188H2812.5ZM2906.25 188H2875V156.75V125.5H2906.25H2937.5V156.75V188H2906.25ZM3000 188H2968.75V156.75V125.5H3000H3031.25V156.75V188H3000Z" fill="white"/>
</svg>
