<svg width="1938" height="188" viewBox="0 0 1938 188" fill="none" xmlns="http://www.w3.org/2000/svg">
<path d="M93.75 188H62.5H31.25V156.75V125.5V94.25H0V63H31.25V31.75V0.5H62.5H93.75V31.75V63H125V94.25H93.75V125.5V156.75H125V188H93.75ZM281.25 188H250H218.75H187.5H156.25V156.75V125.5V94.25V63V31.75V0.5H187.5H218.75H250H281.25H312.5V31.75V63V94.25V125.5V156.75V188H281.25ZM250 156.75V125.5V94.25V63V31.75H218.75V63V94.25V125.5V156.75H250ZM625 188H593.75H562.5H531.25H500V156.75V125.5V94.25V63V31.75V0.5H531.25H562.5V31.75V63H593.75H625H656.25V94.25V125.5V156.75V188H625ZM593.75 156.75V125.5V94.25H562.5V125.5V156.75H593.75ZM812.5 156.75H843.75V188H812.5H781.25H750H718.75H687.5V156.75V125.5V94.25V63V31.75V0.5H718.75H750H781.25H812.5H843.75V31.75V63V94.25V125.5H812.5H781.25H750V156.75H781.25H812.5ZM781.25 94.25V63V31.75H750V63V94.25H781.25ZM1156.25 188H1125H1093.75H1062.5H1031.25V156.75V125.5H1062.5H1093.75V156.75H1125V125.5V94.25H1093.75H1062.5H1031.25V63V31.75V0.5H1062.5H1093.75H1125H1156.25H1187.5V31.75H1156.25H1125H1093.75V63H1125H1156.25H1187.5V94.25V125.5V156.75V188H1156.25ZM1343.75 188H1312.5H1281.25H1250H1218.75V156.75V125.5V94.25V63H1250H1281.25H1312.5V31.75H1281.25H1250V0.5H1281.25H1312.5H1343.75H1375V31.75V63V94.25V125.5V156.75V188H1343.75ZM1312.5 156.75V125.5V94.25H1281.25V125.5V156.75H1312.5ZM1531.25 188H1500H1468.75H1437.5V156.75H1406.25V125.5V94.25V63V31.75V0.5H1437.5H1468.75V31.75V63V94.25V125.5V156.75H1500V125.5V94.25V63V31.75V0.5H1531.25H1562.5V31.75V63V94.25V125.5V156.75V188H1531.25ZM1718.75 156.75H1750V188H1718.75H1687.5H1656.25H1625H1593.75V156.75V125.5V94.25V63V31.75V0.5H1625H1656.25H1687.5H1718.75H1750V31.75V63V94.25V125.5H1718.75H1687.5H1656.25V156.75H1687.5H1718.75ZM1687.5 94.25V63V31.75H1656.25V63V94.25H1687.5ZM1906.25 188H1875H1843.75H1812.5H1781.25V156.75V125.5V94.25V63H1812.5H1843.75H1875V31.75V0.5H1906.25H1937.5V31.75V63V94.25V125.5V156.75V188H1906.25ZM1875 156.75V125.5V94.25H1843.75V125.5V156.75H1875Z" fill="white"/>
</svg>
