<svg width="2032" height="251" viewBox="0 0 2032 251" fill="none" xmlns="http://www.w3.org/2000/svg">
<path d="M93.75 188H62.5V156.75V125.5V94.25V63V31.75H31.25H0V0.5H31.25H62.5H93.75H125H156.25H187.5V31.75H156.25H125V63V94.25V125.5V156.75V188H93.75ZM343.75 188H312.5V156.75V125.5H281.25V156.75V188H250H218.75V156.75V125.5V94.25V63V31.75V0.5H250H281.25H312.5H343.75H375V31.75V63V94.25H343.75V125.5H375V156.75V188H343.75ZM312.5 94.25V63V31.75H281.25V63V94.25H312.5ZM531.25 188H500H468.75H437.5H406.25V156.75V125.5V94.25V63V31.75V0.5H437.5H468.75V31.75V63V94.25V125.5V156.75H500V125.5V94.25V63V31.75V0.5H531.25H562.5V31.75V63V94.25V125.5V156.75V188H531.25ZM718.75 188H687.5H656.25H625H593.75V156.75V125.5V94.25V63V31.75V0.5H625H656.25H687.5H718.75H750V31.75H718.75H687.5H656.25V63H687.5H718.75V94.25H687.5H656.25V125.5V156.75H687.5V125.5H718.75H750V156.75V188H718.75ZM968.75 250.5H937.5V219.25V188V156.75V125.5V94.25V63V31.75V0.5H968.75H1000H1031.25H1062.5H1093.75V31.75V63V94.25V125.5V156.75V188H1062.5H1031.25H1000V219.25V250.5H968.75ZM1031.25 156.75V125.5V94.25V63V31.75H1000V63V94.25V125.5V156.75H1031.25ZM1250 188H1218.75H1187.5H1156.25H1125V156.75V125.5V94.25V63V31.75V0.5H1156.25H1187.5H1218.75H1250H1281.25V31.75V63V94.25V125.5V156.75V188H1250ZM1218.75 156.75V125.5V94.25V63V31.75H1187.5V63V94.25V125.5V156.75H1218.75ZM1531.25 188H1500H1468.75H1437.5H1406.25H1375H1343.75H1312.5V156.75V125.5V94.25V63V31.75V0.5H1343.75H1375V31.75V63V94.25V125.5V156.75H1406.25V125.5V94.25V63V31.75V0.5H1437.5H1468.75V31.75V63V94.25V125.5V156.75H1500V125.5V94.25V63V31.75V0.5H1531.25H1562.5V31.75V63V94.25V125.5V156.75V188H1531.25ZM1718.75 156.75H1750V188H1718.75H1687.5H1656.25H1625H1593.75V156.75V125.5V94.25V63V31.75V0.5H1625H1656.25H1687.5H1718.75H1750V31.75V63V94.25V125.5H1718.75H1687.5H1656.25V156.75H1687.5H1718.75ZM1687.5 94.25V63V31.75H1656.25V63V94.25H1687.5ZM1812.5 188H1781.25V156.75V125.5V94.25V63V31.75V0.5H1812.5H1843.75H1875H1906.25H1937.5V31.75V63H1906.25H1875V31.75H1843.75V63V94.25V125.5V156.75V188H1812.5ZM2000 156.75H2031.25V188H2000H1968.75V156.75H2000ZM2000 125.5H1968.75V94.25V63V31.75V0.5H2000H2031.25V31.75V63V94.25V125.5H2000Z" fill="white"/>
</svg>
