<svg width="750" height="188" viewBox="0 0 750 188" fill="none" xmlns="http://www.w3.org/2000/svg">
<path d="M93.75 188H62.5H31.25H0V156.75V125.5V94.25V63V31.75V0.5H31.25H62.5H93.75H125H156.25V31.75V63V94.25V125.5V156.75H125V188H93.75ZM93.75 156.75V125.5V94.25V63V31.75H62.5V63V94.25V125.5V156.75H93.75ZM312.5 188H281.25H250H218.75H187.5V156.75V125.5V94.25V63V31.75V0.5H218.75H250H281.25H312.5H343.75V31.75V63V94.25V125.5V156.75V188H312.5ZM281.25 156.75V125.5V94.25V63V31.75H250V63V94.25V125.5V156.75H281.25ZM562.5 188H531.25V156.75V125.5V94.25V63H562.5H593.75V94.25V125.5V156.75V188H562.5ZM562.5 0.5H593.75V31.75H562.5H531.25V0.5H562.5ZM718.75 188H687.5H656.25V156.75V125.5V94.25H625V63H656.25V31.75V0.5H687.5H718.75V31.75V63H750V94.25H718.75V125.5V156.75H750V188H718.75Z" fill="white"/>
</svg>
