<svg width="3125" height="251" viewBox="0 0 3125 251" fill="none" xmlns="http://www.w3.org/2000/svg">
<path d="M125 188H93.75H62.5H31.25H0V156.75V125.5V94.25V63V31.75V0.5H31.25H62.5H93.75H125H156.25V31.75H125H93.75H62.5V63H93.75H125V94.25H93.75H62.5V125.5V156.75H93.75V125.5H125H156.25V156.75V188H125ZM312.5 188H281.25H250H218.75V156.75H187.5V125.5V94.25V63V31.75V0.5H218.75H250V31.75V63V94.25V125.5V156.75H281.25V125.5V94.25V63V31.75V0.5H312.5H343.75V31.75V63V94.25V125.5V156.75V188H312.5ZM500 156.75H531.25V188H500H468.75H437.5H406.25H375V156.75V125.5V94.25V63V31.75V0.5H406.25H437.5H468.75H500H531.25V31.75V63V94.25V125.5H500H468.75H437.5V156.75H468.75H500ZM468.75 94.25V63V31.75H437.5V63V94.25H468.75ZM593.75 188H562.5V156.75V125.5V94.25V63V31.75V0.5H593.75H625H656.25H687.5H718.75V31.75V63H687.5H656.25V31.75H625V63V94.25V125.5V156.75V188H593.75ZM875 250.5H843.75H812.5H781.25H750V219.25H781.25H812.5H843.75V188H812.5H781.25H750V156.75V125.5V94.25V63V31.75V0.5H781.25H812.5V31.75V63V94.25V125.5V156.75H843.75V125.5V94.25V63V31.75V0.5H875H906.25V31.75V63V94.25V125.5V156.75V188V219.25V250.5H875ZM1187.5 188H1156.25H1125V156.75V125.5V94.25H1093.75V63H1125V31.75V0.5H1156.25H1187.5V31.75V63H1218.75V94.25H1187.5V125.5V156.75H1218.75V188H1187.5ZM1281.25 188H1250V156.75V125.5V94.25V63H1281.25H1312.5V94.25V125.5V156.75V188H1281.25ZM1281.25 0.5H1312.5V31.75H1281.25H1250V0.5H1281.25ZM1562.5 188H1531.25V156.75V125.5V94.25V63V31.75H1500V63V94.25V125.5V156.75V188H1468.75H1437.5V156.75V125.5V94.25V63V31.75H1406.25V63V94.25V125.5V156.75V188H1375H1343.75V156.75V125.5V94.25V63V31.75V0.5H1375H1406.25H1437.5H1468.75H1500H1531.25H1562.5H1593.75V31.75V63V94.25V125.5V156.75V188H1562.5ZM1750 156.75H1781.25V188H1750H1718.75H1687.5H1656.25H1625V156.75V125.5V94.25V63V31.75V0.5H1656.25H1687.5H1718.75H1750H1781.25V31.75V63V94.25V125.5H1750H1718.75H1687.5V156.75H1718.75H1750ZM1718.75 94.25V63V31.75H1687.5V63V94.25H1718.75ZM2093.75 250.5H2062.5H2031.25H2000H1968.75V219.25H2000H2031.25H2062.5V188H2031.25H2000H1968.75V156.75V125.5V94.25V63V31.75V0.5H2000H2031.25V31.75V63V94.25V125.5V156.75H2062.5V125.5V94.25V63V31.75V0.5H2093.75H2125V31.75V63V94.25V125.5V156.75V188V219.25V250.5H2093.75ZM2281.25 188H2250H2218.75H2187.5H2156.25V156.75V125.5V94.25V63V31.75V0.5H2187.5H2218.75H2250H2281.25H2312.5V31.75V63V94.25V125.5V156.75V188H2281.25ZM2250 156.75V125.5V94.25V63V31.75H2218.75V63V94.25V125.5V156.75H2250ZM2468.75 188H2437.5H2406.25H2375H2343.75V156.75V125.5V94.25V63V31.75V0.5H2375H2406.25V31.75V63V94.25V125.5V156.75H2437.5V125.5V94.25V63V31.75V0.5H2468.75H2500V31.75V63V94.25V125.5V156.75V188H2468.75ZM2812.5 188H2781.25H2750H2718.75H2687.5V156.75V125.5V94.25V63H2718.75H2750H2781.25V31.75V0.5H2812.5H2843.75V31.75V63V94.25V125.5V156.75V188H2812.5ZM2781.25 156.75V125.5V94.25H2750V125.5V156.75H2781.25ZM2906.25 188H2875V156.75V125.5V94.25V63H2906.25H2937.5V94.25V125.5V156.75V188H2906.25ZM2906.25 0.5H2937.5V31.75H2906.25H2875V0.5H2906.25ZM3093.75 156.75H3125V188H3093.75H3062.5H3031.25H3000H2968.75V156.75V125.5V94.25V63V31.75V0.5H3000H3031.25H3062.5H3093.75H3125V31.75V63V94.25V125.5H3093.75H3062.5H3031.25V156.75H3062.5H3093.75ZM3062.5 94.25V63V31.75H3031.25V63V94.25H3062.5Z" fill="white"/>
</svg>
