<svg width="2938" height="251" viewBox="0 0 2938 251" fill="none" xmlns="http://www.w3.org/2000/svg">
<path d="M125 188H93.75H62.5H31.25H0V156.75V125.5V94.25V63V31.75V0.5H31.25H62.5H93.75H125H156.25V31.75V63V94.25V125.5V156.75V188H125ZM93.75 156.75V125.5V94.25V63V31.75H62.5V63V94.25V125.5V156.75H93.75ZM250 188H218.75V156.75V125.5V94.25H187.5V63H218.75V31.75V0.5H250H281.25H312.5V31.75H281.25V63H312.5V94.25H281.25V125.5V156.75V188H250ZM625 188H593.75H562.5H531.25H500V156.75V125.5V94.25V63V31.75V0.5H531.25H562.5V31.75V63H593.75H625H656.25V94.25V125.5V156.75V188H625ZM593.75 156.75V125.5V94.25H562.5V125.5V156.75H593.75ZM812.5 156.75H843.75V188H812.5H781.25H750H718.75H687.5V156.75V125.5V94.25V63V31.75V0.5H718.75H750H781.25H812.5H843.75V31.75V63V94.25V125.5H812.5H781.25H750V156.75H781.25H812.5ZM781.25 94.25V63V31.75H750V63V94.25H781.25ZM906.25 188H875V156.75V125.5V94.25V63H906.25H937.5V94.25V125.5V156.75V188H906.25ZM906.25 0.5H937.5V31.75H906.25H875V0.5H906.25ZM1093.75 188H1062.5V156.75V125.5V94.25V63V31.75H1031.25V63V94.25V125.5V156.75V188H1000H968.75V156.75V125.5V94.25V63V31.75V0.5H1000H1031.25H1062.5H1093.75H1125V31.75V63V94.25V125.5V156.75V188H1093.75ZM1281.25 250.5H1250H1218.75H1187.5V219.25H1218.75H1250V188H1218.75H1187.5H1156.25V156.75V125.5V94.25V63V31.75V0.5H1187.5H1218.75H1250H1281.25H1312.5V31.75V63V94.25V125.5V156.75V188V219.25V250.5H1281.25ZM1250 156.75V125.5V94.25V63V31.75H1218.75V63V94.25V125.5V156.75H1250ZM1625 188H1593.75H1562.5H1531.25H1500V156.75V125.5V94.25V63H1531.25H1562.5H1593.75V31.75H1562.5H1531.25V0.5H1562.5H1593.75H1625H1656.25V31.75V63V94.25V125.5V156.75V188H1625ZM1593.75 156.75V125.5V94.25H1562.5V125.5V156.75H1593.75ZM1906.25 188H1875V156.75V125.5V94.25H1843.75V63H1875V31.75V0.5H1906.25H1937.5H1968.75V31.75H1937.5V63H1968.75V94.25H1937.5V125.5V156.75V188H1906.25ZM2062.5 188H2031.25H2000V156.75V125.5V94.25V63V31.75V0.5H2031.25H2062.5V31.75V63V94.25V125.5V156.75H2093.75V188H2062.5ZM2250 188H2218.75H2187.5H2156.25H2125V156.75V125.5V94.25V63V31.75V0.5H2156.25H2187.5H2218.75H2250H2281.25V31.75V63V94.25V125.5V156.75V188H2250ZM2218.75 156.75V125.5V94.25V63V31.75H2187.5V63V94.25V125.5V156.75H2218.75ZM2531.25 188H2500H2468.75H2437.5H2406.25H2375H2343.75H2312.5V156.75V125.5V94.25V63V31.75V0.5H2343.75H2375V31.75V63V94.25V125.5V156.75H2406.25V125.5V94.25V63V31.75V0.5H2437.5H2468.75V31.75V63V94.25V125.5V156.75H2500V125.5V94.25V63V31.75V0.5H2531.25H2562.5V31.75V63V94.25V125.5V156.75V188H2531.25ZM2718.75 156.75H2750V188H2718.75H2687.5H2656.25H2625H2593.75V156.75V125.5V94.25V63V31.75V0.5H2625H2656.25H2687.5H2718.75H2750V31.75V63V94.25V125.5H2718.75H2687.5H2656.25V156.75H2687.5H2718.75ZM2687.5 94.25V63V31.75H2656.25V63V94.25H2687.5ZM2812.5 188H2781.25V156.75V125.5V94.25V63V31.75V0.5H2812.5H2843.75H2875H2906.25H2937.5V31.75V63H2906.25H2875V31.75H2843.75V63V94.25V125.5V156.75V188H2812.5Z" fill="white"/>
</svg>
