<svg width="1938" height="251" viewBox="0 0 1938 251" fill="none" xmlns="http://www.w3.org/2000/svg">
<path d="M93.75 188H62.5H31.25V156.75V125.5V94.25H0V63H31.25V31.75V0.5H62.5H93.75V31.75V63H125V94.25H93.75V125.5V156.75H125V188H93.75ZM281.25 188H250H218.75H187.5H156.25V156.75V125.5V94.25V63V31.75V0.5H187.5H218.75H250H281.25H312.5V31.75V63V94.25V125.5V156.75V188H281.25ZM250 156.75V125.5V94.25V63V31.75H218.75V63V94.25V125.5V156.75H250ZM718.75 188H687.5V156.75V125.5V94.25V63V31.75H656.25V63V94.25V125.5V156.75V188H625H593.75V156.75V125.5V94.25V63V31.75H562.5V63V94.25V125.5V156.75V188H531.25H500V156.75V125.5V94.25V63V31.75V0.5H531.25H562.5H593.75H625H656.25H687.5H718.75H750V31.75V63V94.25V125.5V156.75V188H718.75ZM906.25 156.75H937.5V188H906.25H875H843.75H812.5H781.25V156.75V125.5V94.25V63V31.75V0.5H812.5H843.75H875H906.25H937.5V31.75V63V94.25V125.5H906.25H875H843.75V156.75H875H906.25ZM875 94.25V63V31.75H843.75V63V94.25H875ZM1250 188H1218.75H1187.5H1156.25H1125V156.75V125.5V94.25V63H1156.25H1187.5H1218.75V31.75H1187.5H1156.25V0.5H1187.5H1218.75H1250H1281.25V31.75V63V94.25V125.5V156.75V188H1250ZM1218.75 156.75V125.5V94.25H1187.5V125.5V156.75H1218.75ZM1437.5 250.5H1406.25H1375H1343.75V219.25H1375H1406.25V188H1375H1343.75H1312.5V156.75V125.5V94.25V63V31.75V0.5H1343.75H1375H1406.25H1437.5H1468.75V31.75V63V94.25V125.5V156.75V188V219.25V250.5H1437.5ZM1406.25 156.75V125.5V94.25V63V31.75H1375V63V94.25V125.5V156.75H1406.25ZM1625 188H1593.75H1562.5H1531.25H1500V156.75V125.5V94.25V63H1531.25H1562.5H1593.75V31.75H1562.5H1531.25V0.5H1562.5H1593.75H1625H1656.25V31.75V63V94.25V125.5V156.75V188H1625ZM1593.75 156.75V125.5V94.25H1562.5V125.5V156.75H1593.75ZM1718.75 188H1687.5V156.75V125.5V94.25V63H1718.75H1750V94.25V125.5V156.75V188H1718.75ZM1718.75 0.5H1750V31.75H1718.75H1687.5V0.5H1718.75ZM1906.25 188H1875V156.75V125.5V94.25V63V31.75H1843.75V63V94.25V125.5V156.75V188H1812.5H1781.25V156.75V125.5V94.25V63V31.75V0.5H1812.5H1843.75H1875H1906.25H1937.5V31.75V63V94.25V125.5V156.75V188H1906.25Z" fill="white"/>
</svg>
