<svg width="3375" height="251" viewBox="0 0 3375 251" fill="none" xmlns="http://www.w3.org/2000/svg">
<path d="M125 94.25H93.75V63V31.75H125V0.5H156.25V31.75V63V94.25H125ZM31.25 94.25H0V63V31.75H31.25V0.5H62.5V31.75V63V94.25H31.25ZM250 188H218.75H187.5V156.75V125.5V94.25V63V31.75V0.5H218.75H250V31.75V63V94.25V125.5V156.75H281.25V188H250ZM437.5 188H406.25H375H343.75H312.5V156.75V125.5V94.25V63V31.75V0.5H343.75H375H406.25H437.5H468.75V31.75V63V94.25V125.5V156.75V188H437.5ZM406.25 156.75V125.5V94.25V63V31.75H375V63V94.25V125.5V156.75H406.25ZM625 188H593.75H562.5H531.25V156.75H500V125.5V94.25V63V31.75V0.5H531.25H562.5V31.75V63V94.25V125.5V156.75H593.75V125.5V94.25V63V31.75V0.5H625H656.25V31.75V63V94.25V125.5V156.75V188H625ZM812.5 156.75H843.75V188H812.5H781.25H750H718.75H687.5V156.75V125.5V94.25V63V31.75V0.5H718.75H750H781.25H812.5H843.75V31.75V63V94.25V125.5H812.5H781.25H750V156.75H781.25H812.5ZM781.25 94.25V63V31.75H750V63V94.25H781.25ZM1156.25 250.5H1125H1093.75H1062.5H1031.25V219.25H1062.5H1093.75H1125V188H1093.75H1062.5H1031.25V156.75V125.5V94.25V63V31.75V0.5H1062.5H1093.75V31.75V63V94.25V125.5V156.75H1125V125.5V94.25V63V31.75V0.5H1156.25H1187.5V31.75V63V94.25V125.5V156.75V188V219.25V250.5H1156.25ZM1343.75 188H1312.5H1281.25H1250H1218.75V156.75V125.5V94.25V63V31.75V0.5H1250H1281.25H1312.5H1343.75H1375V31.75V63V94.25V125.5V156.75V188H1343.75ZM1312.5 156.75V125.5V94.25V63V31.75H1281.25V63V94.25V125.5V156.75H1312.5ZM1531.25 188H1500H1468.75H1437.5H1406.25V156.75V125.5V94.25V63V31.75V0.5H1437.5H1468.75V31.75V63V94.25V125.5V156.75H1500V125.5V94.25V63V31.75V0.5H1531.25H1562.5V31.75V63V94.25V125.5V156.75V188H1531.25ZM1625 188H1593.75V156.75V125.5V94.25V63V31.75V0.5H1625H1656.25H1687.5H1718.75H1750V31.75V63H1718.75H1687.5V31.75H1656.25V63V94.25V125.5V156.75V188H1625ZM2000 188H1968.75V156.75V125.5V94.25H1937.5V63H1968.75V31.75V0.5H2000H2031.25H2062.5V31.75H2031.25V63H2062.5V94.25H2031.25V125.5V156.75V188H2000ZM2125 188H2093.75V156.75V125.5V94.25V63V31.75V0.5H2125H2156.25H2187.5H2218.75H2250V31.75V63H2218.75H2187.5V31.75H2156.25V63V94.25V125.5V156.75V188H2125ZM2312.5 188H2281.25V156.75V125.5V94.25V63H2312.5H2343.75V94.25V125.5V156.75V188H2312.5ZM2312.5 0.5H2343.75V31.75H2312.5H2281.25V0.5H2312.5ZM2500 156.75H2531.25V188H2500H2468.75H2437.5H2406.25H2375V156.75V125.5V94.25V63V31.75V0.5H2406.25H2437.5H2468.75H2500H2531.25V31.75V63V94.25V125.5H2500H2468.75H2437.5V156.75H2468.75H2500ZM2468.75 94.25V63V31.75H2437.5V63V94.25H2468.75ZM2687.5 188H2656.25V156.75V125.5V94.25V63V31.75H2625V63V94.25V125.5V156.75V188H2593.75H2562.5V156.75V125.5V94.25V63V31.75V0.5H2593.75H2625H2656.25H2687.5H2718.75V31.75V63V94.25V125.5V156.75V188H2687.5ZM2875 188H2843.75H2812.5H2781.25H2750V156.75V125.5V94.25V63H2781.25H2812.5H2843.75V31.75V0.5H2875H2906.25V31.75V63V94.25V125.5V156.75V188H2875ZM2843.75 156.75V125.5V94.25H2812.5V125.5V156.75H2843.75ZM3062.5 188H3031.25H3000H2968.75H2937.5V156.75V125.5H2968.75H3000V156.75H3031.25V125.5V94.25H3000H2968.75H2937.5V63V31.75V0.5H2968.75H3000H3031.25H3062.5H3093.75V31.75H3062.5H3031.25H3000V63H3031.25H3062.5H3093.75V94.25V125.5V156.75V188H3062.5ZM3156.25 188H3125V156.75V125.5H3156.25H3187.5V156.75V188H3156.25ZM3343.75 94.25V63H3312.5V31.75V0.5H3343.75H3375V31.75V63V94.25H3343.75ZM3250 94.25V63H3218.75V31.75V0.5H3250H3281.25V31.75V63V94.25H3250Z" fill="white"/>
</svg>
