<svg width="2094" height="251" viewBox="0 0 2094 251" fill="none" xmlns="http://www.w3.org/2000/svg">
<path d="M125 188H93.75V156.75V125.5V94.25H62.5V125.5V156.75V188H31.25H0V156.75V125.5V94.25V63V31.75V0.5H31.25H62.5V31.75V63H93.75H125H156.25V94.25V125.5V156.75V188H125ZM312.5 188H281.25H250H218.75H187.5V156.75V125.5V94.25V63H218.75H250H281.25V31.75H250H218.75V0.5H250H281.25H312.5H343.75V31.75V63V94.25V125.5V156.75V188H312.5ZM281.25 156.75V125.5V94.25H250V125.5V156.75H281.25ZM500 188H468.75V156.75V125.5V94.25V63V31.75H437.5V63V94.25V125.5V156.75V188H406.25H375V156.75V125.5V94.25V63V31.75V0.5H406.25H437.5H468.75H500H531.25V31.75V63V94.25V125.5V156.75V188H500ZM687.5 250.5H656.25H625H593.75V219.25H625H656.25V188H625H593.75H562.5V156.75V125.5V94.25V63V31.75V0.5H593.75H625H656.25H687.5H718.75V31.75V63V94.25V125.5V156.75V188V219.25V250.5H687.5ZM656.25 156.75V125.5V94.25V63V31.75H625V63V94.25V125.5V156.75H656.25ZM781.25 188H750V156.75V125.5V94.25V63H781.25H812.5V94.25V125.5V156.75V188H781.25ZM781.25 0.5H812.5V31.75H781.25H750V0.5H781.25ZM968.75 188H937.5V156.75V125.5V94.25V63V31.75H906.25V63V94.25V125.5V156.75V188H875H843.75V156.75V125.5V94.25V63V31.75V0.5H875H906.25H937.5H968.75H1000V31.75V63V94.25V125.5V156.75V188H968.75ZM1156.25 250.5H1125H1093.75H1062.5V219.25H1093.75H1125V188H1093.75H1062.5H1031.25V156.75V125.5V94.25V63V31.75V0.5H1062.5H1093.75H1125H1156.25H1187.5V31.75V63V94.25V125.5V156.75V188V219.25V250.5H1156.25ZM1125 156.75V125.5V94.25V63V31.75H1093.75V63V94.25V125.5V156.75H1125ZM1500 188H1468.75H1437.5H1406.25H1375V156.75V125.5V94.25V63V31.75V0.5H1406.25H1437.5H1468.75H1500H1531.25V31.75V63V94.25V125.5V156.75V188H1500ZM1468.75 156.75V125.5V94.25V63V31.75H1437.5V63V94.25V125.5V156.75H1468.75ZM1687.5 188H1656.25V156.75V125.5V94.25V63V31.75H1625V63V94.25V125.5V156.75V188H1593.75H1562.5V156.75V125.5V94.25V63V31.75V0.5H1593.75H1625H1656.25H1687.5H1718.75V31.75V63V94.25V125.5V156.75V188H1687.5ZM1781.25 188H1750V156.75V125.5H1781.25H1812.5V156.75V188H1781.25ZM1875 188H1843.75V156.75V125.5H1875H1906.25V156.75V188H1875ZM2000 156.75H2031.25V188H2000H1968.75V156.75H2000ZM2062.5 125.5H2031.25H2000H1968.75V94.25H2000H2031.25V63V31.75H2000H1968.75H1937.5V0.5H1968.75H2000H2031.25H2062.5H2093.75V31.75V63V94.25V125.5H2062.5Z" fill="white"/>
</svg>
