<svg width="3500" height="251" viewBox="0 0 3500 251" fill="none" xmlns="http://www.w3.org/2000/svg">
<path d="M125 188H93.75H62.5H31.25H0V156.75V125.5V94.25V63V31.75V0.5H31.25H62.5H93.75H125H156.25V31.75H125H93.75H62.5V63H93.75H125V94.25H93.75H62.5V125.5V156.75H93.75V125.5H125H156.25V156.75V188H125ZM312.5 188H281.25H250H218.75V156.75H187.5V125.5V94.25V63V31.75V0.5H218.75H250V31.75V63V94.25V125.5V156.75H281.25V125.5V94.25V63V31.75V0.5H312.5H343.75V31.75V63V94.25V125.5V156.75V188H312.5ZM500 156.75H531.25V188H500H468.75H437.5H406.25H375V156.75V125.5V94.25V63V31.75V0.5H406.25H437.5H468.75H500H531.25V31.75V63V94.25V125.5H500H468.75H437.5V156.75H468.75H500ZM468.75 94.25V63V31.75H437.5V63V94.25H468.75ZM593.75 188H562.5V156.75V125.5V94.25V63V31.75V0.5H593.75H625H656.25H687.5H718.75V31.75V63H687.5H656.25V31.75H625V63V94.25V125.5V156.75V188H593.75ZM875 250.5H843.75H812.5H781.25H750V219.25H781.25H812.5H843.75V188H812.5H781.25H750V156.75V125.5V94.25V63V31.75V0.5H781.25H812.5V31.75V63V94.25V125.5V156.75H843.75V125.5V94.25V63V31.75V0.5H875H906.25V31.75V63V94.25V125.5V156.75V188V219.25V250.5H875ZM1062.5 188H1031.25H1000H968.75H937.5V156.75V125.5V94.25V63V31.75V0.5H968.75H1000H1031.25H1062.5H1093.75V31.75V63V94.25V125.5V156.75V188H1062.5ZM1031.25 156.75V125.5V94.25V63V31.75H1000V63V94.25V125.5V156.75H1031.25ZM1250 188H1218.75V156.75V125.5V94.25V63V31.75H1187.5V63V94.25V125.5V156.75V188H1156.25H1125V156.75V125.5V94.25V63V31.75V0.5H1156.25H1187.5H1218.75H1250H1281.25V31.75V63V94.25V125.5V156.75V188H1250ZM1437.5 156.75H1468.75V188H1437.5H1406.25H1375H1343.75H1312.5V156.75V125.5V94.25V63V31.75V0.5H1343.75H1375H1406.25H1437.5H1468.75V31.75V63V94.25V125.5H1437.5H1406.25H1375V156.75H1406.25H1437.5ZM1406.25 94.25V63V31.75H1375V63V94.25H1406.25ZM1531.25 94.25V63H1500V31.75V0.5H1531.25H1562.5V31.75V63V94.25H1531.25ZM1718.75 188H1687.5H1656.25H1625H1593.75V156.75V125.5H1625H1656.25V156.75H1687.5V125.5V94.25H1656.25H1625H1593.75V63V31.75V0.5H1625H1656.25H1687.5H1718.75H1750V31.75H1718.75H1687.5H1656.25V63H1687.5H1718.75H1750V94.25V125.5V156.75V188H1718.75ZM2156.25 188H2125V156.75V125.5V94.25V63V31.75H2093.75V63V94.25V125.5V156.75V188H2062.5H2031.25V156.75V125.5V94.25V63V31.75H2000V63V94.25V125.5V156.75V188H1968.75H1937.5V156.75V125.5V94.25V63V31.75V0.5H1968.75H2000H2031.25H2062.5H2093.75H2125H2156.25H2187.5V31.75V63V94.25V125.5V156.75V188H2156.25ZM2343.75 156.75H2375V188H2343.75H2312.5H2281.25H2250H2218.75V156.75V125.5V94.25V63V31.75V0.5H2250H2281.25H2312.5H2343.75H2375V31.75V63V94.25V125.5H2343.75H2312.5H2281.25V156.75H2312.5H2343.75ZM2312.5 94.25V63V31.75H2281.25V63V94.25H2312.5ZM2625 188H2593.75V156.75V125.5V94.25V63V31.75H2562.5V63V94.25V125.5V156.75V188H2531.25H2500V156.75V125.5V94.25V63V31.75H2468.75V63V94.25V125.5V156.75V188H2437.5H2406.25V156.75V125.5V94.25V63V31.75V0.5H2437.5H2468.75H2500H2531.25H2562.5H2593.75H2625H2656.25V31.75V63V94.25V125.5V156.75V188H2625ZM2812.5 188H2781.25H2750H2718.75H2687.5V156.75V125.5V94.25V63V31.75V0.5H2718.75H2750H2781.25H2812.5H2843.75V31.75V63V94.25V125.5V156.75V188H2812.5ZM2781.25 156.75V125.5V94.25V63V31.75H2750V63V94.25V125.5V156.75H2781.25ZM2906.25 188H2875V156.75V125.5V94.25V63V31.75V0.5H2906.25H2937.5H2968.75H3000H3031.25V31.75V63H3000H2968.75V31.75H2937.5V63V94.25V125.5V156.75V188H2906.25ZM3093.75 188H3062.5V156.75V125.5V94.25V63H3093.75H3125V94.25V125.5V156.75V188H3093.75ZM3093.75 0.5H3125V31.75H3093.75H3062.5V0.5H3093.75ZM3281.25 156.75H3312.5V188H3281.25H3250H3218.75H3187.5H3156.25V156.75V125.5V94.25V63V31.75V0.5H3187.5H3218.75H3250H3281.25H3312.5V31.75V63V94.25V125.5H3281.25H3250H3218.75V156.75H3250H3281.25ZM3250 94.25V63V31.75H3218.75V63V94.25H3250ZM3468.75 188H3437.5H3406.25H3375H3343.75V156.75V125.5H3375H3406.25V156.75H3437.5V125.5V94.25H3406.25H3375H3343.75V63V31.75V0.5H3375H3406.25H3437.5H3468.75H3500V31.75H3468.75H3437.5H3406.25V63H3437.5H3468.75H3500V94.25V125.5V156.75V188H3468.75Z" fill="white"/>
</svg>
