<svg width="2719" height="251" viewBox="0 0 2719 251" fill="none" xmlns="http://www.w3.org/2000/svg">
<path d="M125 94.25H93.75V63V31.75H125V0.5H156.25V31.75V63V94.25H125ZM31.25 94.25H0V63V31.75H31.25V0.5H62.5V31.75V63V94.25H31.25ZM312.5 188H281.25V156.75V125.5V94.25V63V31.75H250V63V94.25V125.5V156.75V188H218.75H187.5V156.75V125.5V94.25V63V31.75V0.5H218.75H250H281.25H312.5H343.75V31.75V63V94.25V125.5V156.75V188H312.5ZM500 156.75H531.25V188H500H468.75H437.5H406.25H375V156.75V125.5V94.25V63V31.75V0.5H406.25H437.5H468.75H500H531.25V31.75V63V94.25V125.5H500H468.75H437.5V156.75H468.75H500ZM468.75 94.25V63V31.75H437.5V63V94.25H468.75ZM687.5 188H656.25H625H593.75V156.75H562.5V125.5V94.25V63V31.75V0.5H593.75H625V31.75V63V94.25V125.5V156.75H656.25V125.5V94.25V63V31.75V0.5H687.5H718.75V31.75V63V94.25V125.5V156.75V188H687.5ZM875 156.75H906.25V188H875H843.75H812.5H781.25H750V156.75V125.5V94.25V63V31.75V0.5H781.25H812.5H843.75H875H906.25V31.75V63V94.25V125.5H875H843.75H812.5V156.75H843.75H875ZM843.75 94.25V63V31.75H812.5V63V94.25H843.75ZM968.75 188H937.5V156.75V125.5V94.25V63V31.75V0.5H968.75H1000H1031.25H1062.5H1093.75V31.75V63H1062.5H1031.25V31.75H1000V63V94.25V125.5V156.75V188H968.75ZM1406.25 250.5H1375H1343.75H1312.5V219.25H1343.75H1375V188H1343.75H1312.5H1281.25V156.75V125.5V94.25V63V31.75V0.5H1312.5H1343.75H1375H1406.25H1437.5V31.75V63V94.25V125.5V156.75V188V219.25V250.5H1406.25ZM1375 156.75V125.5V94.25V63V31.75H1343.75V63V94.25V125.5V156.75H1375ZM1500 188H1468.75V156.75V125.5V94.25V63H1500H1531.25V94.25V125.5V156.75V188H1500ZM1500 0.5H1531.25V31.75H1500H1468.75V0.5H1500ZM1687.5 188H1656.25H1625H1593.75V156.75H1562.5V125.5V94.25V63V31.75V0.5H1593.75H1625V31.75V63V94.25V125.5V156.75H1656.25V125.5V94.25V63V31.75V0.5H1687.5H1718.75V31.75V63V94.25V125.5V156.75V188H1687.5ZM1875 156.75H1906.25V188H1875H1843.75H1812.5H1781.25H1750V156.75V125.5V94.25V63V31.75V0.5H1781.25H1812.5H1843.75H1875H1906.25V31.75V63V94.25V125.5H1875H1843.75H1812.5V156.75H1843.75H1875ZM1843.75 94.25V63V31.75H1812.5V63V94.25H1843.75ZM2218.75 188H2187.5H2156.25H2125H2093.75V156.75V125.5V94.25V63V31.75V0.5H2125H2156.25V31.75V63V94.25V125.5V156.75H2187.5V125.5V94.25V63V31.75V0.5H2218.75H2250V31.75V63V94.25V125.5V156.75V188H2218.75ZM2312.5 250.5H2281.25V219.25V188V156.75V125.5V94.25V63V31.75V0.5H2312.5H2343.75H2375H2406.25H2437.5V31.75V63V94.25V125.5V156.75V188H2406.25H2375H2343.75V219.25V250.5H2312.5ZM2375 156.75V125.5V94.25V63V31.75H2343.75V63V94.25V125.5V156.75H2375ZM2500 188H2468.75V156.75V125.5H2500H2531.25V156.75V188H2500ZM2687.5 94.25V63H2656.25V31.75V0.5H2687.5H2718.75V31.75V63V94.25H2687.5ZM2593.75 94.25V63H2562.5V31.75V0.5H2593.75H2625V31.75V63V94.25H2593.75Z" fill="white"/>
</svg>
