<svg width="5188" height="251" viewBox="0 0 5188 251" fill="none" xmlns="http://www.w3.org/2000/svg">
<path d="M125 188H93.75H62.5H31.25H0V156.75V125.5V94.25V63H31.25H62.5H93.75V31.75V0.5H125H156.25V31.75V63V94.25V125.5V156.75V188H125ZM93.75 156.75V125.5V94.25H62.5V125.5V156.75H93.75ZM312.5 156.75H343.75V188H312.5H281.25H250H218.75H187.5V156.75V125.5V94.25V63V31.75V0.5H218.75H250H281.25H312.5H343.75V31.75V63V94.25V125.5H312.5H281.25H250V156.75H281.25H312.5ZM281.25 94.25V63V31.75H250V63V94.25H281.25ZM500 188H468.75H437.5H406.25H375V156.75V125.5H406.25H437.5V156.75H468.75V125.5V94.25H437.5H406.25H375V63V31.75V0.5H406.25H437.5H468.75H500H531.25V31.75H500H468.75H437.5V63H468.75H500H531.25V94.25V125.5V156.75V188H500ZM656.25 188H625H593.75V156.75V125.5V94.25H562.5V63H593.75V31.75V0.5H625H656.25V31.75V63H687.5V94.25H656.25V125.5V156.75H687.5V188H656.25ZM750 188H718.75V156.75V125.5V94.25V63V31.75V0.5H750H781.25H812.5H843.75H875V31.75V63H843.75H812.5V31.75H781.25V63V94.25V125.5V156.75V188H750ZM1031.25 188H1000H968.75H937.5H906.25V156.75V125.5V94.25V63V31.75V0.5H937.5H968.75H1000H1031.25H1062.5V31.75V63V94.25V125.5V156.75V188H1031.25ZM1000 156.75V125.5V94.25V63V31.75H968.75V63V94.25V125.5V156.75H1000ZM1218.75 250.5H1187.5H1156.25H1125H1093.75V219.25H1125H1156.25H1187.5V188H1156.25H1125H1093.75V156.75V125.5V94.25V63V31.75V0.5H1125H1156.25V31.75V63V94.25V125.5V156.75H1187.5V125.5V94.25V63V31.75V0.5H1218.75H1250V31.75V63V94.25V125.5V156.75V188V219.25V250.5H1218.75ZM1312.5 188H1281.25V156.75V125.5V94.25V63H1312.5H1343.75V94.25V125.5V156.75V188H1312.5ZM1312.5 0.5H1343.75V31.75H1312.5H1281.25V0.5H1312.5ZM1500 188H1468.75V156.75V125.5V94.25V63V31.75H1437.5V63V94.25V125.5V156.75V188H1406.25H1375V156.75V125.5V94.25V63V31.75V0.5H1406.25H1437.5H1468.75H1500H1531.25V31.75V63V94.25V125.5V156.75V188H1500ZM1687.5 250.5H1656.25H1625H1593.75V219.25H1625H1656.25V188H1625H1593.75H1562.5V156.75V125.5V94.25V63V31.75V0.5H1593.75H1625H1656.25H1687.5H1718.75V31.75V63V94.25V125.5V156.75V188V219.25V250.5H1687.5ZM1656.25 156.75V125.5V94.25V63V31.75H1625V63V94.25V125.5V156.75H1656.25ZM2000 188H1968.75H1937.5V156.75V125.5V94.25H1906.25V63H1937.5V31.75V0.5H1968.75H2000V31.75V63H2031.25V94.25H2000V125.5V156.75H2031.25V188H2000ZM2187.5 188H2156.25V156.75V125.5V94.25H2125V125.5V156.75V188H2093.75H2062.5V156.75V125.5V94.25V63V31.75V0.5H2093.75H2125V31.75V63H2156.25H2187.5H2218.75V94.25V125.5V156.75V188H2187.5ZM2281.25 188H2250V156.75V125.5V94.25V63H2281.25H2312.5V94.25V125.5V156.75V188H2281.25ZM2281.25 0.5H2312.5V31.75H2281.25H2250V0.5H2281.25ZM2468.75 188H2437.5H2406.25H2375H2343.75V156.75V125.5H2375H2406.25V156.75H2437.5V125.5V94.25H2406.25H2375H2343.75V63V31.75V0.5H2375H2406.25H2437.5H2468.75H2500V31.75H2468.75H2437.5H2406.25V63H2437.5H2468.75H2500V94.25V125.5V156.75V188H2468.75ZM2906.25 188H2875H2843.75H2812.5H2781.25H2750H2718.75H2687.5V156.75V125.5V94.25V63V31.75V0.5H2718.75H2750V31.75V63V94.25V125.5V156.75H2781.25V125.5V94.25V63V31.75V0.5H2812.5H2843.75V31.75V63V94.25V125.5V156.75H2875V125.5V94.25V63V31.75V0.5H2906.25H2937.5V31.75V63V94.25V125.5V156.75V188H2906.25ZM3093.75 188H3062.5H3031.25H3000H2968.75V156.75V125.5V94.25V63V31.75V0.5H3000H3031.25H3062.5H3093.75H3125V31.75V63V94.25V125.5V156.75V188H3093.75ZM3062.5 156.75V125.5V94.25V63V31.75H3031.25V63V94.25V125.5V156.75H3062.5ZM3187.5 188H3156.25V156.75V125.5V94.25V63V31.75V0.5H3187.5H3218.75H3250H3281.25H3312.5V31.75V63H3281.25H3250V31.75H3218.75V63V94.25V125.5V156.75V188H3187.5ZM3406.25 188H3375H3343.75V156.75V125.5V94.25V63V31.75V0.5H3375H3406.25V31.75V63V94.25V125.5V156.75H3437.5V188H3406.25ZM3593.75 188H3562.5H3531.25H3500H3468.75V156.75V125.5V94.25V63H3500H3531.25H3562.5V31.75V0.5H3593.75H3625V31.75V63V94.25V125.5V156.75V188H3593.75ZM3562.5 156.75V125.5V94.25H3531.25V125.5V156.75H3562.5ZM3937.5 188H3906.25H3875H3843.75H3812.5V156.75V125.5V94.25V63H3843.75H3875H3906.25V31.75H3875H3843.75V0.5H3875H3906.25H3937.5H3968.75V31.75V63V94.25V125.5V156.75V188H3937.5ZM3906.25 156.75V125.5V94.25H3875V125.5V156.75H3906.25ZM4125 188H4093.75V156.75V125.5V94.25V63V31.75H4062.5V63V94.25V125.5V156.75V188H4031.25H4000V156.75V125.5V94.25V63V31.75V0.5H4031.25H4062.5H4093.75H4125H4156.25V31.75V63V94.25V125.5V156.75V188H4125ZM4312.5 250.5H4281.25H4250H4218.75H4187.5V219.25H4218.75H4250H4281.25V188H4250H4218.75H4187.5V156.75V125.5V94.25V63V31.75V0.5H4218.75H4250V31.75V63V94.25V125.5V156.75H4281.25V125.5V94.25V63V31.75V0.5H4312.5H4343.75V31.75V63V94.25V125.5V156.75V188V219.25V250.5H4312.5ZM4593.75 188H4562.5V156.75V125.5V94.25V63V31.75H4531.25V63V94.25V125.5V156.75V188H4500H4468.75V156.75V125.5V94.25V63V31.75H4437.5V63V94.25V125.5V156.75V188H4406.25H4375V156.75V125.5V94.25V63V31.75V0.5H4406.25H4437.5H4468.75H4500H4531.25H4562.5H4593.75H4625V31.75V63V94.25V125.5V156.75V188H4593.75ZM4781.25 188H4750H4718.75H4687.5H4656.25V156.75V125.5V94.25V63V31.75V0.5H4687.5H4718.75H4750H4781.25H4812.5V31.75V63V94.25V125.5V156.75V188H4781.25ZM4750 156.75V125.5V94.25V63V31.75H4718.75V63V94.25V125.5V156.75H4750ZM4875 188H4843.75V156.75V125.5V94.25V63V31.75V0.5H4875H4906.25H4937.5H4968.75H5000V31.75V63H4968.75H4937.5V31.75H4906.25V63V94.25V125.5V156.75V188H4875ZM5156.25 156.75H5187.5V188H5156.25H5125H5093.75H5062.5H5031.25V156.75V125.5V94.25V63V31.75V0.5H5062.5H5093.75H5125H5156.25H5187.5V31.75V63V94.25V125.5H5156.25H5125H5093.75V156.75H5125H5156.25ZM5125 94.25V63V31.75H5093.75V63V94.25H5125Z" fill="white"/>
</svg>
