<svg width="1094" height="188" viewBox="0 0 1094 188" fill="none" xmlns="http://www.w3.org/2000/svg">
<path d="M218.75 188H187.5H156.25H125H93.75H62.5H31.25H0V156.75V125.5V94.25V63V31.75V0.5H31.25H62.5V31.75V63V94.25V125.5V156.75H93.75V125.5V94.25V63V31.75V0.5H125H156.25V31.75V63V94.25V125.5V156.75H187.5V125.5V94.25V63V31.75V0.5H218.75H250V31.75V63V94.25V125.5V156.75V188H218.75ZM406.25 188H375V156.75V125.5V94.25H343.75V125.5V156.75V188H312.5H281.25V156.75V125.5V94.25V63V31.75V0.5H312.5H343.75V31.75V63H375H406.25H437.5V94.25V125.5V156.75V188H406.25ZM593.75 188H562.5H531.25H500H468.75V156.75V125.5V94.25V63V31.75V0.5H500H531.25H562.5H593.75H625V31.75V63V94.25V125.5V156.75V188H593.75ZM562.5 156.75V125.5V94.25V63V31.75H531.25V63V94.25V125.5V156.75H562.5ZM687.5 188H656.25V156.75V125.5H687.5H718.75V156.75V188H687.5ZM781.25 188H750V156.75V125.5H781.25H812.5V156.75V188H781.25ZM875 188H843.75V156.75V125.5H875H906.25V156.75V188H875ZM1000 156.75H1031.25V188H1000H968.75V156.75H1000ZM1062.5 125.5H1031.25H1000H968.75V94.25H1000H1031.25V63V31.75H1000H968.75H937.5V0.5H968.75H1000H1031.25H1062.5H1093.75V31.75V63V94.25V125.5H1062.5Z" fill="white"/>
</svg>
