<svg width="1532" height="251" viewBox="0 0 1532 251" fill="none" xmlns="http://www.w3.org/2000/svg">
<path d="M125 188H93.75V156.75V125.5H62.5V156.75V188H31.25H0V156.75V125.5V94.25V63V31.75V0.5H31.25H62.5H93.75H125H156.25V31.75V63V94.25V125.5V156.75V188H125ZM93.75 94.25V63V31.75H62.5V63V94.25H93.75ZM312.5 188H281.25V156.75V125.5V94.25V63V31.75H250V63V94.25V125.5V156.75V188H218.75H187.5V156.75V125.5V94.25V63V31.75V0.5H218.75H250H281.25H312.5H343.75V31.75V63V94.25V125.5V156.75V188H312.5ZM500 188H468.75H437.5H406.25H375V156.75V125.5V94.25V63H406.25H437.5H468.75V31.75V0.5H500H531.25V31.75V63V94.25V125.5V156.75V188H500ZM468.75 156.75V125.5V94.25H437.5V125.5V156.75H468.75ZM843.75 188H812.5H781.25H750H718.75V156.75V125.5V94.25V63H750H781.25H812.5V31.75H781.25H750V0.5H781.25H812.5H843.75H875V31.75V63V94.25V125.5V156.75V188H843.75ZM812.5 156.75V125.5V94.25H781.25V125.5V156.75H812.5ZM1031.25 250.5H1000H968.75H937.5V219.25H968.75H1000V188H968.75H937.5H906.25V156.75V125.5V94.25V63V31.75V0.5H937.5H968.75H1000H1031.25H1062.5V31.75V63V94.25V125.5V156.75V188V219.25V250.5H1031.25ZM1000 156.75V125.5V94.25V63V31.75H968.75V63V94.25V125.5V156.75H1000ZM1218.75 188H1187.5H1156.25H1125H1093.75V156.75V125.5V94.25V63H1125H1156.25H1187.5V31.75H1156.25H1125V0.5H1156.25H1187.5H1218.75H1250V31.75V63V94.25V125.5V156.75V188H1218.75ZM1187.5 156.75V125.5V94.25H1156.25V125.5V156.75H1187.5ZM1312.5 188H1281.25V156.75V125.5V94.25V63H1312.5H1343.75V94.25V125.5V156.75V188H1312.5ZM1312.5 0.5H1343.75V31.75H1312.5H1281.25V0.5H1312.5ZM1500 188H1468.75V156.75V125.5V94.25V63V31.75H1437.5V63V94.25V125.5V156.75V188H1406.25H1375V156.75V125.5V94.25V63V31.75V0.5H1406.25H1437.5H1468.75H1500H1531.25V31.75V63V94.25V125.5V156.75V188H1500Z" fill="white"/>
</svg>
