<svg width="2938" height="251" viewBox="0 0 2938 251" fill="none" xmlns="http://www.w3.org/2000/svg">
<path d="M125 188H93.75H62.5H31.25H0V156.75V125.5H31.25H62.5V156.75H93.75V125.5V94.25H62.5H31.25H0V63V31.75V0.5H31.25H62.5H93.75H125H156.25V31.75H125H93.75H62.5V63H93.75H125H156.25V94.25V125.5V156.75V188H125ZM312.5 188H281.25H250H218.75H187.5V156.75V125.5V94.25V63V31.75V0.5H218.75H250H281.25H312.5H343.75V31.75V63V94.25V125.5V156.75V188H312.5ZM281.25 156.75V125.5V94.25V63V31.75H250V63V94.25V125.5V156.75H281.25ZM593.75 188H562.5V156.75V125.5V94.25V63V31.75H531.25V63V94.25V125.5V156.75V188H500H468.75V156.75V125.5V94.25V63V31.75H437.5V63V94.25V125.5V156.75V188H406.25H375V156.75V125.5V94.25V63V31.75V0.5H406.25H437.5H468.75H500H531.25H562.5H593.75H625V31.75V63V94.25V125.5V156.75V188H593.75ZM781.25 156.75H812.5V188H781.25H750H718.75H687.5H656.25V156.75V125.5V94.25V63V31.75V0.5H687.5H718.75H750H781.25H812.5V31.75V63V94.25V125.5H781.25H750H718.75V156.75H750H781.25ZM750 94.25V63V31.75H718.75V63V94.25H750ZM937.5 188H906.25H875V156.75V125.5V94.25H843.75V63H875V31.75V0.5H906.25H937.5V31.75V63H968.75V94.25H937.5V125.5V156.75H968.75V188H937.5ZM1125 188H1093.75V156.75V125.5V94.25H1062.5V125.5V156.75V188H1031.25H1000V156.75V125.5V94.25V63V31.75V0.5H1031.25H1062.5V31.75V63H1093.75H1125H1156.25V94.25V125.5V156.75V188H1125ZM1218.75 188H1187.5V156.75V125.5V94.25V63H1218.75H1250V94.25V125.5V156.75V188H1218.75ZM1218.75 0.5H1250V31.75H1218.75H1187.5V0.5H1218.75ZM1406.25 188H1375V156.75V125.5V94.25V63V31.75H1343.75V63V94.25V125.5V156.75V188H1312.5H1281.25V156.75V125.5V94.25V63V31.75V0.5H1312.5H1343.75H1375H1406.25H1437.5V31.75V63V94.25V125.5V156.75V188H1406.25ZM1593.75 250.5H1562.5H1531.25H1500V219.25H1531.25H1562.5V188H1531.25H1500H1468.75V156.75V125.5V94.25V63V31.75V0.5H1500H1531.25H1562.5H1593.75H1625V31.75V63V94.25V125.5V156.75V188V219.25V250.5H1593.75ZM1562.5 156.75V125.5V94.25V63V31.75H1531.25V63V94.25V125.5V156.75H1562.5ZM1937.5 188H1906.25H1875H1843.75H1812.5V156.75V125.5H1843.75H1875V156.75H1906.25V125.5V94.25H1875H1843.75H1812.5V63V31.75V0.5H1843.75H1875H1906.25H1937.5H1968.75V31.75H1937.5H1906.25H1875V63H1906.25H1937.5H1968.75V94.25V125.5V156.75V188H1937.5ZM2031.25 250.5H2000V219.25V188V156.75V125.5V94.25V63V31.75V0.5H2031.25H2062.5H2093.75H2125H2156.25V31.75V63V94.25V125.5V156.75V188H2125H2093.75H2062.5V219.25V250.5H2031.25ZM2093.75 156.75V125.5V94.25V63V31.75H2062.5V63V94.25V125.5V156.75H2093.75ZM2312.5 156.75H2343.75V188H2312.5H2281.25H2250H2218.75H2187.5V156.75V125.5V94.25V63V31.75V0.5H2218.75H2250H2281.25H2312.5H2343.75V31.75V63V94.25V125.5H2312.5H2281.25H2250V156.75H2281.25H2312.5ZM2281.25 94.25V63V31.75H2250V63V94.25H2281.25ZM2500 188H2468.75H2437.5H2406.25H2375V156.75V125.5V94.25V63V31.75V0.5H2406.25H2437.5H2468.75H2500H2531.25V31.75V63H2500H2468.75V31.75H2437.5V63V94.25V125.5V156.75H2468.75V125.5H2500H2531.25V156.75V188H2500ZM2593.75 188H2562.5V156.75V125.5V94.25V63H2593.75H2625V94.25V125.5V156.75V188H2593.75ZM2593.75 0.5H2625V31.75H2593.75H2562.5V0.5H2593.75ZM2781.25 188H2750H2718.75H2687.5H2656.25V156.75V125.5V94.25V63H2687.5H2718.75H2750V31.75H2718.75H2687.5V0.5H2718.75H2750H2781.25H2812.5V31.75V63V94.25V125.5V156.75V188H2781.25ZM2750 156.75V125.5V94.25H2718.75V125.5V156.75H2750ZM2906.25 188H2875H2843.75V156.75V125.5V94.25V63V31.75V0.5H2875H2906.25V31.75V63V94.25V125.5V156.75H2937.5V188H2906.25Z" fill="white"/>
</svg>
