<svg width="2438" height="251" viewBox="0 0 2438 251" fill="none" xmlns="http://www.w3.org/2000/svg">
<path d="M125 188H93.75V156.75V125.5H62.5V156.75V188H31.25H0V156.75V125.5V94.25V63V31.75V0.5H31.25H62.5H93.75H125H156.25V31.75V63V94.25V125.5V156.75V188H125ZM93.75 94.25V63V31.75H62.5V63V94.25H93.75ZM312.5 156.75H343.75V188H312.5H281.25H250H218.75H187.5V156.75V125.5V94.25V63V31.75V0.5H218.75H250V31.75V63V94.25V125.5V156.75H281.25H312.5ZM500 156.75H531.25V188H500H468.75H437.5H406.25H375V156.75V125.5V94.25V63V31.75V0.5H406.25H437.5V31.75V63V94.25V125.5V156.75H468.75H500ZM843.75 188H812.5H781.25H750H718.75V156.75V125.5V94.25V63V31.75V0.5H750H781.25H812.5H843.75H875V31.75V63V94.25V125.5V156.75V188H843.75ZM812.5 156.75V125.5V94.25V63V31.75H781.25V63V94.25V125.5V156.75H812.5ZM1031.25 188H1000H968.75H937.5V156.75H906.25V125.5V94.25V63V31.75V0.5H937.5H968.75V31.75V63V94.25V125.5V156.75H1000V125.5V94.25V63V31.75V0.5H1031.25H1062.5V31.75V63V94.25V125.5V156.75V188H1031.25ZM1218.75 156.75H1250V188H1218.75H1187.5H1156.25H1125H1093.75V156.75V125.5V94.25V63V31.75V0.5H1125H1156.25H1187.5H1218.75H1250V31.75V63V94.25V125.5H1218.75H1187.5H1156.25V156.75H1187.5H1218.75ZM1187.5 94.25V63V31.75H1156.25V63V94.25H1187.5ZM1312.5 188H1281.25V156.75V125.5V94.25V63V31.75V0.5H1312.5H1343.75H1375H1406.25H1437.5V31.75V63H1406.25H1375V31.75H1343.75V63V94.25V125.5V156.75V188H1312.5ZM1750 188H1718.75H1687.5H1656.25H1625V156.75V125.5V94.25V63H1656.25H1687.5H1718.75V31.75H1687.5H1656.25V0.5H1687.5H1718.75H1750H1781.25V31.75V63V94.25V125.5V156.75V188H1750ZM1718.75 156.75V125.5V94.25H1687.5V125.5V156.75H1718.75ZM1937.5 250.5H1906.25H1875H1843.75V219.25H1875H1906.25V188H1875H1843.75H1812.5V156.75V125.5V94.25V63V31.75V0.5H1843.75H1875H1906.25H1937.5H1968.75V31.75V63V94.25V125.5V156.75V188V219.25V250.5H1937.5ZM1906.25 156.75V125.5V94.25V63V31.75H1875V63V94.25V125.5V156.75H1906.25ZM2125 188H2093.75H2062.5H2031.25H2000V156.75V125.5V94.25V63H2031.25H2062.5H2093.75V31.75H2062.5H2031.25V0.5H2062.5H2093.75H2125H2156.25V31.75V63V94.25V125.5V156.75V188H2125ZM2093.75 156.75V125.5V94.25H2062.5V125.5V156.75H2093.75ZM2218.75 188H2187.5V156.75V125.5V94.25V63H2218.75H2250V94.25V125.5V156.75V188H2218.75ZM2218.75 0.5H2250V31.75H2218.75H2187.5V0.5H2218.75ZM2406.25 188H2375V156.75V125.5V94.25V63V31.75H2343.75V63V94.25V125.5V156.75V188H2312.5H2281.25V156.75V125.5V94.25V63V31.75V0.5H2312.5H2343.75H2375H2406.25H2437.5V31.75V63V94.25V125.5V156.75V188H2406.25Z" fill="white"/>
</svg>
