<svg width="1625" height="188" viewBox="0 0 1625 188" fill="none" xmlns="http://www.w3.org/2000/svg">
<path d="M125 188H93.75H62.5H31.25H0V156.75V125.5V94.25V63V31.75V0.5H31.25H62.5H93.75H125H156.25V31.75V63H125H93.75V31.75H62.5V63V94.25V125.5V156.75H93.75V125.5H125H156.25V156.75V188H125ZM312.5 188H281.25H250H218.75H187.5V156.75V125.5V94.25V63V31.75V0.5H218.75H250H281.25H312.5H343.75V31.75V63V94.25V125.5V156.75V188H312.5ZM281.25 156.75V125.5V94.25V63V31.75H250V63V94.25V125.5V156.75H281.25ZM593.75 188H562.5V156.75V125.5V94.25V63V31.75H531.25V63V94.25V125.5V156.75V188H500H468.75V156.75V125.5V94.25V63V31.75H437.5V63V94.25V125.5V156.75V188H406.25H375V156.75V125.5V94.25V63V31.75V0.5H406.25H437.5H468.75H500H531.25H562.5H593.75H625V31.75V63V94.25V125.5V156.75V188H593.75ZM781.25 156.75H812.5V188H781.25H750H718.75H687.5H656.25V156.75V125.5V94.25V63V31.75V0.5H687.5H718.75H750H781.25H812.5V31.75V63V94.25V125.5H781.25H750H718.75V156.75H750H781.25ZM750 94.25V63V31.75H718.75V63V94.25H750ZM1125 188H1093.75H1062.5H1031.25H1000V156.75V125.5V94.25V63V31.75V0.5H1031.25H1062.5H1093.75H1125H1156.25V31.75V63V94.25V125.5V156.75V188H1125ZM1093.75 156.75V125.5V94.25V63V31.75H1062.5V63V94.25V125.5V156.75H1093.75ZM1312.5 188H1281.25V156.75V125.5V94.25V63V31.75H1250V63V94.25V125.5V156.75V188H1218.75H1187.5V156.75V125.5V94.25V63V31.75V0.5H1218.75H1250H1281.25H1312.5H1343.75V31.75V63V94.25V125.5V156.75V188H1312.5ZM1406.25 188H1375V156.75V125.5H1406.25H1437.5V156.75V188H1406.25ZM1500 188H1468.75V156.75V125.5H1500H1531.25V156.75V188H1500ZM1593.75 188H1562.5V156.75V125.5H1593.75H1625V156.75V188H1593.75Z" fill="white"/>
</svg>
