<svg width="3282" height="188" viewBox="0 0 3282 188" fill="none" xmlns="http://www.w3.org/2000/svg">
<path d="M125 188H93.75H62.5H31.25H0V156.75V125.5V94.25V63H31.25H62.5H93.75V31.75H62.5H31.25V0.5H62.5H93.75H125H156.25V31.75V63V94.25V125.5V156.75V188H125ZM93.75 156.75V125.5V94.25H62.5V125.5V156.75H93.75ZM312.5 188H281.25V156.75V125.5V94.25V63V31.75H250V63V94.25V125.5V156.75V188H218.75H187.5V156.75V125.5V94.25V63V31.75V0.5H218.75H250H281.25H312.5H343.75V31.75V63V94.25V125.5V156.75V188H312.5ZM500 188H468.75H437.5H406.25H375V156.75V125.5V94.25V63H406.25H437.5H468.75V31.75V0.5H500H531.25V31.75V63V94.25V125.5V156.75V188H500ZM468.75 156.75V125.5V94.25H437.5V125.5V156.75H468.75ZM843.75 188H812.5H781.25H750H718.75V156.75V125.5V94.25V63V31.75V0.5H750H781.25H812.5H843.75H875V31.75V63H843.75H812.5V31.75H781.25V63V94.25V125.5V156.75H812.5V125.5H843.75H875V156.75V188H843.75ZM1031.25 188H1000H968.75H937.5H906.25V156.75V125.5V94.25V63H937.5H968.75H1000V31.75H968.75H937.5V0.5H968.75H1000H1031.25H1062.5V31.75V63V94.25V125.5V156.75V188H1031.25ZM1000 156.75V125.5V94.25H968.75V125.5V156.75H1000ZM1156.25 188H1125H1093.75V156.75V125.5V94.25V63V31.75V0.5H1125H1156.25V31.75V63V94.25V125.5V156.75H1187.5V188H1156.25ZM1281.25 188H1250H1218.75V156.75V125.5V94.25V63V31.75V0.5H1250H1281.25V31.75V63V94.25V125.5V156.75H1312.5V188H1281.25ZM1593.75 188H1562.5H1531.25V156.75V125.5V94.25H1500V63H1531.25V31.75V0.5H1562.5H1593.75V31.75V63H1625V94.25H1593.75V125.5V156.75H1625V188H1593.75ZM1781.25 188H1750V156.75V125.5V94.25H1718.75V125.5V156.75V188H1687.5H1656.25V156.75V125.5V94.25V63V31.75V0.5H1687.5H1718.75V31.75V63H1750H1781.25H1812.5V94.25V125.5V156.75V188H1781.25ZM1968.75 156.75H2000V188H1968.75H1937.5H1906.25H1875H1843.75V156.75V125.5V94.25V63V31.75V0.5H1875H1906.25H1937.5H1968.75H2000V31.75V63V94.25V125.5H1968.75H1937.5H1906.25V156.75H1937.5H1968.75ZM1937.5 94.25V63V31.75H1906.25V63V94.25H1937.5ZM2062.5 188H2031.25V156.75V125.5V94.25V63H2062.5H2093.75V94.25V125.5V156.75V188H2062.5ZM2062.5 0.5H2093.75V31.75H2062.5H2031.25V0.5H2062.5ZM2156.25 188H2125V156.75V125.5V94.25V63V31.75V0.5H2156.25H2187.5H2218.75H2250H2281.25V31.75V63H2250H2218.75V31.75H2187.5V63V94.25V125.5V156.75V188H2156.25ZM2593.75 188H2562.5V156.75V125.5V94.25V63V31.75H2531.25V63V94.25V125.5V156.75V188H2500H2468.75V156.75V125.5V94.25V63V31.75V0.5H2500H2531.25H2562.5H2593.75H2625V31.75V63V94.25V125.5V156.75V188H2593.75ZM2781.25 188H2750H2718.75H2687.5H2656.25V156.75V125.5V94.25V63H2687.5H2718.75H2750V31.75H2718.75H2687.5V0.5H2718.75H2750H2781.25H2812.5V31.75V63V94.25V125.5V156.75V188H2781.25ZM2750 156.75V125.5V94.25H2718.75V125.5V156.75H2750ZM3062.5 188H3031.25V156.75V125.5V94.25V63V31.75H3000V63V94.25V125.5V156.75V188H2968.75H2937.5V156.75V125.5V94.25V63V31.75H2906.25V63V94.25V125.5V156.75V188H2875H2843.75V156.75V125.5V94.25V63V31.75V0.5H2875H2906.25H2937.5H2968.75H3000H3031.25H3062.5H3093.75V31.75V63V94.25V125.5V156.75V188H3062.5ZM3250 156.75H3281.25V188H3250H3218.75H3187.5H3156.25H3125V156.75V125.5V94.25V63V31.75V0.5H3156.25H3187.5H3218.75H3250H3281.25V31.75V63V94.25V125.5H3250H3218.75H3187.5V156.75H3218.75H3250ZM3218.75 94.25V63V31.75H3187.5V63V94.25H3218.75Z" fill="white"/>
</svg>
