<svg width="2750" height="251" viewBox="0 0 2750 251" fill="none" xmlns="http://www.w3.org/2000/svg">
<path d="M125 250.5H93.75H62.5H31.25H0V219.25H31.25H62.5H93.75V188H62.5H31.25H0V156.75V125.5V94.25V63V31.75V0.5H31.25H62.5V31.75V63V94.25V125.5V156.75H93.75V125.5V94.25V63V31.75V0.5H125H156.25V31.75V63V94.25V125.5V156.75V188V219.25V250.5H125ZM312.5 188H281.25H250H218.75H187.5V156.75V125.5V94.25V63V31.75V0.5H218.75H250H281.25H312.5H343.75V31.75V63V94.25V125.5V156.75V188H312.5ZM281.25 156.75V125.5V94.25V63V31.75H250V63V94.25V125.5V156.75H281.25ZM500 188H468.75H437.5H406.25H375V156.75V125.5V94.25V63V31.75V0.5H406.25H437.5V31.75V63V94.25V125.5V156.75H468.75V125.5V94.25V63V31.75V0.5H500H531.25V31.75V63V94.25V125.5V156.75V188H500ZM593.75 188H562.5V156.75V125.5V94.25V63V31.75V0.5H593.75H625H656.25H687.5H718.75V31.75V63H687.5H656.25V31.75H625V63V94.25V125.5V156.75V188H593.75ZM1031.25 188H1000H968.75H937.5H906.25V156.75V125.5V94.25V63V31.75V0.5H937.5H968.75V31.75V63H1000H1031.25H1062.5V94.25V125.5V156.75V188H1031.25ZM1000 156.75V125.5V94.25H968.75V125.5V156.75H1000ZM1218.75 156.75H1250V188H1218.75H1187.5H1156.25H1125H1093.75V156.75V125.5V94.25V63V31.75V0.5H1125H1156.25H1187.5H1218.75H1250V31.75V63V94.25V125.5H1218.75H1187.5H1156.25V156.75H1187.5H1218.75ZM1187.5 94.25V63V31.75H1156.25V63V94.25H1187.5ZM1406.25 188H1375H1343.75H1312.5H1281.25V156.75V125.5H1312.5H1343.75V156.75H1375V125.5V94.25H1343.75H1312.5H1281.25V63V31.75V0.5H1312.5H1343.75H1375H1406.25H1437.5V31.75H1406.25H1375H1343.75V63H1375H1406.25H1437.5V94.25V125.5V156.75V188H1406.25ZM1562.5 188H1531.25H1500V156.75V125.5V94.25H1468.75V63H1500V31.75V0.5H1531.25H1562.5V31.75V63H1593.75V94.25H1562.5V125.5V156.75H1593.75V188H1562.5ZM1843.75 188H1812.5V156.75V125.5V94.25H1781.25V63H1812.5V31.75V0.5H1843.75H1875H1906.25V31.75H1875V63H1906.25V94.25H1875V125.5V156.75V188H1843.75ZM1968.75 188H1937.5V156.75V125.5V94.25V63V31.75V0.5H1968.75H2000H2031.25H2062.5H2093.75V31.75V63H2062.5H2031.25V31.75H2000V63V94.25V125.5V156.75V188H1968.75ZM2156.25 188H2125V156.75V125.5V94.25V63H2156.25H2187.5V94.25V125.5V156.75V188H2156.25ZM2156.25 0.5H2187.5V31.75H2156.25H2125V0.5H2156.25ZM2343.75 156.75H2375V188H2343.75H2312.5H2281.25H2250H2218.75V156.75V125.5V94.25V63V31.75V0.5H2250H2281.25H2312.5H2343.75H2375V31.75V63V94.25V125.5H2343.75H2312.5H2281.25V156.75H2312.5H2343.75ZM2312.5 94.25V63V31.75H2281.25V63V94.25H2312.5ZM2531.25 188H2500V156.75V125.5V94.25V63V31.75H2468.75V63V94.25V125.5V156.75V188H2437.5H2406.25V156.75V125.5V94.25V63V31.75V0.5H2437.5H2468.75H2500H2531.25H2562.5V31.75V63V94.25V125.5V156.75V188H2531.25ZM2718.75 188H2687.5H2656.25H2625H2593.75V156.75V125.5V94.25V63H2625H2656.25H2687.5V31.75V0.5H2718.75H2750V31.75V63V94.25V125.5V156.75V188H2718.75ZM2687.5 156.75V125.5V94.25H2656.25V125.5V156.75H2687.5Z" fill="white"/>
</svg>
