<svg width="4157" height="251" viewBox="0 0 4157 251" fill="none" xmlns="http://www.w3.org/2000/svg">
<path d="M93.75 188H62.5H31.25V156.75V125.5V94.25H0V63H31.25V31.75V0.5H62.5H93.75V31.75V63H125V94.25H93.75V125.5V156.75H125V188H93.75ZM281.25 188H250V156.75V125.5V94.25H218.75V125.5V156.75V188H187.5H156.25V156.75V125.5V94.25V63V31.75V0.5H187.5H218.75V31.75V63H250H281.25H312.5V94.25V125.5V156.75V188H281.25ZM468.75 188H437.5H406.25H375H343.75V156.75V125.5V94.25V63H375H406.25H437.5V31.75H406.25H375V0.5H406.25H437.5H468.75H500V31.75V63V94.25V125.5V156.75V188H468.75ZM437.5 156.75V125.5V94.25H406.25V125.5V156.75H437.5ZM625 188H593.75H562.5V156.75V125.5V94.25H531.25V63H562.5V31.75V0.5H593.75H625V31.75V63H656.25V94.25H625V125.5V156.75H656.25V188H625ZM906.25 188H875H843.75V156.75V125.5V94.25V63V31.75V0.5H875H906.25V31.75V63V94.25V125.5V156.75H937.5V188H906.25ZM1093.75 156.75H1125V188H1093.75H1062.5H1031.25H1000H968.75V156.75V125.5V94.25V63V31.75V0.5H1000H1031.25H1062.5H1093.75H1125V31.75V63V94.25V125.5H1093.75H1062.5H1031.25V156.75H1062.5H1093.75ZM1062.5 94.25V63V31.75H1031.25V63V94.25H1062.5ZM1250 188H1218.75H1187.5V156.75V125.5V94.25H1156.25V63H1187.5V31.75V0.5H1218.75H1250V31.75V63H1281.25V94.25H1250V125.5V156.75H1281.25V188H1250ZM1593.75 250.5H1562.5H1531.25H1500H1468.75V219.25H1500H1531.25H1562.5V188H1531.25H1500H1468.75V156.75V125.5V94.25V63V31.75V0.5H1500H1531.25V31.75V63V94.25V125.5V156.75H1562.5V125.5V94.25V63V31.75V0.5H1593.75H1625V31.75V63V94.25V125.5V156.75V188V219.25V250.5H1593.75ZM1781.25 188H1750H1718.75H1687.5H1656.25V156.75V125.5V94.25V63V31.75V0.5H1687.5H1718.75H1750H1781.25H1812.5V31.75V63V94.25V125.5V156.75V188H1781.25ZM1750 156.75V125.5V94.25V63V31.75H1718.75V63V94.25V125.5V156.75H1750ZM1968.75 188H1937.5H1906.25H1875H1843.75V156.75V125.5V94.25V63V31.75V0.5H1875H1906.25V31.75V63V94.25V125.5V156.75H1937.5V125.5V94.25V63V31.75V0.5H1968.75H2000V31.75V63V94.25V125.5V156.75V188H1968.75ZM2312.5 250.5H2281.25H2250H2218.75V219.25H2250H2281.25V188H2250H2218.75H2187.5V156.75V125.5V94.25V63V31.75V0.5H2218.75H2250H2281.25H2312.5H2343.75V31.75V63V94.25V125.5V156.75V188V219.25V250.5H2312.5ZM2281.25 156.75V125.5V94.25V63V31.75H2250V63V94.25V125.5V156.75H2281.25ZM2500 156.75H2531.25V188H2500H2468.75H2437.5H2406.25H2375V156.75V125.5V94.25V63V31.75V0.5H2406.25H2437.5H2468.75H2500H2531.25V31.75V63V94.25V125.5H2500H2468.75H2437.5V156.75H2468.75H2500ZM2468.75 94.25V63V31.75H2437.5V63V94.25H2468.75ZM2656.25 188H2625H2593.75V156.75V125.5V94.25H2562.5V63H2593.75V31.75V0.5H2625H2656.25V31.75V63H2687.5V94.25H2656.25V125.5V156.75H2687.5V188H2656.25ZM2968.75 188H2937.5H2906.25V156.75V125.5V94.25H2875V63H2906.25V31.75V0.5H2937.5H2968.75V31.75V63H3000V94.25H2968.75V125.5V156.75H3000V188H2968.75ZM3156.25 188H3125V156.75V125.5V94.25H3093.75V125.5V156.75V188H3062.5H3031.25V156.75V125.5V94.25V63V31.75V0.5H3062.5H3093.75V31.75V63H3125H3156.25H3187.5V94.25V125.5V156.75V188H3156.25ZM3250 188H3218.75V156.75V125.5V94.25V63H3250H3281.25V94.25V125.5V156.75V188H3250ZM3250 0.5H3281.25V31.75H3250H3218.75V0.5H3250ZM3437.5 188H3406.25H3375H3343.75H3312.5V156.75V125.5H3343.75H3375V156.75H3406.25V125.5V94.25H3375H3343.75H3312.5V63V31.75V0.5H3343.75H3375H3406.25H3437.5H3468.75V31.75H3437.5H3406.25H3375V63H3406.25H3437.5H3468.75V94.25V125.5V156.75V188H3437.5ZM3718.75 188H3687.5V156.75V125.5V94.25H3656.25V63H3687.5V31.75V0.5H3718.75H3750H3781.25V31.75H3750V63H3781.25V94.25H3750V125.5V156.75V188H3718.75ZM3937.5 188H3906.25H3875H3843.75H3812.5V156.75V125.5V94.25V63H3843.75H3875H3906.25V31.75H3875H3843.75V0.5H3875H3906.25H3937.5H3968.75V31.75V63V94.25V125.5V156.75V188H3937.5ZM3906.25 156.75V125.5V94.25H3875V125.5V156.75H3906.25ZM4031.25 188H4000V156.75V125.5V94.25V63V31.75V0.5H4031.25H4062.5H4093.75H4125H4156.25V31.75V63H4125H4093.75V31.75H4062.5V63V94.25V125.5V156.75V188H4031.25Z" fill="white"/>
</svg>
