<svg width="2657" height="251" viewBox="0 0 2657 251" fill="none" xmlns="http://www.w3.org/2000/svg">
<path d="M218.75 188H187.5V156.75V125.5V94.25V63V31.75H156.25V63V94.25V125.5V156.75V188H125H93.75V156.75V125.5V94.25V63V31.75H62.5V63V94.25V125.5V156.75V188H31.25H0V156.75V125.5V94.25V63V31.75V0.5H31.25H62.5H93.75H125H156.25H187.5H218.75H250V31.75V63V94.25V125.5V156.75V188H218.75ZM406.25 156.75H437.5V188H406.25H375H343.75H312.5H281.25V156.75V125.5V94.25V63V31.75V0.5H312.5H343.75H375H406.25H437.5V31.75V63V94.25V125.5H406.25H375H343.75V156.75H375H406.25ZM375 94.25V63V31.75H343.75V63V94.25H375ZM593.75 188H562.5H531.25H500H468.75V156.75V125.5H500H531.25V156.75H562.5V125.5V94.25H531.25H500H468.75V63V31.75V0.5H500H531.25H562.5H593.75H625V31.75H593.75H562.5H531.25V63H562.5H593.75H625V94.25V125.5V156.75V188H593.75ZM781.25 188H750H718.75H687.5H656.25V156.75V125.5H687.5H718.75V156.75H750V125.5V94.25H718.75H687.5H656.25V63V31.75V0.5H687.5H718.75H750H781.25H812.5V31.75H781.25H750H718.75V63H750H781.25H812.5V94.25V125.5V156.75V188H781.25ZM875 188H843.75V156.75V125.5V94.25V63H875H906.25V94.25V125.5V156.75V188H875ZM875 0.5H906.25V31.75H875H843.75V0.5H875ZM1062.5 188H1031.25V156.75V125.5V94.25V63V31.75H1000V63V94.25V125.5V156.75V188H968.75H937.5V156.75V125.5V94.25V63V31.75V0.5H968.75H1000H1031.25H1062.5H1093.75V31.75V63V94.25V125.5V156.75V188H1062.5ZM1250 250.5H1218.75H1187.5H1156.25V219.25H1187.5H1218.75V188H1187.5H1156.25H1125V156.75V125.5V94.25V63V31.75V0.5H1156.25H1187.5H1218.75H1250H1281.25V31.75V63V94.25V125.5V156.75V188V219.25V250.5H1250ZM1218.75 156.75V125.5V94.25V63V31.75H1187.5V63V94.25V125.5V156.75H1218.75ZM1593.75 188H1562.5H1531.25H1500H1468.75V156.75V125.5V94.25V63H1500H1531.25H1562.5V31.75H1531.25H1500V0.5H1531.25H1562.5H1593.75H1625V31.75V63V94.25V125.5V156.75V188H1593.75ZM1562.5 156.75V125.5V94.25H1531.25V125.5V156.75H1562.5ZM1687.5 188H1656.25V156.75V125.5V94.25V63V31.75V0.5H1687.5H1718.75H1750H1781.25H1812.5V31.75V63H1781.25H1750V31.75H1718.75V63V94.25V125.5V156.75V188H1687.5ZM1968.75 188H1937.5H1906.25H1875H1843.75V156.75V125.5V94.25V63V31.75V0.5H1875H1906.25H1937.5H1968.75H2000V31.75V63V94.25V125.5V156.75V188H1968.75ZM1937.5 156.75V125.5V94.25V63V31.75H1906.25V63V94.25V125.5V156.75H1937.5ZM2156.25 188H2125H2093.75H2062.5H2031.25V156.75V125.5V94.25V63V31.75V0.5H2062.5H2093.75V31.75V63V94.25V125.5V156.75H2125V125.5V94.25V63V31.75V0.5H2156.25H2187.5V31.75V63V94.25V125.5V156.75V188H2156.25ZM2343.75 188H2312.5V156.75V125.5V94.25V63V31.75H2281.25V63V94.25V125.5V156.75V188H2250H2218.75V156.75V125.5V94.25V63V31.75V0.5H2250H2281.25H2312.5H2343.75H2375V31.75V63V94.25V125.5V156.75V188H2343.75ZM2531.25 188H2500H2468.75H2437.5H2406.25V156.75V125.5V94.25V63H2437.5H2468.75H2500V31.75V0.5H2531.25H2562.5V31.75V63V94.25V125.5V156.75V188H2531.25ZM2500 156.75V125.5V94.25H2468.75V125.5V156.75H2500ZM2625 156.75H2656.25V188H2625H2593.75V156.75H2625ZM2625 125.5H2593.75V94.25V63V31.75V0.5H2625H2656.25V31.75V63V94.25V125.5H2625Z" fill="white"/>
</svg>
